<svg width="51" height="51" viewBox="0 0 51 51" fill="none" xmlns="http://www.w3.org/2000/svg">
<g clip-path="url(#clip0_159_101)">
<path d="M6.73904 18.7926C7.32782 18.2046 8.0076 17.7153 8.75218 17.3438C13.9552 14.7525 19.6874 13.4006 25.5 13.3939C31.312 13.4 37.0436 14.752 42.2457 17.3438C43.6167 18.0241 44.7525 19.0995 45.5066 20.4314C46.2607 21.7632 46.5986 23.2905 46.4767 24.8161L46.1882 28.5581C46.1365 29.231 45.9498 29.8865 45.6394 30.4857C45.329 31.0849 44.9011 31.6155 44.3813 32.0459C43.8615 32.4762 43.2604 32.7975 42.6138 32.9906C41.9671 33.1837 41.2883 33.2447 40.6176 33.1699L34.8603 32.5271C33.9388 32.4228 33.0718 32.0372 32.3772 31.4227C31.6826 30.8082 31.1942 29.9946 30.9783 29.0927L30.2518 26.0327C30.1741 25.7041 29.9879 25.4114 29.7233 25.2018C29.4586 24.9922 29.131 24.878 28.7933 24.8776H22.2173C21.8799 24.8778 21.5525 24.9917 21.2879 25.2009C21.0233 25.4101 20.8369 25.7024 20.7588 26.0306L20.0312 29.0916C19.8162 29.994 19.328 30.808 18.6332 31.4226C17.9385 32.0373 17.071 32.4226 16.1492 32.5261L10.3888 33.1656C9.71813 33.2402 9.03934 33.1791 8.39281 32.9859C7.74628 32.7927 7.14524 32.4714 6.62547 32.0411C6.1057 31.6108 5.67783 31.0803 5.36735 30.4812C5.05686 29.8821 4.8701 29.2267 4.81819 28.5539L4.52969 24.8119C4.44101 23.7085 4.5926 22.599 4.97402 21.5599C5.35543 20.5207 5.95761 19.5766 6.73904 18.7926ZM42.6095 29.6039C42.9514 29.2625 43.1595 28.8098 43.1961 28.328L43.4856 24.5849C43.5601 23.6543 43.3542 22.7228 42.8944 21.9103C42.4347 21.0978 41.7422 20.4415 40.9061 20.0262C36.1198 17.6428 30.8469 16.3995 25.5 16.3934C20.153 16.4001 14.88 17.6442 10.0939 20.0283C9.25783 20.4434 8.5652 21.0994 8.10527 21.9117C7.64534 22.724 7.43917 23.6554 7.51332 24.586L7.80289 28.3269C7.82377 28.5982 7.89907 28.8625 8.02429 29.104C8.14951 29.3456 8.32209 29.5594 8.53173 29.7328C8.74138 29.9062 8.9838 30.0357 9.24453 30.1134C9.50527 30.1911 9.77898 30.2155 10.0494 30.1852L15.8098 29.5456C16.1173 29.5114 16.4067 29.383 16.6384 29.1779C16.87 28.9729 17.0326 28.7012 17.1038 28.4001L17.8304 25.3401C18.061 24.3532 18.6194 23.4736 19.4145 22.845C20.2095 22.2164 21.1942 21.8759 22.2077 21.8792L28.7838 21.8792C29.7987 21.8758 30.7848 22.2168 31.5809 22.8464C32.3769 23.476 32.9359 24.357 33.1665 25.3454L33.893 28.4054C33.9642 28.7065 34.1268 28.9782 34.3585 29.1832C34.5901 29.3883 34.8795 29.5167 35.187 29.5509L40.9506 30.1852C41.2531 30.2197 41.5594 30.1854 41.8467 30.0847C42.134 29.9841 42.3948 29.8197 42.6095 29.6039Z" fill="white"/>
</g>
<defs>
<clipPath id="clip0_159_101">
<rect width="36" height="36" fill="white" transform="translate(50.9558 25.5) rotate(135)"/>
</clipPath>
</defs>
</svg>
