<svg width="400" height="300" viewBox="0 0 400 300" fill="none" xmlns="http://www.w3.org/2000/svg">
<rect width="400" height="300" fill="url(#paint0_linear_46_17)"/>
<rect width="262" height="44" transform="translate(67 128)" fill="#E1E1E1"/>
<path d="M74 151C74 139 78.5 134 89.5 134C100.5 134 106 138.5 106 151C106 163.5 103 166 89.5 166C76 166 74 163 74 151Z" fill="url(#paint1_linear_46_17)"/>
<path d="M89.4937 159.55C89.6456 159.662 89.8256 159.719 90 159.719C90.1744 159.719 90.3544 159.662 90.5063 159.55L91.7269 158.644C94.6969 156.434 96.4688 152.907 96.4688 149.206V145.375C96.4688 145.032 96.2606 144.717 95.94 144.593L90.315 142.343C90.1125 142.259 89.8875 142.259 89.685 142.343L84.06 144.593C83.7394 144.717 83.5312 145.032 83.5312 145.375V149.206C83.5312 152.907 85.3031 156.434 88.2731 158.644L89.4937 159.55Z" fill="white"/>
<path d="M130.416 152.652C130.416 152.204 130.283 151.841 130.016 151.564C129.749 151.276 129.413 151.025 129.008 150.812C128.613 150.588 128.181 150.38 127.712 150.188C127.243 149.996 126.805 149.767 126.4 149.5C126.005 149.223 125.675 148.887 125.408 148.492C125.141 148.087 125.008 147.575 125.008 146.956C125.008 146.081 125.312 145.388 125.92 144.876C126.528 144.364 127.392 144.108 128.512 144.108C129.163 144.108 129.755 144.156 130.288 144.252C130.821 144.348 131.237 144.471 131.536 144.62L131.136 145.788C130.891 145.671 130.528 145.559 130.048 145.452C129.579 145.345 129.045 145.292 128.448 145.292C127.744 145.292 127.216 145.452 126.864 145.772C126.512 146.081 126.336 146.449 126.336 146.876C126.336 147.292 126.469 147.639 126.736 147.916C127.003 148.193 127.333 148.444 127.728 148.668C128.133 148.881 128.571 149.095 129.04 149.308C129.509 149.521 129.941 149.772 130.336 150.06C130.741 150.337 131.077 150.673 131.344 151.068C131.611 151.463 131.744 151.953 131.744 152.54C131.744 153.02 131.659 153.452 131.488 153.836C131.317 154.22 131.067 154.551 130.736 154.828C130.405 155.105 130.005 155.319 129.536 155.468C129.067 155.617 128.533 155.692 127.936 155.692C127.136 155.692 126.475 155.628 125.952 155.5C125.429 155.383 125.024 155.249 124.736 155.1L125.184 153.9C125.429 154.039 125.792 154.177 126.272 154.316C126.752 154.444 127.291 154.508 127.888 154.508C128.24 154.508 128.571 154.476 128.88 154.412C129.189 154.337 129.456 154.225 129.68 154.076C129.904 153.916 130.08 153.719 130.208 153.484C130.347 153.249 130.416 152.972 130.416 152.652ZM139.572 154.86C139.252 155.116 138.847 155.319 138.356 155.468C137.876 155.617 137.364 155.692 136.82 155.692C136.212 155.692 135.684 155.596 135.236 155.404C134.788 155.201 134.42 154.919 134.132 154.556C133.844 154.183 133.631 153.74 133.492 153.228C133.353 152.716 133.284 152.14 133.284 151.5C133.284 150.135 133.588 149.095 134.196 148.38C134.804 147.665 135.673 147.308 136.804 147.308C137.167 147.308 137.529 147.351 137.892 147.436C138.255 147.511 138.58 147.66 138.868 147.884C139.156 148.108 139.391 148.428 139.572 148.844C139.753 149.249 139.844 149.788 139.844 150.46C139.844 150.812 139.812 151.201 139.748 151.628H134.612C134.612 152.097 134.66 152.513 134.756 152.876C134.852 153.239 135.001 153.548 135.204 153.804C135.407 154.049 135.668 154.241 135.988 154.38C136.319 154.508 136.719 154.572 137.188 154.572C137.551 154.572 137.913 154.508 138.276 154.38C138.639 154.252 138.911 154.103 139.092 153.932L139.572 154.86ZM136.82 148.428C136.191 148.428 135.684 148.593 135.3 148.924C134.927 149.255 134.703 149.82 134.628 150.62H138.596C138.596 149.809 138.441 149.244 138.132 148.924C137.823 148.593 137.385 148.428 136.82 148.428ZM147.141 154.972C146.821 155.207 146.442 155.383 146.005 155.5C145.568 155.628 145.109 155.692 144.629 155.692C144.01 155.692 143.488 155.596 143.061 155.404C142.634 155.201 142.282 154.919 142.005 154.556C141.738 154.183 141.541 153.74 141.413 153.228C141.296 152.705 141.237 152.129 141.237 151.5C141.237 150.145 141.536 149.111 142.133 148.396C142.73 147.671 143.589 147.308 144.709 147.308C145.221 147.308 145.653 147.351 146.005 147.436C146.368 147.511 146.693 147.623 146.981 147.772L146.613 148.876C146.368 148.737 146.096 148.631 145.797 148.556C145.498 148.471 145.178 148.428 144.837 148.428C143.322 148.428 142.565 149.452 142.565 151.5C142.565 151.905 142.602 152.295 142.677 152.668C142.762 153.031 142.896 153.356 143.077 153.644C143.269 153.921 143.514 154.145 143.813 154.316C144.122 154.487 144.501 154.572 144.949 154.572C145.333 154.572 145.674 154.513 145.973 154.396C146.282 154.279 146.533 154.145 146.725 153.996L147.141 154.972ZM150.056 147.5V152.06C150.056 152.476 150.077 152.844 150.12 153.164C150.173 153.473 150.259 153.735 150.376 153.948C150.493 154.151 150.653 154.305 150.856 154.412C151.059 154.519 151.315 154.572 151.624 154.572C151.912 154.572 152.168 154.529 152.392 154.444C152.616 154.348 152.813 154.22 152.984 154.06C153.165 153.9 153.32 153.719 153.448 153.516C153.587 153.303 153.699 153.079 153.784 152.844V147.5H155.064V153.228C155.064 153.612 155.075 154.012 155.096 154.428C155.128 154.833 155.176 155.191 155.24 155.5H154.36L154.04 154.236H153.96C153.715 154.652 153.384 154.999 152.968 155.276C152.552 155.553 152.024 155.692 151.384 155.692C150.957 155.692 150.579 155.639 150.248 155.532C149.928 155.436 149.656 155.26 149.432 155.004C149.219 154.748 149.053 154.407 148.936 153.98C148.829 153.543 148.776 152.993 148.776 152.332V147.5H150.056ZM161.305 148.732C160.985 148.625 160.681 148.572 160.393 148.572C159.934 148.572 159.572 148.7 159.305 148.956C159.038 149.201 158.873 149.516 158.809 149.9V155.5H157.529V147.5H158.425L158.665 148.476H158.729C158.932 148.113 159.172 147.836 159.449 147.644C159.737 147.441 160.1 147.34 160.537 147.34C160.846 147.34 161.193 147.393 161.577 147.5L161.305 148.732ZM163.238 147.5H164.518V155.5H163.238V147.5ZM162.966 145.068C162.966 144.823 163.046 144.615 163.206 144.444C163.377 144.263 163.59 144.172 163.846 144.172C164.102 144.172 164.321 144.263 164.502 144.444C164.684 144.615 164.774 144.823 164.774 145.068C164.774 145.313 164.684 145.516 164.502 145.676C164.321 145.836 164.102 145.916 163.846 145.916C163.59 145.916 163.377 145.836 163.206 145.676C163.046 145.516 162.966 145.313 162.966 145.068ZM166.192 147.5H167.44V145.916L168.72 145.548V147.5H170.896V148.62H168.72V153.052C168.72 153.607 168.789 154.001 168.928 154.236C169.066 154.46 169.301 154.572 169.632 154.572C169.909 154.572 170.144 154.545 170.336 154.492C170.528 154.428 170.741 154.348 170.976 154.252L171.264 155.228C170.976 155.367 170.661 155.479 170.32 155.564C169.978 155.649 169.61 155.692 169.216 155.692C168.565 155.692 168.106 155.511 167.84 155.148C167.573 154.775 167.44 154.156 167.44 153.292V148.62H166.192V147.5ZM175.022 152.684L175.47 154.22H175.549L175.902 152.668L177.454 147.5H178.75L176.382 154.684C176.2 155.207 176.019 155.713 175.838 156.204C175.667 156.695 175.475 157.132 175.262 157.516C175.048 157.9 174.808 158.204 174.542 158.428C174.275 158.663 173.966 158.78 173.614 158.78C173.23 158.78 172.915 158.727 172.67 158.62L172.894 157.516C173.032 157.569 173.166 157.596 173.294 157.596C173.592 157.596 173.88 157.436 174.158 157.116C174.435 156.807 174.664 156.268 174.846 155.5L171.63 147.5H173.102L175.022 152.684ZM183.682 148.092C184.087 147.847 184.557 147.665 185.09 147.548C185.634 147.431 186.199 147.372 186.786 147.372C187.341 147.372 187.783 147.447 188.114 147.596C188.455 147.745 188.711 147.943 188.882 148.188C189.063 148.423 189.181 148.684 189.234 148.972C189.298 149.26 189.33 149.548 189.33 149.836C189.33 150.476 189.314 151.1 189.282 151.708C189.25 152.316 189.234 152.892 189.234 153.436C189.234 153.831 189.25 154.204 189.282 154.556C189.314 154.908 189.373 155.233 189.458 155.532H188.514L188.178 154.412H188.098C188.002 154.561 187.879 154.711 187.73 154.86C187.591 154.999 187.421 155.127 187.218 155.244C187.015 155.351 186.781 155.441 186.514 155.516C186.247 155.591 185.943 155.628 185.602 155.628C185.261 155.628 184.941 155.575 184.642 155.468C184.354 155.361 184.103 155.212 183.89 155.02C183.677 154.817 183.506 154.577 183.378 154.3C183.261 154.023 183.202 153.708 183.202 153.356C183.202 152.887 183.298 152.497 183.49 152.188C183.682 151.868 183.949 151.617 184.29 151.436C184.642 151.244 185.058 151.111 185.538 151.036C186.029 150.951 186.567 150.908 187.154 150.908C187.303 150.908 187.447 150.908 187.586 150.908C187.735 150.908 187.885 150.919 188.034 150.94C188.066 150.62 188.082 150.332 188.082 150.076C188.082 149.489 187.965 149.079 187.73 148.844C187.495 148.609 187.069 148.492 186.45 148.492C186.269 148.492 186.071 148.508 185.858 148.54C185.655 148.561 185.442 148.599 185.218 148.652C185.005 148.695 184.797 148.753 184.594 148.828C184.402 148.892 184.231 148.967 184.082 149.052L183.682 148.092ZM185.954 154.508C186.253 154.508 186.519 154.471 186.754 154.396C186.989 154.311 187.191 154.209 187.362 154.092C187.533 153.964 187.671 153.825 187.778 153.676C187.895 153.527 187.981 153.383 188.034 153.244V151.916C187.885 151.905 187.73 151.9 187.57 151.9C187.421 151.889 187.271 151.884 187.122 151.884C186.791 151.884 186.466 151.905 186.146 151.948C185.837 151.98 185.559 152.049 185.314 152.156C185.079 152.252 184.887 152.391 184.738 152.572C184.599 152.743 184.53 152.961 184.53 153.228C184.53 153.601 184.663 153.911 184.93 154.156C185.197 154.391 185.538 154.508 185.954 154.508ZM196.884 155.5V150.94C196.884 150.108 196.761 149.484 196.516 149.068C196.281 148.641 195.844 148.428 195.204 148.428C194.638 148.428 194.169 148.583 193.796 148.892C193.433 149.191 193.177 149.569 193.028 150.028V155.5H191.748V147.5H192.644L192.884 148.476H192.948C193.204 148.135 193.545 147.857 193.972 147.644C194.409 147.42 194.926 147.308 195.524 147.308C195.961 147.308 196.345 147.361 196.676 147.468C197.006 147.564 197.278 147.74 197.492 147.996C197.716 148.252 197.881 148.599 197.988 149.036C198.105 149.463 198.164 150.007 198.164 150.668V155.5H196.884ZM206.642 152.748C206.642 153.292 206.647 153.788 206.658 154.236C206.668 154.673 206.716 155.105 206.802 155.532H205.938L205.618 154.396H205.554C205.34 154.769 205.031 155.079 204.626 155.324C204.22 155.569 203.746 155.692 203.202 155.692C202.135 155.692 201.34 155.356 200.818 154.684C200.306 154.012 200.05 152.961 200.05 151.532C200.05 150.167 200.37 149.132 201.01 148.428C201.66 147.713 202.551 147.356 203.682 147.356C204.076 147.356 204.386 147.377 204.61 147.42C204.844 147.463 205.095 147.532 205.362 147.628V144.3H206.642V152.748ZM203.41 154.572C203.954 154.572 204.386 154.433 204.706 154.156C205.026 153.868 205.244 153.436 205.362 152.86V148.892C205.17 148.743 204.951 148.636 204.706 148.572C204.46 148.508 204.135 148.476 203.73 148.476C202.994 148.476 202.418 148.721 202.002 149.212C201.586 149.692 201.378 150.465 201.378 151.532C201.378 151.969 201.41 152.375 201.474 152.748C201.548 153.121 201.666 153.441 201.826 153.708C201.986 153.975 202.194 154.188 202.45 154.348C202.716 154.497 203.036 154.572 203.41 154.572ZM219.517 152.748C219.517 153.292 219.522 153.788 219.533 154.236C219.543 154.673 219.591 155.105 219.677 155.532H218.813L218.493 154.396H218.429C218.215 154.769 217.906 155.079 217.501 155.324C217.095 155.569 216.621 155.692 216.077 155.692C215.01 155.692 214.215 155.356 213.693 154.684C213.181 154.012 212.925 152.961 212.925 151.532C212.925 150.167 213.245 149.132 213.885 148.428C214.535 147.713 215.426 147.356 216.557 147.356C216.951 147.356 217.261 147.377 217.485 147.42C217.719 147.463 217.97 147.532 218.237 147.628V144.3H219.517V152.748ZM216.285 154.572C216.829 154.572 217.261 154.433 217.581 154.156C217.901 153.868 218.119 153.436 218.237 152.86V148.892C218.045 148.743 217.826 148.636 217.581 148.572C217.335 148.508 217.01 148.476 216.605 148.476C215.869 148.476 215.293 148.721 214.877 149.212C214.461 149.692 214.253 150.465 214.253 151.532C214.253 151.969 214.285 152.375 214.349 152.748C214.423 153.121 214.541 153.441 214.701 153.708C214.861 153.975 215.069 154.188 215.325 154.348C215.591 154.497 215.911 154.572 216.285 154.572ZM221.854 148.092C222.259 147.847 222.729 147.665 223.262 147.548C223.806 147.431 224.371 147.372 224.958 147.372C225.513 147.372 225.955 147.447 226.286 147.596C226.627 147.745 226.883 147.943 227.054 148.188C227.235 148.423 227.353 148.684 227.406 148.972C227.47 149.26 227.502 149.548 227.502 149.836C227.502 150.476 227.486 151.1 227.454 151.708C227.422 152.316 227.406 152.892 227.406 153.436C227.406 153.831 227.422 154.204 227.454 154.556C227.486 154.908 227.545 155.233 227.63 155.532H226.686L226.35 154.412H226.27C226.174 154.561 226.051 154.711 225.902 154.86C225.763 154.999 225.593 155.127 225.39 155.244C225.187 155.351 224.953 155.441 224.686 155.516C224.419 155.591 224.115 155.628 223.774 155.628C223.433 155.628 223.113 155.575 222.814 155.468C222.526 155.361 222.275 155.212 222.062 155.02C221.849 154.817 221.678 154.577 221.55 154.3C221.433 154.023 221.374 153.708 221.374 153.356C221.374 152.887 221.47 152.497 221.662 152.188C221.854 151.868 222.121 151.617 222.462 151.436C222.814 151.244 223.23 151.111 223.71 151.036C224.201 150.951 224.739 150.908 225.326 150.908C225.475 150.908 225.619 150.908 225.758 150.908C225.907 150.908 226.057 150.919 226.206 150.94C226.238 150.62 226.254 150.332 226.254 150.076C226.254 149.489 226.137 149.079 225.902 148.844C225.667 148.609 225.241 148.492 224.622 148.492C224.441 148.492 224.243 148.508 224.03 148.54C223.827 148.561 223.614 148.599 223.39 148.652C223.177 148.695 222.969 148.753 222.766 148.828C222.574 148.892 222.403 148.967 222.254 149.052L221.854 148.092ZM224.126 154.508C224.425 154.508 224.691 154.471 224.926 154.396C225.161 154.311 225.363 154.209 225.534 154.092C225.705 153.964 225.843 153.825 225.95 153.676C226.067 153.527 226.153 153.383 226.206 153.244V151.916C226.057 151.905 225.902 151.9 225.742 151.9C225.593 151.889 225.443 151.884 225.294 151.884C224.963 151.884 224.638 151.905 224.318 151.948C224.009 151.98 223.731 152.049 223.486 152.156C223.251 152.252 223.059 152.391 222.91 152.572C222.771 152.743 222.702 152.961 222.702 153.228C222.702 153.601 222.835 153.911 223.102 154.156C223.369 154.391 223.71 154.508 224.126 154.508ZM228.864 147.5H230.112V145.916L231.392 145.548V147.5H233.568V148.62H231.392V153.052C231.392 153.607 231.461 154.001 231.6 154.236C231.738 154.46 231.973 154.572 232.304 154.572C232.581 154.572 232.816 154.545 233.008 154.492C233.2 154.428 233.413 154.348 233.648 154.252L233.936 155.228C233.648 155.367 233.333 155.479 232.992 155.564C232.65 155.649 232.282 155.692 231.888 155.692C231.237 155.692 230.778 155.511 230.512 155.148C230.245 154.775 230.112 154.156 230.112 153.292V148.62H228.864V147.5ZM235.213 148.092C235.619 147.847 236.088 147.665 236.621 147.548C237.165 147.431 237.731 147.372 238.317 147.372C238.872 147.372 239.315 147.447 239.645 147.596C239.987 147.745 240.243 147.943 240.413 148.188C240.595 148.423 240.712 148.684 240.765 148.972C240.829 149.26 240.861 149.548 240.861 149.836C240.861 150.476 240.845 151.1 240.813 151.708C240.781 152.316 240.765 152.892 240.765 153.436C240.765 153.831 240.781 154.204 240.813 154.556C240.845 154.908 240.904 155.233 240.989 155.532H240.045L239.709 154.412H239.629C239.533 154.561 239.411 154.711 239.261 154.86C239.123 154.999 238.952 155.127 238.749 155.244C238.547 155.351 238.312 155.441 238.045 155.516C237.779 155.591 237.475 155.628 237.133 155.628C236.792 155.628 236.472 155.575 236.173 155.468C235.885 155.361 235.635 155.212 235.421 155.02C235.208 154.817 235.037 154.577 234.909 154.3C234.792 154.023 234.733 153.708 234.733 153.356C234.733 152.887 234.829 152.497 235.021 152.188C235.213 151.868 235.48 151.617 235.821 151.436C236.173 151.244 236.589 151.111 237.069 151.036C237.56 150.951 238.099 150.908 238.685 150.908C238.835 150.908 238.979 150.908 239.117 150.908C239.267 150.908 239.416 150.919 239.565 150.94C239.597 150.62 239.613 150.332 239.613 150.076C239.613 149.489 239.496 149.079 239.261 148.844C239.027 148.609 238.6 148.492 237.981 148.492C237.8 148.492 237.603 148.508 237.389 148.54C237.187 148.561 236.973 148.599 236.749 148.652C236.536 148.695 236.328 148.753 236.125 148.828C235.933 148.892 235.763 148.967 235.613 149.052L235.213 148.092ZM237.485 154.508C237.784 154.508 238.051 154.471 238.285 154.396C238.52 154.311 238.723 154.209 238.893 154.092C239.064 153.964 239.203 153.825 239.309 153.676C239.427 153.527 239.512 153.383 239.565 153.244V151.916C239.416 151.905 239.261 151.9 239.101 151.9C238.952 151.889 238.803 151.884 238.653 151.884C238.323 151.884 237.997 151.905 237.677 151.948C237.368 151.98 237.091 152.049 236.845 152.156C236.611 152.252 236.419 152.391 236.269 152.572C236.131 152.743 236.061 152.961 236.061 153.228C236.061 153.601 236.195 153.911 236.461 154.156C236.728 154.391 237.069 154.508 237.485 154.508ZM247.545 147.5H248.424L248.664 148.46H248.729C248.974 148.087 249.289 147.804 249.673 147.612C250.067 147.409 250.515 147.308 251.016 147.308C252.083 147.308 252.878 147.623 253.401 148.252C253.923 148.881 254.185 149.911 254.185 151.34C254.185 152.012 254.094 152.62 253.913 153.164C253.742 153.697 253.497 154.151 253.177 154.524C252.857 154.897 252.467 155.185 252.009 155.388C251.561 155.591 251.059 155.692 250.505 155.692C250.11 155.692 249.795 155.665 249.561 155.612C249.337 155.569 249.091 155.489 248.825 155.372V158.7H247.545V147.5ZM250.777 148.428C250.233 148.428 249.801 148.572 249.481 148.86C249.171 149.137 248.953 149.564 248.825 150.14V154.108C249.017 154.257 249.235 154.375 249.481 154.46C249.726 154.535 250.051 154.572 250.457 154.572C251.193 154.572 251.774 154.3 252.201 153.756C252.638 153.201 252.857 152.391 252.857 151.324C252.857 150.887 252.819 150.492 252.745 150.14C252.67 149.777 252.547 149.473 252.377 149.228C252.217 148.972 252.003 148.775 251.737 148.636C251.481 148.497 251.161 148.428 250.777 148.428ZM259.977 148.732C259.657 148.625 259.353 148.572 259.065 148.572C258.606 148.572 258.243 148.7 257.977 148.956C257.71 149.201 257.545 149.516 257.481 149.9V155.5H256.201V147.5H257.097L257.337 148.476H257.401C257.603 148.113 257.843 147.836 258.121 147.644C258.409 147.441 258.771 147.34 259.209 147.34C259.518 147.34 259.865 147.393 260.249 147.5L259.977 148.732ZM261.91 147.5H263.19V155.5H261.91V147.5ZM261.638 145.068C261.638 144.823 261.718 144.615 261.878 144.444C262.049 144.263 262.262 144.172 262.518 144.172C262.774 144.172 262.993 144.263 263.174 144.444C263.356 144.615 263.446 144.823 263.446 145.068C263.446 145.313 263.356 145.516 263.174 145.676C262.993 145.836 262.774 145.916 262.518 145.916C262.262 145.916 262.049 145.836 261.878 145.676C261.718 145.516 261.638 145.313 261.638 145.068ZM268.224 152.188L268.672 153.708H268.688L269.088 152.156L270.88 147.5H272.256L268.848 155.676H268.304L264.832 147.5H266.304L268.224 152.188ZM273.51 148.092C273.916 147.847 274.385 147.665 274.918 147.548C275.462 147.431 276.028 147.372 276.614 147.372C277.169 147.372 277.612 147.447 277.942 147.596C278.284 147.745 278.54 147.943 278.71 148.188C278.892 148.423 279.009 148.684 279.062 148.972C279.126 149.26 279.158 149.548 279.158 149.836C279.158 150.476 279.142 151.1 279.11 151.708C279.078 152.316 279.062 152.892 279.062 153.436C279.062 153.831 279.078 154.204 279.11 154.556C279.142 154.908 279.201 155.233 279.286 155.532H278.342L278.006 154.412H277.926C277.83 154.561 277.708 154.711 277.558 154.86C277.42 154.999 277.249 155.127 277.046 155.244C276.844 155.351 276.609 155.441 276.342 155.516C276.076 155.591 275.772 155.628 275.43 155.628C275.089 155.628 274.769 155.575 274.47 155.468C274.182 155.361 273.932 155.212 273.718 155.02C273.505 154.817 273.334 154.577 273.206 154.3C273.089 154.023 273.03 153.708 273.03 153.356C273.03 152.887 273.126 152.497 273.318 152.188C273.51 151.868 273.777 151.617 274.118 151.436C274.47 151.244 274.886 151.111 275.366 151.036C275.857 150.951 276.396 150.908 276.982 150.908C277.132 150.908 277.276 150.908 277.414 150.908C277.564 150.908 277.713 150.919 277.862 150.94C277.894 150.62 277.91 150.332 277.91 150.076C277.91 149.489 277.793 149.079 277.558 148.844C277.324 148.609 276.897 148.492 276.278 148.492C276.097 148.492 275.9 148.508 275.686 148.54C275.484 148.561 275.27 148.599 275.046 148.652C274.833 148.695 274.625 148.753 274.422 148.828C274.23 148.892 274.06 148.967 273.91 149.052L273.51 148.092ZM275.782 154.508C276.081 154.508 276.348 154.471 276.582 154.396C276.817 154.311 277.02 154.209 277.19 154.092C277.361 153.964 277.5 153.825 277.606 153.676C277.724 153.527 277.809 153.383 277.862 153.244V151.916C277.713 151.905 277.558 151.9 277.398 151.9C277.249 151.889 277.1 151.884 276.95 151.884C276.62 151.884 276.294 151.905 275.974 151.948C275.665 151.98 275.388 152.049 275.142 152.156C274.908 152.252 274.716 152.391 274.566 152.572C274.428 152.743 274.358 152.961 274.358 153.228C274.358 153.601 274.492 153.911 274.758 154.156C275.025 154.391 275.366 154.508 275.782 154.508ZM287.032 154.972C286.712 155.207 286.333 155.383 285.896 155.5C285.458 155.628 285 155.692 284.52 155.692C283.901 155.692 283.378 155.596 282.952 155.404C282.525 155.201 282.173 154.919 281.896 154.556C281.629 154.183 281.432 153.74 281.304 153.228C281.186 152.705 281.128 152.129 281.128 151.5C281.128 150.145 281.426 149.111 282.024 148.396C282.621 147.671 283.48 147.308 284.6 147.308C285.112 147.308 285.544 147.351 285.896 147.436C286.258 147.511 286.584 147.623 286.872 147.772L286.504 148.876C286.258 148.737 285.986 148.631 285.688 148.556C285.389 148.471 285.069 148.428 284.728 148.428C283.213 148.428 282.456 149.452 282.456 151.5C282.456 151.905 282.493 152.295 282.568 152.668C282.653 153.031 282.786 153.356 282.968 153.644C283.16 153.921 283.405 154.145 283.704 154.316C284.013 154.487 284.392 154.572 284.84 154.572C285.224 154.572 285.565 154.513 285.864 154.396C286.173 154.279 286.424 154.145 286.616 153.996L287.032 154.972ZM290.959 152.684L291.407 154.22H291.487L291.839 152.668L293.391 147.5H294.687L292.319 154.684C292.138 155.207 291.956 155.713 291.775 156.204C291.604 156.695 291.412 157.132 291.199 157.516C290.986 157.9 290.746 158.204 290.479 158.428C290.212 158.663 289.903 158.78 289.551 158.78C289.167 158.78 288.852 158.727 288.607 158.62L288.831 157.516C288.97 157.569 289.103 157.596 289.231 157.596C289.53 157.596 289.818 157.436 290.095 157.116C290.372 156.807 290.602 156.268 290.783 155.5L287.567 147.5H289.039L290.959 152.684Z" fill="black"/>
<path d="M67 172H329V208C329 212.418 325.418 216 321 216H75C70.5817 216 67 212.418 67 208V172Z" fill="white"/>
<path d="M74 195C74 183 78.5 178 89.5 178C100.5 178 106 182.5 106 195C106 207.5 103 210 89.5 210C76 210 74 207 74 195Z" fill="url(#paint2_linear_46_17)"/>
<path d="M82.1174 191.461C82.4773 190.352 83.0701 189.335 83.8523 188.473C83.9845 188.327 84.192 188.275 84.3778 188.342L86.2471 189.007C86.7539 189.187 87.3115 188.925 87.4926 188.42C87.5105 188.37 87.5242 188.319 87.5336 188.268L87.8898 186.321C87.9252 186.128 88.0745 185.975 88.2677 185.934C88.8331 185.814 89.4127 185.753 90 185.753C90.5869 185.753 91.1662 185.814 91.7313 185.933C91.9245 185.974 92.0737 186.127 92.1092 186.321L92.4663 188.268C92.5629 188.795 93.0703 189.144 93.5998 189.048C93.6519 189.039 93.7031 189.025 93.7528 189.007L95.6222 188.342C95.8079 188.275 96.0154 188.327 96.1477 188.473C96.9299 189.335 97.5227 190.352 97.8827 191.461C97.9433 191.648 97.8847 191.853 97.7343 191.98L96.2192 193.261C95.809 193.607 95.7588 194.22 96.1071 194.628C96.1414 194.668 96.1789 194.706 96.2192 194.74L97.7343 196.021C97.8847 196.148 97.9433 196.353 97.8827 196.54C97.5227 197.648 96.9299 198.665 96.1477 199.527C96.0154 199.673 95.8079 199.725 95.6222 199.659L93.7528 198.993C93.2462 198.813 92.6885 199.076 92.5074 199.58C92.4895 199.63 92.4758 199.681 92.4663 199.733L92.1092 201.68C92.0737 201.873 91.9245 202.026 91.7313 202.067C91.1662 202.187 90.5869 202.247 90 202.247C89.4127 202.247 88.8331 202.187 88.2677 202.067C88.0745 202.026 87.9252 201.873 87.8898 201.679L87.5337 199.733C87.4371 199.206 86.9297 198.856 86.4002 198.952C86.3481 198.962 86.2969 198.975 86.2472 198.993L84.3778 199.659C84.192 199.725 83.9845 199.673 83.8523 199.527C83.0701 198.665 82.4773 197.648 82.1174 196.54C82.0567 196.353 82.1152 196.148 82.2657 196.021L83.7808 194.74C84.191 194.393 84.2412 193.781 83.8929 193.372C83.8586 193.332 83.8211 193.295 83.7808 193.261L82.2657 191.98C82.1152 191.853 82.0567 191.648 82.1174 191.461ZM87.5936 194C87.5936 195.329 88.6709 196.406 89.9998 196.406C91.3288 196.406 92.4061 195.329 92.4061 194C92.4061 192.671 91.3288 191.594 89.9998 191.594C88.6709 191.594 87.5936 192.671 87.5936 194Z" fill="white"/>
<path d="M130.688 196.396H126.56L125.44 199.5H124.128L128.368 188.124H128.976L133.232 199.5H131.84L130.688 196.396ZM126.992 195.244H130.288L129.04 191.836L128.64 190.14H128.624L128.224 191.868L126.992 195.244ZM140.735 196.748C140.735 197.292 140.741 197.788 140.751 198.236C140.762 198.673 140.81 199.105 140.895 199.532H140.031L139.711 198.396H139.647C139.434 198.769 139.125 199.079 138.719 199.324C138.314 199.569 137.839 199.692 137.295 199.692C136.229 199.692 135.434 199.356 134.911 198.684C134.399 198.012 134.143 196.961 134.143 195.532C134.143 194.167 134.463 193.132 135.103 192.428C135.754 191.713 136.645 191.356 137.775 191.356C138.17 191.356 138.479 191.377 138.703 191.42C138.938 191.463 139.189 191.532 139.455 191.628V188.3H140.735V196.748ZM137.503 198.572C138.047 198.572 138.479 198.433 138.799 198.156C139.119 197.868 139.338 197.436 139.455 196.86V192.892C139.263 192.743 139.045 192.636 138.799 192.572C138.554 192.508 138.229 192.476 137.823 192.476C137.087 192.476 136.511 192.721 136.095 193.212C135.679 193.692 135.471 194.465 135.471 195.532C135.471 195.969 135.503 196.375 135.567 196.748C135.642 197.121 135.759 197.441 135.919 197.708C136.079 197.975 136.287 198.188 136.543 198.348C136.81 198.497 137.13 198.572 137.503 198.572ZM145.505 196.188L145.953 197.708H145.969L146.369 196.156L148.161 191.5H149.537L146.129 199.676H145.585L142.113 191.5H143.585L145.505 196.188ZM150.792 192.092C151.197 191.847 151.666 191.665 152.2 191.548C152.744 191.431 153.309 191.372 153.896 191.372C154.45 191.372 154.893 191.447 155.224 191.596C155.565 191.745 155.821 191.943 155.992 192.188C156.173 192.423 156.29 192.684 156.344 192.972C156.408 193.26 156.44 193.548 156.44 193.836C156.44 194.476 156.424 195.1 156.392 195.708C156.36 196.316 156.344 196.892 156.344 197.436C156.344 197.831 156.36 198.204 156.392 198.556C156.424 198.908 156.482 199.233 156.568 199.532H155.624L155.288 198.412H155.208C155.112 198.561 154.989 198.711 154.84 198.86C154.701 198.999 154.53 199.127 154.328 199.244C154.125 199.351 153.89 199.441 153.624 199.516C153.357 199.591 153.053 199.628 152.712 199.628C152.37 199.628 152.05 199.575 151.752 199.468C151.464 199.361 151.213 199.212 151 199.02C150.786 198.817 150.616 198.577 150.488 198.3C150.37 198.023 150.312 197.708 150.312 197.356C150.312 196.887 150.408 196.497 150.6 196.188C150.792 195.868 151.058 195.617 151.4 195.436C151.752 195.244 152.168 195.111 152.648 195.036C153.138 194.951 153.677 194.908 154.264 194.908C154.413 194.908 154.557 194.908 154.696 194.908C154.845 194.908 154.994 194.919 155.144 194.94C155.176 194.62 155.192 194.332 155.192 194.076C155.192 193.489 155.074 193.079 154.84 192.844C154.605 192.609 154.178 192.492 153.56 192.492C153.378 192.492 153.181 192.508 152.968 192.54C152.765 192.561 152.552 192.599 152.328 192.652C152.114 192.695 151.906 192.753 151.704 192.828C151.512 192.892 151.341 192.967 151.192 193.052L150.792 192.092ZM153.064 198.508C153.362 198.508 153.629 198.471 153.864 198.396C154.098 198.311 154.301 198.209 154.472 198.092C154.642 197.964 154.781 197.825 154.888 197.676C155.005 197.527 155.09 197.383 155.144 197.244V195.916C154.994 195.905 154.84 195.9 154.68 195.9C154.53 195.889 154.381 195.884 154.232 195.884C153.901 195.884 153.576 195.905 153.256 195.948C152.946 195.98 152.669 196.049 152.424 196.156C152.189 196.252 151.997 196.391 151.848 196.572C151.709 196.743 151.64 196.961 151.64 197.228C151.64 197.601 151.773 197.911 152.039 198.156C152.306 198.391 152.648 198.508 153.064 198.508ZM163.993 199.5V194.94C163.993 194.108 163.87 193.484 163.625 193.068C163.39 192.641 162.953 192.428 162.313 192.428C161.748 192.428 161.278 192.583 160.905 192.892C160.542 193.191 160.286 193.569 160.137 194.028V199.5H158.857V191.5H159.753L159.993 192.476H160.057C160.313 192.135 160.654 191.857 161.081 191.644C161.518 191.42 162.036 191.308 162.633 191.308C163.07 191.308 163.454 191.361 163.785 191.468C164.116 191.564 164.388 191.74 164.601 191.996C164.825 192.252 164.99 192.599 165.097 193.036C165.214 193.463 165.273 194.007 165.273 194.668V199.5H163.993ZM173.063 198.972C172.743 199.207 172.364 199.383 171.927 199.5C171.49 199.628 171.031 199.692 170.551 199.692C169.932 199.692 169.41 199.596 168.983 199.404C168.556 199.201 168.204 198.919 167.927 198.556C167.66 198.183 167.463 197.74 167.335 197.228C167.218 196.705 167.159 196.129 167.159 195.5C167.159 194.145 167.458 193.111 168.055 192.396C168.652 191.671 169.511 191.308 170.631 191.308C171.143 191.308 171.575 191.351 171.927 191.436C172.29 191.511 172.615 191.623 172.903 191.772L172.535 192.876C172.29 192.737 172.018 192.631 171.719 192.556C171.42 192.471 171.1 192.428 170.759 192.428C169.244 192.428 168.487 193.452 168.487 195.5C168.487 195.905 168.524 196.295 168.599 196.668C168.684 197.031 168.818 197.356 168.999 197.644C169.191 197.921 169.436 198.145 169.735 198.316C170.044 198.487 170.423 198.572 170.871 198.572C171.255 198.572 171.596 198.513 171.895 198.396C172.204 198.279 172.455 198.145 172.647 197.996L173.063 198.972ZM180.291 198.86C179.971 199.116 179.565 199.319 179.075 199.468C178.595 199.617 178.083 199.692 177.539 199.692C176.931 199.692 176.403 199.596 175.955 199.404C175.507 199.201 175.139 198.919 174.851 198.556C174.563 198.183 174.349 197.74 174.211 197.228C174.072 196.716 174.003 196.14 174.003 195.5C174.003 194.135 174.307 193.095 174.915 192.38C175.523 191.665 176.392 191.308 177.523 191.308C177.885 191.308 178.248 191.351 178.611 191.436C178.973 191.511 179.299 191.66 179.587 191.884C179.875 192.108 180.109 192.428 180.291 192.844C180.472 193.249 180.563 193.788 180.563 194.46C180.563 194.812 180.531 195.201 180.467 195.628H175.331C175.331 196.097 175.379 196.513 175.475 196.876C175.571 197.239 175.72 197.548 175.923 197.804C176.125 198.049 176.387 198.241 176.707 198.38C177.037 198.508 177.437 198.572 177.907 198.572C178.269 198.572 178.632 198.508 178.995 198.38C179.357 198.252 179.629 198.103 179.811 197.932L180.291 198.86ZM177.539 192.428C176.909 192.428 176.403 192.593 176.019 192.924C175.645 193.255 175.421 193.82 175.347 194.62H179.315C179.315 193.809 179.16 193.244 178.851 192.924C178.541 192.593 178.104 192.428 177.539 192.428ZM188.72 196.748C188.72 197.292 188.725 197.788 188.736 198.236C188.746 198.673 188.794 199.105 188.88 199.532H188.016L187.696 198.396H187.632C187.418 198.769 187.109 199.079 186.704 199.324C186.298 199.569 185.824 199.692 185.28 199.692C184.213 199.692 183.418 199.356 182.896 198.684C182.384 198.012 182.128 196.961 182.128 195.532C182.128 194.167 182.448 193.132 183.088 192.428C183.738 191.713 184.629 191.356 185.76 191.356C186.154 191.356 186.464 191.377 186.688 191.42C186.922 191.463 187.173 191.532 187.44 191.628V188.3H188.72V196.748ZM185.488 198.572C186.032 198.572 186.464 198.433 186.784 198.156C187.104 197.868 187.322 197.436 187.44 196.86V192.892C187.248 192.743 187.029 192.636 186.784 192.572C186.538 192.508 186.213 192.476 185.808 192.476C185.072 192.476 184.496 192.721 184.08 193.212C183.664 193.692 183.456 194.465 183.456 195.532C183.456 195.969 183.488 196.375 183.552 196.748C183.626 197.121 183.744 197.441 183.904 197.708C184.064 197.975 184.272 198.188 184.528 198.348C184.794 198.497 185.114 198.572 185.488 198.572ZM194.571 191.5H195.819V191.052C195.819 190.561 195.856 190.135 195.931 189.772C196.016 189.409 196.149 189.116 196.331 188.892C196.512 188.657 196.747 188.487 197.035 188.38C197.323 188.263 197.68 188.204 198.107 188.204C198.448 188.204 198.747 188.225 199.003 188.268C199.269 188.311 199.547 188.391 199.835 188.508L199.547 189.58C199.301 189.473 199.067 189.404 198.843 189.372C198.629 189.34 198.427 189.324 198.235 189.324C197.957 189.324 197.739 189.367 197.579 189.452C197.429 189.537 197.317 189.665 197.243 189.836C197.179 189.996 197.136 190.199 197.115 190.444C197.104 190.679 197.099 190.956 197.099 191.276V191.5H199.227V192.62H197.099V199.5H195.819V192.62H194.571V191.5ZM206.228 198.86C205.908 199.116 205.503 199.319 205.012 199.468C204.532 199.617 204.02 199.692 203.476 199.692C202.868 199.692 202.34 199.596 201.892 199.404C201.444 199.201 201.076 198.919 200.788 198.556C200.5 198.183 200.287 197.74 200.148 197.228C200.01 196.716 199.94 196.14 199.94 195.5C199.94 194.135 200.244 193.095 200.852 192.38C201.46 191.665 202.33 191.308 203.46 191.308C203.823 191.308 204.186 191.351 204.548 191.436C204.911 191.511 205.236 191.66 205.524 191.884C205.812 192.108 206.047 192.428 206.228 192.844C206.41 193.249 206.5 193.788 206.5 194.46C206.5 194.812 206.468 195.201 206.404 195.628H201.268C201.268 196.097 201.316 196.513 201.412 196.876C201.508 197.239 201.658 197.548 201.86 197.804C202.063 198.049 202.324 198.241 202.644 198.38C202.975 198.508 203.375 198.572 203.844 198.572C204.207 198.572 204.57 198.508 204.932 198.38C205.295 198.252 205.567 198.103 205.748 197.932L206.228 198.86ZM203.476 192.428C202.847 192.428 202.34 192.593 201.956 192.924C201.583 193.255 201.359 193.82 201.284 194.62H205.252C205.252 193.809 205.098 193.244 204.788 192.924C204.479 192.593 204.042 192.428 203.476 192.428ZM208.385 192.092C208.791 191.847 209.26 191.665 209.793 191.548C210.337 191.431 210.903 191.372 211.489 191.372C212.044 191.372 212.487 191.447 212.817 191.596C213.159 191.745 213.415 191.943 213.585 192.188C213.767 192.423 213.884 192.684 213.937 192.972C214.001 193.26 214.033 193.548 214.033 193.836C214.033 194.476 214.017 195.1 213.985 195.708C213.953 196.316 213.937 196.892 213.937 197.436C213.937 197.831 213.953 198.204 213.985 198.556C214.017 198.908 214.076 199.233 214.161 199.532H213.217L212.881 198.412H212.801C212.705 198.561 212.583 198.711 212.433 198.86C212.295 198.999 212.124 199.127 211.921 199.244C211.719 199.351 211.484 199.441 211.217 199.516C210.951 199.591 210.647 199.628 210.305 199.628C209.964 199.628 209.644 199.575 209.345 199.468C209.057 199.361 208.807 199.212 208.593 199.02C208.38 198.817 208.209 198.577 208.081 198.3C207.964 198.023 207.905 197.708 207.905 197.356C207.905 196.887 208.001 196.497 208.193 196.188C208.385 195.868 208.652 195.617 208.993 195.436C209.345 195.244 209.761 195.111 210.241 195.036C210.732 194.951 211.271 194.908 211.857 194.908C212.007 194.908 212.151 194.908 212.289 194.908C212.439 194.908 212.588 194.919 212.737 194.94C212.769 194.62 212.785 194.332 212.785 194.076C212.785 193.489 212.668 193.079 212.433 192.844C212.199 192.609 211.772 192.492 211.153 192.492C210.972 192.492 210.775 192.508 210.561 192.54C210.359 192.561 210.145 192.599 209.921 192.652C209.708 192.695 209.5 192.753 209.297 192.828C209.105 192.892 208.935 192.967 208.785 193.052L208.385 192.092ZM210.657 198.508C210.956 198.508 211.223 198.471 211.457 198.396C211.692 198.311 211.895 198.209 212.065 198.092C212.236 197.964 212.375 197.825 212.481 197.676C212.599 197.527 212.684 197.383 212.737 197.244V195.916C212.588 195.905 212.433 195.9 212.273 195.9C212.124 195.889 211.975 195.884 211.825 195.884C211.495 195.884 211.169 195.905 210.849 195.948C210.54 195.98 210.263 196.049 210.017 196.156C209.783 196.252 209.591 196.391 209.441 196.572C209.303 196.743 209.233 196.961 209.233 197.228C209.233 197.601 209.367 197.911 209.633 198.156C209.9 198.391 210.241 198.508 210.657 198.508ZM215.395 191.5H216.643V189.916L217.923 189.548V191.5H220.099V192.62H217.923V197.052C217.923 197.607 217.992 198.001 218.131 198.236C218.269 198.46 218.504 198.572 218.835 198.572C219.112 198.572 219.347 198.545 219.539 198.492C219.731 198.428 219.944 198.348 220.179 198.252L220.467 199.228C220.179 199.367 219.864 199.479 219.523 199.564C219.181 199.649 218.813 199.692 218.419 199.692C217.768 199.692 217.309 199.511 217.043 199.148C216.776 198.775 216.643 198.156 216.643 197.292V192.62H215.395V191.5ZM223.025 191.5V196.06C223.025 196.476 223.046 196.844 223.089 197.164C223.142 197.473 223.227 197.735 223.345 197.948C223.462 198.151 223.622 198.305 223.825 198.412C224.027 198.519 224.283 198.572 224.593 198.572C224.881 198.572 225.137 198.529 225.361 198.444C225.585 198.348 225.782 198.22 225.953 198.06C226.134 197.9 226.289 197.719 226.417 197.516C226.555 197.303 226.667 197.079 226.753 196.844V191.5H228.033V197.228C228.033 197.612 228.043 198.012 228.065 198.428C228.097 198.833 228.145 199.191 228.209 199.5H227.329L227.009 198.236H226.929C226.683 198.652 226.353 198.999 225.937 199.276C225.521 199.553 224.993 199.692 224.353 199.692C223.926 199.692 223.547 199.639 223.217 199.532C222.897 199.436 222.625 199.26 222.401 199.004C222.187 198.748 222.022 198.407 221.905 197.98C221.798 197.543 221.745 196.993 221.745 196.332V191.5H223.025ZM234.274 192.732C233.954 192.625 233.65 192.572 233.362 192.572C232.903 192.572 232.54 192.7 232.274 192.956C232.007 193.201 231.842 193.516 231.778 193.9V199.5H230.498V191.5H231.394L231.634 192.476H231.698C231.9 192.113 232.14 191.836 232.418 191.644C232.706 191.441 233.068 191.34 233.506 191.34C233.815 191.34 234.162 191.393 234.546 191.5L234.274 192.732ZM241.775 198.86C241.455 199.116 241.05 199.319 240.559 199.468C240.079 199.617 239.567 199.692 239.023 199.692C238.415 199.692 237.887 199.596 237.439 199.404C236.991 199.201 236.623 198.919 236.335 198.556C236.047 198.183 235.834 197.74 235.695 197.228C235.556 196.716 235.487 196.14 235.487 195.5C235.487 194.135 235.791 193.095 236.399 192.38C237.007 191.665 237.876 191.308 239.007 191.308C239.37 191.308 239.732 191.351 240.095 191.436C240.458 191.511 240.783 191.66 241.071 191.884C241.359 192.108 241.594 192.428 241.775 192.844C241.956 193.249 242.047 193.788 242.047 194.46C242.047 194.812 242.015 195.201 241.951 195.628H236.815C236.815 196.097 236.863 196.513 236.959 196.876C237.055 197.239 237.204 197.548 237.407 197.804C237.61 198.049 237.871 198.241 238.191 198.38C238.522 198.508 238.922 198.572 239.391 198.572C239.754 198.572 240.116 198.508 240.479 198.38C240.842 198.252 241.114 198.103 241.295 197.932L241.775 198.86ZM239.023 192.428C238.394 192.428 237.887 192.593 237.503 192.924C237.13 193.255 236.906 193.82 236.831 194.62H240.799C240.799 193.809 240.644 193.244 240.335 192.924C240.026 192.593 239.588 192.428 239.023 192.428ZM247.58 197.324C247.58 197.004 247.484 196.753 247.292 196.572C247.1 196.391 246.86 196.241 246.572 196.124C246.295 195.996 245.985 195.879 245.644 195.772C245.313 195.655 245.004 195.511 244.716 195.34C244.439 195.159 244.204 194.929 244.012 194.652C243.82 194.375 243.724 194.001 243.724 193.532C243.724 192.764 243.943 192.204 244.38 191.852C244.817 191.489 245.425 191.308 246.204 191.308C246.78 191.308 247.26 191.361 247.644 191.468C248.039 191.564 248.38 191.681 248.668 191.82L248.364 192.876C248.119 192.759 247.82 192.657 247.468 192.572C247.127 192.476 246.759 192.428 246.364 192.428C245.895 192.428 245.548 192.508 245.324 192.668C245.111 192.828 245.004 193.105 245.004 193.5C245.004 193.777 245.1 193.996 245.292 194.156C245.484 194.305 245.719 194.444 245.996 194.572C246.284 194.689 246.593 194.807 246.924 194.924C247.265 195.041 247.575 195.196 247.852 195.388C248.14 195.58 248.38 195.825 248.572 196.124C248.764 196.412 248.86 196.796 248.86 197.276C248.86 197.617 248.801 197.937 248.684 198.236C248.577 198.535 248.407 198.791 248.172 199.004C247.937 199.217 247.644 199.383 247.292 199.5C246.951 199.628 246.545 199.692 246.076 199.692C245.468 199.692 244.951 199.633 244.524 199.516C244.097 199.399 243.74 199.26 243.452 199.1L243.836 198.012C244.081 198.151 244.401 198.279 244.796 198.396C245.191 198.513 245.591 198.572 245.996 198.572C246.455 198.572 246.833 198.481 247.132 198.3C247.431 198.119 247.58 197.793 247.58 197.324Z" fill="black"/>
<path d="M67 92C67 87.5817 70.5817 84 75 84H321C325.418 84 329 87.5817 329 92V128H67V92Z" fill="white"/>
<path d="M74 107C74 95 78.5 89.9998 89.5 90C100.5 90.0002 106 94.5 106 107C106 119.5 103 122 89.5 122C76 122 74 119 74 107Z" fill="url(#paint3_linear_46_17)"/>
<path d="M85.727 111.304C85.7407 111.315 85.7562 111.323 85.7699 111.334C85.8441 111.391 85.9243 111.439 86.0008 111.493C86.1719 111.616 86.3433 111.737 86.5246 111.842C86.5303 111.845 86.5364 111.848 86.5421 111.851C86.7692 111.982 87.0012 112.103 87.2425 112.205L87.3216 112.238C87.4336 112.285 87.5428 112.33 87.6666 112.373C87.9859 112.48 88.2577 112.554 88.5177 112.607C88.6839 112.641 88.8418 112.667 88.992 112.687C89.015 112.69 89.0384 112.691 89.0615 112.694C89.1666 112.706 89.2717 112.718 89.3659 112.723C89.5408 112.741 89.7246 112.75 89.8997 112.75C93.6218 112.75 96.6496 109.722 96.6496 106C96.6496 105.585 96.3142 105.25 95.8996 105.25C95.4851 105.25 95.1496 105.585 95.1496 106C95.1496 108.894 92.7942 111.25 89.8997 111.25C89.7282 111.25 89.5594 111.232 89.3906 111.216C89.2685 111.206 89.1367 111.185 89.0035 111.163C88.8855 111.142 88.7677 111.12 88.6519 111.092C88.5664 111.071 88.4848 111.048 88.4025 111.023C88.0108 110.906 87.6327 110.75 87.2802 110.547C87.2784 110.546 87.2765 110.545 87.2747 110.544C87.1391 110.466 87.0122 110.374 86.884 110.284C86.8175 110.237 86.7479 110.196 86.6832 110.145C86.611 110.089 86.5459 110.024 86.4766 109.965C86.3707 109.873 86.2627 109.782 86.1627 109.683C86.1131 109.633 86.0699 109.576 86.0222 109.524L87.3656 109.282C87.7728 109.208 88.0438 108.818 87.9705 108.41C87.8965 108.003 87.512 107.732 87.0989 107.805L83.9671 108.37C83.7715 108.405 83.5979 108.517 83.4844 108.681C83.3708 108.844 83.3269 109.045 83.362 109.242L83.9267 112.373C83.9926 112.735 84.3083 112.989 84.6643 112.989C84.7082 112.989 84.7529 112.986 84.7983 112.978C85.2056 112.904 85.4765 112.514 85.4032 112.106L85.1693 110.81C85.175 110.815 85.1816 110.82 85.1873 110.826C85.375 111.007 85.5517 111.167 85.727 111.304ZM94.1726 100.696C94.1594 100.685 94.1445 100.677 94.1312 100.667C94.0534 100.607 93.9693 100.556 93.889 100.5C93.7215 100.38 93.5542 100.261 93.377 100.158C93.3641 100.151 93.3499 100.146 93.3368 100.138C93.116 100.012 92.8914 99.8935 92.6573 99.7948L92.5781 99.7618C92.4661 99.715 92.3569 99.6696 92.2331 99.6263C91.913 99.5194 91.6413 99.4447 91.3813 99.3927C91.2159 99.3583 91.0582 99.3325 90.9079 99.3127C90.8851 99.3095 90.8618 99.3088 90.839 99.3059C90.7337 99.2935 90.6286 99.2812 90.534 99.2762C90.3589 99.2586 90.175 99.2498 90 99.2498C86.2778 99.2498 83.25 102.278 83.25 106C83.25 106.414 83.5855 106.75 84 106.75C84.4145 106.75 84.75 106.414 84.75 106C84.75 103.105 87.1054 100.75 90 100.75C90.1715 100.75 90.3403 100.767 90.509 100.784C90.6311 100.794 90.763 100.814 90.8962 100.837C91.0142 100.858 91.1319 100.879 91.2477 100.908C91.3332 100.929 91.4149 100.952 91.4971 100.976C92.0449 101.14 92.5594 101.393 93.0246 101.722C93.0874 101.767 93.1535 101.805 93.2146 101.853C93.2863 101.909 93.3511 101.973 93.42 102.032C93.5275 102.126 93.6368 102.217 93.7393 102.319C93.788 102.369 93.8305 102.424 93.8773 102.476L92.5342 102.718C92.1269 102.792 91.856 103.181 91.9292 103.589C91.9951 103.952 92.3108 104.206 92.6668 104.206C92.7107 104.206 92.7554 104.202 92.8008 104.194L95.9326 103.63C96.1282 103.595 96.3018 103.483 96.4153 103.319C96.5289 103.156 96.5729 102.954 96.5377 102.758L95.973 99.6271C95.8991 99.2198 95.513 98.9474 95.1014 99.0221C94.6942 99.0961 94.4232 99.4858 94.4965 99.8937L94.7305 101.19C94.7215 101.181 94.7109 101.173 94.7017 101.165C94.5185 100.988 94.3452 100.832 94.1726 100.696Z" fill="white"/>
<path d="M130.688 108.396H126.56L125.44 111.5H124.128L128.368 100.124H128.976L133.232 111.5H131.84L130.688 108.396ZM126.992 107.244H130.288L129.04 103.836L128.64 102.14H128.624L128.224 103.868L126.992 107.244ZM139.844 110.972C139.524 111.207 139.146 111.383 138.708 111.5C138.271 111.628 137.812 111.692 137.332 111.692C136.714 111.692 136.191 111.596 135.764 111.404C135.338 111.201 134.986 110.919 134.708 110.556C134.442 110.183 134.244 109.74 134.116 109.228C133.999 108.705 133.94 108.129 133.94 107.5C133.94 106.145 134.239 105.111 134.836 104.396C135.434 103.671 136.292 103.308 137.412 103.308C137.924 103.308 138.356 103.351 138.708 103.436C139.071 103.511 139.396 103.623 139.684 103.772L139.316 104.876C139.071 104.737 138.799 104.631 138.5 104.556C138.202 104.471 137.882 104.428 137.54 104.428C136.026 104.428 135.268 105.452 135.268 107.5C135.268 107.905 135.306 108.295 135.38 108.668C135.466 109.031 135.599 109.356 135.78 109.644C135.972 109.921 136.218 110.145 136.516 110.316C136.826 110.487 137.204 110.572 137.652 110.572C138.036 110.572 138.378 110.513 138.676 110.396C138.986 110.279 139.236 110.145 139.428 109.996L139.844 110.972ZM146.688 110.972C146.368 111.207 145.989 111.383 145.552 111.5C145.115 111.628 144.656 111.692 144.176 111.692C143.557 111.692 143.035 111.596 142.608 111.404C142.181 111.201 141.829 110.919 141.552 110.556C141.285 110.183 141.088 109.74 140.96 109.228C140.843 108.705 140.784 108.129 140.784 107.5C140.784 106.145 141.083 105.111 141.68 104.396C142.277 103.671 143.136 103.308 144.256 103.308C144.768 103.308 145.2 103.351 145.552 103.436C145.915 103.511 146.24 103.623 146.528 103.772L146.16 104.876C145.915 104.737 145.643 104.631 145.344 104.556C145.045 104.471 144.725 104.428 144.384 104.428C142.869 104.428 142.112 105.452 142.112 107.5C142.112 107.905 142.149 108.295 142.224 108.668C142.309 109.031 142.443 109.356 142.624 109.644C142.816 109.921 143.061 110.145 143.36 110.316C143.669 110.487 144.048 110.572 144.496 110.572C144.88 110.572 145.221 110.513 145.52 110.396C145.829 110.279 146.08 110.145 146.272 109.996L146.688 110.972ZM147.628 107.5C147.628 106.145 147.926 105.111 148.524 104.396C149.132 103.671 150.001 103.308 151.132 103.308C151.729 103.308 152.246 103.409 152.684 103.612C153.132 103.804 153.5 104.087 153.788 104.46C154.076 104.823 154.289 105.265 154.428 105.788C154.566 106.3 154.636 106.871 154.636 107.5C154.636 108.855 154.332 109.895 153.724 110.62C153.126 111.335 152.262 111.692 151.132 111.692C150.534 111.692 150.012 111.596 149.564 111.404C149.126 111.201 148.764 110.919 148.476 110.556C148.188 110.183 147.974 109.74 147.836 109.228C147.697 108.705 147.628 108.129 147.628 107.5ZM148.956 107.5C148.956 107.905 148.993 108.295 149.068 108.668C149.153 109.041 149.281 109.367 149.452 109.644C149.622 109.921 149.846 110.145 150.124 110.316C150.401 110.487 150.737 110.572 151.132 110.572C152.582 110.583 153.308 109.559 153.308 107.5C153.308 107.084 153.265 106.689 153.18 106.316C153.105 105.943 152.982 105.617 152.812 105.34C152.641 105.063 152.417 104.844 152.14 104.684C151.862 104.513 151.526 104.428 151.132 104.428C149.681 104.417 148.956 105.441 148.956 107.5ZM157.806 103.5V108.06C157.806 108.476 157.827 108.844 157.87 109.164C157.923 109.473 158.009 109.735 158.126 109.948C158.243 110.151 158.403 110.305 158.606 110.412C158.809 110.519 159.065 110.572 159.374 110.572C159.662 110.572 159.918 110.529 160.142 110.444C160.366 110.348 160.563 110.22 160.734 110.06C160.915 109.9 161.07 109.719 161.198 109.516C161.337 109.303 161.449 109.079 161.534 108.844V103.5H162.814V109.228C162.814 109.612 162.825 110.012 162.846 110.428C162.878 110.833 162.926 111.191 162.99 111.5H162.11L161.79 110.236H161.71C161.465 110.652 161.134 110.999 160.718 111.276C160.302 111.553 159.774 111.692 159.134 111.692C158.707 111.692 158.329 111.639 157.998 111.532C157.678 111.436 157.406 111.26 157.182 111.004C156.969 110.748 156.803 110.407 156.686 109.98C156.579 109.543 156.526 108.993 156.526 108.332V103.5H157.806ZM170.415 111.5V106.94C170.415 106.108 170.292 105.484 170.047 105.068C169.812 104.641 169.375 104.428 168.735 104.428C168.17 104.428 167.7 104.583 167.327 104.892C166.964 105.191 166.708 105.569 166.559 106.028V111.5H165.279V103.5H166.175L166.415 104.476H166.479C166.735 104.135 167.076 103.857 167.503 103.644C167.94 103.42 168.458 103.308 169.055 103.308C169.492 103.308 169.876 103.361 170.207 103.468C170.538 103.564 170.81 103.74 171.023 103.996C171.247 104.252 171.412 104.599 171.519 105.036C171.636 105.463 171.695 106.007 171.695 106.668V111.5H170.415ZM172.973 103.5H174.221V101.916L175.501 101.548V103.5H177.677V104.62H175.501V109.052C175.501 109.607 175.57 110.001 175.709 110.236C175.848 110.46 176.082 110.572 176.413 110.572C176.69 110.572 176.925 110.545 177.117 110.492C177.309 110.428 177.522 110.348 177.757 110.252L178.045 111.228C177.757 111.367 177.442 111.479 177.101 111.564C176.76 111.649 176.392 111.692 175.997 111.692C175.346 111.692 174.888 111.511 174.621 111.148C174.354 110.775 174.221 110.156 174.221 109.292V104.62H172.973V103.5ZM182.971 109.324C182.971 109.004 182.875 108.753 182.683 108.572C182.491 108.391 182.251 108.241 181.963 108.124C181.685 107.996 181.376 107.879 181.035 107.772C180.704 107.655 180.395 107.511 180.107 107.34C179.829 107.159 179.595 106.929 179.403 106.652C179.211 106.375 179.115 106.001 179.115 105.532C179.115 104.764 179.333 104.204 179.771 103.852C180.208 103.489 180.816 103.308 181.595 103.308C182.171 103.308 182.651 103.361 183.035 103.468C183.429 103.564 183.771 103.681 184.059 103.82L183.755 104.876C183.509 104.759 183.211 104.657 182.859 104.572C182.517 104.476 182.149 104.428 181.755 104.428C181.285 104.428 180.939 104.508 180.715 104.668C180.501 104.828 180.395 105.105 180.395 105.5C180.395 105.777 180.491 105.996 180.683 106.156C180.875 106.305 181.109 106.444 181.387 106.572C181.675 106.689 181.984 106.807 182.315 106.924C182.656 107.041 182.965 107.196 183.243 107.388C183.531 107.58 183.771 107.825 183.963 108.124C184.155 108.412 184.251 108.796 184.251 109.276C184.251 109.617 184.192 109.937 184.075 110.236C183.968 110.535 183.797 110.791 183.563 111.004C183.328 111.217 183.035 111.383 182.683 111.5C182.341 111.628 181.936 111.692 181.467 111.692C180.859 111.692 180.341 111.633 179.915 111.516C179.488 111.399 179.131 111.26 178.843 111.1L179.227 110.012C179.472 110.151 179.792 110.279 180.187 110.396C180.581 110.513 180.981 110.572 181.387 110.572C181.845 110.572 182.224 110.481 182.523 110.3C182.821 110.119 182.971 109.793 182.971 109.324ZM190.323 104.092C190.728 103.847 191.197 103.665 191.731 103.548C192.275 103.431 192.84 103.372 193.427 103.372C193.981 103.372 194.424 103.447 194.755 103.596C195.096 103.745 195.352 103.943 195.523 104.188C195.704 104.423 195.821 104.684 195.875 104.972C195.939 105.26 195.971 105.548 195.971 105.836C195.971 106.476 195.955 107.1 195.923 107.708C195.891 108.316 195.875 108.892 195.875 109.436C195.875 109.831 195.891 110.204 195.923 110.556C195.955 110.908 196.013 111.233 196.099 111.532H195.155L194.819 110.412H194.739C194.643 110.561 194.52 110.711 194.371 110.86C194.232 110.999 194.061 111.127 193.859 111.244C193.656 111.351 193.421 111.441 193.155 111.516C192.888 111.591 192.584 111.628 192.243 111.628C191.901 111.628 191.581 111.575 191.283 111.468C190.995 111.361 190.744 111.212 190.531 111.02C190.317 110.817 190.147 110.577 190.019 110.3C189.901 110.023 189.843 109.708 189.843 109.356C189.843 108.887 189.939 108.497 190.131 108.188C190.323 107.868 190.589 107.617 190.931 107.436C191.283 107.244 191.699 107.111 192.179 107.036C192.669 106.951 193.208 106.908 193.795 106.908C193.944 106.908 194.088 106.908 194.227 106.908C194.376 106.908 194.525 106.919 194.675 106.94C194.707 106.62 194.723 106.332 194.723 106.076C194.723 105.489 194.605 105.079 194.371 104.844C194.136 104.609 193.709 104.492 193.091 104.492C192.909 104.492 192.712 104.508 192.499 104.54C192.296 104.561 192.083 104.599 191.859 104.652C191.645 104.695 191.437 104.753 191.235 104.828C191.043 104.892 190.872 104.967 190.723 105.052L190.323 104.092ZM192.595 110.508C192.893 110.508 193.16 110.471 193.395 110.396C193.629 110.311 193.832 110.209 194.003 110.092C194.173 109.964 194.312 109.825 194.419 109.676C194.536 109.527 194.621 109.383 194.675 109.244V107.916C194.525 107.905 194.371 107.9 194.211 107.9C194.061 107.889 193.912 107.884 193.763 107.884C193.432 107.884 193.107 107.905 192.787 107.948C192.477 107.98 192.2 108.049 191.955 108.156C191.72 108.252 191.528 108.391 191.379 108.572C191.24 108.743 191.171 108.961 191.171 109.228C191.171 109.601 191.304 109.911 191.571 110.156C191.837 110.391 192.179 110.508 192.595 110.508ZM203.524 111.5V106.94C203.524 106.108 203.402 105.484 203.156 105.068C202.922 104.641 202.484 104.428 201.844 104.428C201.279 104.428 200.81 104.583 200.436 104.892C200.074 105.191 199.818 105.569 199.668 106.028V111.5H198.388V103.5H199.284L199.524 104.476H199.588C199.844 104.135 200.186 103.857 200.612 103.644C201.05 103.42 201.567 103.308 202.164 103.308C202.602 103.308 202.986 103.361 203.316 103.468C203.647 103.564 203.919 103.74 204.132 103.996C204.356 104.252 204.522 104.599 204.628 105.036C204.746 105.463 204.804 106.007 204.804 106.668V111.5H203.524ZM213.282 108.748C213.282 109.292 213.288 109.788 213.298 110.236C213.309 110.673 213.357 111.105 213.442 111.532H212.578L212.258 110.396H212.194C211.981 110.769 211.672 111.079 211.266 111.324C210.861 111.569 210.386 111.692 209.842 111.692C208.776 111.692 207.981 111.356 207.458 110.684C206.946 110.012 206.69 108.961 206.69 107.532C206.69 106.167 207.01 105.132 207.65 104.428C208.301 103.713 209.192 103.356 210.322 103.356C210.717 103.356 211.026 103.377 211.25 103.42C211.485 103.463 211.736 103.532 212.002 103.628V100.3H213.282V108.748ZM210.05 110.572C210.594 110.572 211.026 110.433 211.346 110.156C211.666 109.868 211.885 109.436 212.002 108.86V104.892C211.81 104.743 211.592 104.636 211.346 104.572C211.101 104.508 210.776 104.476 210.37 104.476C209.634 104.476 209.058 104.721 208.642 105.212C208.226 105.692 208.018 106.465 208.018 107.532C208.018 107.969 208.05 108.375 208.114 108.748C208.189 109.121 208.306 109.441 208.466 109.708C208.626 109.975 208.834 110.188 209.09 110.348C209.357 110.497 209.677 110.572 210.05 110.572ZM220.013 100.3H221.293V104.284H221.357C221.603 103.975 221.912 103.735 222.285 103.564C222.669 103.393 223.085 103.308 223.533 103.308C224.568 103.308 225.341 103.639 225.853 104.3C226.376 104.961 226.637 105.985 226.637 107.372C226.637 108.769 226.296 109.831 225.613 110.556C224.931 111.281 223.971 111.644 222.733 111.644C222.136 111.644 221.592 111.58 221.101 111.452C220.621 111.324 220.259 111.185 220.013 111.036V100.3ZM223.309 104.428C222.776 104.428 222.344 104.577 222.013 104.876C221.683 105.175 221.443 105.596 221.293 106.14V110.172C221.496 110.289 221.741 110.38 222.029 110.444C222.317 110.497 222.616 110.524 222.925 110.524C223.651 110.524 224.227 110.268 224.653 109.756C225.091 109.244 225.309 108.444 225.309 107.356C225.309 106.94 225.272 106.551 225.197 106.188C225.123 105.825 225.005 105.516 224.845 105.26C224.685 105.004 224.477 104.801 224.221 104.652C223.976 104.503 223.672 104.428 223.309 104.428ZM228.526 104.092C228.931 103.847 229.401 103.665 229.934 103.548C230.478 103.431 231.043 103.372 231.63 103.372C232.185 103.372 232.627 103.447 232.958 103.596C233.299 103.745 233.555 103.943 233.726 104.188C233.907 104.423 234.025 104.684 234.078 104.972C234.142 105.26 234.174 105.548 234.174 105.836C234.174 106.476 234.158 107.1 234.126 107.708C234.094 108.316 234.078 108.892 234.078 109.436C234.078 109.831 234.094 110.204 234.126 110.556C234.158 110.908 234.217 111.233 234.302 111.532H233.358L233.022 110.412H232.942C232.846 110.561 232.723 110.711 232.574 110.86C232.435 110.999 232.265 111.127 232.062 111.244C231.859 111.351 231.625 111.441 231.358 111.516C231.091 111.591 230.787 111.628 230.446 111.628C230.105 111.628 229.785 111.575 229.486 111.468C229.198 111.361 228.947 111.212 228.734 111.02C228.521 110.817 228.35 110.577 228.222 110.3C228.105 110.023 228.046 109.708 228.046 109.356C228.046 108.887 228.142 108.497 228.334 108.188C228.526 107.868 228.793 107.617 229.134 107.436C229.486 107.244 229.902 107.111 230.382 107.036C230.873 106.951 231.411 106.908 231.998 106.908C232.147 106.908 232.291 106.908 232.43 106.908C232.579 106.908 232.729 106.919 232.878 106.94C232.91 106.62 232.926 106.332 232.926 106.076C232.926 105.489 232.809 105.079 232.574 104.844C232.339 104.609 231.913 104.492 231.294 104.492C231.113 104.492 230.915 104.508 230.702 104.54C230.499 104.561 230.286 104.599 230.062 104.652C229.849 104.695 229.641 104.753 229.438 104.828C229.246 104.892 229.075 104.967 228.926 105.052L228.526 104.092ZM230.798 110.508C231.097 110.508 231.363 110.471 231.598 110.396C231.833 110.311 232.035 110.209 232.206 110.092C232.377 109.964 232.515 109.825 232.622 109.676C232.739 109.527 232.825 109.383 232.878 109.244V107.916C232.729 107.905 232.574 107.9 232.414 107.9C232.265 107.889 232.115 107.884 231.966 107.884C231.635 107.884 231.31 107.905 230.99 107.948C230.681 107.98 230.403 108.049 230.158 108.156C229.923 108.252 229.731 108.391 229.582 108.572C229.443 108.743 229.374 108.961 229.374 109.228C229.374 109.601 229.507 109.911 229.774 110.156C230.041 110.391 230.382 110.508 230.798 110.508ZM242.047 110.972C241.727 111.207 241.349 111.383 240.911 111.5C240.474 111.628 240.015 111.692 239.535 111.692C238.917 111.692 238.394 111.596 237.967 111.404C237.541 111.201 237.189 110.919 236.911 110.556C236.645 110.183 236.447 109.74 236.319 109.228C236.202 108.705 236.143 108.129 236.143 107.5C236.143 106.145 236.442 105.111 237.039 104.396C237.637 103.671 238.495 103.308 239.615 103.308C240.127 103.308 240.559 103.351 240.911 103.436C241.274 103.511 241.599 103.623 241.887 103.772L241.519 104.876C241.274 104.737 241.002 104.631 240.703 104.556C240.405 104.471 240.085 104.428 239.743 104.428C238.229 104.428 237.471 105.452 237.471 107.5C237.471 107.905 237.509 108.295 237.583 108.668C237.669 109.031 237.802 109.356 237.983 109.644C238.175 109.921 238.421 110.145 238.719 110.316C239.029 110.487 239.407 110.572 239.855 110.572C240.239 110.572 240.581 110.513 240.879 110.396C241.189 110.279 241.439 110.145 241.631 109.996L242.047 110.972ZM245.826 107.9H245.09V111.5H243.81V100.3H245.09V107.116L245.746 106.892L248.226 103.5H249.714L247.266 106.716L246.61 107.244L247.41 107.884L250.082 111.5H248.498L245.826 107.9ZM252.618 103.5V108.06C252.618 108.476 252.64 108.844 252.682 109.164C252.736 109.473 252.821 109.735 252.938 109.948C253.056 110.151 253.216 110.305 253.418 110.412C253.621 110.519 253.877 110.572 254.186 110.572C254.474 110.572 254.73 110.529 254.954 110.444C255.178 110.348 255.376 110.22 255.546 110.06C255.728 109.9 255.882 109.719 256.01 109.516C256.149 109.303 256.261 109.079 256.346 108.844V103.5H257.626V109.228C257.626 109.612 257.637 110.012 257.658 110.428C257.69 110.833 257.738 111.191 257.802 111.5H256.922L256.602 110.236H256.522C256.277 110.652 255.946 110.999 255.53 111.276C255.114 111.553 254.586 111.692 253.946 111.692C253.52 111.692 253.141 111.639 252.81 111.532C252.49 111.436 252.218 111.26 251.994 111.004C251.781 110.748 251.616 110.407 251.498 109.98C251.392 109.543 251.338 108.993 251.338 108.332V103.5H252.618ZM260.091 103.5H260.971L261.211 104.46H261.275C261.521 104.087 261.835 103.804 262.219 103.612C262.614 103.409 263.062 103.308 263.563 103.308C264.63 103.308 265.425 103.623 265.947 104.252C266.47 104.881 266.731 105.911 266.731 107.34C266.731 108.012 266.641 108.62 266.459 109.164C266.289 109.697 266.043 110.151 265.723 110.524C265.403 110.897 265.014 111.185 264.555 111.388C264.107 111.591 263.606 111.692 263.051 111.692C262.657 111.692 262.342 111.665 262.107 111.612C261.883 111.569 261.638 111.489 261.371 111.372V114.7H260.091V103.5ZM263.323 104.428C262.779 104.428 262.347 104.572 262.027 104.86C261.718 105.137 261.499 105.564 261.371 106.14V110.108C261.563 110.257 261.782 110.375 262.027 110.46C262.273 110.535 262.598 110.572 263.003 110.572C263.739 110.572 264.321 110.3 264.747 109.756C265.185 109.201 265.403 108.391 265.403 107.324C265.403 106.887 265.366 106.492 265.291 106.14C265.217 105.777 265.094 105.473 264.923 105.228C264.763 104.972 264.55 104.775 264.283 104.636C264.027 104.497 263.707 104.428 263.323 104.428Z" fill="black"/>
<path d="M312.364 156.891L312.362 175.104C312.361 175.822 313.272 176.131 313.709 175.561L317.542 170.562L320.264 175.278C320.313 175.363 320.379 175.438 320.457 175.498C320.536 175.559 320.625 175.603 320.72 175.628C320.815 175.654 320.915 175.66 321.013 175.647C321.111 175.634 321.205 175.602 321.29 175.553L325.187 173.303C325.272 173.254 325.347 173.188 325.407 173.11C325.467 173.032 325.511 172.943 325.537 172.847C325.562 172.752 325.569 172.653 325.556 172.555C325.543 172.457 325.511 172.363 325.462 172.278L322.739 167.562L328.984 166.74C329.696 166.648 329.884 165.704 329.261 165.346L313.488 156.241C313.013 155.966 312.364 156.301 312.364 156.891Z" fill="black"/>
<defs>
<linearGradient id="paint0_linear_46_17" x1="-1.06482e-05" y1="5.00001" x2="684.5" y2="620" gradientUnits="userSpaceOnUse">
<stop stop-color="#726EF1"/>
<stop offset="1" stop-color="#F4F3FE"/>
</linearGradient>
<linearGradient id="paint1_linear_46_17" x1="80" y1="136" x2="122.5" y2="183.5" gradientUnits="userSpaceOnUse">
<stop stop-color="#726EF1"/>
<stop offset="1" stop-color="white"/>
</linearGradient>
<linearGradient id="paint2_linear_46_17" x1="80" y1="180" x2="122.5" y2="227.5" gradientUnits="userSpaceOnUse">
<stop stop-color="#74CB3D"/>
<stop offset="1" stop-color="white"/>
</linearGradient>
<linearGradient id="paint3_linear_46_17" x1="80" y1="92" x2="122.5" y2="139.5" gradientUnits="userSpaceOnUse">
<stop stop-color="#FF4322"/>
<stop offset="1" stop-color="white"/>
</linearGradient>
</defs>
</svg>
