<svg width="400" height="300" viewBox="0 0 400 300" fill="none" xmlns="http://www.w3.org/2000/svg">
<g clip-path="url(#clip0_70_1321)">
<rect width="400" height="300" rx="8" fill="#0F0F0F"/>
<path d="M-9.56169 187.629C-1.12973 187.604 5.02298 197.715 11.5334 208.414C19.6769 221.781 28.0879 235.61 41.3433 228.385C48.4536 223.666 54.2952 218.046 58.575 211.807C66.0152 202.626 73.7092 193.133 85.7884 193.098C97.5752 193.064 106.868 209.915 116.716 227.753C122.148 239.577 129.882 250.785 139.687 261.044C166.629 283.513 179.786 258.087 193.71 231.183C204.955 209.449 216.584 186.976 236.286 186.919L236.29 188.182C217.118 188.237 205.636 210.423 194.534 231.878C180.332 259.324 166.925 285.25 139.145 262.101C129.218 251.745 121.393 240.423 115.906 228.476C106.219 210.915 97.0679 194.328 85.7978 194.361C74.1195 194.394 66.9058 203.292 59.2708 212.714C54.9194 219.051 48.9757 224.757 41.7403 229.542C27.7798 237.155 19.1302 222.931 10.7642 209.185C4.40066 198.737 -1.60515 188.867 -9.55661 188.89L-9.56169 187.629Z" fill="url(#paint0_linear_70_1321)"/>
<path d="M-18.6586 188.134C-9.51172 188.107 -2.81588 197.362 4.27089 207.159C13.1508 219.434 22.3286 232.122 36.8592 225.463C44.4133 221.294 50.7962 216.129 55.6665 210.245C64.1441 201.448 72.1527 193.137 85.2754 193.1C98.0738 193.063 108.187 208.497 118.898 224.833C124.99 235.877 133.432 246.169 143.925 255.342C173.364 275.984 187.736 252.643 202.948 227.939C215.21 208.025 227.891 187.423 249.319 187.362L249.322 188.624C228.37 188.684 215.843 209.036 203.723 228.722C188.244 253.857 173.633 277.598 143.45 256.452C132.835 247.194 124.298 236.797 118.148 225.639C107.588 209.537 97.6172 194.327 85.2834 194.362C72.5066 194.399 64.6336 202.571 56.296 211.223C51.3533 217.191 44.8722 222.426 37.2013 226.648C22.0564 233.603 12.6505 220.588 3.55406 208.011C-3.38302 198.424 -9.93652 189.369 -18.6435 189.394L-18.6586 188.134Z" fill="url(#paint1_linear_70_1321)"/>
<path d="M-28.5715 188.601C-18.6459 188.572 -11.3647 197.039 -3.65654 206.007C6.03384 217.272 16.0495 228.927 31.9623 222.78C39.9767 219.106 46.9433 214.365 52.4869 208.813C61.7265 200.755 70.4434 193.15 84.7167 193.109C98.6108 193.069 109.628 207.191 121.284 222.153C128.147 232.503 137.364 241.954 148.557 250.118C180.714 269.054 196.409 247.638 213.02 224.953C226.39 206.701 240.215 187.823 263.524 187.756L263.527 189.014C240.647 189.08 226.964 207.755 213.743 225.815C196.885 248.841 180.957 270.595 148.145 251.254C136.83 243.024 127.515 233.487 120.585 223.039C109.078 208.271 98.2135 194.322 84.7218 194.361C70.7553 194.401 62.1553 201.906 53.0529 209.855C47.4343 215.476 40.3738 220.274 32.2524 223.989C15.8032 230.337 5.57841 218.446 -4.31673 206.938C-11.8825 198.142 -19.0243 189.831 -28.5664 189.859L-28.5715 188.601Z" fill="url(#paint2_linear_70_1321)"/>
<path d="M-39.3668 189.036C-28.5945 189.005 -20.6743 196.751 -12.2808 204.956C-1.7088 215.299 9.22609 226.006 26.6281 220.33C35.1418 217.093 42.7433 212.743 49.0418 207.503C53.1376 203.454 58.3825 200.077 64.4283 197.595C70.474 195.113 77.1823 193.583 84.1077 193.107C99.2146 193.064 111.201 205.999 123.893 219.695C131.652 229.421 141.713 238.095 153.625 245.328C188.736 262.712 205.866 243.043 224.006 222.221C238.576 205.491 253.65 188.191 279.013 188.118L279.016 189.373C254.03 189.445 239.104 206.582 224.669 223.157C206.298 244.243 188.946 264.152 153.268 246.502C141.241 239.214 131.085 230.467 123.257 220.656C110.708 207.112 98.8564 194.32 84.1113 194.363C77.2801 194.841 70.6653 196.357 64.7045 198.811C58.7438 201.264 53.5729 204.599 49.5341 208.594C43.1664 213.889 35.4802 218.283 26.8719 221.549C9.00852 227.349 -2.12222 216.477 -12.8844 205.948C-21.1341 197.878 -28.9267 190.256 -39.3632 190.286L-39.3668 189.036Z" fill="url(#paint3_linear_70_1321)"/>
<path d="M-51.1471 189.442C-39.4428 189.408 -30.821 196.497 -21.69 204.003C-10.1551 213.495 1.77584 223.293 20.8017 218.095C29.8509 215.233 38.1291 211.244 45.2547 206.314C55.1228 198.515 68.8171 193.78 83.4373 193.11C99.867 193.062 112.912 204.905 126.725 217.443C135.516 226.591 146.494 234.544 159.151 240.932C197.482 256.864 216.189 238.822 235.988 219.705C251.864 204.373 268.293 188.521 295.896 188.441L295.9 189.697C268.627 189.775 252.338 205.503 236.587 220.708C216.573 240.03 197.672 258.281 158.847 242.127C146.087 235.696 135.022 227.684 126.168 218.464C112.489 206.047 99.5667 194.318 83.4539 194.365C68.995 195.039 55.456 199.729 45.698 207.443C38.5065 212.417 30.15 216.439 21.015 219.322C1.59592 224.644 -10.5149 214.688 -22.221 205.058C-31.2243 197.656 -39.7257 190.663 -51.1391 190.696L-51.1471 189.442Z" fill="url(#paint4_linear_70_1321)"/>
<path d="M-63.9762 189.816C-51.2709 191.055 -39.7618 195.838 -31.932 203.131C-19.3472 211.838 -6.32588 220.828 14.4553 216.044C24.1076 213.504 33.1212 209.848 41.14 205.221C52.6428 197.85 67.3362 193.57 82.7167 193.11C100.591 193.059 114.797 203.898 129.834 215.376C139.773 223.984 151.734 231.271 165.175 236.908C207.002 251.533 227.416 234.949 249.032 217.396C256.227 209.406 265.83 202.679 277.126 197.716C288.422 192.753 301.123 189.681 314.285 188.727L314.289 189.981C301.229 190.937 288.63 193.993 277.425 198.923C266.22 203.853 256.697 210.531 249.56 218.462C227.757 236.164 207.164 252.88 164.916 238.128C151.383 232.457 139.339 225.125 129.329 216.463C114.411 205.074 100.319 194.321 82.7203 194.372C67.4723 194.833 52.9078 199.08 41.5066 206.391C33.427 211.051 24.3441 214.73 14.618 217.283C-6.50876 222.168 -19.6795 213.05 -32.4166 204.241C-40.1317 197.048 -51.4657 192.322 -63.9871 191.076L-63.9762 189.816Z" fill="url(#paint5_linear_70_1321)"/>
<path d="M-77.9677 190.16C-64.6909 191.105 -52.3268 195.423 -43.0958 202.34C-36.8728 207.358 -28.9071 211.096 -20.0114 213.173C-11.1156 215.25 -1.60832 215.592 7.54052 214.163C17.8696 211.899 27.6792 208.55 36.6506 204.223C49.8324 197.299 65.6268 193.422 81.9309 193.109C101.936 195.145 120.189 202.396 133.224 213.484C144.442 221.564 157.466 228.234 171.757 233.215C187.501 238.375 205.271 239.405 221.984 236.128C238.697 232.85 253.298 225.471 263.256 215.271C271.963 207.611 282.77 201.323 295.001 196.798C307.232 192.273 320.624 189.608 334.341 188.971L334.345 190.231C320.715 190.869 307.408 193.52 295.257 198.02C283.105 202.52 272.37 208.772 263.721 216.385C253.687 226.661 238.973 234.094 222.133 237.392C205.293 240.69 187.39 239.647 171.531 234.442C157.158 229.44 144.058 222.737 132.78 214.611C119.856 203.614 101.765 196.413 81.9317 194.37C65.7405 194.686 50.0572 198.539 36.968 205.417C27.9449 209.769 18.0782 213.137 7.68883 215.412C-1.55677 216.866 -11.169 216.529 -20.1639 214.433C-29.1588 212.338 -37.2131 208.56 -43.5021 203.486C-52.625 196.647 -64.8401 192.37 -77.9626 191.419L-77.9677 190.16Z" fill="url(#paint6_linear_70_1321)"/>
<path d="M-93.2217 190.49C-79.2383 191.213 -65.9449 195.114 -55.2614 201.63C-47.8472 206.379 -39.0011 209.828 -29.4162 211.705C-19.8312 213.583 -9.76758 213.838 -0.0137866 212.451C11.0782 210.42 21.7537 207.35 31.7384 203.32C46.6478 196.85 63.6653 193.329 81.0623 193.116C102.042 194.717 121.68 201.27 136.91 211.752C149.511 219.321 163.688 225.419 178.925 229.826C195.906 234.681 214.549 235.702 232.378 232.756C250.207 229.809 266.378 223.032 278.742 213.327C299.485 198.624 327.107 190.017 356.185 189.195L356.188 190.45C327.258 191.275 299.78 199.844 279.145 214.474C266.707 224.237 250.439 231.053 232.503 234.016C214.567 236.979 195.813 235.948 178.732 231.061C163.424 226.635 149.179 220.51 136.517 212.909C121.393 202.495 101.894 195.977 81.0587 194.371C63.7553 194.588 46.8307 198.092 32.001 204.527C21.9704 208.575 11.2457 211.659 0.102632 213.698C-9.73328 215.099 -19.8821 214.844 -29.5494 212.954C-39.2167 211.064 -48.1401 207.589 -55.6213 202.803C-66.206 196.345 -79.3741 192.473 -93.2296 191.744L-93.2217 190.49Z" fill="url(#paint7_linear_70_1321)"/>
<path d="M-109.84 190.801C-95.0074 191.36 -80.6946 194.888 -68.5146 200.985C-59.9006 205.442 -50.1309 208.613 -39.7803 210.312C-29.4296 212.011 -18.7071 212.203 -8.24328 210.878C3.70947 209.048 15.3319 206.234 26.3942 202.492C43.091 196.476 61.4673 193.272 80.1276 193.123C102.295 194.394 123.441 200.321 140.939 210.169C155.031 217.231 170.459 222.805 186.755 226.721C205.146 231.26 224.881 232.247 243.988 229.583C263.094 226.919 280.905 220.698 295.639 211.541C319.618 197.672 349.284 189.884 380.021 189.389L380.025 190.644C349.414 191.142 319.87 198.899 295.987 212.708C281.183 221.906 263.29 228.156 244.095 230.832C224.899 233.508 205.073 232.517 186.596 227.958C170.241 224.026 154.755 218.431 140.61 211.344C123.207 201.548 102.178 195.645 80.1311 194.37C61.5498 194.52 43.2521 197.712 26.6264 203.704C15.5258 207.461 3.86258 210.288 -8.13259 212.127C-18.667 213.462 -29.4622 213.27 -39.8837 211.562C-50.3052 209.854 -60.1427 206.664 -68.818 202.18C-80.9083 196.126 -95.1142 192.621 -109.838 192.059L-109.84 190.801Z" fill="url(#paint8_linear_70_1321)"/>
<path d="M-127.956 191.09C-112.123 191.529 -96.6811 194.723 -82.9556 200.399C-63.1617 208.776 -39.9386 211.974 -17.2144 209.452C-4.30748 207.789 8.33924 205.205 20.5382 201.739C39.102 196.157 58.9946 193.229 79.1019 193.121C102.688 194.143 125.501 199.512 145.344 208.714C161.024 215.276 177.809 220.369 195.292 223.869C215.259 228.091 236.298 229.026 256.853 226.607C277.409 224.187 296.953 218.475 314.039 209.893C341.345 196.895 373.272 189.833 405.988 189.554L405.992 190.806C373.381 191.088 341.557 198.129 314.339 211.086C297.191 219.7 277.575 225.433 256.945 227.861C236.315 230.289 215.199 229.35 195.16 225.114C177.623 221.608 160.788 216.5 145.065 209.916C125.305 200.753 102.592 195.403 79.1056 194.377C59.0655 194.487 39.2399 197.406 20.7386 202.97C8.5027 206.446 -4.18304 209.036 -17.1297 210.701C-39.972 213.245 -63.3197 210.034 -83.2169 201.611C-96.865 195.965 -112.22 192.786 -127.966 192.346L-127.956 191.09Z" fill="url(#paint9_linear_70_1321)"/>
<path d="M-147.71 191.364C-130.717 191.711 -114.02 194.609 -98.6897 199.872C-76.4505 207.63 -51.5152 210.505 -26.9922 208.139C-13.0091 206.626 0.770115 204.253 14.1937 201.047C34.7111 195.882 56.2725 193.204 77.9972 193.12C103.238 193.956 127.892 198.827 150.165 207.379C167.526 213.459 185.789 218.113 204.606 221.251C248.433 229.146 294.839 224.531 334.104 208.373C364.837 196.249 399.277 189.826 434.302 189.686L434.306 190.942C399.37 191.082 365.017 197.488 334.36 209.578C294.983 225.779 248.447 230.408 204.496 222.495C185.634 219.349 167.329 214.685 149.927 208.589C127.726 200.069 103.155 195.213 77.9994 194.374C56.3317 194.46 34.8271 197.131 14.3623 202.279C0.908246 205.495 -12.9031 207.872 -26.9192 209.386C-51.5419 211.775 -76.5834 208.891 -98.9105 201.094C-114.172 195.854 -130.793 192.968 -147.709 192.62L-147.71 191.364Z" fill="url(#paint10_linear_70_1321)"/>
<path d="M-169.231 191.634C-150.926 191.914 -132.844 194.544 -115.838 199.402C-91.0711 206.558 -64.1994 209.15 -37.6614 206.943C-22.4874 205.561 -7.47239 203.382 7.26314 200.423C29.8475 195.656 53.2474 193.2 76.7723 193.129C103.907 193.819 130.596 198.241 155.399 206.154C174.556 211.771 194.437 216.022 214.756 218.846C262.333 226.102 311.936 221.932 355.961 206.976C390.251 195.714 427.483 189.857 465.153 189.801L465.156 191.061C427.561 191.117 390.402 196.961 356.18 208.201C312.061 223.194 262.347 227.373 214.667 220.096C194.31 217.268 174.391 213.009 155.198 207.38C130.462 199.489 103.845 195.079 76.7832 194.388C53.305 194.459 29.9515 196.909 7.41143 201.665C-7.3487 204.63 -22.3895 206.812 -37.5898 208.193C-64.2126 210.424 -91.1759 207.826 -116.018 200.636C-132.964 195.794 -150.983 193.171 -169.225 192.892L-169.231 191.634Z" fill="url(#paint11_linear_70_1321)"/>
<path d="M230.491 10.8845L231.698 10.9851C246.821 13.5039 256.604 65.2828 266.968 120.098C278.302 180.067 290.025 242.075 308.809 242.021L308.815 244.131C288.724 244.189 276.846 181.354 265.36 120.589C255.588 68.8785 245.482 15.4072 231.484 13.0756C225.65 12.1162 219.058 20.2501 211.856 37.2856C201.643 68.1719 194.075 99.4759 189.192 131.021C177.86 189.866 169.584 228.44 158.257 228.473C145.8 228.509 138.321 203.08 130.404 176.163C126.69 160.366 120.859 144.867 112.991 129.883C110.229 125.728 107.716 124.046 105.305 124.722C96.8396 127.112 90.1437 158.555 84.2419 186.293C77.8346 216.39 71.7828 244.821 62.9644 244.846L62.9584 242.735C70.5205 242.714 76.6836 213.753 82.6454 185.748C89.2599 154.678 95.5073 125.334 104.949 122.668C107.976 121.827 111.102 123.795 114.248 128.525C122.253 143.703 128.181 159.408 131.946 175.419C139.317 200.48 146.941 226.389 158.245 226.357C169.129 226.325 178.512 177.619 187.581 130.514C192.487 98.8003 200.107 67.3304 210.396 36.2834C217.601 19.2396 224.186 10.9027 230.491 10.8845Z" fill="url(#paint12_linear_70_1321)"/>
<path d="M236.576 28.8056L238.305 28.9661C254.481 32.0169 265.035 79.0892 276.208 128.923C288.531 183.877 301.279 240.704 321.831 240.645L321.837 242.748C300.025 242.811 287.108 185.205 274.618 129.5C264.081 82.4995 253.181 33.9034 238.06 31.0495C231.555 29.8193 224.174 37.2759 216.163 53.2146C205.063 81.3829 196.797 110.085 191.428 139.1C180.882 185.037 170.922 228.427 157.74 228.465C144.256 228.503 136.108 205.205 127.498 180.538C123.401 165.943 117.046 151.726 108.552 138.152C105.393 134.154 102.5 132.634 99.6944 133.488C90.5844 136.297 83.6782 163.508 77.0038 189.826C70.003 217.427 63.3916 243.494 53.8568 243.521L53.8507 241.418C62.1799 241.394 68.9145 214.848 75.4287 189.176C82.2419 162.309 89.2884 134.525 99.3007 131.441C102.657 130.41 106.162 132.159 109.712 136.659C118.372 150.43 124.842 164.862 129 179.683C137.394 203.701 145.318 226.398 157.727 226.362C169.676 226.328 179.925 181.681 189.836 138.505C195.238 109.304 203.571 80.4186 214.77 52.0748C222.617 36.4696 229.771 28.8252 236.576 28.8056Z" fill="url(#paint13_linear_70_1321)"/>
<path d="M243.206 45.2246L245.638 45.4767C262.887 49.0999 274.25 91.7945 286.282 137.001C299.684 187.359 313.543 239.439 336.04 239.374L336.046 241.475C312.359 241.543 298.306 188.739 284.718 137.673C272.851 93.0838 261.647 50.9717 245.38 47.5507C237.944 45.9922 229.942 52.6232 220.855 67.8126C208.813 93.4596 199.787 119.785 193.872 146.51C182.353 188.633 171.477 228.419 157.202 228.46C142.584 228.502 133.73 207.157 124.356 184.554C119.816 171.032 112.887 157.986 103.739 145.735C100.101 141.856 96.749 140.486 93.487 141.564C83.7226 144.778 76.3064 169.333 69.1325 193.076C61.4869 218.383 54.27 242.28 43.971 242.31L43.965 240.207C53.1336 240.18 60.4838 215.847 67.5918 192.318C74.9133 168.078 82.4901 143.009 93.0758 139.526C96.8353 138.281 100.776 139.832 104.796 144.117C114.136 156.559 121.2 169.82 125.814 183.57C134.95 205.593 143.581 226.399 157.199 226.359C170.31 226.322 181.5 185.397 192.32 145.818C198.277 118.891 207.387 92.3689 219.553 66.5361C228.077 52.256 235.852 45.2457 243.206 45.2246Z" fill="url(#paint14_linear_70_1321)"/>
<path d="M250.423 60.2778C251.567 60.2752 252.703 60.4022 253.791 60.6542C272.116 64.8572 284.321 103.49 297.243 144.39C311.826 190.544 326.907 238.274 351.518 238.203L351.524 240.306C325.793 240.38 310.503 191.979 295.716 145.174C282.969 104.828 270.93 66.7226 253.506 62.7283C245.171 60.8248 236.15 66.8644 225.949 81.2088C212.899 104.509 203.038 128.665 196.507 153.333C183.934 191.948 172.053 228.424 156.578 228.468C140.735 228.514 131.1 208.96 120.892 188.254C115.832 175.682 108.273 163.704 98.4501 152.692C94.2421 148.925 90.3497 147.729 86.5716 149.026C76.1613 152.605 68.2054 174.708 60.5109 196.084C52.166 219.282 44.2863 241.197 33.1523 241.229L33.1462 239.126C43.2237 239.097 51.2513 216.786 59.0104 195.21C66.8585 173.394 74.9738 150.833 86.133 146.998C90.3695 145.544 94.831 146.886 99.3975 150.977C109.429 162.166 117.141 174.348 122.29 187.141C132.243 207.338 141.652 226.412 156.572 226.369C170.953 226.328 182.625 190.481 194.985 152.528C201.57 127.648 211.532 103.287 224.726 79.7958C234.021 66.7238 242.468 60.3007 250.423 60.2778Z" fill="url(#paint15_linear_70_1321)"/>
<path d="M258.293 74.0753C259.845 74.0728 261.386 74.2573 262.853 74.621C282.261 79.3652 295.344 114.23 309.192 151.144C325.065 193.45 341.478 237.195 368.396 237.117L368.402 239.222C340.443 239.302 323.799 194.947 307.707 152.049C294.041 115.631 281.133 81.2304 262.546 76.6879C253.166 74.4012 243.007 79.8852 231.495 93.485C217.393 114.592 206.623 136.764 199.384 159.586C185.656 194.987 172.695 228.423 155.91 228.472C138.725 228.521 127.751 209.779 117.135 191.657C111.459 179.919 103.201 168.916 92.6757 159.065C87.8138 155.4 83.3096 154.364 78.9171 155.901C67.8448 159.778 59.3427 179.639 51.1165 198.843C42.0148 220.101 33.4135 240.186 21.3618 240.221L21.3558 238.117C32.4334 238.085 40.8047 218.533 49.6691 197.833C58.0563 178.242 66.7339 157.985 78.4786 153.871C83.2499 152.198 88.3187 153.333 93.5172 157.256C104.256 167.263 112.675 178.454 118.451 190.397C129.299 208.918 139.541 226.414 155.896 226.367C171.658 226.322 184.404 193.452 197.897 158.652C205.201 135.615 216.093 113.239 230.365 91.9479C240.484 79.9893 249.668 74.1001 258.293 74.0753Z" fill="url(#paint16_linear_70_1321)"/>
<path d="M266.857 86.717C268.914 86.7134 270.955 86.9667 272.89 87.4656C293.389 92.6761 307.387 124.079 322.206 157.329C339.489 196.109 357.363 236.209 386.788 236.125L386.794 238.222C356.4 238.309 338.29 197.667 320.77 158.358C306.148 125.543 292.329 94.5463 272.572 89.5231C261.999 86.8403 250.536 91.8077 237.533 104.729C222.337 123.781 210.569 144.14 202.51 165.317C187.535 197.769 173.391 228.419 155.184 228.472C136.538 228.526 124.597 211.369 113.043 194.78C106.645 183.782 97.6278 173.674 86.396 164.91C66.0472 152.012 53.2545 177.113 40.8833 201.391C30.9531 220.873 21.5797 239.274 8.52654 239.312L8.52048 237.209C20.6778 237.174 29.818 219.236 39.4979 200.245C52.2619 175.199 65.4605 149.308 87.1287 163.026C98.5778 171.924 107.767 182.199 114.281 193.384C126.108 210.372 137.278 226.421 155.181 226.37C172.45 226.32 186.356 196.171 201.093 164.249C209.229 142.859 221.135 122.299 236.521 103.071C247.519 92.138 257.508 86.744 266.857 86.717Z" fill="url(#paint17_linear_70_1321)"/>
<path d="M276.34 98.207C302.054 98.1329 318.865 129.884 336.386 162.969C355.212 198.525 374.68 235.285 406.842 235.192L406.848 237.296C373.808 237.391 354.089 200.156 335.019 164.145C311.409 119.555 289.105 77.4472 244.118 115.035C227.786 132.161 214.922 150.867 205.911 170.589C189.58 200.325 174.153 228.416 154.395 228.473C134.143 228.532 121.148 212.826 108.582 197.641C101.328 187.301 91.4777 178.017 79.5268 170.257C57.2214 158.375 43.2316 181.439 29.7186 203.737C18.8979 221.583 8.67774 238.442 -5.46526 238.483L-5.47132 236.38C7.8641 236.341 17.8451 219.879 28.4109 202.448C42.3142 179.52 56.6959 155.822 80.1581 168.317C92.3216 176.186 102.344 185.613 109.717 196.118C122.617 211.706 134.799 226.427 154.391 226.371C173.296 226.316 188.485 198.66 204.565 169.381C213.665 149.454 226.68 130.561 243.215 113.275C246.947 109.225 251.829 105.788 257.539 103.191C263.248 100.594 269.656 98.8951 276.34 98.207Z" fill="url(#paint18_linear_70_1321)"/>
<path d="M286.495 108.847C314.476 108.766 332.77 137.84 351.834 168.135C372.347 200.73 393.563 234.437 428.699 234.335L428.705 236.435C392.773 236.538 371.31 202.428 350.548 169.445C324.804 128.53 300.488 89.8871 251.294 124.457C233.804 139.784 219.741 156.974 209.614 175.409C191.809 202.662 174.992 228.405 153.534 228.467C131.535 228.531 118.023 214.799 103.719 200.264C95.4772 190.518 84.723 181.996 72.0329 175.154C47.6012 164.223 32.3223 185.403 17.5435 205.889C5.75303 222.238 -5.38584 237.681 -20.7185 237.726L-20.7246 235.622C-6.10686 235.58 4.78983 220.469 16.3323 204.465C31.4686 183.478 47.1195 161.786 72.5772 173.173C85.4637 180.098 96.3831 188.736 104.746 198.62C118.816 212.921 132.104 226.426 153.529 226.364C174.226 226.304 190.797 200.93 208.346 174.063C218.576 155.441 232.799 138.082 250.497 122.617C259.569 114.848 272.476 109.91 286.495 108.847Z" fill="url(#paint19_linear_70_1321)"/>
<path d="M297.564 118.594C328.013 118.507 347.92 145.12 368.669 172.859C391.024 202.745 414.145 233.646 452.52 233.535L452.526 235.638C413.44 235.75 390.074 204.512 367.477 174.306C339.401 136.771 312.881 101.307 259.12 133.115C240.448 146.765 225.078 162.561 213.646 179.849C194.24 204.82 175.911 228.409 152.601 228.477C128.68 228.545 113.982 215.98 98.4187 202.679C89.0455 193.489 77.3131 185.676 63.8529 179.659C37.1196 169.604 20.4172 189.064 4.27462 207.884C-8.5633 222.857 -20.6987 236.999 -37.3427 237.047L-37.3487 234.947C-21.343 234.901 -9.43983 221.024 3.16444 206.336C19.6446 187.124 36.6801 167.264 64.3174 177.642C77.955 183.723 89.841 191.629 99.3327 200.933C114.68 214.051 129.177 226.439 152.593 226.371C175.219 226.306 193.315 203.021 212.473 178.367C224.014 160.912 239.547 144.969 258.423 131.204C269.059 123.876 282.891 119.42 297.564 118.594Z" fill="url(#paint20_linear_70_1321)"/>
<path d="M309.62 127.519C342.772 127.423 364.433 151.787 387.013 177.178C411.38 204.579 436.578 232.915 478.484 232.794L478.491 234.893C435.959 235.015 410.53 206.414 385.925 178.749C355.305 144.314 326.393 111.785 267.652 141.025C247.773 153.138 230.982 167.651 218.036 183.909C196.888 206.792 176.916 228.403 151.577 228.476C139.984 227.762 128.737 225.291 118.576 221.225C108.416 217.159 99.5713 211.591 92.6251 204.886C81.9913 196.227 69.2063 189.07 54.9226 183.779C25.6792 174.55 7.44537 192.424 -10.1895 209.71C-24.1787 223.424 -37.393 236.376 -55.4596 236.428L-55.4657 234.331C-37.9534 234.281 -24.9643 221.535 -11.1944 208.043C6.75073 190.455 25.3107 172.26 55.3176 181.743C69.7591 187.078 82.6849 194.306 93.4317 203.055C100.282 209.673 109.002 215.172 119.022 219.191C129.042 223.211 140.134 225.66 151.571 226.379C176.307 226.308 196.059 204.933 216.969 182.305C230.031 165.907 246.981 151.275 267.052 139.072C279.287 132.201 294.136 128.171 309.62 127.519Z" fill="url(#paint21_linear_70_1321)"/>
<path d="M322.767 135.69C358.852 135.586 382.434 157.889 407.011 181.138C433.569 206.26 461.043 232.241 506.788 232.109L506.794 234.201C460.503 234.334 432.812 208.143 406.032 182.815C372.637 151.237 341.095 121.412 276.961 148.274C255.829 158.993 237.499 172.318 222.822 187.629C199.777 208.597 178.012 228.403 150.464 228.482C125.991 227.527 103 219.798 86.3063 206.915C74.2889 198.778 60.368 192.23 45.1817 187.571C13.2166 179.09 -6.69597 195.513 -25.9573 211.401C-41.1916 223.964 -55.5827 235.83 -75.2125 235.886L-75.2185 233.79C-56.0708 233.735 -41.8789 222.031 -26.8524 209.639C-7.31527 193.529 12.8932 176.867 45.5116 185.518C60.8353 190.211 74.8824 196.813 87.0071 205.021C103.514 217.773 126.251 225.431 150.461 226.394C177.485 226.317 199.042 206.698 221.869 185.93C236.658 170.5 255.139 157.078 276.449 146.291C290.321 139.877 306.304 136.219 322.767 135.69Z" fill="url(#paint22_linear_70_1321)"/>
<path d="M337.091 143.169C376.385 143.056 402.056 163.469 428.811 184.744C440.931 197.887 456.998 208.905 475.831 216.987C494.664 225.069 515.784 230.01 537.639 231.448L537.645 233.546C515.617 232.113 494.326 227.144 475.34 219.006C456.354 210.869 440.156 199.769 427.938 186.524C391.527 157.565 357.122 130.214 287.11 154.907C264.652 164.388 244.661 176.613 228.04 191.032C202.932 210.248 179.217 228.4 149.246 228.486C123.492 227.882 98.8303 220.916 79.4114 208.761C65.8991 201.14 50.7477 195.154 34.5516 191.037C-0.359652 183.261 -22.104 198.346 -43.1319 212.932C-56.2515 225.158 -75.496 233.214 -96.745 235.374L-96.7511 233.277C-75.8077 231.106 -56.853 223.145 -43.9201 211.089C-22.6423 196.334 -0.636559 181.084 34.8322 188.967C51.1446 193.111 66.4055 199.138 80.0166 206.81C99.2648 218.862 123.708 225.775 149.238 226.386C178.756 226.301 202.282 208.294 227.191 189.228C243.924 174.715 264.054 162.416 286.67 152.885C302.237 146.929 319.482 143.606 337.091 143.169Z" fill="url(#paint23_linear_70_1321)"/>
</g>
<defs>
<linearGradient id="paint0_linear_70_1321" x1="200.386" y1="224.98" x2="31.6494" y2="319.375" gradientUnits="userSpaceOnUse">
<stop stop-color="#AD2BCD"/>
<stop offset="0.28" stop-color="#3531BC"/>
<stop offset="0.555" stop-color="#3896AB" stop-opacity="0.9"/>
<stop offset="0.795" stop-color="#418DD5" stop-opacity="0.7"/>
<stop offset="1" stop-color="#4CFF0B" stop-opacity="0.5"/>
</linearGradient>
<linearGradient id="paint1_linear_70_1321" x1="210.168" y1="222.311" x2="42.5324" y2="333.63" gradientUnits="userSpaceOnUse">
<stop stop-color="#AD2BCD"/>
<stop offset="0.28" stop-color="#3531BC"/>
<stop offset="0.555" stop-color="#3896AB" stop-opacity="0.9"/>
<stop offset="0.795" stop-color="#418DD5" stop-opacity="0.7"/>
<stop offset="1" stop-color="#4CFF0B" stop-opacity="0.5"/>
</linearGradient>
<linearGradient id="paint2_linear_70_1321" x1="220.832" y1="219.857" x2="58.3798" y2="347.911" gradientUnits="userSpaceOnUse">
<stop stop-color="#AD2BCD"/>
<stop offset="0.28" stop-color="#3531BC"/>
<stop offset="0.555" stop-color="#3896AB" stop-opacity="0.9"/>
<stop offset="0.795" stop-color="#418DD5" stop-opacity="0.7"/>
<stop offset="1" stop-color="#4CFF0B" stop-opacity="0.5"/>
</linearGradient>
<linearGradient id="paint3_linear_70_1321" x1="232.464" y1="217.606" x2="79.3529" y2="360.899" gradientUnits="userSpaceOnUse">
<stop stop-color="#AD2BCD"/>
<stop offset="0.28" stop-color="#3531BC"/>
<stop offset="0.555" stop-color="#3896AB" stop-opacity="0.9"/>
<stop offset="0.795" stop-color="#418DD5" stop-opacity="0.7"/>
<stop offset="1" stop-color="#4CFF0B" stop-opacity="0.5"/>
</linearGradient>
<linearGradient id="paint4_linear_70_1321" x1="245.142" y1="215.541" x2="104.951" y2="371.292" gradientUnits="userSpaceOnUse">
<stop stop-color="#AD2BCD"/>
<stop offset="0.28" stop-color="#3531BC"/>
<stop offset="0.555" stop-color="#3896AB" stop-opacity="0.9"/>
<stop offset="0.795" stop-color="#418DD5" stop-opacity="0.7"/>
<stop offset="1" stop-color="#4CFF0B" stop-opacity="0.5"/>
</linearGradient>
<linearGradient id="paint5_linear_70_1321" x1="258.95" y1="213.64" x2="134.237" y2="378.113" gradientUnits="userSpaceOnUse">
<stop stop-color="#AD2BCD"/>
<stop offset="0.28" stop-color="#3531BC"/>
<stop offset="0.555" stop-color="#3896AB" stop-opacity="0.9"/>
<stop offset="0.795" stop-color="#418DD5" stop-opacity="0.7"/>
<stop offset="1" stop-color="#4CFF0B" stop-opacity="0.5"/>
</linearGradient>
<linearGradient id="paint6_linear_70_1321" x1="274.015" y1="211.731" x2="167.061" y2="380.3" gradientUnits="userSpaceOnUse">
<stop stop-color="#AD2BCD"/>
<stop offset="0.28" stop-color="#3531BC"/>
<stop offset="0.555" stop-color="#3896AB" stop-opacity="0.9"/>
<stop offset="0.795" stop-color="#418DD5" stop-opacity="0.7"/>
<stop offset="1" stop-color="#4CFF0B" stop-opacity="0.5"/>
</linearGradient>
<linearGradient id="paint7_linear_70_1321" x1="290.418" y1="210.22" x2="199.51" y2="379.603" gradientUnits="userSpaceOnUse">
<stop stop-color="#AD2BCD"/>
<stop offset="0.28" stop-color="#3531BC"/>
<stop offset="0.555" stop-color="#3896AB" stop-opacity="0.9"/>
<stop offset="0.795" stop-color="#418DD5" stop-opacity="0.7"/>
<stop offset="1" stop-color="#4CFF0B" stop-opacity="0.5"/>
</linearGradient>
<linearGradient id="paint8_linear_70_1321" x1="308.326" y1="208.802" x2="232.656" y2="375.642" gradientUnits="userSpaceOnUse">
<stop stop-color="#AD2BCD"/>
<stop offset="0.28" stop-color="#3531BC"/>
<stop offset="0.555" stop-color="#3896AB" stop-opacity="0.9"/>
<stop offset="0.795" stop-color="#418DD5" stop-opacity="0.7"/>
<stop offset="1" stop-color="#4CFF0B" stop-opacity="0.5"/>
</linearGradient>
<linearGradient id="paint9_linear_70_1321" x1="327.83" y1="207.478" x2="265.879" y2="369.177" gradientUnits="userSpaceOnUse">
<stop stop-color="#AD2BCD"/>
<stop offset="0.28" stop-color="#3531BC"/>
<stop offset="0.555" stop-color="#3896AB" stop-opacity="0.9"/>
<stop offset="0.795" stop-color="#418DD5" stop-opacity="0.7"/>
<stop offset="1" stop-color="#4CFF0B" stop-opacity="0.5"/>
</linearGradient>
<linearGradient id="paint10_linear_70_1321" x1="349.101" y1="206.236" x2="299.088" y2="360.899" gradientUnits="userSpaceOnUse">
<stop stop-color="#AD2BCD"/>
<stop offset="0.28" stop-color="#3531BC"/>
<stop offset="0.555" stop-color="#3896AB" stop-opacity="0.9"/>
<stop offset="0.795" stop-color="#418DD5" stop-opacity="0.7"/>
<stop offset="1" stop-color="#4CFF0B" stop-opacity="0.5"/>
</linearGradient>
<linearGradient id="paint11_linear_70_1321" x1="372.277" y1="205.084" x2="332.323" y2="351.536" gradientUnits="userSpaceOnUse">
<stop stop-color="#AD2BCD"/>
<stop offset="0.28" stop-color="#3531BC"/>
<stop offset="0.555" stop-color="#3896AB" stop-opacity="0.9"/>
<stop offset="0.795" stop-color="#418DD5" stop-opacity="0.7"/>
<stop offset="1" stop-color="#4CFF0B" stop-opacity="0.5"/>
</linearGradient>
<linearGradient id="paint12_linear_70_1321" x1="272.437" y1="116.375" x2="59.853" y2="159.466" gradientUnits="userSpaceOnUse">
<stop stop-color="#AD2BCD"/>
<stop offset="0.28" stop-color="#3531BC"/>
<stop offset="0.555" stop-color="#3896AB" stop-opacity="0.9"/>
<stop offset="0.795" stop-color="#418DD5" stop-opacity="0.7"/>
<stop offset="1" stop-color="#4CFF0B" stop-opacity="0.5"/>
</linearGradient>
<linearGradient id="paint13_linear_70_1321" x1="282.248" y1="125.56" x2="54.1561" y2="180.377" gradientUnits="userSpaceOnUse">
<stop stop-color="#AD2BCD"/>
<stop offset="0.28" stop-color="#3531BC"/>
<stop offset="0.555" stop-color="#3896AB" stop-opacity="0.9"/>
<stop offset="0.795" stop-color="#418DD5" stop-opacity="0.7"/>
<stop offset="1" stop-color="#4CFF0B" stop-opacity="0.5"/>
</linearGradient>
<linearGradient id="paint14_linear_70_1321" x1="292.955" y1="133.973" x2="49.7181" y2="203.293" gradientUnits="userSpaceOnUse">
<stop stop-color="#AD2BCD"/>
<stop offset="0.28" stop-color="#3531BC"/>
<stop offset="0.555" stop-color="#3896AB" stop-opacity="0.9"/>
<stop offset="0.795" stop-color="#418DD5" stop-opacity="0.7"/>
<stop offset="1" stop-color="#4CFF0B" stop-opacity="0.5"/>
</linearGradient>
<linearGradient id="paint15_linear_70_1321" x1="304.608" y1="141.689" x2="47.2976" y2="228.673" gradientUnits="userSpaceOnUse">
<stop stop-color="#AD2BCD"/>
<stop offset="0.28" stop-color="#3531BC"/>
<stop offset="0.555" stop-color="#3896AB" stop-opacity="0.9"/>
<stop offset="0.795" stop-color="#418DD5" stop-opacity="0.7"/>
<stop offset="1" stop-color="#4CFF0B" stop-opacity="0.5"/>
</linearGradient>
<linearGradient id="paint16_linear_70_1321" x1="317.31" y1="148.751" x2="48.0441" y2="256.758" gradientUnits="userSpaceOnUse">
<stop stop-color="#AD2BCD"/>
<stop offset="0.28" stop-color="#3531BC"/>
<stop offset="0.555" stop-color="#3896AB" stop-opacity="0.9"/>
<stop offset="0.795" stop-color="#418DD5" stop-opacity="0.7"/>
<stop offset="1" stop-color="#4CFF0B" stop-opacity="0.5"/>
</linearGradient>
<linearGradient id="paint17_linear_70_1321" x1="331.149" y1="155.219" x2="53.3038" y2="287.464" gradientUnits="userSpaceOnUse">
<stop stop-color="#AD2BCD"/>
<stop offset="0.28" stop-color="#3531BC"/>
<stop offset="0.555" stop-color="#3896AB" stop-opacity="0.9"/>
<stop offset="0.795" stop-color="#418DD5" stop-opacity="0.7"/>
<stop offset="1" stop-color="#4CFF0B" stop-opacity="0.5"/>
</linearGradient>
<linearGradient id="paint18_linear_70_1321" x1="346.236" y1="161.091" x2="64.4638" y2="320.147" gradientUnits="userSpaceOnUse">
<stop stop-color="#AD2BCD"/>
<stop offset="0.28" stop-color="#3531BC"/>
<stop offset="0.555" stop-color="#3896AB" stop-opacity="0.9"/>
<stop offset="0.795" stop-color="#418DD5" stop-opacity="0.7"/>
<stop offset="1" stop-color="#4CFF0B" stop-opacity="0.5"/>
</linearGradient>
<linearGradient id="paint19_linear_70_1321" x1="362.676" y1="166.525" x2="83.089" y2="353.87" gradientUnits="userSpaceOnUse">
<stop stop-color="#AD2BCD"/>
<stop offset="0.28" stop-color="#3531BC"/>
<stop offset="0.555" stop-color="#3896AB" stop-opacity="0.9"/>
<stop offset="0.795" stop-color="#418DD5" stop-opacity="0.7"/>
<stop offset="1" stop-color="#4CFF0B" stop-opacity="0.5"/>
</linearGradient>
<linearGradient id="paint20_linear_70_1321" x1="380.589" y1="171.5" x2="110.037" y2="386.709" gradientUnits="userSpaceOnUse">
<stop stop-color="#AD2BCD"/>
<stop offset="0.28" stop-color="#3531BC"/>
<stop offset="0.555" stop-color="#3896AB" stop-opacity="0.9"/>
<stop offset="0.795" stop-color="#418DD5" stop-opacity="0.7"/>
<stop offset="1" stop-color="#4CFF0B" stop-opacity="0.5"/>
</linearGradient>
<linearGradient id="paint21_linear_70_1321" x1="400.112" y1="176.047" x2="145.474" y2="416.5" gradientUnits="userSpaceOnUse">
<stop stop-color="#AD2BCD"/>
<stop offset="0.28" stop-color="#3531BC"/>
<stop offset="0.555" stop-color="#3896AB" stop-opacity="0.9"/>
<stop offset="0.795" stop-color="#418DD5" stop-opacity="0.7"/>
<stop offset="1" stop-color="#4CFF0B" stop-opacity="0.5"/>
</linearGradient>
<linearGradient id="paint22_linear_70_1321" x1="421.39" y1="180.209" x2="188.574" y2="441.167" gradientUnits="userSpaceOnUse">
<stop stop-color="#AD2BCD"/>
<stop offset="0.28" stop-color="#3531BC"/>
<stop offset="0.555" stop-color="#3896AB" stop-opacity="0.9"/>
<stop offset="0.795" stop-color="#418DD5" stop-opacity="0.7"/>
<stop offset="1" stop-color="#4CFF0B" stop-opacity="0.5"/>
</linearGradient>
<linearGradient id="paint23_linear_70_1321" x1="444.581" y1="184.001" x2="237.809" y2="459.163" gradientUnits="userSpaceOnUse">
<stop stop-color="#AD2BCD"/>
<stop offset="0.28" stop-color="#3531BC"/>
<stop offset="0.555" stop-color="#3896AB" stop-opacity="0.9"/>
<stop offset="0.795" stop-color="#418DD5" stop-opacity="0.7"/>
<stop offset="1" stop-color="#4CFF0B" stop-opacity="0.5"/>
</linearGradient>
<clipPath id="clip0_70_1321">
<rect width="400" height="300" rx="8" fill="white"/>
</clipPath>
</defs>
</svg>
