<svg width="400" height="300" viewBox="0 0 400 300" fill="none" xmlns="http://www.w3.org/2000/svg">
<g clip-path="url(#clip0_70_1353)">
<rect width="400" height="300" rx="8" fill="#0F0F0F"/>
<path d="M373.311 195.371C364.879 195.396 358.726 185.285 352.216 174.586C344.072 161.219 335.661 147.39 322.406 154.615C315.296 159.334 309.454 164.954 305.174 171.193C297.734 180.374 290.04 189.867 277.961 189.902C266.174 189.936 256.882 173.085 247.033 155.247C241.601 143.423 233.867 132.215 224.063 121.956C197.12 99.4868 183.963 124.913 170.04 151.817C158.794 173.551 147.165 196.024 127.463 196.081L127.459 194.818C146.632 194.763 158.113 172.577 169.216 151.122C183.417 123.676 196.824 97.7495 224.604 120.899C234.531 131.255 242.356 142.577 247.843 154.524C257.53 172.085 266.681 188.672 277.951 188.639C289.63 188.606 296.844 179.708 304.478 170.286C308.83 163.949 314.774 158.243 322.009 153.458C335.97 145.845 344.619 160.069 352.985 173.815C359.349 184.263 365.354 194.133 373.306 194.11L373.311 195.371Z" fill="url(#paint0_linear_70_1353)"/>
<path d="M382.408 194.866C373.261 194.893 366.565 185.638 359.478 175.841C350.598 163.566 341.421 150.878 326.89 157.537C319.336 161.706 312.953 166.871 308.083 172.755C299.605 181.552 291.596 189.863 278.474 189.9C265.675 189.937 255.562 174.503 244.851 158.167C238.76 147.123 230.317 136.831 219.825 127.658C190.385 107.016 176.014 130.357 160.801 155.061C148.539 174.975 135.858 195.577 114.431 195.638L114.427 194.376C135.379 194.316 147.907 173.964 160.026 154.278C175.505 129.143 190.117 105.402 220.299 126.548C230.915 135.806 239.452 146.203 245.601 157.361C256.161 173.463 266.132 188.673 278.466 188.638C291.243 188.601 299.116 180.429 307.453 171.777C312.396 165.809 318.877 160.574 326.548 156.352C341.693 149.397 351.099 162.412 360.195 174.989C367.132 184.576 373.686 193.631 382.393 193.606L382.408 194.866Z" fill="url(#paint1_linear_70_1353)"/>
<path d="M392.321 194.399C382.395 194.428 375.114 185.961 367.406 176.993C357.715 165.728 347.7 154.073 331.787 160.22C323.773 163.894 316.806 168.635 311.262 174.187C302.023 182.245 293.306 189.85 279.033 189.891C265.138 189.931 254.121 175.809 242.465 160.847C235.602 150.497 226.385 141.046 215.192 132.882C183.035 113.946 167.34 135.362 150.729 158.047C137.36 176.299 123.534 195.177 100.226 195.244L100.222 193.986C123.102 193.92 136.785 175.245 150.006 157.185C166.865 134.159 182.792 112.405 215.604 131.746C226.919 139.976 236.235 149.513 243.164 159.961C254.671 174.729 265.536 188.678 279.027 188.639C292.994 188.599 301.594 181.094 310.696 173.145C316.315 167.524 323.375 162.726 331.497 159.011C347.946 152.663 358.171 164.554 368.066 176.062C375.632 184.858 382.774 193.169 392.316 193.141L392.321 194.399Z" fill="url(#paint2_linear_70_1353)"/>
<path d="M403.116 193.964C392.344 193.995 384.423 186.249 376.03 178.044C365.458 167.701 354.523 156.994 337.121 162.67C328.607 165.907 321.006 170.257 314.707 175.497C310.612 179.546 305.367 182.923 299.321 185.405C293.275 187.887 286.567 189.417 279.642 189.893C264.535 189.936 252.548 177.001 239.857 163.305C232.098 153.579 222.036 144.905 210.124 137.672C175.013 120.288 157.883 139.957 139.743 160.779C125.174 177.509 110.099 194.809 84.7366 194.882L84.7329 193.627C109.719 193.555 124.645 176.418 139.08 159.843C157.451 138.757 174.804 118.848 210.481 136.498C222.508 143.786 232.664 152.533 240.492 162.344C253.042 175.888 264.893 188.68 279.638 188.637C286.469 188.159 293.084 186.643 299.045 184.189C305.005 181.736 310.176 178.401 314.215 174.406C320.583 169.111 328.269 164.717 336.877 161.451C354.741 155.651 365.871 166.523 376.634 177.052C384.883 185.122 392.676 192.744 403.112 192.714L403.116 193.964Z" fill="url(#paint3_linear_70_1353)"/>
<path d="M414.896 193.558C403.192 193.592 394.57 186.503 385.439 178.997C373.904 169.505 361.973 159.707 342.948 164.905C333.898 167.767 325.62 171.756 318.495 176.686C308.626 184.485 294.932 189.22 280.312 189.89C263.882 189.938 250.837 178.095 237.024 165.557C228.233 156.409 217.255 148.456 204.599 142.068C166.267 126.136 147.56 144.178 127.761 163.295C111.885 178.627 95.456 194.479 67.8531 194.559L67.8495 193.303C95.1224 193.225 111.411 177.497 127.162 162.292C147.176 142.97 166.078 124.719 204.902 140.873C217.662 147.304 228.727 155.316 237.581 164.536C251.26 176.953 264.183 188.682 280.295 188.635C294.754 187.961 308.293 183.271 318.051 175.557C325.243 170.583 333.599 166.561 342.734 163.678C362.153 158.356 374.264 168.312 385.97 177.942C394.974 185.344 403.475 192.337 414.888 192.304L414.896 193.558Z" fill="url(#paint4_linear_70_1353)"/>
<path d="M427.725 193.184C415.02 191.945 403.511 187.162 395.681 179.869C383.096 171.162 370.075 162.172 349.294 166.956C339.642 169.496 330.628 173.152 322.609 177.779C311.106 185.15 296.413 189.43 281.033 189.89C263.158 189.941 248.952 179.102 233.915 167.624C223.976 159.016 212.016 151.729 198.575 146.092C156.747 131.467 136.333 148.051 114.717 165.604C107.522 173.594 97.9195 180.321 86.6232 185.284C75.3269 190.247 62.6263 193.319 49.464 194.273L49.4604 193.019C62.5201 192.063 75.119 189.007 86.3239 184.077C97.5288 179.147 107.052 172.469 114.189 164.538C135.992 146.836 156.586 130.12 198.833 144.872C212.366 150.543 224.41 157.875 234.42 166.537C249.338 177.926 263.43 188.679 281.029 188.628C296.277 188.167 310.841 183.92 322.243 176.609C330.322 171.949 339.405 168.27 349.131 165.717C370.258 160.832 383.429 169.95 396.166 178.759C403.881 185.952 415.215 190.678 427.736 191.924L427.725 193.184Z" fill="url(#paint5_linear_70_1353)"/>
<path d="M441.717 192.84C428.44 191.895 416.076 187.577 406.845 180.66C400.622 175.642 392.656 171.904 383.761 169.827C374.865 167.75 365.358 167.408 356.209 168.837C345.88 171.101 336.07 174.45 327.099 178.777C313.917 185.701 298.122 189.578 281.818 189.891C261.814 187.855 243.56 180.604 230.525 169.516C219.307 161.436 206.283 154.766 191.993 149.785C176.248 144.625 158.478 143.595 141.765 146.872C125.052 150.15 110.451 157.529 100.493 167.729C91.7863 175.389 80.9796 181.677 68.7485 186.202C56.5174 190.727 43.1249 193.392 29.4078 194.029L29.4042 192.769C43.0344 192.131 56.3409 189.48 68.4924 184.98C80.6438 180.48 91.3794 174.228 100.028 166.615C110.062 156.339 124.776 148.906 141.616 145.608C158.456 142.31 176.359 143.353 192.218 148.558C206.592 153.56 219.691 160.263 230.969 168.389C243.893 179.386 261.984 186.587 281.818 188.63C298.009 188.314 313.692 184.461 326.781 177.583C335.804 173.231 345.671 169.863 356.06 167.588C365.306 166.134 374.918 166.471 383.913 168.567C392.908 170.662 400.962 174.44 407.251 179.514C416.374 186.353 428.589 190.63 441.712 191.581L441.717 192.84Z" fill="url(#paint6_linear_70_1353)"/>
<path d="M456.971 192.51C442.988 191.787 429.694 187.886 419.011 181.37C411.596 176.621 402.75 173.172 393.165 171.295C383.58 169.417 373.517 169.162 363.763 170.549C352.671 172.58 341.996 175.65 332.011 179.68C317.101 186.15 300.084 189.671 282.687 189.884C261.707 188.283 242.069 181.73 226.839 171.248C214.238 163.679 200.061 157.581 184.824 153.174C167.843 148.319 149.2 147.298 131.371 150.244C113.542 153.191 97.3717 159.968 85.0072 169.673C64.2639 184.376 36.6423 192.983 7.56462 193.805L7.561 192.55C36.4908 191.725 63.9689 183.156 84.6044 168.526C97.0427 158.763 113.311 151.947 131.247 148.984C149.182 146.021 167.937 147.052 185.017 151.939C200.325 156.365 214.57 162.49 227.233 170.091C242.356 180.505 261.855 187.023 282.691 188.629C299.994 188.412 316.919 184.908 331.748 178.473C341.779 174.425 352.504 171.341 363.647 169.302C373.483 167.901 383.631 168.156 393.299 170.046C402.966 171.936 411.889 175.411 419.37 180.197C429.955 186.655 443.123 190.527 456.979 191.256L456.971 192.51Z" fill="url(#paint7_linear_70_1353)"/>
<path d="M473.589 192.199C458.757 191.64 444.444 188.112 432.264 182.015C423.65 177.558 413.88 174.387 403.529 172.688C393.179 170.989 382.456 170.797 371.993 172.122C360.04 173.952 348.417 176.766 337.355 180.508C320.658 186.524 302.282 189.728 283.622 189.877C261.455 188.606 240.308 182.679 222.81 172.831C208.718 165.769 193.29 160.195 176.994 156.279C158.603 151.74 138.868 150.753 119.762 153.417C100.655 156.081 82.8447 162.302 68.1105 171.459C44.1316 185.328 14.4649 193.116 -16.2718 193.611L-16.2754 192.356C14.3351 191.858 43.8789 184.101 67.7627 170.292C82.5662 161.094 100.459 154.844 119.655 152.168C138.85 149.492 158.676 150.483 177.153 155.042C193.509 158.974 208.994 164.569 223.14 171.656C240.542 181.452 261.571 187.355 283.618 188.63C302.199 188.48 320.497 185.288 337.123 179.296C348.223 175.539 359.887 172.712 371.882 170.873C382.416 169.538 393.211 169.73 403.633 171.438C414.054 173.146 423.892 176.336 432.567 180.82C444.658 186.874 458.863 190.379 473.587 190.941L473.589 192.199Z" fill="url(#paint8_linear_70_1353)"/>
<path d="M491.705 191.91C475.872 191.471 460.43 188.277 446.705 182.601C426.911 174.224 403.688 171.026 380.964 173.548C368.057 175.211 355.41 177.795 343.211 181.261C324.647 186.843 304.755 189.771 284.647 189.879C261.061 188.857 238.249 183.488 218.405 174.286C202.726 167.724 185.94 162.631 168.457 159.131C148.491 154.909 127.451 153.974 106.896 156.393C86.3406 158.813 66.7965 164.525 49.7107 173.107C22.4043 186.105 -9.52308 193.167 -42.239 193.446L-42.2427 192.194C-9.63177 191.912 22.1919 184.871 49.4106 171.914C66.5586 163.3 86.1738 157.567 106.804 155.139C127.434 152.711 148.55 153.65 168.589 157.886C186.126 161.392 202.961 166.5 218.684 173.084C238.444 182.247 261.157 187.597 284.644 188.623C304.684 188.513 324.509 185.594 343.011 180.03C355.247 176.554 367.932 173.964 380.879 172.299C403.721 169.755 427.069 172.966 446.966 181.389C460.614 187.035 475.969 190.214 491.715 190.654L491.705 191.91Z" fill="url(#paint9_linear_70_1353)"/>
<path d="M511.459 191.636C494.467 191.289 477.769 188.391 462.439 183.128C440.2 175.37 415.264 172.495 390.741 174.861C376.758 176.374 362.979 178.747 349.556 181.953C329.038 187.118 307.477 189.796 285.752 189.88C260.511 189.044 235.858 184.173 213.584 175.621C196.223 169.541 177.961 164.887 159.143 161.749C115.317 153.854 68.9098 158.469 29.6456 174.627C-1.0875 186.751 -35.5276 193.174 -70.5528 193.314L-70.5564 192.058C-35.6204 191.918 -1.26807 185.512 29.3889 173.422C68.7658 157.221 115.302 152.592 159.254 160.505C178.116 163.651 196.421 168.315 213.822 174.411C236.024 182.931 260.594 187.787 285.75 188.626C307.418 188.54 328.922 185.869 349.387 180.721C362.841 177.505 376.652 175.128 390.668 173.614C415.291 171.225 440.333 174.109 462.66 181.906C477.921 187.146 494.542 190.032 511.459 190.38L511.459 191.636Z" fill="url(#paint10_linear_70_1353)"/>
<path d="M532.981 191.366C514.675 191.086 496.593 188.456 479.587 183.598C454.82 176.442 427.949 173.85 401.411 176.057C386.237 177.439 371.222 179.618 356.486 182.577C333.902 187.344 310.502 189.8 286.977 189.871C259.842 189.181 233.153 184.759 208.35 176.846C189.193 171.229 169.312 166.978 148.993 164.154C101.416 156.898 51.8137 161.068 7.78857 176.024C-26.5015 187.286 -63.7335 193.143 -101.403 193.199L-101.407 191.939C-63.8117 191.883 -26.6531 186.039 7.5694 174.799C51.6884 159.806 101.402 155.627 149.082 162.904C169.44 165.732 189.358 169.991 208.551 175.62C233.287 183.511 259.905 187.921 286.966 188.612C310.444 188.541 333.798 186.091 356.338 181.335C371.098 178.37 386.139 176.188 401.339 174.807C427.962 172.576 454.925 175.174 479.767 182.364C496.713 187.206 514.732 189.829 532.974 190.108L532.981 191.366Z" fill="url(#paint11_linear_70_1353)"/>
<path d="M133.258 372.116L132.051 372.016C116.928 369.497 107.146 317.718 96.7812 262.903C85.4468 202.934 73.7244 140.926 54.9399 140.98L54.9338 138.87C75.0252 138.812 86.9034 201.647 98.3892 262.412C108.161 314.122 118.267 367.594 132.265 369.925C138.099 370.885 144.691 362.751 151.893 345.715C162.106 314.829 169.675 283.525 174.557 251.98C185.889 193.135 194.165 154.561 205.492 154.528C217.949 154.492 225.428 179.921 233.346 206.838C237.059 222.635 242.891 238.134 250.758 253.118C253.52 257.273 256.033 258.955 258.444 258.279C266.91 255.889 273.605 224.446 279.507 196.708C285.915 166.611 291.966 138.18 300.785 138.155L300.791 140.266C293.229 140.287 287.066 169.248 281.104 197.253C274.489 228.323 268.242 257.667 258.8 260.333C255.773 261.174 252.647 259.205 249.502 254.476C241.496 239.298 235.569 223.593 231.803 207.582C224.432 182.521 216.809 156.612 205.504 156.644C194.62 156.675 185.237 205.382 176.168 252.487C171.262 284.201 163.643 315.671 153.354 346.718C146.149 363.761 139.563 372.098 133.258 372.116Z" fill="url(#paint12_linear_70_1353)"/>
<path d="M127.173 354.194L125.445 354.034C109.268 350.983 98.7145 303.911 87.541 254.077C75.218 199.123 62.4699 142.296 41.9182 142.355L41.9122 140.252C63.7244 140.189 76.6412 197.795 89.1314 253.5C99.6686 300.501 110.568 349.097 125.689 351.951C132.194 353.181 139.575 345.724 147.587 329.785C158.686 301.617 166.953 272.915 172.321 243.9C182.867 197.963 192.827 154.573 206.009 154.535C219.493 154.497 227.641 177.795 236.251 202.462C240.348 217.057 246.703 231.274 255.197 244.848C258.356 248.846 261.249 250.366 264.055 249.512C273.165 246.703 280.071 219.492 286.745 193.174C293.746 165.573 300.358 139.506 309.892 139.479L309.898 141.582C301.569 141.606 294.835 168.152 288.321 193.824C281.507 220.691 274.461 248.475 264.449 251.559C261.092 252.59 257.588 250.841 254.038 246.341C245.377 232.57 238.907 218.138 234.75 203.317C226.356 179.299 218.431 156.602 206.022 156.638C194.073 156.672 183.825 201.319 173.913 244.495C168.511 273.696 160.178 302.581 148.979 330.925C141.132 346.53 133.978 354.175 127.173 354.194Z" fill="url(#paint13_linear_70_1353)"/>
<path d="M120.544 337.775L118.111 337.523C100.862 333.9 89.4992 291.206 77.4677 245.999C64.0652 195.641 50.2062 143.561 27.7094 143.626L27.7033 141.525C51.3898 141.457 65.4434 194.261 79.0317 245.327C90.8979 289.916 102.103 332.028 118.369 335.449C125.805 337.008 133.807 330.377 142.894 315.187C154.936 289.54 163.962 263.215 169.877 236.49C181.396 194.367 192.273 154.581 206.547 154.54C221.165 154.498 230.019 175.843 239.393 198.446C243.933 211.968 250.862 225.014 260.01 237.265C263.649 241.144 267 242.514 270.262 241.436C280.027 238.222 287.443 213.667 294.617 189.924C302.262 164.617 309.479 140.72 319.778 140.69L319.784 142.793C310.616 142.82 303.265 167.153 296.157 190.682C288.836 214.922 281.259 239.991 270.673 243.474C266.914 244.719 262.973 243.168 258.953 238.883C249.614 226.441 242.55 213.18 237.936 199.43C228.799 177.407 220.168 156.601 206.55 156.641C193.439 156.678 182.249 197.603 171.429 237.182C165.472 264.109 156.362 290.631 144.196 316.464C135.672 330.744 127.897 337.754 120.544 337.775Z" fill="url(#paint14_linear_70_1353)"/>
<path d="M113.326 322.722C112.182 322.725 111.046 322.598 109.958 322.346C91.6334 318.143 79.4283 279.51 66.5061 238.61C51.9231 192.456 36.8421 144.726 12.2308 144.797L12.2247 142.694C37.9563 142.62 53.2462 191.021 68.0336 237.826C80.7806 278.172 92.8191 316.277 110.243 320.272C118.578 322.175 127.599 316.136 137.8 301.791C150.85 278.491 160.711 254.335 167.242 229.667C179.815 191.052 191.696 154.576 207.171 154.532C223.015 154.486 232.649 174.04 242.857 194.746C247.918 207.318 255.476 219.296 265.299 230.308C269.507 234.075 273.4 235.271 277.178 233.974C287.588 230.395 295.544 208.292 303.238 186.916C311.583 163.718 319.463 141.803 330.597 141.771L330.603 143.874C320.525 143.903 312.498 166.214 304.739 187.79C296.891 209.606 288.775 232.167 277.616 236.002C273.38 237.456 268.918 236.114 264.352 232.023C254.32 220.834 246.609 208.652 241.46 195.859C231.506 175.662 222.097 156.588 207.177 156.631C192.797 156.672 181.125 192.519 168.764 230.472C162.179 255.352 152.218 279.713 139.023 303.204C129.728 316.276 121.282 322.699 113.326 322.722Z" fill="url(#paint15_linear_70_1353)"/>
<path d="M105.457 308.925C103.904 308.927 102.363 308.743 100.896 308.379C81.4885 303.635 68.4056 268.77 54.557 231.856C38.6841 189.55 22.2714 145.805 -4.64689 145.883L-4.65295 143.778C23.3059 143.698 39.9505 188.053 56.0423 230.951C69.7085 267.369 82.6163 301.77 101.203 306.312C110.584 308.599 120.742 303.115 132.254 289.515C146.356 268.408 157.127 246.236 164.365 223.414C178.093 188.013 191.054 154.577 207.839 154.528C225.024 154.479 235.998 173.221 246.614 191.343C252.29 203.081 260.548 214.084 271.074 223.935C275.935 227.6 280.44 228.636 284.832 227.099C295.904 223.222 304.407 203.361 312.633 184.157C321.734 162.899 330.336 142.814 342.387 142.779L342.393 144.883C331.316 144.915 322.945 164.467 314.08 185.167C305.693 204.758 297.015 225.015 285.271 229.129C280.499 230.802 275.431 229.667 270.232 225.744C259.493 215.737 251.074 204.546 245.298 192.603C234.45 174.082 224.208 156.586 207.854 156.633C192.091 156.678 179.345 189.548 165.852 224.348C158.548 247.385 147.657 269.761 133.385 291.052C123.265 303.011 114.081 308.9 105.457 308.925Z" fill="url(#paint16_linear_70_1353)"/>
<path d="M96.8921 296.283C94.8353 296.287 92.794 296.033 90.859 295.534C70.3602 290.324 56.3626 258.921 41.5433 225.671C24.2606 186.891 6.38659 146.791 -23.0384 146.875L-23.0445 144.778C7.34878 144.691 25.4589 185.333 42.9789 224.642C57.6016 257.457 71.4201 288.454 91.1773 293.477C101.75 296.16 113.213 291.192 126.216 278.271C141.412 259.219 153.18 238.86 161.239 217.683C176.215 185.231 190.358 154.581 208.565 154.528C227.212 154.474 239.152 171.631 250.706 188.22C257.104 199.218 266.121 209.326 277.353 218.09C297.702 230.988 310.495 205.887 322.866 181.609C332.796 162.127 342.169 143.726 355.223 143.688L355.229 145.791C343.071 145.826 333.931 163.764 324.251 182.755C311.487 207.801 298.289 233.692 276.621 219.974C265.171 211.076 255.982 200.801 249.468 189.616C237.641 172.628 226.471 156.579 208.568 156.63C191.299 156.68 177.393 186.829 162.656 218.751C154.52 240.141 142.614 260.701 127.228 279.929C116.23 290.862 106.242 296.256 96.8921 296.283Z" fill="url(#paint17_linear_70_1353)"/>
<path d="M87.4092 284.793C61.6951 284.867 44.8842 253.116 27.3633 220.031C8.53699 184.475 -10.9311 147.715 -43.0929 147.808L-43.099 145.704C-10.0586 145.609 9.65974 182.844 28.7305 218.855C52.3402 263.445 74.6444 305.553 119.631 267.965C135.963 250.839 148.828 232.133 157.838 212.411C174.169 182.675 189.596 154.584 209.355 154.527C229.607 154.468 242.601 170.174 255.167 185.359C262.421 195.699 272.272 204.983 284.222 212.743C306.528 224.625 320.518 201.561 334.031 179.263C344.851 161.417 355.071 144.558 369.214 144.517L369.221 146.62C355.885 146.659 345.904 163.121 335.338 180.552C321.435 203.48 307.053 227.178 283.591 214.683C271.428 206.814 261.405 197.387 254.032 186.882C241.132 171.294 228.95 156.573 209.358 156.629C190.453 156.684 175.264 184.34 159.185 213.619C150.084 233.546 137.069 252.439 120.534 269.725C116.802 273.775 111.92 277.212 106.211 279.809C100.501 282.406 94.0931 284.105 87.4092 284.793Z" fill="url(#paint18_linear_70_1353)"/>
<path d="M77.2539 274.153C49.2733 274.234 30.9795 245.16 11.915 214.865C-8.59754 182.27 -29.8138 148.563 -64.9499 148.665L-64.9559 146.565C-29.0239 146.462 -7.56039 180.572 13.2008 213.555C38.9448 254.47 63.261 293.113 112.455 258.543C129.945 243.216 144.008 226.026 154.136 207.591C171.94 180.338 188.758 154.595 210.215 154.533C232.214 154.469 245.727 168.201 260.03 182.736C268.272 192.482 279.026 201.004 291.716 207.846C316.148 218.777 331.427 197.597 346.206 177.111C357.996 160.762 369.135 145.319 384.468 145.274L384.474 147.378C369.856 147.42 358.959 162.531 347.417 178.535C332.281 199.522 316.63 221.214 291.172 209.827C278.286 202.902 267.366 194.264 259.003 184.38C244.933 170.079 231.646 156.574 210.22 156.636C189.523 156.696 172.952 182.07 155.403 208.937C145.173 227.559 130.95 244.918 113.252 260.383C104.18 268.152 91.2732 273.09 77.2539 274.153Z" fill="url(#paint19_linear_70_1353)"/>
<path d="M66.1856 264.406C35.7359 264.493 15.8296 237.88 -4.91932 210.141C-27.2752 180.255 -50.3953 149.354 -88.7704 149.465L-88.7765 147.362C-49.6907 147.25 -26.3251 178.488 -3.72802 208.694C24.348 246.229 50.8679 281.693 104.629 249.885C123.301 236.235 138.671 220.439 150.104 203.151C169.51 178.18 187.838 154.591 211.148 154.523C235.069 154.455 249.767 167.02 265.331 180.321C274.704 189.511 286.436 197.324 299.896 203.341C326.63 213.396 343.332 193.936 359.475 175.116C372.313 160.143 384.448 146.001 401.092 145.953L401.098 148.053C385.092 148.099 373.189 161.976 360.585 176.664C344.105 195.876 327.069 215.736 299.432 205.358C285.794 199.277 273.908 191.371 264.417 182.067C249.069 168.949 234.572 156.561 211.156 156.629C188.53 156.694 170.434 179.979 151.276 204.633C139.735 222.088 124.202 238.031 105.327 251.796C94.6904 259.124 80.8587 263.58 66.1856 264.406Z" fill="url(#paint20_linear_70_1353)"/>
<path d="M54.1291 255.481C20.9773 255.577 -0.683918 231.213 -23.2642 205.822C-47.6305 178.421 -72.8287 150.085 -114.735 150.206L-114.741 148.107C-72.2096 147.985 -46.7804 176.586 -22.176 204.251C8.44409 238.686 37.3567 271.215 96.0969 241.975C115.976 229.862 132.767 215.349 145.713 199.091C166.862 176.208 186.833 154.597 212.172 154.524C223.765 155.238 235.012 157.709 245.173 161.775C255.334 165.841 264.178 171.409 271.124 178.114C281.758 186.773 294.543 193.93 308.827 199.221C338.07 208.45 356.304 190.576 373.939 173.29C387.928 159.576 401.142 146.624 419.209 146.572L419.215 148.669C401.703 148.719 388.714 161.465 374.944 174.957C356.999 192.545 338.439 210.74 308.432 201.257C293.99 195.922 281.064 188.694 270.317 179.945C263.467 173.327 254.747 167.828 244.727 163.809C234.708 159.789 223.616 157.34 212.178 156.621C187.443 156.692 167.691 178.067 146.78 200.695C133.718 217.093 116.768 231.725 96.6973 243.928C84.4624 250.799 69.6133 254.829 54.1291 255.481Z" fill="url(#paint21_linear_70_1353)"/>
<path d="M40.9826 247.31C4.89709 247.414 -18.6845 225.111 -43.2617 201.862C-69.8199 176.74 -97.2938 150.759 -143.039 150.891L-143.045 148.799C-96.7542 148.666 -69.0626 174.857 -42.2824 200.185C-8.88733 231.763 22.6545 261.588 86.7884 234.726C107.921 224.007 126.25 210.682 140.927 195.371C163.972 174.403 185.737 154.597 213.285 154.518C237.758 155.473 260.749 163.202 277.443 176.085C289.46 184.222 303.381 190.77 318.567 195.429C350.533 203.91 370.445 187.487 389.706 171.599C404.941 159.036 419.332 147.17 438.962 147.114L438.968 149.21C419.82 149.265 405.628 160.969 390.602 173.361C371.064 189.471 350.856 206.133 318.238 197.482C302.914 192.789 288.867 186.187 276.742 177.979C260.235 165.227 237.499 157.569 213.288 156.606C186.264 156.683 164.707 176.302 141.88 197.07C127.091 212.5 108.61 225.922 87.3007 236.709C73.4279 243.123 57.4456 246.781 40.9826 247.31Z" fill="url(#paint22_linear_70_1353)"/>
<path d="M26.6582 239.832C-12.636 239.945 -38.3064 219.532 -65.0619 198.257C-77.1821 185.114 -93.249 174.096 -112.082 166.014C-130.914 157.932 -152.034 152.991 -173.889 151.553L-173.895 149.455C-151.868 150.888 -130.577 155.857 -111.591 163.995C-92.6046 172.132 -76.4063 183.232 -64.1885 196.477C-27.7775 225.436 6.62712 252.787 76.639 228.094C99.0972 218.613 119.088 206.388 135.71 191.969C160.817 172.753 184.533 154.601 214.503 154.515C240.257 155.119 264.919 162.085 284.338 174.24C297.85 181.861 313.001 187.847 329.198 191.964C364.109 199.74 385.853 184.655 406.881 170.069C420.001 157.843 439.245 149.787 460.494 147.627L460.5 149.724C439.557 151.895 420.602 159.856 407.669 171.912C386.392 186.667 364.386 201.917 328.917 194.034C312.605 189.89 297.344 183.863 283.733 176.191C264.484 164.139 240.041 157.226 214.511 156.615C184.993 156.7 161.467 174.707 136.559 193.773C119.825 208.286 99.6951 220.585 77.0791 230.116C61.5127 236.072 44.2673 239.395 26.6582 239.832Z" fill="url(#paint23_linear_70_1353)"/>
<rect x="-35.5" y="111.5" width="149" height="149" rx="74.5" fill="black" fill-opacity="0.25"/>
<rect x="-35.5" y="111.5" width="149" height="149" rx="74.5" stroke="url(#paint24_linear_70_1353)"/>
<path d="M36.3334 172.667V199.333C36.3334 200.807 37.5261 202 39 202C40.474 202 41.6667 200.807 41.6667 199.333V172.667C41.6667 171.193 40.474 170 39 170C37.5261 170 36.3334 171.193 36.3334 172.667ZM44.3334 178V194C44.3334 195.474 45.5261 196.667 47 196.667C48.474 196.667 49.6667 195.474 49.6667 194V178C49.6667 176.526 48.474 175.333 47 175.333C45.5261 175.333 44.3334 176.526 44.3334 178ZM52.3334 188.667C52.3334 190.141 53.5261 191.333 55 191.333C56.474 191.333 57.6667 190.141 57.6667 188.667V183.333C57.6667 181.859 56.474 180.667 55 180.667C53.5261 180.667 52.3334 181.859 52.3334 183.333V188.667ZM23 180.667C21.5261 180.667 20.3334 181.859 20.3334 183.333V188.667C20.3334 190.141 21.5261 191.333 23 191.333C24.474 191.333 25.6667 190.141 25.6667 188.667V183.333C25.6667 181.859 24.474 180.667 23 180.667ZM31 175.333C29.5261 175.333 28.3334 176.526 28.3334 178V194C28.3334 195.474 29.5261 196.667 31 196.667C32.474 196.667 33.6667 195.474 33.6667 194V178C33.6667 176.526 32.474 175.333 31 175.333ZM15 188.667C16.474 188.667 17.6667 187.474 17.6667 186C17.6667 184.526 16.474 183.333 15 183.333H12.3334C10.8594 183.333 9.66669 184.526 9.66669 186C9.66669 187.474 10.8594 188.667 12.3334 188.667H15ZM65.6667 183.333H63C61.5261 183.333 60.3334 184.526 60.3334 186C60.3334 187.474 61.5261 188.667 63 188.667H65.6667C67.1406 188.667 68.3334 187.474 68.3334 186C68.3334 184.526 67.1406 183.333 65.6667 183.333Z" fill="white"/>
</g>
<defs>
<linearGradient id="paint0_linear_70_1353" x1="163.363" y1="158.02" x2="332.1" y2="63.6252" gradientUnits="userSpaceOnUse">
<stop stop-color="#AD2BCD"/>
<stop offset="0.28" stop-color="#3531BC"/>
<stop offset="0.555" stop-color="#38AB51" stop-opacity="0.9"/>
<stop offset="0.795" stop-color="#74D541" stop-opacity="0.7"/>
<stop offset="1" stop-color="#EFFF0B" stop-opacity="0.5"/>
</linearGradient>
<linearGradient id="paint1_linear_70_1353" x1="153.581" y1="160.689" x2="321.217" y2="49.3698" gradientUnits="userSpaceOnUse">
<stop stop-color="#AD2BCD"/>
<stop offset="0.28" stop-color="#3531BC"/>
<stop offset="0.555" stop-color="#38AB51" stop-opacity="0.9"/>
<stop offset="0.795" stop-color="#74D541" stop-opacity="0.7"/>
<stop offset="1" stop-color="#EFFF0B" stop-opacity="0.5"/>
</linearGradient>
<linearGradient id="paint2_linear_70_1353" x1="142.917" y1="163.143" x2="305.369" y2="35.0889" gradientUnits="userSpaceOnUse">
<stop stop-color="#AD2BCD"/>
<stop offset="0.28" stop-color="#3531BC"/>
<stop offset="0.555" stop-color="#38AB51" stop-opacity="0.9"/>
<stop offset="0.795" stop-color="#74D541" stop-opacity="0.7"/>
<stop offset="1" stop-color="#EFFF0B" stop-opacity="0.5"/>
</linearGradient>
<linearGradient id="paint3_linear_70_1353" x1="131.285" y1="165.394" x2="284.396" y2="22.1015" gradientUnits="userSpaceOnUse">
<stop stop-color="#AD2BCD"/>
<stop offset="0.28" stop-color="#3531BC"/>
<stop offset="0.555" stop-color="#38AB51" stop-opacity="0.9"/>
<stop offset="0.795" stop-color="#74D541" stop-opacity="0.7"/>
<stop offset="1" stop-color="#EFFF0B" stop-opacity="0.5"/>
</linearGradient>
<linearGradient id="paint4_linear_70_1353" x1="118.607" y1="167.459" x2="258.798" y2="11.7076" gradientUnits="userSpaceOnUse">
<stop stop-color="#AD2BCD"/>
<stop offset="0.28" stop-color="#3531BC"/>
<stop offset="0.555" stop-color="#38AB51" stop-opacity="0.9"/>
<stop offset="0.795" stop-color="#74D541" stop-opacity="0.7"/>
<stop offset="1" stop-color="#EFFF0B" stop-opacity="0.5"/>
</linearGradient>
<linearGradient id="paint5_linear_70_1353" x1="104.799" y1="169.36" x2="229.512" y2="4.88687" gradientUnits="userSpaceOnUse">
<stop stop-color="#AD2BCD"/>
<stop offset="0.28" stop-color="#3531BC"/>
<stop offset="0.555" stop-color="#38AB51" stop-opacity="0.9"/>
<stop offset="0.795" stop-color="#74D541" stop-opacity="0.7"/>
<stop offset="1" stop-color="#EFFF0B" stop-opacity="0.5"/>
</linearGradient>
<linearGradient id="paint6_linear_70_1353" x1="89.7341" y1="171.269" x2="196.688" y2="2.70027" gradientUnits="userSpaceOnUse">
<stop stop-color="#AD2BCD"/>
<stop offset="0.28" stop-color="#3531BC"/>
<stop offset="0.555" stop-color="#38AB51" stop-opacity="0.9"/>
<stop offset="0.795" stop-color="#74D541" stop-opacity="0.7"/>
<stop offset="1" stop-color="#EFFF0B" stop-opacity="0.5"/>
</linearGradient>
<linearGradient id="paint7_linear_70_1353" x1="73.3313" y1="172.78" x2="164.239" y2="3.39709" gradientUnits="userSpaceOnUse">
<stop stop-color="#AD2BCD"/>
<stop offset="0.28" stop-color="#3531BC"/>
<stop offset="0.555" stop-color="#38AB51" stop-opacity="0.9"/>
<stop offset="0.795" stop-color="#74D541" stop-opacity="0.7"/>
<stop offset="1" stop-color="#EFFF0B" stop-opacity="0.5"/>
</linearGradient>
<linearGradient id="paint8_linear_70_1353" x1="55.4236" y1="174.198" x2="131.094" y2="7.35834" gradientUnits="userSpaceOnUse">
<stop stop-color="#AD2BCD"/>
<stop offset="0.28" stop-color="#3531BC"/>
<stop offset="0.555" stop-color="#38AB51" stop-opacity="0.9"/>
<stop offset="0.795" stop-color="#74D541" stop-opacity="0.7"/>
<stop offset="1" stop-color="#EFFF0B" stop-opacity="0.5"/>
</linearGradient>
<linearGradient id="paint9_linear_70_1353" x1="35.9193" y1="175.522" x2="97.8701" y2="13.8226" gradientUnits="userSpaceOnUse">
<stop stop-color="#AD2BCD"/>
<stop offset="0.28" stop-color="#3531BC"/>
<stop offset="0.555" stop-color="#38AB51" stop-opacity="0.9"/>
<stop offset="0.795" stop-color="#74D541" stop-opacity="0.7"/>
<stop offset="1" stop-color="#EFFF0B" stop-opacity="0.5"/>
</linearGradient>
<linearGradient id="paint10_linear_70_1353" x1="14.6486" y1="176.764" x2="64.6616" y2="22.1011" gradientUnits="userSpaceOnUse">
<stop stop-color="#AD2BCD"/>
<stop offset="0.28" stop-color="#3531BC"/>
<stop offset="0.555" stop-color="#38AB51" stop-opacity="0.9"/>
<stop offset="0.795" stop-color="#74D541" stop-opacity="0.7"/>
<stop offset="1" stop-color="#EFFF0B" stop-opacity="0.5"/>
</linearGradient>
<linearGradient id="paint11_linear_70_1353" x1="-8.52774" y1="177.916" x2="31.4261" y2="31.4642" gradientUnits="userSpaceOnUse">
<stop stop-color="#AD2BCD"/>
<stop offset="0.28" stop-color="#3531BC"/>
<stop offset="0.555" stop-color="#38AB51" stop-opacity="0.9"/>
<stop offset="0.795" stop-color="#74D541" stop-opacity="0.7"/>
<stop offset="1" stop-color="#EFFF0B" stop-opacity="0.5"/>
</linearGradient>
<linearGradient id="paint12_linear_70_1353" x1="91.3123" y1="266.626" x2="303.896" y2="223.535" gradientUnits="userSpaceOnUse">
<stop stop-color="#AD2BCD"/>
<stop offset="0.28" stop-color="#3531BC"/>
<stop offset="0.555" stop-color="#38AB51" stop-opacity="0.9"/>
<stop offset="0.795" stop-color="#74D541" stop-opacity="0.7"/>
<stop offset="1" stop-color="#EFFF0B" stop-opacity="0.5"/>
</linearGradient>
<linearGradient id="paint13_linear_70_1353" x1="81.5016" y1="257.44" x2="309.593" y2="202.623" gradientUnits="userSpaceOnUse">
<stop stop-color="#AD2BCD"/>
<stop offset="0.28" stop-color="#3531BC"/>
<stop offset="0.555" stop-color="#38AB51" stop-opacity="0.9"/>
<stop offset="0.795" stop-color="#74D541" stop-opacity="0.7"/>
<stop offset="1" stop-color="#EFFF0B" stop-opacity="0.5"/>
</linearGradient>
<linearGradient id="paint14_linear_70_1353" x1="70.794" y1="249.027" x2="314.031" y2="179.707" gradientUnits="userSpaceOnUse">
<stop stop-color="#AD2BCD"/>
<stop offset="0.28" stop-color="#3531BC"/>
<stop offset="0.555" stop-color="#38AB51" stop-opacity="0.9"/>
<stop offset="0.795" stop-color="#74D541" stop-opacity="0.7"/>
<stop offset="1" stop-color="#EFFF0B" stop-opacity="0.5"/>
</linearGradient>
<linearGradient id="paint15_linear_70_1353" x1="59.1417" y1="241.311" x2="316.452" y2="154.327" gradientUnits="userSpaceOnUse">
<stop stop-color="#AD2BCD"/>
<stop offset="0.28" stop-color="#3531BC"/>
<stop offset="0.555" stop-color="#38AB51" stop-opacity="0.9"/>
<stop offset="0.795" stop-color="#74D541" stop-opacity="0.7"/>
<stop offset="1" stop-color="#EFFF0B" stop-opacity="0.5"/>
</linearGradient>
<linearGradient id="paint16_linear_70_1353" x1="46.4396" y1="234.249" x2="315.705" y2="126.242" gradientUnits="userSpaceOnUse">
<stop stop-color="#AD2BCD"/>
<stop offset="0.28" stop-color="#3531BC"/>
<stop offset="0.555" stop-color="#38AB51" stop-opacity="0.9"/>
<stop offset="0.795" stop-color="#74D541" stop-opacity="0.7"/>
<stop offset="1" stop-color="#EFFF0B" stop-opacity="0.5"/>
</linearGradient>
<linearGradient id="paint17_linear_70_1353" x1="32.6004" y1="227.781" x2="310.445" y2="95.5356" gradientUnits="userSpaceOnUse">
<stop stop-color="#AD2BCD"/>
<stop offset="0.28" stop-color="#3531BC"/>
<stop offset="0.555" stop-color="#38AB51" stop-opacity="0.9"/>
<stop offset="0.795" stop-color="#74D541" stop-opacity="0.7"/>
<stop offset="1" stop-color="#EFFF0B" stop-opacity="0.5"/>
</linearGradient>
<linearGradient id="paint18_linear_70_1353" x1="17.5132" y1="221.909" x2="299.285" y2="62.8531" gradientUnits="userSpaceOnUse">
<stop stop-color="#AD2BCD"/>
<stop offset="0.28" stop-color="#3531BC"/>
<stop offset="0.555" stop-color="#38AB51" stop-opacity="0.9"/>
<stop offset="0.795" stop-color="#74D541" stop-opacity="0.7"/>
<stop offset="1" stop-color="#EFFF0B" stop-opacity="0.5"/>
</linearGradient>
<linearGradient id="paint19_linear_70_1353" x1="1.07367" y1="216.475" x2="280.66" y2="29.13" gradientUnits="userSpaceOnUse">
<stop stop-color="#AD2BCD"/>
<stop offset="0.28" stop-color="#3531BC"/>
<stop offset="0.555" stop-color="#38AB51" stop-opacity="0.9"/>
<stop offset="0.795" stop-color="#74D541" stop-opacity="0.7"/>
<stop offset="1" stop-color="#EFFF0B" stop-opacity="0.5"/>
</linearGradient>
<linearGradient id="paint20_linear_70_1353" x1="-16.8395" y1="211.5" x2="253.712" y2="-3.70946" gradientUnits="userSpaceOnUse">
<stop stop-color="#AD2BCD"/>
<stop offset="0.28" stop-color="#3531BC"/>
<stop offset="0.555" stop-color="#38AB51" stop-opacity="0.9"/>
<stop offset="0.795" stop-color="#74D541" stop-opacity="0.7"/>
<stop offset="1" stop-color="#EFFF0B" stop-opacity="0.5"/>
</linearGradient>
<linearGradient id="paint21_linear_70_1353" x1="-36.3628" y1="206.953" x2="218.275" y2="-33.5001" gradientUnits="userSpaceOnUse">
<stop stop-color="#AD2BCD"/>
<stop offset="0.28" stop-color="#3531BC"/>
<stop offset="0.555" stop-color="#38AB51" stop-opacity="0.9"/>
<stop offset="0.795" stop-color="#74D541" stop-opacity="0.7"/>
<stop offset="1" stop-color="#EFFF0B" stop-opacity="0.5"/>
</linearGradient>
<linearGradient id="paint22_linear_70_1353" x1="-57.6411" y1="202.791" x2="175.175" y2="-58.1665" gradientUnits="userSpaceOnUse">
<stop stop-color="#AD2BCD"/>
<stop offset="0.28" stop-color="#3531BC"/>
<stop offset="0.555" stop-color="#38AB51" stop-opacity="0.9"/>
<stop offset="0.795" stop-color="#74D541" stop-opacity="0.7"/>
<stop offset="1" stop-color="#EFFF0B" stop-opacity="0.5"/>
</linearGradient>
<linearGradient id="paint23_linear_70_1353" x1="-80.8321" y1="199" x2="125.941" y2="-76.1617" gradientUnits="userSpaceOnUse">
<stop stop-color="#AD2BCD"/>
<stop offset="0.28" stop-color="#3531BC"/>
<stop offset="0.555" stop-color="#38AB51" stop-opacity="0.9"/>
<stop offset="0.795" stop-color="#74D541" stop-opacity="0.7"/>
<stop offset="1" stop-color="#EFFF0B" stop-opacity="0.5"/>
</linearGradient>
<linearGradient id="paint24_linear_70_1353" x1="39" y1="111" x2="39" y2="261" gradientUnits="userSpaceOnUse">
<stop stop-color="#3FD12C"/>
<stop offset="0.305" stop-color="#2C58B8"/>
<stop offset="0.63" stop-color="#F43333"/>
<stop offset="1" stop-color="#C82B81"/>
</linearGradient>
<clipPath id="clip0_70_1353">
<rect width="400" height="300" rx="8" fill="white"/>
</clipPath>
</defs>
</svg>
