<svg width="400" height="300" viewBox="0 0 400 300" fill="none" xmlns="http://www.w3.org/2000/svg">
<rect width="400" height="300" rx="8" fill="white"/>
<path d="M138.046 150.035L145.456 158.504L155.477 164.926L157.241 150.106L155.477 135.639L145.315 141.284L138.046 150.035Z" fill="#00832D"/>
<path d="M94.856 163.514V176.147C94.856 179.04 97.1849 181.369 100.078 181.369H112.711L115.322 171.842L112.781 163.514L104.101 160.903L94.856 163.514Z" fill="#0066DA"/>
<path d="M112.781 118.631L94.856 136.485L104.03 139.097L112.711 136.485L115.251 128.299L112.781 118.631Z" fill="#E94235"/>
<path d="M112.781 136.485H94.856V163.514H112.711V136.485H112.781Z" fill="#2684FC"/>
<path d="M166.839 126.182L155.406 135.568V164.926L166.839 174.312C168.533 175.653 171.073 174.453 171.073 172.266V128.229C171.144 126.041 168.603 124.771 166.839 126.182ZM138.046 150.035V163.515H112.781V181.369H150.255C153.148 181.369 155.477 179.04 155.477 176.147V164.926L138.046 150.035Z" fill="#00AC47"/>
<path d="M150.255 118.631H112.781V136.485H138.046V149.965L155.477 135.497V123.853C155.477 120.96 153.148 118.631 150.255 118.631Z" fill="#FFBA00"/>
<path d="M267 102.5C240.766 102.5 219.5 123.823 219.5 150.126C222.002 213.301 312.007 213.283 314.5 150.126C314.5 123.823 293.233 102.5 267 102.5Z" fill="#2D8CFF"/>
<path d="M295.285 163.557C295.234 166.063 293.226 166.909 291.28 165.522C287.651 162.982 284.047 160.407 280.429 157.853C280.438 159.035 280.422 161.819 280.428 163.03C280.427 165.276 279.311 166.369 277.018 166.37L257.482 166.372C254.172 166.373 250.863 166.374 247.553 166.37C241.296 166.363 237.091 162.264 237.089 156.169V136.964C237.089 134.686 238.17 133.624 240.489 133.624C248.44 133.775 262.332 133.641 270.127 133.627C275.652 133.633 279.649 137.069 280.317 142.147C283.973 139.567 287.614 136.966 291.28 134.399C292.971 133.172 295.197 133.566 295.285 136.365C295.309 145.151 295.338 154.754 295.285 163.557Z" fill="#F1F1F1"/>
</svg>
