<svg width="400" height="300" viewBox="0 0 400 300" fill="none" xmlns="http://www.w3.org/2000/svg">
<rect width="400" height="300" fill="url(#paint0_linear_234_364)"/>
<path d="M97.8 124.632C97.8 129.336 94.344 132.024 89.64 132.024C83.928 132.024 80.088 128.664 76.392 118.488L79.8 117.096C82.392 124.584 85.128 128.52 89.304 128.52C92.136 128.52 94.008 126.936 94.008 124.2C94.008 121.992 92.52 120.264 90.648 118.92C89.448 119.256 88.008 119.496 86.376 119.64L85.608 116.232C91.608 115.464 93.192 114.168 93.192 111.528C93.192 109.416 91.8 108.072 89.208 108.072C87.048 108.072 84.984 108.744 82.92 109.992L81.672 106.632C83.88 105.384 86.376 104.664 89.352 104.664C94.824 104.664 97.032 107.88 97.032 111.576C97.032 114.072 96.12 116.088 93.96 117.48L94.056 117.576C95.592 117.96 97.272 118.104 98.76 118.104C100.248 118.104 101.832 117.96 103.512 117.528V108.552H100.008V105.144H112.392V108.552H107.4V135H103.512V121.08C102.216 121.416 100.872 121.512 99.528 121.512C98.76 121.512 97.848 121.464 96.936 121.32C97.512 122.328 97.8 123.48 97.8 124.632Z" fill="white"/>
<path d="M161.616 104.664C163.024 104.664 164.48 104.792 165.984 105.048C167.52 105.304 168.928 105.704 170.208 106.248C170.368 106.312 170.56 106.44 170.784 106.632C171.008 106.792 171.2 106.904 171.36 106.968C173.12 107.416 174.48 108.024 175.44 108.792C176.4 109.56 177.072 110.408 177.456 111.336C177.872 112.232 178.08 113.176 178.08 114.168C178.08 114.936 177.952 115.656 177.696 116.328C177.44 117 176.992 117.608 176.352 118.152C175.744 118.696 174.912 119.208 173.856 119.688L174.048 119.544C175.456 119.992 176.56 120.712 177.36 121.704C178.192 122.696 178.608 123.896 178.608 125.304C178.608 126.552 178.288 127.72 177.648 128.808C177.04 129.896 176.08 130.776 174.768 131.448C173.456 132.088 171.728 132.408 169.584 132.408C167.152 132.408 165.12 131.88 163.488 130.824C161.888 129.768 160.688 128.344 159.888 126.552C159.088 124.76 158.688 122.76 158.688 120.552C158.688 118.76 158.96 117.048 159.504 115.416C160.048 113.784 160.88 112.264 162 110.856C163.152 109.448 164.64 108.2 166.464 107.112C166.624 107.016 166.784 106.92 166.944 106.824C167.104 106.728 167.264 106.632 167.424 106.536C168.576 105.96 169.856 105.512 171.264 105.192C172.672 104.84 174.288 104.664 176.112 104.664C178.288 104.664 180.096 104.936 181.536 105.48C182.976 106.024 184.176 106.744 185.136 107.64C186.128 108.504 186.976 109.464 187.68 110.52L188.928 119.976V131.832H184.752V118.344C184.752 115.976 184.56 114.184 184.176 112.968C183.792 111.752 183.2 110.776 182.4 110.04C181.696 109.4 180.832 108.888 179.808 108.504C178.784 108.088 177.36 107.88 175.536 107.88C174.672 107.88 173.84 107.944 173.04 108.072C172.272 108.168 171.568 108.312 170.928 108.504C169.424 108.952 168.144 109.624 167.088 110.52C166.032 111.416 165.184 112.44 164.544 113.592C163.904 114.744 163.44 115.912 163.152 117.096C162.864 118.248 162.72 119.336 162.72 120.36C162.72 123.176 163.312 125.352 164.496 126.888C165.68 128.424 167.392 129.192 169.632 129.192C171.296 129.192 172.528 128.856 173.328 128.184C174.16 127.512 174.576 126.52 174.576 125.208C174.576 124.024 174.112 123.096 173.184 122.424C172.288 121.72 170.864 121.368 168.912 121.368H168V118.008H168.672C170.656 118.008 172.048 117.656 172.848 116.952C173.648 116.248 174.048 115.304 174.048 114.12C174.048 112.616 173.52 111.416 172.464 110.52C171.44 109.592 169.904 108.952 167.856 108.6C166.608 108.28 165.504 108.104 164.544 108.072C163.584 108.008 162.72 107.976 161.952 107.976C159.296 107.976 157.088 108.456 155.328 109.416C153.6 110.344 152.304 111.624 151.44 113.256C150.576 114.856 150.144 116.68 150.144 118.728C150.144 120.392 150.384 121.88 150.864 123.192C151.344 124.504 152.016 125.656 152.88 126.648C153.776 127.64 154.816 128.504 156 129.24L153.6 132.264C152.224 131.464 150.944 130.44 149.76 129.192C148.608 127.912 147.664 126.392 146.928 124.632C146.224 122.84 145.872 120.808 145.872 118.536C145.872 116.552 146.192 114.728 146.832 113.064C147.472 111.368 148.448 109.896 149.76 108.648C151.072 107.4 152.704 106.424 154.656 105.72C156.64 105.016 158.96 104.664 161.616 104.664ZM203.664 132.408C201.616 132.408 199.904 131.944 198.528 131.016C197.152 130.088 196.112 128.872 195.408 127.368C194.736 125.832 194.4 124.184 194.4 122.424C194.4 119.384 195.216 116.968 196.848 115.176C198.48 113.352 200.672 112.44 203.424 112.44C205.216 112.44 206.768 112.904 208.08 113.832C209.424 114.76 210.48 115.944 211.248 117.384C212.016 118.824 212.432 120.344 212.496 121.944L211.296 121.8C211.072 120.808 210.64 119.864 210 118.968C209.392 118.04 208.592 117.288 207.6 116.712C206.64 116.104 205.52 115.8 204.24 115.8C202.224 115.8 200.752 116.408 199.824 117.624C198.896 118.808 198.432 120.376 198.432 122.328C198.432 123.64 198.608 124.808 198.96 125.832C199.344 126.856 199.92 127.656 200.688 128.232C201.456 128.776 202.464 129.048 203.712 129.048C205.024 129.048 206.128 128.744 207.024 128.136C207.952 127.528 208.656 126.552 209.136 125.208C209.648 123.864 209.904 122.104 209.904 119.928C209.904 119.576 209.872 119.208 209.808 118.824C209.776 118.408 209.728 117.976 209.664 117.528C209.632 117.272 209.6 116.984 209.568 116.664C209.536 116.344 209.488 116.04 209.424 115.752C209.168 114.536 208.592 113.352 207.696 112.2C206.832 111.016 205.616 110.04 204.048 109.272C202.48 108.504 200.496 108.12 198.096 108.12C196.72 108.12 195.472 108.28 194.352 108.6C193.264 108.92 192.304 109.448 191.472 110.184C190.96 110.664 190.512 111.24 190.128 111.912C189.744 112.552 189.44 113.352 189.216 114.312C189.024 115.272 188.928 116.488 188.928 117.96V122.04L186.432 110.04C187.232 109.016 188.144 108.104 189.168 107.304C190.192 106.472 191.424 105.832 192.864 105.384C194.304 104.904 196.048 104.664 198.096 104.664C200.72 104.664 203.008 105.048 204.96 105.816C206.944 106.584 208.592 107.672 209.904 109.08C211.248 110.456 212.24 112.088 212.88 113.976C213.552 115.864 213.888 117.944 213.888 120.216C213.888 123.064 213.44 125.4 212.544 127.224C211.648 129.016 210.432 130.328 208.896 131.16C207.36 131.992 205.616 132.408 203.664 132.408Z" fill="white"/>
<path d="M263.408 140.952C260.304 140.952 257.712 140.568 255.632 139.8C253.552 139.064 251.984 138.024 250.928 136.68C249.904 135.368 249.392 133.848 249.392 132.12C249.392 131.32 249.568 130.536 249.92 129.768C250.272 129 250.816 128.36 251.552 127.848C251.968 127.56 252.416 127.32 252.896 127.128C253.376 126.936 254 126.792 254.768 126.696C255.568 126.6 256.608 126.552 257.888 126.552H293.744L293.888 130.008H258.416C257.424 130.008 256.656 130.024 256.112 130.056C255.6 130.088 255.216 130.152 254.96 130.248C254.704 130.344 254.448 130.488 254.192 130.68C253.712 131.064 253.472 131.608 253.472 132.312C253.472 133.88 254.32 135.128 256.016 136.056C257.712 136.984 260.272 137.448 263.696 137.448H264.512C267.744 137.448 270.512 137.064 272.816 136.296C275.152 135.56 277.072 134.536 278.576 133.224C280.112 131.912 281.264 130.424 282.032 128.76L282.224 127.848C282.512 127.048 282.72 126.248 282.848 125.448C282.976 124.616 283.04 123.784 283.04 122.952C283.04 121.096 282.72 119.336 282.08 117.672C281.44 116.008 280.448 114.616 279.104 113.496C277.792 112.344 276.096 111.608 274.016 111.288C273.6 111.224 273.2 111.192 272.816 111.192C272.464 111.16 272.08 111.144 271.664 111.144C270.672 111.144 269.76 111.32 268.928 111.672C268.096 112.024 267.424 112.552 266.912 113.256C266.432 113.96 266.192 114.856 266.192 115.944C266.192 117.128 266.544 118.136 267.248 118.968C267.984 119.768 269.008 120.168 270.32 120.168C271.536 120.168 272.496 119.8 273.2 119.064C273.936 118.296 274.304 117.208 274.304 115.8C274.304 114.744 274.128 113.8 273.776 112.968C273.456 112.104 272.88 111.288 272.048 110.52L274.784 109.704C275.36 110.184 275.888 110.744 276.368 111.384C276.88 112.024 277.28 112.744 277.568 113.544C277.888 114.312 278.048 115.128 278.048 115.992C278.048 117.112 277.872 118.136 277.52 119.064C277.2 119.96 276.704 120.744 276.032 121.416C275.36 122.056 274.528 122.552 273.536 122.904C272.576 123.256 271.472 123.432 270.224 123.432C268.784 123.432 267.472 123.16 266.288 122.616C265.104 122.072 264.16 121.256 263.456 120.168C262.752 119.08 262.4 117.736 262.4 116.136C262.4 114.152 262.864 112.552 263.792 111.336C264.72 110.12 265.92 109.24 267.392 108.696C268.896 108.12 270.48 107.832 272.144 107.832C274.608 107.832 276.768 108.248 278.624 109.08C280.512 109.912 282.08 111.048 283.328 112.488C284.608 113.928 285.568 115.544 286.208 117.336C286.848 119.128 287.168 120.984 287.168 122.904C287.168 123.768 287.12 124.616 287.024 125.448C286.928 126.248 286.784 127.032 286.592 127.8L286.304 128.856C285.408 131.48 283.904 133.688 281.792 135.48C279.712 137.272 277.184 138.632 274.208 139.56C271.264 140.488 268 140.952 264.416 140.952H263.408ZM293.456 142.392V108.408H297.584V142.392H293.456Z" fill="white"/>
<path d="M93.72 201.576C90.84 201.576 88.328 201.24 86.184 200.568C84.072 199.864 82.312 198.888 80.904 197.64C79.496 196.392 78.44 194.936 77.736 193.272C77.064 191.608 76.728 189.816 76.728 187.896C76.728 185.592 77.128 183.624 77.928 181.992C78.728 180.36 79.8 179.128 81.144 178.296C82.52 177.432 84.072 177 85.8 177C87.08 177 88.184 177.256 89.112 177.768C90.072 178.248 90.808 178.952 91.32 179.88C91.864 180.776 92.136 181.848 92.136 183.096C92.136 184.376 91.864 185.528 91.32 186.552C90.776 187.544 89.96 188.328 88.872 188.904C87.784 189.448 86.392 189.72 84.696 189.72C83.096 189.72 81.704 189.352 80.52 188.616C79.336 187.88 78.424 187.144 77.784 186.408L78.936 183.432C79.192 183.784 79.544 184.2 79.992 184.68C80.472 185.128 81.08 185.528 81.816 185.88C82.552 186.2 83.432 186.36 84.456 186.36C85.736 186.36 86.696 186.088 87.336 185.544C88.008 185 88.344 184.248 88.344 183.288C88.344 182.36 88.088 181.656 87.576 181.176C87.064 180.664 86.392 180.408 85.56 180.408C84.056 180.408 82.84 181.032 81.912 182.28C80.984 183.528 80.52 185.288 80.52 187.56V187.992C80.52 189.624 80.952 191.192 81.816 192.696C82.712 194.2 84.12 195.432 86.04 196.392C87.992 197.32 90.552 197.784 93.72 197.784C98.456 197.784 101.976 196.952 104.28 195.288C106.584 193.592 107.736 190.936 107.736 187.32C107.736 186.136 107.56 185.048 107.208 184.056C106.856 183.032 106.312 182.2 105.576 181.56C104.872 180.92 103.96 180.6 102.84 180.6C102.104 180.6 101.416 180.856 100.776 181.368C100.168 181.848 99.864 182.632 99.864 183.72C99.864 184.968 100.28 186.008 101.112 186.84C101.944 187.64 103.032 188.264 104.376 188.712V192.168H89.544V188.616H100.056L99.624 188.952C98.504 188.408 97.624 187.624 96.984 186.6C96.376 185.576 96.072 184.392 96.072 183.048C96.072 182.088 96.312 181.144 96.792 180.216C97.272 179.288 98.024 178.52 99.048 177.912C100.104 177.304 101.432 177 103.032 177C104.696 177 106.168 177.448 107.448 178.344C108.76 179.24 109.8 180.472 110.568 182.04C111.336 183.576 111.72 185.352 111.72 187.368C111.72 189.768 111.304 191.864 110.472 193.656C109.672 195.448 108.488 196.936 106.92 198.12C105.384 199.272 103.496 200.136 101.256 200.712C99.048 201.288 96.536 201.576 93.72 201.576Z" fill="white"/>
<path d="M159.584 197.112C157.344 197.112 155.408 196.744 153.776 196.008C152.176 195.272 150.944 194.248 150.08 192.936C149.216 191.592 148.784 190.04 148.784 188.28C148.784 187.256 148.944 186.296 149.264 185.4C149.616 184.504 150.128 183.704 150.8 183C151.472 182.264 152.304 181.64 153.296 181.128L153.968 181.8L147.728 181.848V178.536H157.712C158.064 178.28 158.352 177.96 158.576 177.576C158.832 177.16 158.96 176.696 158.96 176.184C158.96 175.736 158.88 175.304 158.72 174.888C158.592 174.472 158.4 174.088 158.144 173.736L160.304 173.16L161.984 173.736C162.24 174.152 162.432 174.584 162.56 175.032C162.688 175.48 162.752 175.88 162.752 176.232C162.752 176.744 162.688 177.192 162.56 177.576C162.464 177.928 162.32 178.248 162.128 178.536H171.872V181.848L165.44 181.752L166.16 181.272C167.088 181.624 167.888 182.136 168.56 182.808C169.264 183.48 169.808 184.28 170.192 185.208C170.576 186.104 170.768 187.096 170.768 188.184C170.768 189.944 170.352 191.496 169.52 192.84C168.688 194.184 167.44 195.24 165.776 196.008C164.144 196.744 162.08 197.112 159.584 197.112ZM159.776 193.368C162.336 193.368 164.16 192.824 165.248 191.736C166.368 190.616 166.928 189.272 166.928 187.704C166.928 186.52 166.656 185.496 166.112 184.632C165.568 183.736 164.768 183.048 163.712 182.568C162.656 182.088 161.344 181.848 159.776 181.848C158.176 181.848 156.832 182.104 155.744 182.616C154.688 183.096 153.904 183.784 153.392 184.68C152.88 185.544 152.624 186.552 152.624 187.704C152.624 189.4 153.216 190.776 154.4 191.832C155.584 192.856 157.376 193.368 159.776 193.368ZM147.728 173.784V170.088H162.032C163.76 170.088 164.976 170.008 165.68 169.848C166.384 169.688 166.896 169.48 167.216 169.224C167.632 168.904 167.904 168.552 168.032 168.168C168.192 167.752 168.272 167.32 168.272 166.872C168.272 165.816 168.016 164.792 167.504 163.8C166.992 162.776 166.208 161.736 165.152 160.68L168.272 158.616C169.776 160.28 170.8 161.784 171.344 163.128C171.888 164.44 172.16 165.784 172.16 167.16C172.16 167.768 172.032 168.52 171.776 169.416C171.552 170.28 171.024 171.064 170.192 171.768C169.392 172.472 168.432 172.984 167.312 173.304C166.224 173.624 164.752 173.784 162.896 173.784H147.728Z" fill="white"/>
<path d="M249.344 171.144V174.552H244.304V201H240.608C239.68 199.112 238.528 197.464 237.152 196.056C235.776 194.616 234.304 193.384 232.736 192.36L233.936 189.192C235.152 189.896 236.416 190.856 237.728 192.072C239.04 193.288 240.048 194.52 240.752 195.768C240.72 195.288 240.688 194.84 240.656 194.424C240.656 194.008 240.64 193.576 240.608 193.128C240.608 192.68 240.608 192.2 240.608 191.688V174.552H205.52V171.144H249.344ZM224.048 196.632C221.872 196.632 219.792 196.12 217.808 195.096C215.824 194.072 213.952 192.344 212.192 189.912C210.464 187.448 208.864 184.072 207.392 179.784L210.896 178.632C212.048 181.96 213.248 184.696 214.496 186.84C215.776 188.952 217.2 190.504 218.768 191.496C220.336 192.488 222.128 192.984 224.144 192.984C225.904 192.984 227.312 192.712 228.368 192.168C229.456 191.592 230.24 190.824 230.72 189.864C231.2 188.872 231.44 187.784 231.44 186.6C231.44 184.744 230.928 183.24 229.904 182.088C228.912 180.936 227.664 180.36 226.16 180.36C225.104 180.36 224.304 180.6 223.76 181.08C223.216 181.528 222.944 182.216 222.944 183.144C222.944 183.368 222.976 183.672 223.04 184.056C223.104 184.44 223.2 184.792 223.328 185.112L219.68 185.832C219.456 185.16 219.28 184.552 219.152 184.008C219.056 183.432 219.008 182.888 219.008 182.376C219.008 181.192 219.328 180.2 219.968 179.4C220.64 178.6 221.488 178.008 222.512 177.624C223.568 177.208 224.672 177 225.824 177C227.712 177 229.344 177.432 230.72 178.296C232.096 179.128 233.168 180.28 233.936 181.752C234.704 183.224 235.088 184.936 235.088 186.888C235.088 188.616 234.688 190.232 233.888 191.736C233.088 193.208 231.872 194.392 230.24 195.288C228.608 196.184 226.544 196.632 224.048 196.632ZM222.512 178.68C222.352 177.656 221.872 176.76 221.072 175.992C220.304 175.192 219.168 174.632 217.664 174.312L218.816 172.152L220.976 172.728C222.8 173.432 224.112 174.232 224.912 175.128C225.712 176.024 226.176 177.16 226.304 178.536L222.512 178.68Z" fill="white"/>
<path d="M297.464 196.056C295.992 196.056 294.6 195.848 293.288 195.432C291.976 195.016 290.76 194.312 289.64 193.32C288.52 192.296 287.512 190.936 286.616 189.24L287.624 186.456C289.416 186.2 290.936 185.528 292.184 184.44C293.432 183.32 294.056 181.96 294.056 180.36C294.056 178.824 293.608 177.64 292.712 176.808C291.848 175.976 290.472 175.56 288.584 175.56C287.88 175.56 287.08 175.656 286.184 175.848C285.32 176.008 284.52 176.264 283.784 176.616L282.488 173.352C283.256 173 284.2 172.696 285.32 172.44C286.44 172.184 287.576 172.056 288.728 172.056C290.68 172.056 292.328 172.392 293.672 173.064C295.048 173.704 296.088 174.648 296.792 175.896C297.528 177.144 297.896 178.664 297.896 180.456C297.896 182.216 297.368 183.8 296.312 185.208C295.288 186.584 293.928 187.672 292.232 188.472C290.536 189.24 288.664 189.624 286.616 189.624C285.752 189.624 285.032 189.512 284.456 189.288C283.88 189.064 283.432 188.744 283.112 188.328C282.824 187.88 282.68 187.352 282.68 186.744C282.68 186.104 282.904 185.56 283.352 185.112C283.832 184.632 284.552 184.392 285.512 184.392C286.504 184.392 287.32 184.6 287.96 185.016C288.6 185.4 289.272 186.008 289.976 186.84L290.648 188.712C291.224 189.96 292.088 190.92 293.24 191.592C294.392 192.264 295.704 192.6 297.176 192.6C298.392 192.6 299.432 192.424 300.296 192.072C301.16 191.72 301.864 191.24 302.408 190.632C303.208 189.736 303.72 188.712 303.944 187.56C304.2 186.408 304.328 184.952 304.328 183.192V179.544L308.168 180.024V184.248C308.168 186.872 307.704 189.064 306.776 190.824C305.88 192.584 304.616 193.896 302.984 194.76C301.384 195.624 299.544 196.056 297.464 196.056ZM310.952 190.056C310.152 190.056 309.368 189.912 308.6 189.624C307.832 189.336 307.128 188.824 306.488 188.088C305.848 187.352 305.304 186.328 304.856 185.016L307.64 183.912C307.896 184.936 308.312 185.64 308.888 186.024C309.464 186.408 310.136 186.6 310.904 186.6C312.056 186.6 313.048 186.296 313.88 185.688C314.712 185.048 315.48 184.184 316.184 183.096L317 187.032C316.2 187.992 315.336 188.744 314.408 189.288C313.512 189.8 312.36 190.056 310.952 190.056ZM322.088 201C320.712 201 319.56 200.856 318.632 200.568C317.736 200.248 317.016 199.8 316.472 199.224C315.96 198.68 315.576 198.008 315.32 197.208C315.096 196.408 314.984 195.304 314.984 193.896V172.056L318.824 172.584V193.704C318.824 194.568 318.872 195.208 318.968 195.624C319.064 196.008 319.208 196.328 319.4 196.584C319.752 197.032 320.264 197.304 320.936 197.4C321.64 197.464 322.328 197.496 323 197.496L322.616 201H322.088Z" fill="white"/>
<defs>
<linearGradient id="paint0_linear_234_364" x1="-1.06482e-05" y1="5.00001" x2="684.5" y2="620" gradientUnits="userSpaceOnUse">
<stop stop-color="#FF8036"/>
<stop offset="1" stop-color="#F4F3FE"/>
</linearGradient>
</defs>
</svg>
