<svg width="400" height="300" viewBox="0 0 400 300" fill="none" xmlns="http://www.w3.org/2000/svg">
<rect width="400" height="300" fill="url(#paint0_linear_234_359)"/>
<rect x="125" y="75" width="150" height="150" rx="75" fill="black" fill-opacity="0.25"/>
<path d="M197.333 136.667V163.333C197.333 164.807 198.526 166 200 166C201.474 166 202.667 164.807 202.667 163.333V136.667C202.667 135.193 201.474 134 200 134C198.526 134 197.333 135.193 197.333 136.667ZM205.333 142V158C205.333 159.474 206.526 160.667 208 160.667C209.474 160.667 210.667 159.474 210.667 158V142C210.667 140.526 209.474 139.333 208 139.333C206.526 139.333 205.333 140.526 205.333 142ZM213.333 152.667C213.333 154.141 214.526 155.333 216 155.333C217.474 155.333 218.667 154.141 218.667 152.667V147.333C218.667 145.859 217.474 144.667 216 144.667C214.526 144.667 213.333 145.859 213.333 147.333V152.667ZM184 144.667C182.526 144.667 181.333 145.859 181.333 147.333V152.667C181.333 154.141 182.526 155.333 184 155.333C185.474 155.333 186.667 154.141 186.667 152.667V147.333C186.667 145.859 185.474 144.667 184 144.667ZM192 139.333C190.526 139.333 189.333 140.526 189.333 142V158C189.333 159.474 190.526 160.667 192 160.667C193.474 160.667 194.667 159.474 194.667 158V142C194.667 140.526 193.474 139.333 192 139.333ZM176 152.667C177.474 152.667 178.667 151.474 178.667 150C178.667 148.526 177.474 147.333 176 147.333H173.333C171.859 147.333 170.667 148.526 170.667 150C170.667 151.474 171.859 152.667 173.333 152.667H176ZM226.667 147.333H224C222.526 147.333 221.333 148.526 221.333 150C221.333 151.474 222.526 152.667 224 152.667H226.667C228.141 152.667 229.333 151.474 229.333 150C229.333 148.526 228.141 147.333 226.667 147.333Z" fill="white"/>
<defs>
<linearGradient id="paint0_linear_234_359" x1="-1.06482e-05" y1="5.00001" x2="684.5" y2="620" gradientUnits="userSpaceOnUse">
<stop stop-color="#726EF1"/>
<stop offset="1" stop-color="#F4F3FE"/>
</linearGradient>
</defs>
</svg>
