<svg width="36" height="37" viewBox="0 0 36 37" fill="none" xmlns="http://www.w3.org/2000/svg">
<g clip-path="url(#clip0_70_1301)">
<path d="M17.9978 0.708008C8.05951 0.708008 1.03871e-05 8.79901 1.03871e-05 18.78C-0.00405001 22.568 1.18242 26.2615 3.39173 29.3384C5.60105 32.4154 8.72147 34.7203 12.312 35.9273C13.212 36.0938 13.5405 35.5358 13.5405 35.0565C13.5405 34.6268 13.5248 33.4905 13.5158 31.983C8.50951 33.0743 7.45201 29.5598 7.45201 29.5598C6.63526 27.4718 5.45401 26.916 5.45401 26.916C3.81826 25.7955 5.57551 25.818 5.57551 25.818C7.38226 25.9463 8.33176 27.681 8.33176 27.681C9.93826 30.4418 12.546 29.6453 13.572 29.1818C13.734 28.014 14.1998 27.2175 14.715 26.7653C10.719 26.3085 6.51601 24.7583 6.51601 17.835C6.51601 15.8618 7.21801 14.2485 8.37001 12.984C8.18326 12.5273 7.56676 10.689 8.54551 8.20276C8.54551 8.20276 10.0575 7.71676 13.4955 10.0545C14.9642 9.65314 16.4797 9.44885 18.0023 9.44701C19.5249 9.45003 21.0403 9.65507 22.509 10.0568C25.9448 7.71901 27.4545 8.20501 27.4545 8.20501C28.4355 10.6935 27.819 12.5295 27.6345 12.9863C28.7888 14.2508 29.484 15.864 29.484 17.8373C29.484 24.7785 25.2765 26.3063 21.267 26.754C21.9128 27.312 22.4888 28.4145 22.4888 30.0998C22.4888 32.5163 22.4663 34.4648 22.4663 35.0565C22.4663 35.5403 22.7903 36.1028 23.7038 35.925C27.2908 34.7152 30.4074 32.4094 32.6136 29.3332C34.8198 26.257 36.0044 22.5656 36 18.78C36 8.79901 27.9405 0.708008 17.9978 0.708008Z" fill="white"/>
</g>
<defs>
<clipPath id="clip0_70_1301">
<rect width="36" height="36" fill="white" transform="translate(0 0.5)"/>
</clipPath>
</defs>
</svg>
