<svg width="2113" height="1013" viewBox="0 0 2113 1013" fill="none" xmlns="http://www.w3.org/2000/svg">
<path d="M833.079 578.56C820.248 578.597 810.858 553.778 800.923 527.512C788.495 494.696 775.658 460.748 755.506 478.437C744.699 489.996 735.825 503.768 729.329 519.062C718.032 541.564 706.349 564.833 687.968 564.886C670.032 564.938 655.846 523.574 640.812 479.784C632.513 450.762 620.715 423.245 605.767 398.05C564.707 342.855 544.755 405.197 523.639 471.164C506.585 524.453 488.948 579.554 458.967 579.641L458.958 576.544C488.133 576.46 505.545 522.061 522.383 469.457C543.92 402.161 564.252 338.593 606.588 395.459C621.722 420.892 633.66 448.688 642.042 478.014C656.83 521.122 670.8 561.839 687.95 561.789C705.721 561.738 716.675 539.929 728.268 516.834C734.872 501.298 743.902 487.317 754.899 475.597C776.123 456.958 789.323 491.878 802.091 525.622C811.803 551.27 820.968 575.5 833.068 575.466L833.079 578.56Z" fill="url(#paint0_linear_187_255)"/>
<path d="M846.92 577.346C833 577.386 822.786 554.665 811.976 530.61C798.43 500.471 784.43 469.32 762.336 485.618C750.852 495.826 741.153 508.479 733.757 522.9C720.88 544.459 708.716 564.826 688.747 564.884C669.271 564.94 653.84 527.05 637.497 486.943C628.198 459.833 615.322 434.56 599.332 412.028C554.477 361.31 532.67 418.532 509.588 479.097C490.981 527.92 471.739 578.427 439.133 578.521L439.124 575.424C471.008 575.332 490.016 525.438 508.406 477.175C531.893 415.552 554.064 357.348 600.051 409.306C616.229 432.048 629.248 457.576 638.637 484.968C654.749 524.499 669.963 561.841 688.731 561.787C708.174 561.731 720.133 541.704 732.797 520.5C740.302 505.873 750.151 493.046 761.813 482.709C784.84 465.688 799.188 497.643 813.064 528.521C823.647 552.06 833.644 574.292 846.893 574.254L846.92 577.346Z" fill="url(#paint1_linear_187_255)"/>
<path d="M862.004 576.227C846.9 576.271 835.797 555.48 824.043 533.458C809.267 505.794 793.994 477.175 769.796 492.212C757.61 501.204 747.022 512.816 738.601 526.422C724.562 546.167 711.318 564.801 689.598 564.864C668.455 564.924 651.652 530.247 633.874 493.51C623.403 468.1 609.351 444.89 592.297 424.833C543.312 378.291 519.486 430.787 494.27 486.395C473.974 531.137 452.986 577.413 417.517 577.516L417.508 574.429C452.325 574.328 473.096 528.551 493.167 484.279C518.759 427.835 542.938 374.508 592.922 422.045C610.162 442.266 624.363 465.688 634.936 491.339C652.486 527.6 669.056 561.851 689.587 561.792C710.84 561.731 723.906 543.342 737.736 523.864C746.271 510.09 757.003 498.339 769.351 489.246C794.365 473.716 809.957 502.917 825.045 531.175C836.582 552.774 847.472 573.182 861.993 573.14L862.004 576.227Z" fill="url(#paint2_linear_187_255)"/>
<path d="M878.43 575.189C862.038 575.236 849.965 556.21 837.17 536.06C821.055 510.657 804.386 484.36 777.92 498.237C764.973 506.156 753.417 516.808 743.847 529.647C737.625 539.568 729.653 547.84 720.459 553.912C711.266 559.985 701.062 563.719 690.525 564.868C667.536 564.934 649.262 533.17 629.911 499.534C618.078 475.654 602.744 454.346 584.598 436.569C531.122 393.827 505.107 442.035 477.559 493.069C455.433 534.073 432.54 576.474 393.946 576.585L393.937 573.506C431.959 573.396 454.626 531.395 476.548 490.771C504.447 439.091 530.799 390.294 585.138 433.69C603.459 451.602 618.938 473.089 630.876 497.18C650.009 530.441 668.078 561.854 690.516 561.789C700.91 560.633 710.972 556.931 720.036 550.928C729.1 544.926 736.96 536.759 743.095 526.968C752.771 513.995 764.455 503.236 777.546 495.246C804.713 481.065 821.681 507.768 838.086 533.627C850.661 553.448 862.54 572.168 878.421 572.122L878.43 575.189Z" fill="url(#paint3_linear_187_255)"/>
<path d="M896.355 574.223C878.544 574.275 865.405 556.86 851.49 538.422C833.912 515.104 815.73 491.033 786.792 503.735C773.029 510.733 760.442 520.495 749.612 532.572C734.617 551.677 713.79 563.258 691.544 564.863C666.543 564.935 646.659 535.846 625.606 505.049C612.204 482.584 595.477 463.045 576.201 447.338C517.828 408.149 489.41 452.36 459.332 499.207C435.214 536.78 410.256 575.624 368.252 575.745L368.243 572.666C409.745 572.546 434.49 534.006 458.418 496.745C488.822 449.398 517.536 404.672 576.659 444.408C596.094 460.218 612.953 479.904 626.451 502.547C647.301 533.046 666.996 561.854 691.516 561.784C713.516 560.169 734.106 548.7 748.935 529.801C759.865 517.617 772.57 507.773 786.463 500.725C816 487.72 834.456 512.177 852.295 535.833C866.016 554.017 878.971 571.197 896.339 571.146L896.355 574.223Z" fill="url(#paint4_linear_187_255)"/>
<path d="M915.877 573.34C896.539 570.266 879.013 558.502 867.078 540.588C847.904 519.195 828.065 497.105 796.455 508.786C781.773 514.99 768.067 523.935 755.877 535.266C738.393 553.319 716.045 563.779 692.641 564.865C665.442 564.943 643.795 538.313 620.881 510.114C605.734 488.97 587.513 471.061 567.045 457.195C503.356 421.203 472.335 461.834 439.489 504.838C428.561 524.422 413.967 540.898 396.791 553.043C379.614 565.189 360.295 572.692 340.269 574.996L340.26 571.919C360.13 569.61 379.294 562.147 396.332 550.082C413.369 538.017 427.844 521.66 438.682 502.223C471.814 458.853 503.106 417.9 567.435 454.204C588.044 468.152 606.391 486.172 621.646 507.448C644.379 535.429 665.851 561.848 692.632 561.77C715.834 560.679 737.986 550.298 755.316 532.395C767.598 520.985 781.41 511.982 796.204 505.745C828.34 493.818 848.407 516.222 867.813 537.867C879.572 555.534 896.832 567.16 915.89 570.25L915.877 573.34Z" fill="url(#paint5_linear_187_255)"/>
<path d="M937.167 572.535C916.961 570.181 898.135 559.553 884.069 542.559C874.586 530.233 862.454 521.041 848.912 515.922C835.369 510.802 820.901 509.938 806.982 513.418C791.27 518.944 776.352 527.135 762.712 537.725C742.671 554.678 718.647 564.146 693.837 564.869C663.39 559.821 635.593 541.984 615.728 514.747C598.636 494.893 578.799 478.496 557.039 466.237C533.067 453.536 506.023 450.961 480.599 458.957C455.175 466.953 432.975 485.017 417.85 510.014C404.621 528.782 388.193 544.18 369.593 555.249C350.993 566.317 330.62 572.818 309.748 574.343L309.739 571.254C330.479 569.726 350.721 563.256 369.2 552.248C387.679 541.241 403.999 525.933 417.14 507.279C432.381 482.096 454.751 463.902 480.368 455.855C505.986 447.808 533.232 450.417 557.378 463.228C579.265 475.537 599.216 492.018 616.4 511.983C636.097 538.997 663.645 556.712 693.832 561.777C718.47 561.045 742.325 551.634 762.225 534.795C775.944 524.144 790.95 515.908 806.753 510.354C820.819 506.811 835.447 507.665 849.14 512.83C862.834 517.995 875.1 527.285 884.684 539.748C898.585 556.552 917.185 567.078 937.156 569.446L937.167 572.535Z" fill="url(#paint6_linear_187_255)"/>
<path d="M960.379 571.764C939.098 569.952 918.859 560.347 902.584 544.334C891.289 532.661 877.818 524.177 863.227 519.546C848.637 514.914 833.322 514.261 818.483 517.638C801.609 522.59 785.372 530.093 770.189 539.953C747.519 555.787 721.632 564.378 695.159 564.855C663.23 560.871 633.328 544.741 610.124 518.984C590.928 500.383 569.338 485.383 546.14 474.531C520.286 462.576 491.914 460.019 464.791 467.201C437.668 474.383 413.079 490.963 394.29 514.74C362.764 550.755 320.754 571.797 276.508 573.734L276.499 570.655C320.521 568.709 362.312 547.763 393.674 511.925C412.576 488.007 437.313 471.329 464.598 464.109C491.884 456.888 520.425 459.467 546.431 471.502C569.737 482.402 591.43 497.467 610.72 516.148C633.762 541.738 663.451 557.78 695.161 561.776C721.492 561.289 747.237 552.739 769.786 536.993C785.039 527.087 801.351 519.551 818.302 514.577C833.266 511.168 848.711 511.82 863.427 516.483C878.143 521.146 891.731 529.694 903.128 541.457C919.253 557.329 939.301 566.863 960.388 568.687L960.379 571.764Z" fill="url(#paint7_linear_187_255)"/>
<path d="M985.669 571.047C963.096 569.635 941.306 560.943 922.755 545.95C909.635 534.994 894.76 527.189 879.004 522.993C863.249 518.797 846.932 518.296 831.012 521.519C812.828 525.977 795.15 532.85 778.326 542C752.934 556.715 724.979 564.526 696.583 564.841C662.848 561.663 630.653 547.064 603.999 522.857C582.536 505.496 559.043 491.78 534.235 482.128C506.237 470.944 476.203 468.47 447.135 474.953C418.067 481.437 390.981 496.652 368.585 519.078C332.132 553.037 287.009 572.063 240.237 573.195L240.228 570.116C286.808 568.977 331.745 550.027 368.052 516.214C390.554 493.687 417.766 478.403 446.969 471.89C476.172 465.376 506.344 467.86 534.473 479.094C559.373 488.785 582.953 502.551 604.497 519.976C631.006 544.057 663.022 558.593 696.575 561.782C724.85 561.463 752.686 553.681 777.969 539.027C794.851 529.837 812.592 522.935 830.84 518.455C846.867 515.208 863.295 515.708 879.158 519.927C895.022 524.145 910 531.997 923.214 543.02C941.628 557.905 963.255 566.542 985.662 567.96L985.669 571.047Z" fill="url(#paint8_linear_187_255)"/>
<path d="M1013.23 570.386C989.139 569.267 965.632 561.388 944.73 547.427C914.587 526.823 879.239 518.915 844.666 525.042C825.029 529.087 805.791 535.391 787.237 543.862C759.003 557.507 728.74 564.635 698.142 564.847C662.248 562.277 627.519 549.042 597.298 526.416C573.42 510.274 547.864 497.734 521.25 489.101C490.855 478.691 458.836 476.34 427.563 482.22C396.29 488.1 366.565 502.061 340.588 523.07C299.07 554.885 250.504 572.124 200.72 572.719L200.711 569.648C250.335 569.044 298.743 551.855 340.128 520.143C366.199 499.057 396.033 485.045 427.42 479.143C458.807 473.241 490.942 475.601 521.448 486.049C548.143 494.696 573.775 507.271 597.719 523.468C627.813 545.999 662.391 559.187 698.133 561.765C728.629 561.55 758.79 554.443 786.929 540.842C805.539 532.346 824.837 526.027 844.534 521.978C879.286 515.798 914.824 523.738 945.125 544.454C965.909 558.342 989.283 566.183 1013.24 567.304L1013.23 570.386Z" fill="url(#paint9_linear_187_255)"/>
<path d="M1043.29 569.766C1017.43 568.87 992.017 561.716 968.674 548.763C934.811 529.671 896.859 522.551 859.548 528.29C838.274 531.964 817.312 537.748 796.893 545.578C765.685 558.193 732.882 564.706 699.823 564.852C661.411 562.735 623.882 550.718 589.965 529.677C563.529 514.714 535.727 503.249 507.083 495.5C440.37 476.015 369.764 487.212 310.058 526.746C263.323 556.408 210.932 572.073 157.633 572.321L157.624 569.239C210.787 568.989 263.045 553.367 309.664 523.788C369.541 484.149 440.345 472.918 507.248 492.448C535.959 500.216 563.827 511.709 590.324 526.709C624.131 547.673 661.533 559.651 699.816 561.775C732.788 561.624 765.505 555.128 796.633 542.553C817.098 534.701 838.109 528.905 859.433 525.229C896.896 519.435 935.01 526.578 969.007 545.766C992.245 558.661 1017.55 565.787 1043.29 566.686L1043.29 569.766Z" fill="url(#paint10_linear_187_255)"/>
<path d="M1076.04 569.163C1048.18 568.429 1020.66 561.927 994.77 549.964C957.062 532.341 916.164 525.91 875.786 531.254C852.699 534.603 829.856 539.909 807.441 547.128C773.086 558.763 737.485 564.725 701.686 564.837C660.393 563.069 619.767 552.15 582.003 532.67C552.836 518.839 522.571 508.357 491.643 501.373C419.225 483.447 343.754 493.543 276.8 530.115C224.65 557.653 168.009 571.921 110.686 571.958L110.677 568.866C167.887 568.831 224.416 554.594 276.464 527.111C343.56 490.445 419.2 480.327 491.775 498.309C522.762 505.302 553.084 515.803 582.305 529.664C619.968 549.088 660.484 559.979 701.666 561.747C737.394 561.636 772.925 555.688 807.212 544.08C829.665 536.847 852.547 531.535 875.674 528.187C916.181 522.784 957.218 529.23 995.041 546.937C1020.84 558.861 1048.27 565.343 1076.03 566.079L1076.04 569.163Z" fill="url(#paint11_linear_187_255)"/>
<path d="M468.259 1011.52L466.421 1011.27C443.402 1005.05 428.376 877.994 412.457 743.489C395.048 596.338 377.044 444.183 348.459 444.265L348.444 439.087C379.017 438.999 397.261 593.184 414.903 742.289C429.912 869.175 445.434 1000.38 466.741 1006.14C475.622 1008.51 485.631 988.572 496.545 946.799C512.003 871.054 523.437 794.276 530.782 716.899C547.868 572.568 560.359 477.956 577.594 477.907C596.55 477.852 608 540.256 620.121 606.312C625.814 645.077 634.73 683.116 646.742 719.897C650.956 730.098 654.785 734.231 658.452 732.579C671.328 726.738 681.433 649.619 690.339 581.585C700.008 507.765 709.141 438.032 722.56 437.994L722.575 443.172C711.068 443.205 701.767 514.238 692.77 582.926C682.788 659.131 673.36 731.104 658.999 737.618C654.395 739.674 649.633 734.836 644.834 723.225C632.61 685.968 623.548 647.423 617.776 608.134C606.492 546.631 594.821 483.048 577.618 483.097C561.056 483.145 546.909 602.611 533.234 718.148C525.854 795.938 514.344 873.122 498.77 949.262C487.852 991.055 477.852 1011.49 468.259 1011.52Z" fill="url(#paint12_linear_187_255)"/>
<path d="M458.95 967.533L456.319 967.134C431.695 959.606 415.509 844.096 398.372 721.81C379.472 586.958 359.92 447.513 328.647 447.603L328.632 442.442C361.824 442.347 381.634 583.704 400.79 720.398C416.951 835.732 433.668 954.982 456.686 962.024C466.588 965.059 477.8 946.786 489.948 907.705C506.763 838.63 519.265 768.237 527.357 697.072C543.282 584.403 558.321 477.982 578.381 477.924C598.9 477.865 611.361 535.044 624.53 595.582C630.803 631.4 640.512 666.296 653.474 699.619C658.292 709.435 662.699 713.171 666.966 711.085C680.821 704.218 691.257 637.479 701.343 572.932C711.923 505.238 721.913 441.307 736.423 441.265L736.438 446.425C723.763 446.462 713.586 511.568 703.742 574.531C693.446 640.424 682.798 708.568 667.57 716.109C662.466 718.628 657.128 714.328 651.714 703.278C638.498 669.471 628.613 634.047 622.247 597.677C609.409 538.732 597.29 483.027 578.406 483.082C560.224 483.134 544.748 592.638 529.782 698.535C521.639 770.158 509.036 841 492.071 910.505C480.171 948.768 469.306 967.503 458.95 967.533Z" fill="url(#paint13_linear_187_255)"/>
<path d="M448.818 927.234L445.116 926.609C418.857 917.674 401.452 812.902 383.022 701.966C362.491 578.387 341.262 450.582 307.028 450.681L307.013 445.528C343.058 445.424 364.585 575.006 385.4 700.32C403.577 809.743 420.74 913.086 445.502 921.522C456.822 925.365 468.981 909.119 482.769 871.88C501.025 808.993 514.689 744.434 523.618 678.885C541.034 575.578 557.478 478 579.2 477.937C601.444 477.873 614.975 530.262 629.3 585.738C636.246 618.924 646.824 650.948 660.779 681.028C666.325 690.554 671.429 693.925 676.39 691.288C691.24 683.429 702.46 623.21 713.313 564.98C724.879 502.916 735.797 444.308 751.47 444.263L751.484 449.423C737.532 449.463 726.413 509.139 715.659 566.845C704.583 626.293 693.121 687.772 677.021 696.288C671.304 699.333 665.302 695.518 659.174 684.995C644.928 654.445 634.143 621.894 627.085 588.15C613.123 534.095 599.933 483.03 579.211 483.09C559.259 483.148 542.341 583.517 525.982 680.586C516.989 746.631 503.197 811.672 484.754 875.015C471.821 910.025 460.008 927.202 448.818 927.234Z" fill="url(#paint14_linear_187_255)"/>
<path d="M437.794 890.286C436.054 890.29 434.324 889.975 432.669 889.354C404.772 878.994 386.095 784.183 366.321 683.809C344.006 570.541 320.929 453.406 283.477 453.514L283.463 448.354C322.619 448.241 346.016 567.024 368.644 681.89C388.149 780.904 406.571 874.421 433.097 884.266C445.785 888.959 459.496 874.166 474.981 839.003C494.778 781.875 509.718 722.64 519.59 662.139C538.619 567.44 556.602 477.988 580.149 477.92C604.259 477.85 618.973 525.846 634.562 576.672C642.296 607.528 653.831 636.933 668.808 663.977C675.222 673.229 681.148 676.174 686.894 673.002C702.726 664.249 714.773 610.045 726.425 557.625C739.061 500.735 750.993 446.994 767.936 446.945L767.951 452.105C752.616 452.15 740.46 506.862 728.71 559.773C716.826 613.274 704.538 668.6 687.567 677.979C681.124 681.534 674.331 678.229 667.371 668.181C652.075 640.705 640.308 610.798 632.438 579.4C617.238 529.824 602.869 483.004 580.164 483.07C558.281 483.133 540.616 571.044 521.908 664.119C511.954 725.14 496.861 784.877 476.846 842.472C462.737 874.517 449.901 890.252 437.794 890.286Z" fill="url(#paint15_linear_187_255)"/>
<path d="M425.782 856.42C423.419 856.422 421.073 855.965 418.84 855.069C389.295 843.378 369.292 757.809 348.12 667.211C323.852 563.381 298.759 456.018 257.796 456.136L257.782 450.974C300.327 450.851 325.775 559.711 350.377 664.996C371.271 754.377 391.006 838.805 419.301 849.999C433.583 855.634 449.027 842.208 466.508 808.874C487.91 757.132 504.241 702.766 515.194 646.796C535.99 559.984 555.624 477.99 581.165 477.917C607.316 477.841 624.066 523.85 640.269 568.339C648.938 597.15 661.534 624.166 677.577 648.36C684.986 657.365 691.843 659.919 698.523 656.159C715.361 646.679 728.246 597.977 740.712 550.886C754.506 498.758 767.541 449.507 785.88 449.454L785.895 454.615C769.038 454.663 756.351 502.608 742.918 553.367C730.207 601.406 717.057 651.081 699.196 661.142C691.939 665.232 684.223 662.436 676.302 652.797C659.934 628.218 647.091 600.741 638.27 571.427C621.713 525.958 606.08 483.008 581.193 483.079C557.207 483.149 537.9 563.754 517.461 649.093C506.407 705.588 489.893 760.453 468.232 812.648C452.865 841.959 438.906 856.382 425.782 856.42Z" fill="url(#paint16_linear_187_255)"/>
<path d="M412.715 825.381C409.585 825.384 406.478 824.757 403.532 823.528C372.325 810.69 350.94 733.613 328.299 652.002C301.896 556.815 274.589 458.391 229.812 458.52L229.797 453.375C276.047 453.242 303.715 552.998 330.481 649.48C352.821 730.025 373.932 806.105 404.011 818.481C420.108 825.091 437.538 812.936 457.29 781.271C480.362 734.572 498.216 684.657 510.422 632.725C533.124 553.151 554.564 477.996 582.27 477.916C610.645 477.834 628.862 519.955 646.488 560.684C656.253 587.683 670.003 612.505 687.118 634.037C718.118 665.734 737.517 604.188 756.278 544.659C771.337 496.891 785.551 451.773 805.414 451.716L805.429 456.874C786.929 456.927 773.068 500.91 758.389 547.475C739.033 608.885 719.018 672.367 686.008 638.656C668.561 616.795 654.55 591.564 644.608 564.106C626.565 522.398 609.524 482.995 582.28 483.073C556.001 483.149 534.922 557.076 512.581 635.349C500.258 687.805 482.196 738.211 458.835 785.342C442.127 812.134 426.942 825.34 412.715 825.381Z" fill="url(#paint17_linear_187_255)"/>
<path d="M398.255 797.167C359.125 797.28 333.459 719.341 306.708 638.125C277.964 550.848 248.24 460.612 199.299 460.753L199.284 455.592C249.562 455.447 279.668 546.85 308.785 635.244C344.832 744.699 378.886 848.062 447.243 755.971C472.05 713.999 491.576 668.143 505.234 619.782C530.006 546.876 553.406 478.001 583.473 477.915C614.291 477.826 634.107 516.391 653.27 553.678C664.336 579.064 679.351 601.866 697.558 620.936C731.533 650.145 752.759 593.601 773.263 538.934C789.681 495.181 805.188 453.849 826.71 453.787L826.724 458.947C806.432 459.006 791.287 499.364 775.256 542.1C754.16 598.311 732.339 656.411 696.602 625.693C678.072 606.356 662.795 583.204 651.547 557.411C631.875 519.134 613.297 482.986 583.484 483.072C554.716 483.155 531.676 550.964 507.287 622.751C493.492 671.612 473.737 717.927 448.621 760.29C442.953 770.215 435.534 778.634 426.852 784.99C418.171 791.347 408.424 795.497 398.255 797.167Z" fill="url(#paint18_linear_187_255)"/>
<path d="M382.773 771.035C340.195 771.158 312.278 699.783 283.186 625.409C251.884 545.39 219.508 462.641 166.041 462.795L166.026 457.645C220.705 457.487 253.458 541.227 285.139 622.199C324.424 722.644 361.531 817.511 436.298 732.834C462.872 695.28 484.225 653.144 499.588 607.946C526.608 541.134 552.13 478.023 584.783 477.929C618.259 477.833 638.859 511.557 660.664 547.253C673.232 571.185 689.619 592.122 708.949 608.941C746.156 635.823 769.35 583.903 791.784 533.685C809.682 493.607 826.591 455.751 849.923 455.684L849.938 460.844C827.694 460.908 811.153 497.951 793.631 537.183C770.654 588.628 746.896 641.803 708.126 613.8C688.497 596.775 671.858 575.555 659.105 551.285C637.656 516.161 617.4 482.996 584.796 483.09C553.302 483.18 528.153 545.386 501.52 611.252C486.002 656.909 464.406 699.458 437.516 737.35C423.732 756.386 404.104 768.464 382.773 771.035Z" fill="url(#paint19_linear_187_255)"/>
<path d="M365.904 747.093C319.568 747.226 289.205 681.882 257.556 613.775C223.456 540.396 188.191 464.526 129.795 464.694L129.78 459.536C189.257 459.365 224.897 536.064 259.365 610.229C302.19 702.388 342.641 789.463 424.366 711.573C452.743 678.136 476.09 639.424 493.44 597.043C522.904 535.833 550.732 478.012 586.203 477.91C622.604 477.805 645.004 508.671 668.723 541.345C683.011 563.914 700.885 583.114 721.384 597.91C762.092 622.65 787.456 574.954 811.971 528.826C831.466 492.13 849.895 457.466 875.222 457.393L875.237 462.546C850.881 462.616 832.805 496.627 813.664 532.629C788.637 579.715 762.767 628.393 720.683 602.858C699.914 587.903 681.805 568.475 667.337 545.625C643.947 513.401 621.853 482.972 586.22 483.075C551.79 483.174 524.315 540.249 495.228 600.681C477.713 643.473 454.119 682.544 425.432 716.263C409.266 734.212 388.23 745.107 365.904 747.093Z" fill="url(#paint20_linear_187_255)"/>
<path d="M347.533 725.166C297.085 725.312 264.057 665.482 229.628 603.129C192.476 535.844 154.055 466.258 90.2846 466.442L90.2698 461.294C154.991 461.108 193.764 531.343 231.28 599.279C277.968 683.839 322.052 763.721 411.36 692.144C441.578 662.481 467.091 626.922 486.747 587.071C518.868 530.989 549.202 478.024 587.761 477.913C605.404 479.696 622.525 485.788 637.998 495.79C653.471 505.792 666.944 519.477 677.533 535.945C693.738 557.216 713.212 574.809 734.962 587.826C779.488 610.548 807.187 566.747 833.976 524.387C855.227 490.78 875.3 459.04 902.793 458.961L902.808 464.106C876.159 464.182 856.427 495.416 835.509 528.478C808.249 571.578 780.054 616.166 734.367 592.822C712.376 579.694 692.687 561.927 676.31 540.434C665.868 524.181 652.583 510.667 637.325 500.779C622.067 490.891 605.182 484.852 587.776 483.058C550.135 483.166 520.135 535.553 488.375 591.009C468.543 631.204 442.789 667.055 412.279 696.936C393.679 713.76 371.094 723.607 347.533 725.166Z" fill="url(#paint21_linear_187_255)"/>
<path d="M327.506 705.085C272.594 705.244 236.649 650.466 199.187 593.363C158.705 531.661 116.827 467.848 47.2167 468.049L47.2019 462.917C117.643 462.714 159.852 527.041 200.672 589.251C251.575 666.81 299.653 740.065 397.176 674.336C429.304 648.096 457.162 615.456 479.455 577.933C514.466 526.553 547.534 478.023 589.454 477.903C626.697 480.312 661.704 499.335 687.143 530.986C705.452 550.981 726.653 567.082 749.775 578.553C798.44 599.445 828.697 559.206 857.965 520.28C881.114 489.502 902.982 460.43 932.852 460.344L932.867 465.487C903.73 465.571 882.165 494.246 859.332 524.607C829.645 564.075 798.938 604.9 749.279 583.587C725.947 572.032 704.554 555.798 686.081 535.631C660.928 504.302 626.309 485.452 589.464 483.025C548.342 483.143 515.589 531.215 480.91 582.103C458.445 619.917 430.359 652.796 397.961 679.203C376.867 694.901 352.556 703.832 327.506 705.085Z" fill="url(#paint22_linear_187_255)"/>
<path d="M305.688 686.698C245.894 686.87 206.775 636.721 166.004 584.456C147.525 552.179 123.046 525.107 94.3658 505.229C65.6858 485.35 33.5337 473.171 0.272432 469.586L0.257599 464.439C33.7817 468.015 66.1937 480.261 95.1074 500.276C124.021 520.291 148.7 547.565 167.328 580.091C222.813 651.234 275.241 718.427 381.714 658.035C415.864 634.836 446.251 604.897 471.507 569.568C509.662 522.495 545.702 478.026 591.308 477.895C630.501 479.446 668.048 496.601 697.631 526.472C718.213 545.205 741.285 559.932 765.943 570.076C819.089 589.246 852.137 552.296 884.097 516.569C904.029 486.611 933.292 466.9 965.621 461.657L965.636 466.802C933.772 472.072 904.949 491.55 885.301 521.093C852.962 557.234 819.516 594.589 765.521 575.153C740.687 564.943 717.448 550.117 696.715 531.257C667.392 501.639 630.178 484.615 591.326 483.048C546.408 483.177 510.656 527.289 472.803 573.997C447.378 609.555 416.779 639.676 382.389 662.997C358.717 677.566 332.483 685.673 305.688 686.698Z" fill="url(#paint23_linear_187_255)"/>
<path d="M1298.61 434.581C1311.14 434.545 1320.31 459.366 1330.02 485.632C1342.16 518.448 1354.7 552.397 1374.39 534.709C1384.94 523.152 1393.61 509.38 1399.96 494.086C1410.99 471.585 1422.4 448.317 1440.36 448.265C1457.88 448.214 1471.74 489.579 1486.43 533.37C1494.54 562.393 1506.06 589.911 1520.67 615.106C1560.78 670.304 1580.27 607.964 1600.89 541.998C1617.54 488.71 1634.77 433.61 1664.06 433.526L1664.06 436.623C1635.56 436.705 1618.56 491.102 1602.12 543.705C1581.08 611 1561.22 674.567 1519.87 617.698C1505.08 592.264 1493.42 564.466 1485.23 535.141C1470.78 492.031 1457.13 451.314 1440.38 451.362C1423.02 451.412 1412.32 473.22 1400.99 496.315C1394.54 511.85 1385.72 525.83 1374.98 537.55C1354.25 556.188 1341.35 521.267 1328.88 487.522C1319.39 461.873 1310.44 437.642 1298.62 437.676L1298.61 434.581Z" fill="url(#paint24_linear_187_255)"/>
<path d="M1285.09 435.795C1298.68 435.756 1308.66 458.477 1319.22 482.532C1332.46 512.672 1346.14 543.824 1367.72 527.528C1378.93 517.321 1388.41 504.669 1395.63 490.248C1408.21 468.69 1420.09 448.323 1439.6 448.267C1458.62 448.212 1473.7 486.104 1489.67 526.211C1498.75 553.322 1511.33 578.596 1526.95 601.129C1570.77 651.85 1592.07 594.629 1614.61 534.066C1632.79 485.244 1651.58 434.739 1683.43 434.647L1683.44 437.744C1652.29 437.834 1633.73 487.726 1615.77 535.987C1592.83 597.61 1571.17 655.812 1526.25 603.85C1510.44 581.107 1497.72 555.578 1488.55 528.186C1472.81 488.654 1457.95 451.311 1439.61 451.364C1420.62 451.419 1408.94 471.445 1396.57 492.648C1389.24 507.275 1379.62 520.101 1368.23 530.437C1345.73 547.456 1331.72 515.501 1318.16 484.621C1307.82 461.081 1298.05 438.849 1285.11 438.887L1285.09 435.795Z" fill="url(#paint25_linear_187_255)"/>
<path d="M1270.35 436.912C1285.1 436.87 1295.95 457.661 1307.44 479.684C1321.87 507.348 1336.79 535.969 1360.43 520.933C1372.33 511.942 1382.67 500.331 1390.9 486.725C1404.61 466.982 1417.55 448.348 1438.77 448.287C1459.42 448.228 1475.84 482.906 1493.2 519.644C1503.43 545.055 1517.16 568.267 1533.82 588.325C1581.68 634.87 1604.95 582.375 1629.58 526.768C1649.4 482.028 1669.9 435.753 1704.55 435.653L1704.56 438.74C1670.54 438.838 1650.26 484.614 1630.65 528.885C1605.66 585.327 1582.04 638.653 1533.21 591.112C1516.37 570.89 1502.5 547.467 1492.17 521.815C1475.02 485.554 1458.83 451.301 1438.78 451.359C1418.02 451.419 1405.25 469.806 1391.74 489.284C1383.41 503.057 1372.93 514.807 1360.86 523.899C1336.43 539.428 1321.2 510.225 1306.46 481.967C1295.19 460.367 1284.55 439.958 1270.36 439.999L1270.35 436.912Z" fill="url(#paint26_linear_187_255)"/>
<path d="M1254.3 437.949C1270.32 437.903 1282.11 456.93 1294.61 477.081C1310.36 502.485 1326.64 528.783 1352.49 514.908C1365.14 506.99 1376.43 496.338 1385.77 483.5C1391.85 473.579 1399.64 465.308 1408.62 459.236C1417.6 453.164 1427.57 449.43 1437.86 448.282C1460.32 448.218 1478.17 479.983 1497.07 513.62C1508.64 537.502 1523.62 558.811 1541.34 576.588C1593.58 619.334 1618.99 571.128 1645.9 520.096C1667.51 479.093 1689.87 436.694 1727.57 436.586L1727.58 439.665C1690.44 439.772 1668.3 481.772 1646.89 522.393C1619.64 574.072 1593.9 622.867 1540.81 579.468C1522.92 561.554 1507.8 540.066 1496.13 515.975C1477.44 482.713 1459.79 451.298 1437.87 451.362C1427.72 452.517 1417.89 456.218 1409.03 462.22C1400.18 468.222 1392.5 476.389 1386.51 486.179C1377.06 499.151 1365.65 509.91 1352.86 517.899C1326.32 532.078 1309.74 505.374 1293.72 479.514C1281.43 459.692 1269.83 440.971 1254.31 441.016L1254.3 437.949Z" fill="url(#paint27_linear_187_255)"/>
<path d="M1236.79 438.914C1254.19 438.864 1267.03 456.279 1280.62 474.718C1297.8 498.037 1315.56 522.11 1343.83 509.41C1357.27 502.412 1369.56 492.651 1380.14 480.575C1394.79 461.471 1415.13 449.891 1436.86 448.288C1461.29 448.217 1480.71 477.308 1501.28 508.106C1514.37 530.572 1530.71 550.113 1549.54 565.82C1606.57 605.013 1634.33 560.804 1663.7 513.96C1687.26 476.388 1711.64 437.546 1752.67 437.427L1752.68 440.507C1712.14 440.623 1687.97 479.162 1664.6 516.421C1634.9 563.767 1606.85 608.49 1549.1 568.75C1530.11 552.939 1513.64 533.252 1500.45 510.608C1480.09 480.108 1460.84 451.298 1436.89 451.367C1415.4 452.981 1395.29 464.448 1380.8 483.346C1370.13 495.53 1357.72 505.373 1344.15 512.419C1315.3 525.422 1297.26 500.965 1279.84 477.307C1266.43 459.123 1253.78 441.942 1236.81 441.991L1236.79 438.914Z" fill="url(#paint28_linear_187_255)"/>
<path d="M1217.73 439.796C1236.62 442.872 1253.74 454.636 1265.4 472.551C1284.13 493.945 1303.51 516.037 1334.39 504.358C1348.73 498.155 1362.12 489.211 1374.02 477.881C1391.1 459.829 1412.93 449.37 1435.79 448.286C1462.36 448.209 1483.51 474.841 1505.89 503.042C1520.69 524.186 1538.49 542.097 1558.49 555.964C1620.7 591.961 1651 551.331 1683.09 508.33C1693.76 488.747 1708.02 472.272 1724.79 460.127C1741.57 447.983 1760.44 440.481 1780.01 438.178L1780.01 441.255C1760.6 443.563 1741.88 451.025 1725.24 463.089C1708.6 475.152 1694.46 491.508 1683.88 510.945C1651.51 554.312 1620.95 595.264 1558.11 558.955C1537.97 545.006 1520.05 526.985 1505.15 505.707C1482.94 477.725 1461.96 451.305 1435.8 451.38C1413.14 452.47 1391.5 462.85 1374.57 480.752C1362.57 492.161 1349.08 501.162 1334.63 507.399C1303.24 519.324 1283.64 496.919 1264.68 475.272C1253.19 457.604 1236.33 445.977 1217.71 442.886L1217.73 439.796Z" fill="url(#paint29_linear_187_255)"/>
<path d="M1196.93 440.599C1216.67 442.955 1235.06 453.584 1248.8 470.579C1258.06 482.906 1269.91 492.098 1283.14 497.218C1296.37 502.339 1310.51 503.204 1324.1 499.726C1339.45 494.2 1354.02 486.01 1367.35 475.421C1386.92 458.47 1410.39 449.003 1434.62 448.281C1464.37 453.332 1491.52 471.171 1510.93 498.408C1527.63 518.264 1547.01 534.662 1568.26 546.923C1591.68 559.625 1618.1 562.202 1642.93 554.208C1667.77 546.213 1689.45 528.151 1704.22 503.155C1717.15 484.388 1733.19 468.991 1751.36 457.923C1769.53 446.856 1789.43 440.357 1809.82 438.833L1809.83 441.922C1789.57 443.449 1769.8 449.918 1751.75 460.924C1733.7 471.93 1717.75 487.237 1704.92 505.89C1690.03 531.072 1668.18 549.265 1643.16 557.31C1618.13 565.355 1591.52 562.744 1567.93 549.931C1546.55 537.621 1527.06 521.139 1510.27 501.173C1491.03 474.158 1464.12 456.441 1434.63 451.373C1410.56 452.104 1387.26 461.513 1367.82 478.351C1354.42 489.001 1339.76 497.236 1324.33 502.789C1310.59 506.331 1296.3 505.476 1282.92 500.31C1269.54 495.144 1257.56 485.854 1248.2 473.389C1234.62 456.585 1216.45 446.057 1196.94 443.689L1196.93 440.599Z" fill="url(#paint30_linear_187_255)"/>
<path d="M1174.25 441.369C1195.04 443.182 1214.81 452.789 1230.71 468.803C1241.75 480.476 1254.91 488.961 1269.16 493.594C1283.41 498.226 1298.37 498.88 1312.87 495.504C1329.35 490.553 1345.21 483.051 1360.04 473.192C1382.19 457.36 1407.47 448.77 1433.33 448.295C1464.52 452.281 1493.73 468.413 1516.4 494.172C1535.15 512.774 1556.25 527.776 1578.91 538.629C1604.16 550.586 1631.88 553.145 1658.37 545.965C1684.87 538.785 1708.89 522.206 1727.24 498.431C1758.03 462.417 1799.07 441.378 1842.29 439.444L1842.3 442.523C1799.3 444.466 1758.47 465.41 1727.84 501.245C1709.38 525.163 1685.22 541.839 1658.56 549.057C1631.91 556.276 1604.03 553.695 1578.62 541.658C1555.86 530.757 1534.66 515.69 1515.82 497.008C1493.31 471.417 1464.31 455.372 1433.33 451.374C1407.61 451.859 1382.46 460.408 1360.44 476.153C1345.54 486.057 1329.6 493.592 1313.04 498.565C1298.43 501.973 1283.34 501.32 1268.96 496.656C1254.59 491.992 1241.31 483.443 1230.18 471.679C1214.43 455.806 1194.84 446.271 1174.25 444.446L1174.25 441.369Z" fill="url(#paint31_linear_187_255)"/>
<path d="M1149.55 442.084C1171.6 443.497 1192.89 452.191 1211.01 467.185C1223.82 478.142 1238.36 485.948 1253.75 490.145C1269.14 494.342 1285.08 494.844 1300.63 491.622C1318.39 487.165 1335.66 480.294 1352.09 471.144C1376.9 456.432 1404.2 448.622 1431.94 448.31C1464.9 451.489 1496.35 466.09 1522.39 490.299C1543.35 507.662 1566.3 521.379 1590.54 531.033C1617.89 542.219 1647.23 544.695 1675.62 538.213C1704.02 531.732 1730.47 516.519 1752.35 494.095C1787.96 460.138 1832.03 441.114 1877.72 439.985L1877.73 443.065C1832.23 444.201 1788.33 463.147 1752.87 496.958C1730.89 519.484 1704.31 534.765 1675.78 541.277C1647.26 547.789 1617.78 545.303 1590.3 534.067C1565.98 524.375 1542.95 510.607 1521.9 493.181C1496 469.098 1464.73 454.559 1431.95 451.368C1404.33 451.686 1377.14 459.466 1352.44 474.118C1335.95 483.306 1318.62 490.208 1300.8 494.686C1285.14 497.932 1269.09 497.431 1253.6 493.211C1238.1 488.992 1223.47 481.139 1210.56 470.115C1192.57 455.229 1171.44 446.59 1149.56 445.171L1149.55 442.084Z" fill="url(#paint32_linear_187_255)"/>
<path d="M1122.62 442.744C1146.16 443.864 1169.12 451.744 1189.54 465.707C1218.99 486.313 1253.52 494.223 1287.29 488.099C1306.47 484.055 1325.26 477.752 1343.39 469.283C1370.97 455.639 1400.53 448.513 1430.42 448.304C1465.48 450.876 1499.41 464.113 1528.93 486.741C1552.26 502.885 1577.22 515.426 1603.22 524.062C1632.91 534.473 1664.19 536.827 1694.74 530.949C1725.29 525.071 1754.32 511.111 1779.7 490.104C1820.25 458.292 1867.69 441.056 1916.32 440.464L1916.33 443.536C1867.86 444.136 1820.57 461.322 1780.15 493.032C1754.68 514.116 1725.54 528.126 1694.88 534.026C1664.22 539.925 1632.83 537.563 1603.03 527.113C1576.95 518.465 1551.91 505.887 1528.52 489.689C1499.12 467.156 1465.34 453.966 1430.43 451.386C1400.64 451.599 1371.18 458.703 1343.69 472.302C1325.51 480.797 1306.66 487.115 1287.42 491.163C1253.47 497.341 1218.76 489.398 1189.16 468.68C1168.85 454.791 1146.02 446.948 1122.61 445.826L1122.62 442.744Z" fill="url(#paint33_linear_187_255)"/>
<path d="M1093.26 443.362C1118.52 444.259 1143.35 451.415 1166.15 464.37C1199.23 483.464 1236.31 490.586 1272.75 484.85C1293.53 481.177 1314.01 475.394 1333.96 467.566C1364.44 454.953 1396.48 448.442 1428.78 448.298C1466.3 450.418 1502.96 462.437 1536.09 483.48C1561.92 498.445 1589.08 509.912 1617.06 517.664C1682.23 537.153 1751.2 525.96 1809.52 486.431C1855.17 456.772 1906.35 441.11 1958.41 440.866L1958.42 443.948C1906.49 444.194 1855.44 459.812 1809.91 489.389C1751.42 529.023 1682.25 540.249 1616.9 520.715C1588.85 512.945 1561.63 501.45 1535.74 486.448C1502.72 465.483 1466.18 453.502 1428.78 451.375C1396.57 451.525 1364.62 458.018 1334.21 470.591C1314.22 478.441 1293.7 484.236 1272.86 487.911C1236.27 493.703 1199.04 486.556 1165.83 467.366C1143.13 454.47 1118.41 447.342 1093.26 446.441L1093.26 443.362Z" fill="url(#paint34_linear_187_255)"/>
<path d="M1061.27 443.962C1088.48 444.698 1115.37 451.202 1140.66 463.167C1177.5 480.792 1217.45 487.226 1256.89 481.885C1279.44 478.537 1301.76 473.233 1323.65 466.015C1357.21 454.382 1391.99 448.423 1426.96 448.313C1467.29 450.084 1506.98 461.005 1543.87 480.488C1572.36 494.321 1601.93 504.805 1632.14 511.791C1702.88 529.722 1776.61 519.631 1842.01 483.063C1892.95 455.529 1948.28 441.265 2004.27 441.232L2004.28 444.324C1948.4 444.355 1893.18 458.588 1842.34 486.068C1776.8 522.729 1702.91 532.842 1632.01 514.855C1601.74 507.86 1572.12 497.356 1543.58 483.494C1506.78 464.067 1467.21 453.174 1426.98 451.403C1392.08 451.512 1357.37 457.457 1323.88 469.063C1301.94 476.295 1279.59 481.605 1257 484.951C1217.43 490.352 1177.34 483.903 1140.4 466.193C1115.19 454.268 1088.4 447.784 1061.28 447.046L1061.27 443.962Z" fill="url(#paint35_linear_187_255)"/>
<path d="M1654.95 1.64769L1656.74 1.89783C1679.23 8.11936 1693.92 135.175 1709.48 269.681C1726.49 416.832 1744.09 568.989 1772.01 568.909L1772.03 574.087C1742.16 574.173 1724.33 419.987 1707.09 270.88C1692.42 143.993 1677.25 12.785 1656.43 7.02587C1647.76 4.65583 1637.98 24.5924 1627.32 66.3652C1612.23 142.109 1601.06 218.886 1593.89 296.263C1577.21 440.592 1565.02 535.203 1548.18 535.252C1529.66 535.305 1518.48 472.901 1506.63 406.844C1501.07 368.078 1492.36 330.038 1480.62 293.257C1476.5 283.055 1472.76 278.922 1469.18 280.574C1456.6 286.414 1446.74 363.533 1438.04 431.567C1428.6 505.385 1419.68 575.117 1406.57 575.155L1406.56 569.977C1417.8 569.945 1426.88 498.913 1435.67 430.225C1445.41 354.021 1454.62 282.049 1468.64 275.535C1473.14 273.48 1477.79 278.318 1482.48 289.93C1494.43 327.187 1503.28 365.733 1508.92 405.022C1519.95 466.526 1531.35 530.11 1548.16 530.061C1564.34 530.014 1578.15 410.55 1591.5 295.013C1598.7 217.224 1609.94 140.041 1625.15 63.9024C1635.81 22.1092 1645.58 1.67469 1654.95 1.64769Z" fill="url(#paint36_linear_187_255)"/>
<path d="M1664.05 45.6337L1666.62 46.0323C1690.67 53.5617 1706.49 169.073 1723.24 291.36C1741.71 426.213 1760.82 565.66 1791.37 565.572L1791.38 570.732C1758.96 570.826 1739.6 429.467 1720.88 292.772C1705.08 177.437 1688.74 58.1863 1666.26 51.1425C1656.59 48.1064 1645.63 66.379 1633.77 105.459C1617.35 174.533 1605.14 244.925 1597.24 316.09C1581.69 428.758 1567.01 535.178 1547.41 535.234C1527.37 535.292 1515.19 478.112 1502.33 417.573C1496.19 381.755 1486.71 346.858 1474.04 313.534C1469.34 303.717 1465.03 299.982 1460.86 302.067C1447.33 308.933 1437.14 375.672 1427.29 440.218C1416.96 507.911 1407.21 571.842 1393.03 571.883L1393.02 566.723C1405.4 566.687 1415.34 501.581 1424.95 438.619C1435 372.726 1445.4 304.583 1460.27 297.044C1465.26 294.524 1470.47 298.825 1475.76 309.875C1488.68 343.683 1498.33 379.108 1504.55 415.478C1517.1 474.424 1528.94 530.129 1547.39 530.076C1565.15 530.025 1580.26 420.522 1594.87 314.626C1602.82 243.004 1615.13 172.163 1631.7 102.659C1643.32 64.3967 1653.93 45.6628 1664.05 45.6337Z" fill="url(#paint37_linear_187_255)"/>
<path d="M1673.95 85.9324L1677.56 86.5578C1703.21 95.4946 1720.22 200.268 1738.23 311.205C1758.3 434.785 1779.04 562.592 1812.48 562.495L1812.5 567.648C1777.29 567.749 1756.25 438.167 1735.91 312.851C1718.15 203.427 1701.37 100.083 1677.19 91.6452C1666.13 87.801 1654.25 104.046 1640.78 141.285C1622.96 204.171 1609.61 268.728 1600.89 334.277C1583.89 437.583 1567.83 535.16 1546.61 535.221C1524.88 535.283 1511.66 482.894 1497.67 427.417C1490.88 394.23 1480.54 362.206 1466.91 332.125C1461.49 322.599 1456.5 319.227 1451.66 321.864C1437.15 329.721 1426.2 389.94 1415.6 448.169C1404.3 510.233 1393.64 568.84 1378.33 568.884L1378.32 563.723C1391.95 563.684 1402.81 504.009 1413.31 446.304C1424.12 386.857 1435.32 325.378 1451.04 316.863C1456.63 313.819 1462.49 317.635 1468.48 328.158C1482.39 358.709 1492.93 391.26 1499.83 425.005C1513.47 479.061 1526.36 530.126 1546.6 530.068C1566.09 530.012 1582.61 429.643 1598.59 332.575C1607.37 266.531 1620.83 201.491 1638.85 138.15C1651.48 103.14 1663.02 85.9639 1673.95 85.9324Z" fill="url(#paint38_linear_187_255)"/>
<path d="M1684.72 122.882C1686.42 122.878 1688.11 123.193 1689.72 123.814C1716.98 134.177 1735.23 228.988 1754.55 329.363C1776.36 442.633 1798.91 559.769 1835.49 559.664L1835.51 564.824C1797.26 564.934 1774.39 446.15 1752.28 331.282C1733.22 232.267 1715.22 138.75 1689.31 128.902C1676.91 124.209 1663.52 139.001 1648.39 174.163C1629.06 231.289 1614.47 290.523 1604.83 351.023C1586.25 445.722 1568.69 535.172 1545.69 535.239C1522.13 535.307 1507.76 487.309 1492.53 436.483C1484.97 405.626 1473.7 376.22 1459.07 349.176C1452.8 339.923 1447.01 336.978 1441.4 340.15C1425.93 348.901 1414.17 403.104 1402.79 455.524C1390.45 512.412 1378.8 566.153 1362.25 566.201L1362.23 561.04C1377.21 560.997 1389.09 506.286 1400.56 453.375C1412.16 399.875 1424.16 344.55 1440.74 335.173C1447.04 331.618 1453.67 334.923 1460.47 344.972C1475.41 372.449 1486.91 402.357 1494.6 433.755C1509.45 483.332 1523.49 530.153 1545.67 530.089C1567.05 530.027 1584.3 442.117 1602.57 349.043C1612.29 288.023 1627.02 228.287 1646.57 170.693C1660.35 138.65 1672.89 122.916 1684.72 122.882Z" fill="url(#paint39_linear_187_255)"/>
<path d="M1696.45 156.748C1698.76 156.747 1701.05 157.204 1703.23 158.1C1732.1 169.793 1751.64 255.363 1772.33 345.962C1796.04 449.795 1820.56 557.159 1860.58 557.043L1860.59 562.206C1819.03 562.326 1794.16 453.464 1770.13 348.177C1749.71 258.795 1730.43 174.366 1702.78 163.17C1688.83 157.534 1673.75 170.959 1656.67 204.291C1635.77 256.033 1619.82 310.397 1609.13 366.367C1588.82 453.178 1569.64 535.17 1544.69 535.242C1519.15 535.315 1502.78 489.305 1486.95 444.815C1478.48 416.004 1466.18 388.986 1450.5 364.791C1443.26 355.786 1436.57 353.232 1430.04 356.991C1413.59 366.47 1401.01 415.171 1388.84 462.262C1375.36 514.389 1362.63 563.638 1344.72 563.69L1344.71 558.53C1361.17 558.482 1373.56 510.538 1386.68 459.781C1399.09 411.742 1411.94 362.068 1429.38 352.009C1436.47 347.918 1444.01 350.715 1451.75 360.355C1467.74 384.935 1480.29 412.413 1488.9 441.728C1505.08 487.197 1520.35 530.149 1544.67 530.079C1568.1 530.011 1586.95 449.407 1606.91 364.07C1617.71 307.575 1633.83 252.711 1654.99 200.517C1670 171.208 1683.63 156.785 1696.45 156.748Z" fill="url(#paint40_linear_187_255)"/>
<path d="M1709.22 187.789C1712.28 187.786 1715.31 188.413 1718.19 189.642C1748.68 202.482 1769.57 279.561 1791.69 361.173C1817.49 456.362 1844.17 554.788 1887.91 554.662L1887.93 559.807C1842.75 559.937 1815.71 460.179 1789.56 363.695C1767.73 283.148 1747.11 207.067 1717.72 194.689C1702 188.078 1684.97 200.232 1665.68 231.896C1643.14 278.592 1625.71 328.507 1613.79 380.438C1591.62 460.01 1570.68 535.164 1543.61 535.242C1515.9 535.322 1498.1 493.2 1480.88 452.47C1471.34 425.471 1457.9 400.647 1441.18 379.115C1410.9 347.415 1391.95 408.96 1373.63 468.487C1358.92 516.254 1345.04 561.371 1325.64 561.427L1325.62 556.269C1343.69 556.217 1357.23 512.235 1371.57 465.672C1390.47 404.263 1410.02 340.782 1442.27 374.495C1459.31 396.357 1473 421.59 1482.71 449.048C1500.34 490.758 1516.99 530.161 1543.6 530.085C1569.27 530.011 1589.86 456.086 1611.68 377.814C1623.71 325.359 1641.35 274.954 1664.17 227.825C1680.49 201.034 1695.32 187.829 1709.22 187.789Z" fill="url(#paint41_linear_187_255)"/>
<path d="M1723.35 216.003C1761.57 215.893 1786.65 293.833 1812.79 375.051C1840.87 462.331 1869.91 552.569 1917.72 552.431L1917.73 557.591C1868.62 557.733 1839.21 466.329 1810.76 377.932C1775.54 268.475 1742.26 165.109 1675.5 257.196C1651.27 299.167 1632.2 345.021 1618.86 393.381C1594.66 466.285 1571.81 535.159 1542.44 535.243C1512.33 535.33 1492.97 496.764 1474.25 459.475C1463.44 434.088 1448.77 411.286 1430.99 392.215C1397.8 363.003 1377.06 419.545 1357.04 474.211C1341 517.963 1325.86 559.294 1304.84 559.355L1304.82 554.195C1324.64 554.138 1339.43 513.78 1355.09 471.046C1375.7 414.836 1397.01 356.737 1431.92 387.458C1450.02 406.795 1464.95 429.949 1475.94 455.743C1495.15 494.021 1513.3 530.169 1542.43 530.086C1570.53 530.005 1593.03 462.197 1616.85 390.413C1630.32 341.552 1649.62 295.238 1674.15 252.878C1679.69 242.952 1686.93 234.534 1695.41 228.178C1703.89 221.822 1713.41 217.673 1723.35 216.003Z" fill="url(#paint42_linear_187_255)"/>
<path d="M1738.47 242.136C1780.06 242.017 1807.34 313.393 1835.76 387.769C1866.35 467.79 1897.98 550.542 1950.21 550.391L1950.22 555.542C1896.81 555.695 1864.81 471.954 1833.86 390.979C1795.47 290.532 1759.22 195.662 1686.19 280.334C1660.23 317.887 1639.38 360.021 1624.37 405.218C1597.98 472.028 1573.06 535.137 1541.16 535.229C1508.46 535.323 1488.33 501.598 1467.03 465.9C1454.75 441.967 1438.74 421.029 1419.86 404.209C1383.51 377.325 1360.86 429.243 1338.95 479.459C1321.47 519.536 1304.95 557.391 1282.16 557.456L1282.14 552.296C1303.87 552.234 1320.03 515.192 1337.14 475.961C1359.58 424.518 1382.79 371.344 1420.66 399.35C1439.84 416.376 1456.09 437.597 1468.55 461.869C1489.51 496.993 1509.3 530.16 1541.15 530.069C1571.91 529.98 1596.47 467.776 1622.49 401.912C1637.64 356.256 1658.73 313.708 1685 275.818C1698.46 256.783 1717.64 244.706 1738.47 242.136Z" fill="url(#paint43_linear_187_255)"/>
<path d="M1754.95 266.08C1800.22 265.949 1829.88 331.296 1860.8 399.404C1894.12 472.786 1928.57 548.659 1985.61 548.494L1985.63 553.652C1927.53 553.819 1892.71 477.118 1859.03 402.951C1817.19 310.788 1777.67 223.711 1697.85 301.595C1670.13 335.031 1647.32 373.741 1630.38 416.121C1601.6 477.328 1574.42 535.148 1539.77 535.248C1504.21 535.35 1482.33 504.482 1459.16 471.807C1445.2 449.237 1427.74 430.036 1407.71 415.238C1367.95 390.496 1343.17 438.19 1319.23 484.316C1300.19 521.011 1282.19 555.674 1257.45 555.745L1257.43 550.593C1281.22 550.524 1298.88 516.514 1317.57 480.514C1342.02 433.429 1367.29 384.753 1408.4 410.29C1428.69 425.247 1446.38 444.676 1460.51 467.527C1483.36 499.753 1504.95 530.183 1539.75 530.082C1573.39 529.986 1600.22 472.913 1628.63 412.482C1645.74 369.692 1668.78 330.622 1696.8 296.905C1712.59 278.957 1733.14 268.064 1754.95 266.08Z" fill="url(#paint44_linear_187_255)"/>
<path d="M1772.9 288.007C1822.18 287.865 1854.45 347.697 1888.08 410.052C1924.38 477.341 1961.92 546.929 2024.21 546.749L2024.22 551.896C1961 552.079 1923.12 481.841 1886.47 413.902C1840.86 329.339 1797.79 249.454 1710.55 321.026C1681.04 350.687 1656.12 386.244 1636.92 426.094C1605.54 482.174 1575.92 535.136 1538.25 535.245C1521.02 533.461 1504.29 527.367 1489.17 517.364C1474.06 507.361 1460.9 493.675 1450.55 477.207C1434.72 455.935 1415.7 438.34 1394.45 425.322C1350.95 402.597 1323.9 446.396 1297.73 488.755C1276.98 522.36 1257.37 554.099 1230.51 554.176L1230.5 549.031C1256.53 548.956 1275.8 517.724 1296.23 484.663C1322.86 441.565 1350.4 396.979 1395.03 420.325C1416.51 433.456 1435.75 451.223 1451.75 472.718C1461.95 488.972 1474.93 502.486 1489.83 512.376C1504.74 522.265 1521.23 528.305 1538.24 530.1C1575 529.994 1604.31 477.609 1635.33 422.156C1654.7 381.962 1679.85 346.113 1709.65 316.233C1727.82 299.411 1749.88 289.565 1772.9 288.007Z" fill="url(#paint45_linear_187_255)"/>
<path d="M1792.46 308.089C1846.11 307.935 1881.22 362.715 1917.82 419.82C1957.37 481.525 1998.28 545.34 2066.28 545.144L2066.29 550.276C1997.48 550.475 1956.25 486.145 1916.37 423.932C1866.64 346.37 1819.67 273.112 1724.41 338.834C1693.03 365.072 1665.82 397.71 1644.04 435.232C1609.84 486.609 1577.55 535.137 1536.6 535.255C1500.22 532.842 1466.02 513.818 1441.17 482.165C1423.28 462.169 1402.57 446.066 1379.98 434.594C1332.44 413.699 1302.89 453.935 1274.3 492.859C1251.69 523.636 1230.33 552.706 1201.15 552.79L1201.14 547.648C1229.6 547.566 1250.66 518.892 1272.96 488.532C1301.96 449.066 1331.95 408.244 1380.47 429.559C1403.26 441.116 1424.16 457.352 1442.2 477.52C1466.78 508.85 1500.59 527.702 1536.59 530.133C1576.76 530.017 1608.75 481.947 1642.62 431.061C1664.56 393.248 1692 360.372 1723.64 333.967C1744.25 318.27 1767.99 309.341 1792.46 308.089Z" fill="url(#paint46_linear_187_255)"/>
<path d="M1813.78 326.478C1872.19 326.31 1910.4 376.462 1950.24 428.73C1968.29 461.008 1992.2 488.082 2020.22 507.962C2048.24 527.842 2079.65 540.023 2112.14 543.61L2112.15 548.758C2079.4 545.18 2047.74 532.932 2019.5 512.915C1991.25 492.897 1967.14 465.621 1948.94 433.094C1894.74 361.948 1843.52 294.752 1739.51 355.137C1706.16 378.333 1676.47 408.27 1651.81 443.597C1614.54 490.668 1579.34 535.134 1534.78 535.262C1496.5 533.709 1459.82 516.552 1430.92 486.678C1410.81 467.944 1388.27 453.215 1364.19 443.07C1312.27 423.896 1279.99 460.844 1248.77 496.568C1229.3 526.526 1200.72 546.234 1169.14 551.475L1169.12 546.33C1200.25 541.063 1228.41 521.586 1247.6 492.045C1279.18 455.906 1311.85 418.553 1364.6 437.993C1388.86 448.205 1411.56 463.032 1431.82 481.893C1460.46 511.513 1496.82 528.539 1534.77 530.11C1578.65 529.983 1613.57 485.873 1650.54 439.168C1675.37 403.612 1705.26 373.493 1738.85 350.175C1761.98 335.607 1787.6 327.502 1813.78 326.478Z" fill="url(#paint47_linear_187_255)"/>
<defs>
<linearGradient id="paint0_linear_187_255" x1="513.496" y1="486.364" x2="814.045" y2="381.809" gradientUnits="userSpaceOnUse">
<stop stop-color="#CD2B9C"/>
<stop offset="0.28" stop-color="#7431BC"/>
<stop offset="0.555" stop-color="#3896AB" stop-opacity="0.9"/>
<stop offset="0.795" stop-color="#41D552" stop-opacity="0.7"/>
<stop offset="1" stop-color="#A9726B" stop-opacity="0.3"/>
</linearGradient>
<linearGradient id="paint1_linear_187_255" x1="498.616" y1="492.885" x2="812.477" y2="363.356" gradientUnits="userSpaceOnUse">
<stop stop-color="#CD2B9C"/>
<stop offset="0.28" stop-color="#7431BC"/>
<stop offset="0.555" stop-color="#3896AB" stop-opacity="0.9"/>
<stop offset="0.795" stop-color="#41D552" stop-opacity="0.7"/>
<stop offset="1" stop-color="#A9726B" stop-opacity="0.3"/>
</linearGradient>
<linearGradient id="paint2_linear_187_255" x1="482.395" y1="498.876" x2="805.423" y2="340.718" gradientUnits="userSpaceOnUse">
<stop stop-color="#CD2B9C"/>
<stop offset="0.28" stop-color="#7431BC"/>
<stop offset="0.555" stop-color="#3896AB" stop-opacity="0.9"/>
<stop offset="0.795" stop-color="#41D552" stop-opacity="0.7"/>
<stop offset="1" stop-color="#A9726B" stop-opacity="0.3"/>
</linearGradient>
<linearGradient id="paint3_linear_187_255" x1="464.701" y1="504.368" x2="791.126" y2="314.714" gradientUnits="userSpaceOnUse">
<stop stop-color="#CD2B9C"/>
<stop offset="0.28" stop-color="#7431BC"/>
<stop offset="0.555" stop-color="#3896AB" stop-opacity="0.9"/>
<stop offset="0.795" stop-color="#41D552" stop-opacity="0.7"/>
<stop offset="1" stop-color="#A9726B" stop-opacity="0.3"/>
</linearGradient>
<linearGradient id="paint4_linear_187_255" x1="445.413" y1="509.399" x2="768.118" y2="286.93" gradientUnits="userSpaceOnUse">
<stop stop-color="#CD2B9C"/>
<stop offset="0.28" stop-color="#7431BC"/>
<stop offset="0.555" stop-color="#3896AB" stop-opacity="0.9"/>
<stop offset="0.795" stop-color="#41D552" stop-opacity="0.7"/>
<stop offset="1" stop-color="#A9726B" stop-opacity="0.3"/>
</linearGradient>
<linearGradient id="paint5_linear_187_255" x1="424.407" y1="514.028" x2="735.427" y2="259.627" gradientUnits="userSpaceOnUse">
<stop stop-color="#CD2B9C"/>
<stop offset="0.28" stop-color="#7431BC"/>
<stop offset="0.555" stop-color="#3896AB" stop-opacity="0.9"/>
<stop offset="0.795" stop-color="#41D552" stop-opacity="0.7"/>
<stop offset="1" stop-color="#A9726B" stop-opacity="0.3"/>
</linearGradient>
<linearGradient id="paint6_linear_187_255" x1="401.487" y1="518.671" x2="691.098" y2="235.711" gradientUnits="userSpaceOnUse">
<stop stop-color="#CD2B9C"/>
<stop offset="0.28" stop-color="#7431BC"/>
<stop offset="0.555" stop-color="#3896AB" stop-opacity="0.9"/>
<stop offset="0.795" stop-color="#41D552" stop-opacity="0.7"/>
<stop offset="1" stop-color="#A9726B" stop-opacity="0.3"/>
</linearGradient>
<linearGradient id="paint7_linear_187_255" x1="376.531" y1="522.331" x2="641.163" y2="216.821" gradientUnits="userSpaceOnUse">
<stop stop-color="#CD2B9C"/>
<stop offset="0.28" stop-color="#7431BC"/>
<stop offset="0.555" stop-color="#3896AB" stop-opacity="0.9"/>
<stop offset="0.795" stop-color="#41D552" stop-opacity="0.7"/>
<stop offset="1" stop-color="#A9726B" stop-opacity="0.3"/>
</linearGradient>
<linearGradient id="paint8_linear_187_255" x1="349.286" y1="525.763" x2="584.345" y2="204.808" gradientUnits="userSpaceOnUse">
<stop stop-color="#CD2B9C"/>
<stop offset="0.28" stop-color="#7431BC"/>
<stop offset="0.555" stop-color="#3896AB" stop-opacity="0.9"/>
<stop offset="0.795" stop-color="#41D552" stop-opacity="0.7"/>
<stop offset="1" stop-color="#A9726B" stop-opacity="0.3"/>
</linearGradient>
<linearGradient id="paint9_linear_187_255" x1="319.607" y1="528.958" x2="523.06" y2="200.281" gradientUnits="userSpaceOnUse">
<stop stop-color="#CD2B9C"/>
<stop offset="0.28" stop-color="#7431BC"/>
<stop offset="0.555" stop-color="#3896AB" stop-opacity="0.9"/>
<stop offset="0.795" stop-color="#41D552" stop-opacity="0.7"/>
<stop offset="1" stop-color="#A9726B" stop-opacity="0.3"/>
</linearGradient>
<linearGradient id="paint10_linear_187_255" x1="287.242" y1="531.947" x2="459.219" y2="202.988" gradientUnits="userSpaceOnUse">
<stop stop-color="#CD2B9C"/>
<stop offset="0.28" stop-color="#7431BC"/>
<stop offset="0.555" stop-color="#3896AB" stop-opacity="0.9"/>
<stop offset="0.795" stop-color="#41D552" stop-opacity="0.7"/>
<stop offset="1" stop-color="#A9726B" stop-opacity="0.3"/>
</linearGradient>
<linearGradient id="paint11_linear_187_255" x1="251.976" y1="534.714" x2="394.509" y2="211.782" gradientUnits="userSpaceOnUse">
<stop stop-color="#CD2B9C"/>
<stop offset="0.28" stop-color="#7431BC"/>
<stop offset="0.555" stop-color="#3896AB" stop-opacity="0.9"/>
<stop offset="0.795" stop-color="#41D552" stop-opacity="0.7"/>
<stop offset="1" stop-color="#A9726B" stop-opacity="0.3"/>
</linearGradient>
<linearGradient id="paint12_linear_187_255" x1="404.145" y1="752.608" x2="735.528" y2="710.589" gradientUnits="userSpaceOnUse">
<stop stop-color="#CD2B9C"/>
<stop offset="0.28" stop-color="#7431BC"/>
<stop offset="0.555" stop-color="#3896AB" stop-opacity="0.9"/>
<stop offset="0.795" stop-color="#41D552" stop-opacity="0.7"/>
<stop offset="1" stop-color="#A9726B" stop-opacity="0.3"/>
</linearGradient>
<linearGradient id="paint13_linear_187_255" x1="389.191" y1="730.045" x2="748.144" y2="676.156" gradientUnits="userSpaceOnUse">
<stop stop-color="#CD2B9C"/>
<stop offset="0.28" stop-color="#7431BC"/>
<stop offset="0.555" stop-color="#3896AB" stop-opacity="0.9"/>
<stop offset="0.795" stop-color="#41D552" stop-opacity="0.7"/>
<stop offset="1" stop-color="#A9726B" stop-opacity="0.3"/>
</linearGradient>
<linearGradient id="paint14_linear_187_255" x1="372.874" y1="709.375" x2="760.69" y2="640.417" gradientUnits="userSpaceOnUse">
<stop stop-color="#CD2B9C"/>
<stop offset="0.28" stop-color="#7431BC"/>
<stop offset="0.555" stop-color="#3896AB" stop-opacity="0.9"/>
<stop offset="0.795" stop-color="#41D552" stop-opacity="0.7"/>
<stop offset="1" stop-color="#A9726B" stop-opacity="0.3"/>
</linearGradient>
<linearGradient id="paint15_linear_187_255" x1="355.122" y1="690.415" x2="772.722" y2="602.426" gradientUnits="userSpaceOnUse">
<stop stop-color="#CD2B9C"/>
<stop offset="0.28" stop-color="#7431BC"/>
<stop offset="0.555" stop-color="#3896AB" stop-opacity="0.9"/>
<stop offset="0.795" stop-color="#41D552" stop-opacity="0.7"/>
<stop offset="1" stop-color="#A9726B" stop-opacity="0.3"/>
</linearGradient>
<linearGradient id="paint16_linear_187_255" x1="335.773" y1="673.062" x2="783.315" y2="561.271" gradientUnits="userSpaceOnUse">
<stop stop-color="#CD2B9C"/>
<stop offset="0.28" stop-color="#7431BC"/>
<stop offset="0.555" stop-color="#3896AB" stop-opacity="0.9"/>
<stop offset="0.795" stop-color="#41D552" stop-opacity="0.7"/>
<stop offset="1" stop-color="#A9726B" stop-opacity="0.3"/>
</linearGradient>
<linearGradient id="paint17_linear_187_255" x1="314.696" y1="657.153" x2="791.215" y2="516.021" gradientUnits="userSpaceOnUse">
<stop stop-color="#CD2B9C"/>
<stop offset="0.28" stop-color="#7431BC"/>
<stop offset="0.555" stop-color="#3896AB" stop-opacity="0.9"/>
<stop offset="0.795" stop-color="#41D552" stop-opacity="0.7"/>
<stop offset="1" stop-color="#A9726B" stop-opacity="0.3"/>
</linearGradient>
<linearGradient id="paint18_linear_187_255" x1="291.723" y1="642.708" x2="794.797" y2="466.12" gradientUnits="userSpaceOnUse">
<stop stop-color="#CD2B9C"/>
<stop offset="0.28" stop-color="#7431BC"/>
<stop offset="0.555" stop-color="#3896AB" stop-opacity="0.9"/>
<stop offset="0.795" stop-color="#41D552" stop-opacity="0.7"/>
<stop offset="1" stop-color="#A9726B" stop-opacity="0.3"/>
</linearGradient>
<linearGradient id="paint19_linear_187_255" x1="266.693" y1="629.329" x2="791.686" y2="410.708" gradientUnits="userSpaceOnUse">
<stop stop-color="#CD2B9C"/>
<stop offset="0.28" stop-color="#7431BC"/>
<stop offset="0.555" stop-color="#3896AB" stop-opacity="0.9"/>
<stop offset="0.795" stop-color="#41D552" stop-opacity="0.7"/>
<stop offset="1" stop-color="#A9726B" stop-opacity="0.3"/>
</linearGradient>
<linearGradient id="paint20_linear_187_255" x1="239.421" y1="617.077" x2="779.265" y2="350.358" gradientUnits="userSpaceOnUse">
<stop stop-color="#CD2B9C"/>
<stop offset="0.28" stop-color="#7431BC"/>
<stop offset="0.555" stop-color="#3896AB" stop-opacity="0.9"/>
<stop offset="0.795" stop-color="#41D552" stop-opacity="0.7"/>
<stop offset="1" stop-color="#A9726B" stop-opacity="0.3"/>
</linearGradient>
<linearGradient id="paint21_linear_187_255" x1="209.699" y1="605.869" x2="754.671" y2="286.397" gradientUnits="userSpaceOnUse">
<stop stop-color="#CD2B9C"/>
<stop offset="0.28" stop-color="#7431BC"/>
<stop offset="0.555" stop-color="#3896AB" stop-opacity="0.9"/>
<stop offset="0.795" stop-color="#41D552" stop-opacity="0.7"/>
<stop offset="1" stop-color="#A9726B" stop-opacity="0.3"/>
</linearGradient>
<linearGradient id="paint22_linear_187_255" x1="177.308" y1="595.602" x2="715.42" y2="221.346" gradientUnits="userSpaceOnUse">
<stop stop-color="#CD2B9C"/>
<stop offset="0.28" stop-color="#7431BC"/>
<stop offset="0.555" stop-color="#3896AB" stop-opacity="0.9"/>
<stop offset="0.795" stop-color="#41D552" stop-opacity="0.7"/>
<stop offset="1" stop-color="#A9726B" stop-opacity="0.3"/>
</linearGradient>
<linearGradient id="paint23_linear_187_255" x1="142.008" y1="586.236" x2="659.858" y2="158.839" gradientUnits="userSpaceOnUse">
<stop stop-color="#CD2B9C"/>
<stop offset="0.28" stop-color="#7431BC"/>
<stop offset="0.555" stop-color="#3896AB" stop-opacity="0.9"/>
<stop offset="0.795" stop-color="#41D552" stop-opacity="0.7"/>
<stop offset="1" stop-color="#A9726B" stop-opacity="0.3"/>
</linearGradient>
<linearGradient id="paint24_linear_187_255" x1="1610.8" y1="526.799" x2="1315.76" y2="627.076" gradientUnits="userSpaceOnUse">
<stop stop-color="#AD2BCD"/>
<stop offset="0.28" stop-color="#3531BC"/>
<stop offset="0.555" stop-color="#3896AB" stop-opacity="0.9"/>
<stop offset="0.795" stop-color="#418DD5" stop-opacity="0.7"/>
<stop offset="1" stop-color="#4CFF0B" stop-opacity="0.5"/>
</linearGradient>
<linearGradient id="paint25_linear_187_255" x1="1625.33" y1="520.279" x2="1316.7" y2="644.717" gradientUnits="userSpaceOnUse">
<stop stop-color="#AD2BCD"/>
<stop offset="0.28" stop-color="#3531BC"/>
<stop offset="0.555" stop-color="#3896AB" stop-opacity="0.9"/>
<stop offset="0.795" stop-color="#418DD5" stop-opacity="0.7"/>
<stop offset="1" stop-color="#4CFF0B" stop-opacity="0.5"/>
</linearGradient>
<linearGradient id="paint26_linear_187_255" x1="1641.18" y1="514.288" x2="1322.83" y2="666.561" gradientUnits="userSpaceOnUse">
<stop stop-color="#AD2BCD"/>
<stop offset="0.28" stop-color="#3531BC"/>
<stop offset="0.555" stop-color="#3896AB" stop-opacity="0.9"/>
<stop offset="0.795" stop-color="#418DD5" stop-opacity="0.7"/>
<stop offset="1" stop-color="#4CFF0B" stop-opacity="0.5"/>
</linearGradient>
<linearGradient id="paint27_linear_187_255" x1="1658.46" y1="508.797" x2="1335.89" y2="691.886" gradientUnits="userSpaceOnUse">
<stop stop-color="#AD2BCD"/>
<stop offset="0.28" stop-color="#3531BC"/>
<stop offset="0.555" stop-color="#3896AB" stop-opacity="0.9"/>
<stop offset="0.795" stop-color="#418DD5" stop-opacity="0.7"/>
<stop offset="1" stop-color="#4CFF0B" stop-opacity="0.5"/>
</linearGradient>
<linearGradient id="paint28_linear_187_255" x1="1677.3" y1="503.768" x2="1357.38" y2="719.226" gradientUnits="userSpaceOnUse">
<stop stop-color="#AD2BCD"/>
<stop offset="0.28" stop-color="#3531BC"/>
<stop offset="0.555" stop-color="#3896AB" stop-opacity="0.9"/>
<stop offset="0.795" stop-color="#418DD5" stop-opacity="0.7"/>
<stop offset="1" stop-color="#4CFF0B" stop-opacity="0.5"/>
</linearGradient>
<linearGradient id="paint29_linear_187_255" x1="1697.82" y1="499.141" x2="1388.35" y2="746.423" gradientUnits="userSpaceOnUse">
<stop stop-color="#AD2BCD"/>
<stop offset="0.28" stop-color="#3531BC"/>
<stop offset="0.555" stop-color="#3896AB" stop-opacity="0.9"/>
<stop offset="0.795" stop-color="#418DD5" stop-opacity="0.7"/>
<stop offset="1" stop-color="#4CFF0B" stop-opacity="0.5"/>
</linearGradient>
<linearGradient id="paint30_linear_187_255" x1="1720.21" y1="494.5" x2="1430.85" y2="770.663" gradientUnits="userSpaceOnUse">
<stop stop-color="#AD2BCD"/>
<stop offset="0.28" stop-color="#3531BC"/>
<stop offset="0.555" stop-color="#3896AB" stop-opacity="0.9"/>
<stop offset="0.795" stop-color="#418DD5" stop-opacity="0.7"/>
<stop offset="1" stop-color="#4CFF0B" stop-opacity="0.5"/>
</linearGradient>
<linearGradient id="paint31_linear_187_255" x1="1744.59" y1="490.841" x2="1479.16" y2="790.173" gradientUnits="userSpaceOnUse">
<stop stop-color="#AD2BCD"/>
<stop offset="0.28" stop-color="#3531BC"/>
<stop offset="0.555" stop-color="#3896AB" stop-opacity="0.9"/>
<stop offset="0.795" stop-color="#418DD5" stop-opacity="0.7"/>
<stop offset="1" stop-color="#4CFF0B" stop-opacity="0.5"/>
</linearGradient>
<linearGradient id="paint32_linear_187_255" x1="1771.2" y1="487.411" x2="1534.54" y2="803.054" gradientUnits="userSpaceOnUse">
<stop stop-color="#AD2BCD"/>
<stop offset="0.28" stop-color="#3531BC"/>
<stop offset="0.555" stop-color="#3896AB" stop-opacity="0.9"/>
<stop offset="0.795" stop-color="#418DD5" stop-opacity="0.7"/>
<stop offset="1" stop-color="#4CFF0B" stop-opacity="0.5"/>
</linearGradient>
<linearGradient id="paint33_linear_187_255" x1="1800.19" y1="484.217" x2="1594.65" y2="808.558" gradientUnits="userSpaceOnUse">
<stop stop-color="#AD2BCD"/>
<stop offset="0.28" stop-color="#3531BC"/>
<stop offset="0.555" stop-color="#3896AB" stop-opacity="0.9"/>
<stop offset="0.795" stop-color="#418DD5" stop-opacity="0.7"/>
<stop offset="1" stop-color="#4CFF0B" stop-opacity="0.5"/>
</linearGradient>
<linearGradient id="paint34_linear_187_255" x1="1831.81" y1="481.231" x2="1657.55" y2="806.813" gradientUnits="userSpaceOnUse">
<stop stop-color="#AD2BCD"/>
<stop offset="0.28" stop-color="#3531BC"/>
<stop offset="0.555" stop-color="#3896AB" stop-opacity="0.9"/>
<stop offset="0.795" stop-color="#418DD5" stop-opacity="0.7"/>
<stop offset="1" stop-color="#4CFF0B" stop-opacity="0.5"/>
</linearGradient>
<linearGradient id="paint35_linear_187_255" x1="1866.26" y1="478.466" x2="1721.47" y2="798.87" gradientUnits="userSpaceOnUse">
<stop stop-color="#AD2BCD"/>
<stop offset="0.28" stop-color="#3531BC"/>
<stop offset="0.555" stop-color="#3896AB" stop-opacity="0.9"/>
<stop offset="0.795" stop-color="#418DD5" stop-opacity="0.7"/>
<stop offset="1" stop-color="#4CFF0B" stop-opacity="0.5"/>
</linearGradient>
<linearGradient id="paint36_linear_187_255" x1="1717.6" y1="260.562" x2="1393.66" y2="300.707" gradientUnits="userSpaceOnUse">
<stop stop-color="#AD2BCD"/>
<stop offset="0.28" stop-color="#3531BC"/>
<stop offset="0.555" stop-color="#3896AB" stop-opacity="0.9"/>
<stop offset="0.795" stop-color="#418DD5" stop-opacity="0.7"/>
<stop offset="1" stop-color="#4CFF0B" stop-opacity="0.5"/>
</linearGradient>
<linearGradient id="paint37_linear_187_255" x1="1732.21" y1="283.126" x2="1381.22" y2="334.621" gradientUnits="userSpaceOnUse">
<stop stop-color="#AD2BCD"/>
<stop offset="0.28" stop-color="#3531BC"/>
<stop offset="0.555" stop-color="#3896AB" stop-opacity="0.9"/>
<stop offset="0.795" stop-color="#418DD5" stop-opacity="0.7"/>
<stop offset="1" stop-color="#4CFF0B" stop-opacity="0.5"/>
</linearGradient>
<linearGradient id="paint38_linear_187_255" x1="1748.15" y1="303.797" x2="1368.79" y2="369.713" gradientUnits="userSpaceOnUse">
<stop stop-color="#AD2BCD"/>
<stop offset="0.28" stop-color="#3531BC"/>
<stop offset="0.555" stop-color="#3896AB" stop-opacity="0.9"/>
<stop offset="0.795" stop-color="#418DD5" stop-opacity="0.7"/>
<stop offset="1" stop-color="#4CFF0B" stop-opacity="0.5"/>
</linearGradient>
<linearGradient id="paint39_linear_187_255" x1="1765.49" y1="322.758" x2="1356.78" y2="406.907" gradientUnits="userSpaceOnUse">
<stop stop-color="#AD2BCD"/>
<stop offset="0.28" stop-color="#3531BC"/>
<stop offset="0.555" stop-color="#3896AB" stop-opacity="0.9"/>
<stop offset="0.795" stop-color="#418DD5" stop-opacity="0.7"/>
<stop offset="1" stop-color="#4CFF0B" stop-opacity="0.5"/>
</linearGradient>
<linearGradient id="paint40_linear_187_255" x1="1784.39" y1="340.112" x2="1346.05" y2="447.097" gradientUnits="userSpaceOnUse">
<stop stop-color="#AD2BCD"/>
<stop offset="0.28" stop-color="#3531BC"/>
<stop offset="0.555" stop-color="#3896AB" stop-opacity="0.9"/>
<stop offset="0.795" stop-color="#418DD5" stop-opacity="0.7"/>
<stop offset="1" stop-color="#4CFF0B" stop-opacity="0.5"/>
</linearGradient>
<linearGradient id="paint41_linear_187_255" x1="1804.98" y1="356.023" x2="1337.8" y2="491.216" gradientUnits="userSpaceOnUse">
<stop stop-color="#AD2BCD"/>
<stop offset="0.28" stop-color="#3531BC"/>
<stop offset="0.555" stop-color="#3896AB" stop-opacity="0.9"/>
<stop offset="0.795" stop-color="#418DD5" stop-opacity="0.7"/>
<stop offset="1" stop-color="#4CFF0B" stop-opacity="0.5"/>
</linearGradient>
<linearGradient id="paint42_linear_187_255" x1="1827.42" y1="370.47" x2="1333.55" y2="539.844" gradientUnits="userSpaceOnUse">
<stop stop-color="#AD2BCD"/>
<stop offset="0.28" stop-color="#3531BC"/>
<stop offset="0.555" stop-color="#3896AB" stop-opacity="0.9"/>
<stop offset="0.795" stop-color="#418DD5" stop-opacity="0.7"/>
<stop offset="1" stop-color="#4CFF0B" stop-opacity="0.5"/>
</linearGradient>
<linearGradient id="paint43_linear_187_255" x1="1851.87" y1="383.85" x2="1335.58" y2="593.9" gradientUnits="userSpaceOnUse">
<stop stop-color="#AD2BCD"/>
<stop offset="0.28" stop-color="#3531BC"/>
<stop offset="0.555" stop-color="#3896AB" stop-opacity="0.9"/>
<stop offset="0.795" stop-color="#418DD5" stop-opacity="0.7"/>
<stop offset="1" stop-color="#4CFF0B" stop-opacity="0.5"/>
</linearGradient>
<linearGradient id="paint44_linear_187_255" x1="1878.52" y1="396.104" x2="1346.43" y2="652.929" gradientUnits="userSpaceOnUse">
<stop stop-color="#AD2BCD"/>
<stop offset="0.28" stop-color="#3531BC"/>
<stop offset="0.555" stop-color="#3896AB" stop-opacity="0.9"/>
<stop offset="0.795" stop-color="#418DD5" stop-opacity="0.7"/>
<stop offset="1" stop-color="#4CFF0B" stop-opacity="0.5"/>
</linearGradient>
<linearGradient id="paint45_linear_187_255" x1="1907.55" y1="407.314" x2="1368.93" y2="715.774" gradientUnits="userSpaceOnUse">
<stop stop-color="#AD2BCD"/>
<stop offset="0.28" stop-color="#3531BC"/>
<stop offset="0.555" stop-color="#3896AB" stop-opacity="0.9"/>
<stop offset="0.795" stop-color="#418DD5" stop-opacity="0.7"/>
<stop offset="1" stop-color="#4CFF0B" stop-opacity="0.5"/>
</linearGradient>
<linearGradient id="paint46_linear_187_255" x1="1939.19" y1="417.583" x2="1405.62" y2="780.109" gradientUnits="userSpaceOnUse">
<stop stop-color="#AD2BCD"/>
<stop offset="0.28" stop-color="#3531BC"/>
<stop offset="0.555" stop-color="#3896AB" stop-opacity="0.9"/>
<stop offset="0.795" stop-color="#418DD5" stop-opacity="0.7"/>
<stop offset="1" stop-color="#4CFF0B" stop-opacity="0.5"/>
</linearGradient>
<linearGradient id="paint47_linear_187_255" x1="1973.68" y1="426.952" x2="1458.3" y2="842.471" gradientUnits="userSpaceOnUse">
<stop stop-color="#AD2BCD"/>
<stop offset="0.28" stop-color="#3531BC"/>
<stop offset="0.555" stop-color="#3896AB" stop-opacity="0.9"/>
<stop offset="0.795" stop-color="#418DD5" stop-opacity="0.7"/>
<stop offset="1" stop-color="#4CFF0B" stop-opacity="0.5"/>
</linearGradient>
</defs>
</svg>
