<svg width="1053" height="642" viewBox="0 0 1053 642" fill="none" xmlns="http://www.w3.org/2000/svg">
<path d="M238.605 434.582C251.139 434.546 260.313 459.366 270.021 485.632C282.163 518.449 294.705 552.398 314.389 534.71C324.945 523.152 333.613 509.381 339.957 494.087C350.991 471.585 362.402 448.317 380.358 448.265C397.879 448.215 411.739 489.58 426.428 533.371C434.536 562.393 446.063 589.911 460.666 615.107C500.779 670.304 520.266 607.965 540.888 541.998C557.544 488.71 574.768 433.611 604.055 433.526L604.064 436.623C575.564 436.706 558.559 491.103 542.115 543.705C521.081 611.001 501.224 674.567 459.865 617.698C445.079 592.265 433.416 564.467 425.226 535.141C410.778 492.031 397.128 451.314 380.375 451.363C363.016 451.413 352.317 473.221 340.994 496.315C334.543 511.85 325.724 525.831 314.982 537.55C294.251 556.188 281.354 521.267 268.879 487.523C259.391 461.873 250.436 437.642 238.616 437.677L238.605 434.582Z" fill="url(#paint0_linear_187_199)"/>
<path d="M225.085 435.795C238.682 435.756 248.661 458.478 259.223 482.533C272.457 512.673 286.135 543.825 307.716 527.529C318.934 517.322 328.408 504.669 335.631 490.248C348.208 468.69 360.09 448.324 379.597 448.267C398.621 448.212 413.698 486.104 429.665 526.212C438.751 553.322 451.33 578.596 466.952 601.129C510.772 651.85 532.069 594.63 554.613 534.066C572.786 485.245 591.579 434.739 623.43 434.647L623.439 437.744C592.293 437.834 573.729 487.726 555.768 535.988C532.829 597.61 511.175 655.812 466.25 603.851C450.444 581.108 437.725 555.579 428.552 528.186C412.81 488.655 397.946 451.312 379.612 451.364C360.62 451.419 348.939 471.446 336.57 492.648C329.239 507.275 319.619 520.102 308.228 530.438C285.735 547.457 271.717 515.501 258.16 484.622C247.821 461.082 238.054 438.85 225.112 438.887L225.085 435.795Z" fill="url(#paint1_linear_187_199)"/>
<path d="M210.351 436.912C225.105 436.87 235.952 457.661 247.435 479.684C261.871 507.348 276.792 535.969 300.429 520.933C312.332 511.942 322.675 500.331 330.9 486.725C344.612 466.982 357.549 448.348 378.766 448.287C399.419 448.228 415.835 482.906 433.204 519.644C443.434 545.055 457.162 568.267 473.822 588.325C521.677 634.87 544.948 582.375 569.576 526.768C589.399 482.028 609.898 435.753 644.546 435.653L644.555 438.74C610.544 438.838 590.257 484.614 570.654 528.885C545.658 585.327 522.043 638.653 473.213 591.112C456.371 570.89 442.497 547.467 432.167 521.815C415.021 485.554 398.832 451.301 378.777 451.359C358.016 451.419 345.253 469.806 331.744 489.284C323.408 503.057 312.926 514.807 300.864 523.899C276.43 539.428 261.197 510.225 246.456 481.967C235.185 460.367 224.546 439.958 210.362 439.999L210.351 436.912Z" fill="url(#paint2_linear_187_199)"/>
<path d="M194.304 437.95C210.317 437.904 222.112 456.93 234.612 477.081C250.356 502.485 266.64 528.783 292.493 514.908C305.139 506.991 316.427 496.339 325.775 483.501C331.852 473.58 339.639 465.309 348.619 459.237C357.599 453.165 367.567 449.431 377.86 448.283C400.316 448.218 418.17 479.984 437.074 513.621C448.635 537.502 463.616 558.811 481.342 576.589C533.583 619.335 558.992 571.128 585.899 520.096C607.51 479.094 629.87 436.695 667.571 436.586L667.58 439.665C630.439 439.772 608.299 481.772 586.887 522.394C559.638 574.073 533.899 622.868 480.815 579.468C462.917 561.555 447.795 540.066 436.132 515.975C417.44 482.713 399.787 451.299 377.869 451.362C367.716 452.517 357.887 456.219 349.033 462.221C340.179 468.223 332.502 476.389 326.51 486.179C317.059 499.152 305.646 509.91 292.858 517.9C266.321 532.078 249.745 505.375 233.718 479.515C221.432 459.693 209.827 440.972 194.313 441.016L194.304 437.95Z" fill="url(#paint3_linear_187_199)"/>
<path d="M176.795 438.914C194.193 438.864 207.029 456.279 220.623 474.719C237.796 498.037 255.559 522.11 283.826 509.41C297.27 502.413 309.564 492.651 320.143 480.575C334.79 461.471 355.133 449.891 376.864 448.288C401.287 448.218 420.712 477.308 441.28 508.106C454.373 530.573 470.714 550.113 489.545 565.821C546.569 605.014 574.326 560.804 603.704 513.96C627.261 476.389 651.639 437.546 692.67 437.428L692.679 440.507C652.138 440.624 627.968 479.162 604.598 516.422C574.9 563.767 546.854 608.491 489.097 568.751C470.111 552.94 453.641 533.253 440.454 510.608C420.085 480.109 400.844 451.298 376.892 451.367C355.401 452.981 335.289 464.449 320.805 483.346C310.129 495.53 297.718 505.373 284.147 512.42C255.295 525.423 237.265 500.965 219.837 477.308C206.433 459.123 193.776 441.942 176.81 441.991L176.795 438.914Z" fill="url(#paint4_linear_187_199)"/>
<path d="M157.725 439.796C176.615 442.872 193.737 454.636 205.396 472.551C224.128 493.945 243.509 516.037 274.387 504.358C288.728 498.155 302.116 489.211 314.023 477.881C331.101 459.829 352.931 449.37 375.793 448.286C402.362 448.209 423.51 474.841 445.895 503.042C460.693 524.186 478.493 542.097 498.488 555.964C560.705 591.961 591.005 551.331 623.087 508.33C633.761 488.747 648.016 472.272 664.794 460.127C681.572 447.983 700.443 440.481 720.006 438.178L720.015 441.255C700.604 443.563 681.885 451.025 665.242 463.089C648.6 475.152 634.462 491.508 623.876 510.945C591.514 554.312 560.949 595.264 498.107 558.955C477.974 545.006 460.051 526.985 445.148 505.707C422.94 477.725 401.963 451.305 375.802 451.38C353.137 452.47 331.499 462.85 314.571 480.752C302.574 492.161 289.083 501.162 274.632 507.399C243.241 519.324 223.637 496.919 204.679 475.272C193.19 457.604 176.329 445.977 157.713 442.886L157.725 439.796Z" fill="url(#paint5_linear_187_199)"/>
<path d="M136.928 440.6C156.666 442.955 175.058 453.585 188.799 470.58C198.063 482.906 209.915 492.099 223.144 497.219C236.373 502.339 250.507 503.204 264.102 499.726C279.45 494.201 294.023 486.011 307.347 475.421C326.922 458.47 350.389 449.004 374.625 448.282C404.367 453.333 431.521 471.171 450.929 498.409C467.626 518.264 487.005 534.662 508.262 546.923C531.68 559.625 558.098 562.203 582.932 554.208C607.767 546.214 629.452 528.152 644.225 503.155C657.147 484.389 673.193 468.991 691.362 457.924C709.531 446.857 729.431 440.358 749.82 438.833L749.829 441.923C729.569 443.45 709.797 449.918 691.746 460.924C673.696 471.93 657.755 487.238 644.919 505.89C630.033 531.073 608.181 549.265 583.158 557.31C558.134 565.355 531.519 562.745 507.93 549.932C486.55 537.622 467.059 521.14 450.272 501.173C431.029 474.158 404.118 456.441 374.629 451.374C350.562 452.104 327.26 461.514 307.822 478.351C294.421 489.001 279.764 497.237 264.326 502.789C250.587 506.332 236.297 505.477 222.921 500.311C209.544 495.145 197.561 485.854 188.198 473.39C174.618 456.586 156.448 446.058 136.939 443.689L136.928 440.6Z" fill="url(#paint6_linear_187_199)"/>
<path d="M114.253 441.37C135.042 443.183 154.813 452.79 170.712 468.804C181.747 480.477 194.906 488.962 209.159 493.595C223.412 498.227 238.373 498.881 252.868 495.505C269.35 490.554 285.211 483.052 300.042 473.193C322.186 457.361 347.473 448.771 373.333 448.296C404.523 452.282 433.734 468.414 456.402 494.173C475.155 512.775 496.246 527.777 518.908 538.63C544.164 550.587 571.879 553.146 598.374 545.966C624.868 538.786 648.886 522.207 667.239 498.432C698.033 462.418 739.068 441.379 782.29 439.445L782.299 442.524C739.297 444.467 698.475 465.411 667.841 501.246C649.379 525.164 625.215 541.839 598.562 549.058C571.909 556.277 544.028 553.696 518.624 541.659C495.856 530.758 474.665 515.691 455.821 497.009C433.31 471.418 404.308 455.373 373.331 451.375C347.61 451.86 322.462 460.409 300.435 476.154C285.536 486.058 269.603 493.593 253.044 498.566C238.427 501.974 223.34 501.321 208.965 496.657C194.589 491.993 181.315 483.444 170.181 471.68C154.428 455.807 134.843 446.272 114.245 444.447L114.253 441.37Z" fill="url(#paint7_linear_187_199)"/>
<path d="M89.5493 442.084C111.6 443.498 132.885 452.191 151.008 467.185C163.825 478.142 178.356 485.949 193.747 490.145C209.138 494.342 225.078 494.845 240.628 491.623C258.391 487.166 275.66 480.294 292.093 471.145C316.896 456.432 344.204 448.623 371.942 448.31C404.896 451.49 436.347 466.091 462.385 490.3C483.353 507.663 506.302 521.379 530.536 531.033C557.887 542.22 587.226 544.696 615.62 538.214C644.015 531.732 670.472 516.519 692.349 494.095C727.955 460.138 772.033 441.115 817.721 439.986L817.73 443.065C772.229 444.201 728.334 463.148 692.869 496.958C670.89 519.484 644.309 534.766 615.783 541.278C587.257 547.789 557.782 545.303 530.304 534.067C505.98 524.375 482.946 510.607 461.899 493.181C436.002 469.098 404.727 454.56 371.95 451.369C344.33 451.686 317.139 459.466 292.442 474.119C275.951 483.307 258.622 490.208 240.796 494.686C225.141 497.933 209.093 497.431 193.597 493.212C178.101 488.992 163.468 481.139 150.56 470.115C132.571 455.229 111.444 446.591 89.5561 445.171L89.5493 442.084Z" fill="url(#paint8_linear_187_199)"/>
<path d="M62.6222 442.744C86.1597 443.865 109.123 451.745 129.541 465.708C158.988 486.314 193.518 494.224 227.29 488.1C246.472 484.056 265.264 477.753 283.388 469.283C310.967 455.64 340.529 448.514 370.419 448.304C405.482 450.876 439.408 464.113 468.93 486.742C492.256 502.885 517.222 515.427 543.221 524.062C572.912 534.473 604.19 536.827 634.739 530.949C665.287 525.071 694.323 511.112 719.697 490.105C760.252 458.293 807.692 441.057 856.323 440.465L856.332 443.536C807.857 444.136 760.571 461.322 720.147 493.032C694.68 514.116 665.538 528.127 634.879 534.026C604.219 539.926 572.827 537.563 543.027 527.114C516.95 518.465 491.91 505.888 468.519 489.69C439.121 467.157 405.342 453.967 370.427 451.386C340.638 451.599 311.176 458.704 283.689 472.303C265.51 480.798 246.66 487.116 227.42 491.163C193.472 497.341 158.757 489.398 129.156 468.681C108.853 454.791 86.0186 446.949 62.6117 445.826L62.6222 442.744Z" fill="url(#paint9_linear_187_199)"/>
<path d="M33.2594 443.362C58.5199 444.26 83.3485 451.416 106.151 464.37C139.232 483.464 176.306 490.587 212.752 484.85C233.534 481.177 254.01 475.395 273.955 467.566C304.44 454.954 336.483 448.443 368.777 448.299C406.3 450.419 442.961 462.438 476.094 483.481C501.918 498.446 529.078 509.912 557.059 517.664C622.228 537.154 691.199 525.961 749.52 486.431C795.171 456.772 846.348 441.111 898.412 440.867L898.421 443.948C846.49 444.194 795.443 459.813 749.905 489.389C691.417 529.024 622.253 540.25 556.898 520.716C528.851 512.946 501.627 501.451 475.743 486.449C442.717 465.483 406.18 453.502 368.784 451.375C336.575 451.525 304.616 458.019 274.209 470.591C254.219 478.442 233.695 484.236 212.865 487.911C176.27 493.703 139.038 486.557 105.827 467.366C83.1263 454.47 58.4106 447.343 33.2639 446.441L33.2594 443.362Z" fill="url(#paint10_linear_187_199)"/>
<path d="M1.26965 443.963C28.4814 444.699 55.368 451.203 80.6603 463.168C117.496 480.793 157.448 487.227 196.89 481.886C219.442 478.538 241.756 473.234 263.652 466.016C297.21 454.383 331.987 448.424 366.957 448.314C407.294 450.085 446.98 461.006 483.871 480.489C512.364 494.322 541.929 504.806 572.141 511.792C642.883 529.723 716.606 519.632 782.007 483.064C832.948 455.53 888.277 441.266 944.273 441.233L944.282 444.325C888.397 444.355 833.177 458.589 782.337 486.069C716.796 522.73 642.908 532.843 572.012 514.856C541.743 507.861 512.122 497.357 483.576 483.495C446.784 464.068 407.205 453.175 366.976 451.404C332.077 451.513 297.368 457.458 263.876 469.064C241.943 476.296 219.591 481.606 197 484.952C157.432 490.353 117.344 483.904 80.3957 466.194C55.1921 454.269 28.3998 447.785 1.28285 447.047L1.26965 443.963Z" fill="url(#paint11_linear_187_199)"/>
<path d="M594.95 1.64818L596.745 1.89832C619.232 8.11985 633.918 135.175 649.477 269.682C666.493 416.833 684.091 568.99 712.014 568.909L712.029 574.087C682.163 574.173 664.331 419.987 647.089 270.881C632.418 143.994 617.247 12.7854 596.433 7.02636C587.758 4.65632 577.981 24.5929 567.323 66.3657C552.228 142.11 541.064 218.887 533.894 296.263C517.213 440.593 505.018 535.204 488.182 535.252C469.665 535.306 458.476 472.901 446.631 406.844C441.067 368.079 432.356 330.039 420.619 293.257C416.501 283.056 412.761 278.922 409.18 280.575C396.602 286.415 386.736 363.534 378.041 431.567C368.6 505.386 359.683 575.118 346.575 575.156L346.56 569.978C357.801 569.945 366.882 498.913 375.666 430.226C385.412 354.021 394.617 282.049 408.644 275.536C413.141 273.48 417.794 278.318 422.483 289.93C434.425 327.187 443.28 365.733 448.922 405.022C459.949 466.526 471.354 530.11 488.158 530.062C504.336 530.015 518.148 410.55 531.498 295.014C538.703 217.225 549.941 140.041 565.15 63.9029C575.812 22.1096 585.579 1.67518 594.95 1.64818Z" fill="url(#paint12_linear_187_199)"/>
<path d="M604.046 45.6342L606.616 46.0328C630.671 53.5622 646.49 169.073 663.238 291.361C681.709 426.214 700.817 565.661 731.367 565.573L731.382 570.733C698.958 570.826 679.597 429.468 660.876 292.772C645.081 177.437 628.744 58.1867 606.258 51.143C596.586 48.1069 585.634 66.3795 573.77 105.459C557.348 174.533 545.141 244.926 537.241 316.091C521.693 428.758 507.008 535.178 487.414 535.235C467.369 535.292 455.193 478.112 442.325 417.574C436.194 381.755 426.708 346.859 414.044 313.535C409.337 303.718 405.032 299.982 400.864 302.067C387.33 308.934 377.139 375.672 367.291 440.218C356.962 507.912 347.206 571.842 333.033 571.883L333.018 566.723C345.399 566.687 355.336 501.582 364.948 438.619C375.001 372.727 385.398 304.584 400.273 297.044C405.259 294.525 410.473 298.825 415.763 309.876C428.676 343.683 438.334 379.108 444.554 415.479C457.099 474.425 468.942 530.13 487.388 530.077C505.15 530.026 520.26 420.523 534.872 314.627C542.822 243.004 555.129 172.163 571.696 102.659C583.317 64.3972 593.93 45.6633 604.046 45.6342Z" fill="url(#paint13_linear_187_199)"/>
<path d="M613.946 85.9329L617.563 86.5583C643.214 95.4951 660.224 200.269 678.234 311.205C698.297 434.786 719.044 562.592 752.485 562.496L752.5 567.648C717.29 567.75 696.252 438.167 675.911 312.851C658.148 203.428 641.375 100.084 617.186 91.6456C606.127 87.8015 594.251 104.047 580.785 141.285C562.956 204.171 549.612 268.729 540.895 334.277C523.889 437.584 507.832 535.16 486.613 535.221C464.884 535.284 451.663 482.894 437.665 427.417C430.879 394.23 420.543 362.206 406.91 332.126C401.491 322.599 396.505 319.228 391.659 321.864C377.153 329.722 366.197 389.941 355.6 448.17C344.305 510.233 333.644 568.84 318.334 568.884L318.32 563.724C331.949 563.685 342.807 504.01 353.307 446.305C364.123 386.857 375.316 325.379 391.042 316.864C396.627 313.82 402.49 317.635 408.477 328.158C422.395 358.709 432.932 391.261 439.829 425.006C453.472 479.061 466.36 530.127 486.602 530.069C506.092 530.012 522.611 429.644 538.586 332.576C547.366 266.532 560.834 201.492 578.846 138.15C591.477 103.141 603.015 85.9644 613.946 85.9329Z" fill="url(#paint14_linear_187_199)"/>
<path d="M624.717 122.882C626.417 122.878 628.107 123.193 629.724 123.814C656.976 134.177 675.226 228.988 694.549 329.363C716.355 442.633 738.906 559.769 775.49 559.664L775.505 564.824C737.256 564.934 714.392 446.15 692.28 331.282C673.22 232.267 655.218 138.75 629.306 128.902C616.912 124.209 603.519 139.001 588.395 174.163C569.061 231.289 554.47 290.523 544.83 351.023C526.248 445.722 508.688 535.172 485.686 535.239C462.134 535.307 447.758 487.309 432.526 436.483C424.969 405.626 413.7 376.22 399.067 349.176C392.802 339.923 387.012 336.978 381.4 340.15C365.935 348.901 354.17 403.104 342.792 455.524C330.452 512.412 318.8 566.153 302.249 566.201L302.234 561.04C317.214 560.997 329.085 506.286 340.559 453.375C352.164 399.875 364.165 344.55 380.742 335.173C387.036 331.618 393.671 334.923 400.471 344.972C415.414 372.449 426.911 402.357 434.601 433.755C449.453 483.332 463.492 530.153 485.671 530.089C507.047 530.027 524.297 442.117 542.566 349.043C552.285 288.023 567.025 228.287 586.573 170.693C600.353 138.65 612.891 122.916 624.717 122.882Z" fill="url(#paint15_linear_187_199)"/>
<path d="M636.454 156.749C638.761 156.748 641.053 157.205 643.234 158.101C672.097 169.794 691.642 255.364 712.33 345.963C736.043 449.796 760.563 557.16 800.576 557.044L800.591 562.207C759.031 562.327 734.165 453.465 710.125 348.178C689.709 258.796 670.426 174.367 642.784 163.171C628.833 157.535 613.748 170.96 596.673 204.292C575.77 256.034 559.821 310.398 549.125 366.368C528.817 453.179 509.643 535.171 484.693 535.243C459.148 535.316 442.783 489.306 426.951 444.816C418.482 416.005 406.176 388.987 390.502 364.792C383.264 355.787 376.566 353.233 370.041 356.992C353.593 366.471 341.01 415.172 328.835 462.263C315.365 514.39 302.635 563.639 284.72 563.691L284.705 558.531C301.172 558.483 313.562 510.539 326.681 459.782C339.094 411.743 351.937 362.069 369.383 352.01C376.471 347.919 384.009 350.716 391.748 360.356C407.738 384.936 420.285 412.414 428.905 441.729C445.081 487.198 460.355 530.15 484.666 530.08C508.096 530.012 526.951 449.408 546.911 364.071C557.705 307.576 573.833 252.712 594.989 200.518C609.999 171.209 623.633 156.786 636.454 156.749Z" fill="url(#paint16_linear_187_199)"/>
<path d="M649.22 187.789C652.277 187.786 655.313 188.413 658.19 189.642C688.676 202.482 709.571 279.561 731.693 361.173C757.491 456.362 784.173 554.788 827.912 554.662L827.927 559.807C782.748 559.937 755.714 460.179 729.561 363.695C707.733 283.148 687.106 207.067 657.723 194.689C641.999 188.078 624.973 200.232 605.68 231.896C583.145 278.592 565.708 328.507 553.788 380.438C531.617 460.01 510.679 535.164 483.614 535.242C455.896 535.322 438.098 493.2 420.877 452.47C411.336 425.471 397.904 400.647 381.183 379.115C350.899 347.415 331.953 408.96 313.631 468.487C298.924 516.254 285.042 561.371 265.638 561.427L265.623 556.269C283.695 556.217 297.232 512.235 311.568 465.672C330.472 404.263 350.019 340.782 382.267 374.495C399.311 396.357 413 421.59 422.713 449.048C440.342 490.758 456.991 530.161 483.604 530.085C509.274 530.011 529.861 456.086 551.679 377.814C563.713 325.359 581.354 274.954 604.171 227.825C620.49 201.034 635.322 187.829 649.22 187.789Z" fill="url(#paint17_linear_187_199)"/>
<path d="M663.347 216.004C701.571 215.894 726.649 293.834 752.786 375.052C780.87 462.331 809.911 552.569 857.72 552.432L857.734 557.592C808.62 557.733 779.205 466.329 750.756 377.933C715.537 268.475 682.264 165.11 615.496 257.197C591.266 299.167 572.196 345.022 558.857 393.382C534.663 466.286 511.81 535.159 482.439 535.244C452.334 535.331 432.975 496.764 414.253 459.476C403.441 434.089 388.773 411.286 370.986 392.215C337.796 363.003 317.064 419.546 297.04 474.212C281.004 517.964 265.859 559.295 244.836 559.355L244.821 554.195C264.644 554.138 279.435 513.781 295.092 471.046C315.696 414.836 337.008 356.737 371.919 387.458C390.022 406.796 404.947 429.949 415.936 455.743C435.155 494.021 453.305 530.17 482.428 530.086C510.53 530.005 533.032 462.197 556.852 390.413C570.324 341.553 589.618 295.239 614.15 252.878C619.686 242.953 626.933 234.534 635.413 228.178C643.893 221.823 653.414 217.673 663.347 216.004Z" fill="url(#paint18_linear_187_199)"/>
<path d="M678.472 242.137C720.065 242.017 747.34 313.394 775.763 387.77C806.346 467.79 837.978 550.542 890.207 550.392L890.222 555.542C836.809 555.696 804.809 471.954 773.855 390.98C735.473 290.532 699.22 195.662 626.189 280.335C600.233 317.887 579.377 360.022 564.373 405.218C537.983 472.029 513.056 535.137 481.159 535.229C448.458 535.324 428.333 501.598 407.031 465.9C394.752 441.968 378.742 421.03 359.86 404.209C323.512 377.325 300.858 429.244 278.947 479.46C261.466 519.536 244.951 557.391 222.159 557.457L222.145 552.297C243.874 552.234 260.029 515.192 277.143 475.962C299.584 424.519 322.789 371.345 360.663 399.351C379.838 416.377 396.094 437.598 408.553 461.869C429.508 496.994 449.297 530.161 481.146 530.069C511.911 529.98 536.473 467.777 562.485 401.912C577.641 356.256 598.735 313.709 624.999 275.819C638.463 256.783 657.635 244.707 678.472 242.137Z" fill="url(#paint19_linear_187_199)"/>
<path d="M694.952 266.08C740.215 265.95 769.88 331.296 800.8 399.404C834.115 472.786 868.569 548.659 925.614 548.495L925.628 553.652C867.528 553.82 832.708 477.118 799.033 402.951C757.194 310.789 717.674 223.711 637.846 301.596C610.129 335.031 587.325 373.741 570.379 416.121C541.602 477.329 514.422 535.148 479.772 535.248C444.213 535.351 422.331 504.483 399.158 471.808C385.2 449.238 367.738 430.037 347.712 415.239C307.945 390.496 283.172 438.19 259.228 484.317C240.187 521.012 222.187 555.674 197.446 555.746L197.431 550.593C221.223 550.524 238.878 516.514 257.574 480.514C282.018 433.429 307.286 384.753 348.397 410.291C368.686 425.248 386.377 444.677 400.512 467.527C423.363 499.753 444.947 530.183 479.755 530.083C513.387 529.986 540.223 472.913 568.632 412.483C585.739 369.692 608.784 330.623 636.804 296.906C652.595 278.958 673.143 268.064 694.952 266.08Z" fill="url(#paint20_linear_187_199)"/>
<path d="M712.9 288.007C762.179 287.865 794.446 347.697 828.083 410.052C864.379 477.341 901.915 546.929 964.209 546.749L964.224 551.896C901.001 552.079 863.121 481.841 826.469 413.902C780.857 329.339 737.788 249.454 650.552 321.026C621.036 350.687 596.117 386.244 576.918 426.094C545.544 482.174 515.917 535.136 478.25 535.245C461.015 533.461 444.29 527.367 429.175 517.364C414.06 507.361 400.897 493.675 390.553 477.207C374.722 455.935 355.697 438.34 334.45 425.322C290.954 402.597 263.899 446.396 237.733 488.755C216.976 522.36 197.37 554.099 170.514 554.176L170.499 549.031C196.531 548.956 215.803 517.724 236.235 484.663C262.861 441.565 290.4 396.979 335.031 420.325C356.513 433.456 375.748 451.223 391.747 472.718C401.948 488.972 414.927 502.486 429.832 512.376C444.737 522.265 461.232 528.305 478.235 530.1C515.005 529.994 544.307 477.609 575.327 422.156C594.697 381.962 619.853 346.113 649.654 316.233C667.822 299.411 689.884 289.565 712.9 288.007Z" fill="url(#paint21_linear_187_199)"/>
<path d="M732.465 308.09C786.105 307.936 821.221 362.716 857.82 419.821C897.368 481.526 938.281 545.341 1006.28 545.145L1006.29 550.277C937.484 550.476 896.248 486.146 856.369 423.933C806.639 346.371 759.67 273.113 664.41 338.835C633.027 365.073 605.816 397.711 584.042 435.233C549.845 486.61 517.546 535.138 476.596 535.256C440.215 532.843 406.018 513.819 381.166 482.166C363.28 462.17 342.568 446.067 319.981 434.595C272.441 413.7 242.887 453.936 214.299 492.86C191.689 523.637 170.329 552.707 141.15 552.791L141.135 547.649C169.598 547.567 190.662 518.893 212.964 488.533C241.961 449.067 271.954 408.245 320.465 429.56C343.257 441.117 364.156 457.353 382.203 477.521C406.775 508.851 440.595 527.703 476.586 530.134C516.757 530.018 548.747 481.948 582.621 431.062C604.562 393.249 631.996 360.373 663.643 333.968C684.247 318.271 707.994 309.342 732.465 308.09Z" fill="url(#paint22_linear_187_199)"/>
<path d="M753.778 326.479C812.188 326.311 850.404 376.463 890.235 428.731C908.288 461.009 932.202 488.083 960.22 507.963C988.237 527.843 1019.65 540.024 1052.14 543.611L1052.15 548.759C1019.4 545.181 987.741 532.933 959.496 512.916C931.25 492.898 907.14 465.622 888.942 433.095C834.736 361.949 783.518 294.753 679.514 355.138C646.157 378.334 616.475 408.271 591.807 443.598C554.538 490.669 519.336 535.135 474.785 535.263C436.5 533.71 399.821 516.553 370.921 486.679C350.814 467.945 328.275 453.216 304.188 443.071C252.271 423.897 219.99 460.845 188.773 496.569C169.305 526.526 140.72 546.235 109.14 551.476L109.125 546.331C140.251 541.064 168.405 521.587 187.596 492.046C219.184 455.907 251.853 418.554 304.599 437.994C328.859 448.206 351.561 463.033 371.815 481.894C400.461 511.514 436.815 528.54 474.768 530.111C518.645 529.984 553.567 485.874 590.54 439.169C615.374 403.613 645.263 373.494 678.855 350.176C701.977 335.608 727.603 327.503 753.778 326.479Z" fill="url(#paint23_linear_187_199)"/>
<defs>
<linearGradient id="paint0_linear_187_199" x1="550.795" y1="526.8" x2="255.765" y2="627.076" gradientUnits="userSpaceOnUse">
<stop stop-color="#AD2BCD"/>
<stop offset="0.28" stop-color="#3531BC"/>
<stop offset="0.555" stop-color="#3896AB" stop-opacity="0.9"/>
<stop offset="0.795" stop-color="#418DD5" stop-opacity="0.7"/>
<stop offset="1" stop-color="#4CFF0B" stop-opacity="0.5"/>
</linearGradient>
<linearGradient id="paint1_linear_187_199" x1="565.33" y1="520.279" x2="256.701" y2="644.717" gradientUnits="userSpaceOnUse">
<stop stop-color="#AD2BCD"/>
<stop offset="0.28" stop-color="#3531BC"/>
<stop offset="0.555" stop-color="#3896AB" stop-opacity="0.9"/>
<stop offset="0.795" stop-color="#418DD5" stop-opacity="0.7"/>
<stop offset="1" stop-color="#4CFF0B" stop-opacity="0.5"/>
</linearGradient>
<linearGradient id="paint2_linear_187_199" x1="581.175" y1="514.288" x2="262.832" y2="666.561" gradientUnits="userSpaceOnUse">
<stop stop-color="#AD2BCD"/>
<stop offset="0.28" stop-color="#3531BC"/>
<stop offset="0.555" stop-color="#3896AB" stop-opacity="0.9"/>
<stop offset="0.795" stop-color="#418DD5" stop-opacity="0.7"/>
<stop offset="1" stop-color="#4CFF0B" stop-opacity="0.5"/>
</linearGradient>
<linearGradient id="paint3_linear_187_199" x1="598.459" y1="508.798" x2="275.891" y2="691.887" gradientUnits="userSpaceOnUse">
<stop stop-color="#AD2BCD"/>
<stop offset="0.28" stop-color="#3531BC"/>
<stop offset="0.555" stop-color="#3896AB" stop-opacity="0.9"/>
<stop offset="0.795" stop-color="#418DD5" stop-opacity="0.7"/>
<stop offset="1" stop-color="#4CFF0B" stop-opacity="0.5"/>
</linearGradient>
<linearGradient id="paint4_linear_187_199" x1="617.3" y1="503.769" x2="297.375" y2="719.227" gradientUnits="userSpaceOnUse">
<stop stop-color="#AD2BCD"/>
<stop offset="0.28" stop-color="#3531BC"/>
<stop offset="0.555" stop-color="#3896AB" stop-opacity="0.9"/>
<stop offset="0.795" stop-color="#418DD5" stop-opacity="0.7"/>
<stop offset="1" stop-color="#4CFF0B" stop-opacity="0.5"/>
</linearGradient>
<linearGradient id="paint5_linear_187_199" x1="637.82" y1="499.141" x2="328.346" y2="746.423" gradientUnits="userSpaceOnUse">
<stop stop-color="#AD2BCD"/>
<stop offset="0.28" stop-color="#3531BC"/>
<stop offset="0.555" stop-color="#3896AB" stop-opacity="0.9"/>
<stop offset="0.795" stop-color="#418DD5" stop-opacity="0.7"/>
<stop offset="1" stop-color="#4CFF0B" stop-opacity="0.5"/>
</linearGradient>
<linearGradient id="paint6_linear_187_199" x1="660.209" y1="494.5" x2="370.855" y2="770.664" gradientUnits="userSpaceOnUse">
<stop stop-color="#AD2BCD"/>
<stop offset="0.28" stop-color="#3531BC"/>
<stop offset="0.555" stop-color="#3896AB" stop-opacity="0.9"/>
<stop offset="0.795" stop-color="#418DD5" stop-opacity="0.7"/>
<stop offset="1" stop-color="#4CFF0B" stop-opacity="0.5"/>
</linearGradient>
<linearGradient id="paint7_linear_187_199" x1="684.587" y1="490.842" x2="419.156" y2="790.174" gradientUnits="userSpaceOnUse">
<stop stop-color="#AD2BCD"/>
<stop offset="0.28" stop-color="#3531BC"/>
<stop offset="0.555" stop-color="#3896AB" stop-opacity="0.9"/>
<stop offset="0.795" stop-color="#418DD5" stop-opacity="0.7"/>
<stop offset="1" stop-color="#4CFF0B" stop-opacity="0.5"/>
</linearGradient>
<linearGradient id="paint8_linear_187_199" x1="711.201" y1="487.411" x2="474.542" y2="803.054" gradientUnits="userSpaceOnUse">
<stop stop-color="#AD2BCD"/>
<stop offset="0.28" stop-color="#3531BC"/>
<stop offset="0.555" stop-color="#3896AB" stop-opacity="0.9"/>
<stop offset="0.795" stop-color="#418DD5" stop-opacity="0.7"/>
<stop offset="1" stop-color="#4CFF0B" stop-opacity="0.5"/>
</linearGradient>
<linearGradient id="paint9_linear_187_199" x1="740.191" y1="484.218" x2="534.651" y2="808.559" gradientUnits="userSpaceOnUse">
<stop stop-color="#AD2BCD"/>
<stop offset="0.28" stop-color="#3531BC"/>
<stop offset="0.555" stop-color="#3896AB" stop-opacity="0.9"/>
<stop offset="0.795" stop-color="#418DD5" stop-opacity="0.7"/>
<stop offset="1" stop-color="#4CFF0B" stop-opacity="0.5"/>
</linearGradient>
<linearGradient id="paint10_linear_187_199" x1="771.807" y1="481.232" x2="597.546" y2="806.813" gradientUnits="userSpaceOnUse">
<stop stop-color="#AD2BCD"/>
<stop offset="0.28" stop-color="#3531BC"/>
<stop offset="0.555" stop-color="#3896AB" stop-opacity="0.9"/>
<stop offset="0.795" stop-color="#418DD5" stop-opacity="0.7"/>
<stop offset="1" stop-color="#4CFF0B" stop-opacity="0.5"/>
</linearGradient>
<linearGradient id="paint11_linear_187_199" x1="806.256" y1="478.467" x2="661.47" y2="798.871" gradientUnits="userSpaceOnUse">
<stop stop-color="#AD2BCD"/>
<stop offset="0.28" stop-color="#3531BC"/>
<stop offset="0.555" stop-color="#3896AB" stop-opacity="0.9"/>
<stop offset="0.795" stop-color="#418DD5" stop-opacity="0.7"/>
<stop offset="1" stop-color="#4CFF0B" stop-opacity="0.5"/>
</linearGradient>
<linearGradient id="paint12_linear_187_199" x1="657.597" y1="260.562" x2="333.659" y2="300.707" gradientUnits="userSpaceOnUse">
<stop stop-color="#AD2BCD"/>
<stop offset="0.28" stop-color="#3531BC"/>
<stop offset="0.555" stop-color="#3896AB" stop-opacity="0.9"/>
<stop offset="0.795" stop-color="#418DD5" stop-opacity="0.7"/>
<stop offset="1" stop-color="#4CFF0B" stop-opacity="0.5"/>
</linearGradient>
<linearGradient id="paint13_linear_187_199" x1="672.206" y1="283.126" x2="321.22" y2="334.622" gradientUnits="userSpaceOnUse">
<stop stop-color="#AD2BCD"/>
<stop offset="0.28" stop-color="#3531BC"/>
<stop offset="0.555" stop-color="#3896AB" stop-opacity="0.9"/>
<stop offset="0.795" stop-color="#418DD5" stop-opacity="0.7"/>
<stop offset="1" stop-color="#4CFF0B" stop-opacity="0.5"/>
</linearGradient>
<linearGradient id="paint14_linear_187_199" x1="688.146" y1="303.797" x2="308.791" y2="369.714" gradientUnits="userSpaceOnUse">
<stop stop-color="#AD2BCD"/>
<stop offset="0.28" stop-color="#3531BC"/>
<stop offset="0.555" stop-color="#3896AB" stop-opacity="0.9"/>
<stop offset="0.795" stop-color="#418DD5" stop-opacity="0.7"/>
<stop offset="1" stop-color="#4CFF0B" stop-opacity="0.5"/>
</linearGradient>
<linearGradient id="paint15_linear_187_199" x1="705.489" y1="322.758" x2="296.778" y2="406.907" gradientUnits="userSpaceOnUse">
<stop stop-color="#AD2BCD"/>
<stop offset="0.28" stop-color="#3531BC"/>
<stop offset="0.555" stop-color="#3896AB" stop-opacity="0.9"/>
<stop offset="0.795" stop-color="#418DD5" stop-opacity="0.7"/>
<stop offset="1" stop-color="#4CFF0B" stop-opacity="0.5"/>
</linearGradient>
<linearGradient id="paint16_linear_187_199" x1="724.39" y1="340.113" x2="286.053" y2="447.098" gradientUnits="userSpaceOnUse">
<stop stop-color="#AD2BCD"/>
<stop offset="0.28" stop-color="#3531BC"/>
<stop offset="0.555" stop-color="#3896AB" stop-opacity="0.9"/>
<stop offset="0.795" stop-color="#418DD5" stop-opacity="0.7"/>
<stop offset="1" stop-color="#4CFF0B" stop-opacity="0.5"/>
</linearGradient>
<linearGradient id="paint17_linear_187_199" x1="744.98" y1="356.023" x2="277.795" y2="491.216" gradientUnits="userSpaceOnUse">
<stop stop-color="#AD2BCD"/>
<stop offset="0.28" stop-color="#3531BC"/>
<stop offset="0.555" stop-color="#3896AB" stop-opacity="0.9"/>
<stop offset="0.795" stop-color="#418DD5" stop-opacity="0.7"/>
<stop offset="1" stop-color="#4CFF0B" stop-opacity="0.5"/>
</linearGradient>
<linearGradient id="paint18_linear_187_199" x1="767.422" y1="370.47" x2="273.546" y2="539.844" gradientUnits="userSpaceOnUse">
<stop stop-color="#AD2BCD"/>
<stop offset="0.28" stop-color="#3531BC"/>
<stop offset="0.555" stop-color="#3896AB" stop-opacity="0.9"/>
<stop offset="0.795" stop-color="#418DD5" stop-opacity="0.7"/>
<stop offset="1" stop-color="#4CFF0B" stop-opacity="0.5"/>
</linearGradient>
<linearGradient id="paint19_linear_187_199" x1="791.874" y1="383.851" x2="275.578" y2="593.9" gradientUnits="userSpaceOnUse">
<stop stop-color="#AD2BCD"/>
<stop offset="0.28" stop-color="#3531BC"/>
<stop offset="0.555" stop-color="#3896AB" stop-opacity="0.9"/>
<stop offset="0.795" stop-color="#418DD5" stop-opacity="0.7"/>
<stop offset="1" stop-color="#4CFF0B" stop-opacity="0.5"/>
</linearGradient>
<linearGradient id="paint20_linear_187_199" x1="818.516" y1="396.104" x2="286.431" y2="652.93" gradientUnits="userSpaceOnUse">
<stop stop-color="#AD2BCD"/>
<stop offset="0.28" stop-color="#3531BC"/>
<stop offset="0.555" stop-color="#3896AB" stop-opacity="0.9"/>
<stop offset="0.795" stop-color="#418DD5" stop-opacity="0.7"/>
<stop offset="1" stop-color="#4CFF0B" stop-opacity="0.5"/>
</linearGradient>
<linearGradient id="paint21_linear_187_199" x1="847.55" y1="407.314" x2="308.932" y2="715.774" gradientUnits="userSpaceOnUse">
<stop stop-color="#AD2BCD"/>
<stop offset="0.28" stop-color="#3531BC"/>
<stop offset="0.555" stop-color="#3896AB" stop-opacity="0.9"/>
<stop offset="0.795" stop-color="#418DD5" stop-opacity="0.7"/>
<stop offset="1" stop-color="#4CFF0B" stop-opacity="0.5"/>
</linearGradient>
<linearGradient id="paint22_linear_187_199" x1="879.192" y1="417.584" x2="345.619" y2="780.11" gradientUnits="userSpaceOnUse">
<stop stop-color="#AD2BCD"/>
<stop offset="0.28" stop-color="#3531BC"/>
<stop offset="0.555" stop-color="#3896AB" stop-opacity="0.9"/>
<stop offset="0.795" stop-color="#418DD5" stop-opacity="0.7"/>
<stop offset="1" stop-color="#4CFF0B" stop-opacity="0.5"/>
</linearGradient>
<linearGradient id="paint23_linear_187_199" x1="913.675" y1="426.953" x2="398.297" y2="842.472" gradientUnits="userSpaceOnUse">
<stop stop-color="#AD2BCD"/>
<stop offset="0.28" stop-color="#3531BC"/>
<stop offset="0.555" stop-color="#3896AB" stop-opacity="0.9"/>
<stop offset="0.795" stop-color="#418DD5" stop-opacity="0.7"/>
<stop offset="1" stop-color="#4CFF0B" stop-opacity="0.5"/>
</linearGradient>
</defs>
</svg>
