<svg width="1078" height="641" viewBox="0 0 1078 641" fill="none" xmlns="http://www.w3.org/2000/svg">
<path d="M833.079 206.56C820.248 206.597 810.858 181.778 800.923 155.512C788.495 122.696 775.658 88.7483 755.506 106.437C744.699 117.996 735.825 131.768 729.329 147.062C718.032 169.564 706.349 192.833 687.968 192.886C670.032 192.938 655.846 151.574 640.811 107.784C632.513 78.7623 620.715 51.2448 605.767 26.0503C564.707 -29.1445 544.755 33.1967 523.639 99.1645C506.585 152.453 488.948 207.554 458.967 207.641L458.958 204.544C488.133 204.46 505.545 150.061 522.383 97.4574C543.92 30.1606 564.252 -33.4073 606.588 23.4588C621.722 48.8916 633.659 76.6884 642.042 106.014C656.83 149.122 670.8 189.839 687.95 189.789C705.721 189.738 716.675 167.929 728.268 144.834C734.872 129.298 743.902 115.317 754.899 103.597C776.123 84.9578 789.323 119.878 802.091 153.622C811.803 179.27 820.968 203.5 833.068 203.466L833.079 206.56Z" fill="url(#paint0_linear_187_157)"/>
<path d="M846.92 205.346C833.001 205.386 822.786 182.665 811.976 158.61C798.43 128.471 784.43 97.32 762.336 113.618C750.852 123.826 741.153 136.479 733.758 150.9C720.881 172.459 708.716 192.826 688.747 192.884C669.271 192.94 653.84 155.05 637.497 114.943C628.198 87.8331 615.322 62.5599 599.332 40.0278C554.477 -10.6902 532.671 46.5318 509.588 107.097C490.982 155.92 471.739 206.427 439.133 206.521L439.124 203.424C471.008 203.332 490.016 153.438 508.406 105.175C531.893 43.5517 554.064 -14.6518 600.051 37.3064C616.229 60.0482 629.248 85.5763 638.637 112.968C654.749 152.499 669.963 189.841 688.731 189.787C708.174 189.731 720.133 169.704 732.797 148.5C740.302 133.873 750.151 121.046 761.813 110.709C784.84 93.688 799.189 125.643 813.065 156.521C823.647 180.06 833.644 202.292 846.893 202.254L846.92 205.346Z" fill="url(#paint1_linear_187_157)"/>
<path d="M862.004 204.228C846.9 204.272 835.797 183.481 824.043 161.459C809.267 133.795 793.994 105.175 769.796 120.213C757.61 129.205 747.022 140.817 738.601 154.423C724.562 174.168 711.318 192.802 689.598 192.865C668.455 192.925 651.652 158.248 633.874 121.511C623.403 96.1014 609.351 72.8905 592.297 52.8336C543.312 6.29192 519.486 58.7884 494.27 114.396C473.974 159.138 452.986 205.414 417.517 205.517L417.508 202.43C452.325 202.329 473.096 156.552 493.167 112.28C518.759 55.8363 542.938 2.50894 592.922 50.046C610.162 70.2674 624.363 93.6891 634.936 119.34C652.486 155.601 669.056 189.852 689.587 189.793C710.84 189.732 723.906 171.343 737.736 151.865C746.271 138.091 757.003 126.34 769.351 117.247C794.365 101.717 809.957 130.918 825.045 159.176C836.582 180.775 847.472 201.183 861.993 201.141L862.004 204.228Z" fill="url(#paint2_linear_187_157)"/>
<path d="M878.43 203.19C862.038 203.237 849.964 184.211 837.17 164.061C821.054 138.658 804.386 112.361 777.92 126.238C764.973 134.156 753.417 144.809 743.847 157.648C737.625 167.569 729.653 175.841 720.459 181.913C711.266 187.986 701.062 191.72 690.525 192.869C667.536 192.935 649.262 161.171 629.911 127.535C618.078 103.655 602.744 82.3468 584.598 64.5702C531.122 21.8281 505.107 70.0362 477.559 121.07C455.433 162.074 432.54 204.475 393.946 204.586L393.937 201.507C431.959 201.397 454.626 159.395 476.548 118.772C504.447 67.0915 530.799 18.2952 585.138 61.691C603.459 79.6033 618.938 101.09 630.876 125.181C650.009 158.442 668.078 189.855 690.516 189.79C700.91 188.634 710.972 184.932 720.036 178.929C729.1 172.927 736.959 164.76 743.095 154.969C752.77 141.996 764.455 131.237 777.546 123.247C804.713 109.066 821.68 135.769 838.086 161.628C850.661 181.449 862.54 200.169 878.421 200.123L878.43 203.19Z" fill="url(#paint3_linear_187_157)"/>
<path d="M896.355 202.224C878.544 202.276 865.405 184.861 851.49 166.423C833.912 143.105 815.73 119.034 786.791 131.736C773.029 138.734 760.442 148.496 749.612 160.573C734.617 179.678 713.79 191.259 691.544 192.864C666.543 192.936 646.659 163.847 625.606 133.05C612.204 110.585 595.477 91.0456 576.201 75.3391C517.827 36.1501 489.41 80.3615 459.332 127.208C435.214 164.781 410.256 203.625 368.252 203.746L368.243 200.667C409.745 200.547 434.49 162.007 458.418 124.746C488.822 77.3987 517.536 32.6733 576.659 72.4091C596.094 88.2188 612.953 107.905 626.451 130.548C647.301 161.047 666.996 189.855 691.515 189.785C713.516 188.17 734.106 176.701 748.935 157.802C759.865 145.618 772.57 135.774 786.463 128.726C816 115.721 834.456 140.178 852.295 163.834C866.016 182.018 878.971 199.198 896.339 199.147L896.355 202.224Z" fill="url(#paint4_linear_187_157)"/>
<path d="M915.877 201.34C896.539 198.266 879.013 186.503 867.078 168.589C847.904 147.196 828.065 125.105 796.455 136.786C781.773 142.991 768.067 151.935 755.877 163.266C738.393 181.319 716.045 191.78 692.641 192.866C665.442 192.944 643.795 166.314 620.881 138.114C605.734 116.971 587.513 99.061 567.045 85.1955C503.356 49.2033 472.335 89.8347 439.489 132.838C428.561 152.422 413.967 168.898 396.79 181.044C379.614 193.189 360.295 200.692 340.268 202.996L340.26 199.92C360.13 197.611 379.294 190.147 396.332 178.082C413.369 166.018 427.844 149.661 438.682 130.223C471.814 86.8539 503.106 45.9 567.435 82.2045C588.044 96.1522 606.391 114.172 621.646 135.449C644.379 163.429 665.851 189.848 692.632 189.771C715.834 188.68 737.986 178.299 755.316 160.395C767.598 148.985 781.41 139.983 796.204 133.746C828.34 121.818 848.407 144.222 867.813 165.867C879.572 183.534 896.832 195.16 915.89 198.251L915.877 201.34Z" fill="url(#paint5_linear_187_157)"/>
<path d="M937.167 200.535C916.961 198.181 898.135 187.553 884.069 170.559C874.586 158.233 862.454 149.041 848.912 143.922C835.369 138.802 820.901 137.938 806.982 141.418C791.27 146.944 776.352 155.135 762.712 165.725C742.671 182.678 718.647 192.146 693.837 192.869C663.39 187.821 635.593 169.984 615.728 142.747C598.636 122.893 578.799 106.496 557.039 94.2371C533.067 81.5364 506.023 78.9608 480.599 86.957C455.175 94.9532 432.975 113.017 417.85 138.014C404.621 156.782 388.193 172.18 369.593 183.249C350.993 194.317 330.62 200.818 309.748 202.343L309.739 199.254C330.479 197.726 350.721 191.256 369.2 180.248C387.679 169.241 403.999 153.933 417.14 135.279C432.381 110.096 454.751 91.9016 480.368 83.8549C505.986 75.8082 533.232 78.4169 557.378 91.2283C579.265 103.537 599.216 120.018 616.4 139.983C636.097 166.997 663.645 184.712 693.832 189.777C718.47 189.045 742.325 179.634 762.225 162.795C775.944 152.144 790.95 143.908 806.753 138.354C820.819 134.811 835.447 135.665 849.14 140.83C862.834 145.995 875.1 155.285 884.684 167.748C898.585 184.552 917.185 195.078 937.156 197.446L937.167 200.535Z" fill="url(#paint6_linear_187_157)"/>
<path d="M960.379 199.764C939.098 197.953 918.859 188.347 902.584 172.334C891.289 160.662 877.818 152.177 863.227 147.546C848.637 142.915 833.322 142.262 818.483 145.639C801.609 150.591 785.372 158.093 770.189 167.954C747.519 183.787 721.632 192.379 695.159 192.856C663.23 188.872 633.328 172.742 610.124 146.985C590.928 128.383 569.338 113.384 546.14 102.532C520.286 90.5763 491.914 88.0198 464.791 95.2016C437.668 102.383 413.079 118.964 394.29 142.74C362.764 178.756 320.754 199.797 276.508 201.735L276.499 198.656C320.521 196.71 362.312 175.763 393.674 139.926C412.576 116.007 437.313 99.3295 464.598 92.1091C491.884 84.8887 520.425 87.4674 546.431 99.5025C569.737 110.402 591.43 125.467 610.72 144.149C633.762 169.738 663.451 185.78 695.161 189.776C721.492 189.29 747.237 180.74 769.786 164.993C785.039 155.088 801.351 147.551 818.302 142.578C833.266 139.168 848.711 139.82 863.427 144.484C878.143 149.147 891.731 157.695 903.128 169.458C919.253 185.329 939.301 194.864 960.388 196.687L960.379 199.764Z" fill="url(#paint7_linear_187_157)"/>
<path d="M985.669 199.048C963.096 197.636 941.306 188.943 922.755 173.951C909.635 162.995 894.76 155.189 879.004 150.994C863.249 146.798 846.932 146.297 831.012 149.519C812.828 153.978 795.149 160.85 778.326 170.001C752.934 184.715 724.979 192.526 696.583 192.841C662.848 189.664 630.653 175.065 603.999 150.858C582.535 133.496 559.043 119.781 534.235 110.129C506.237 98.944 476.203 96.4701 447.135 102.954C418.067 109.438 390.981 124.652 368.584 147.078C332.132 181.037 287.009 200.064 240.237 201.196L240.228 198.116C286.808 196.977 331.744 178.028 368.052 144.215C390.554 121.687 417.766 106.404 446.969 99.8901C476.172 93.3764 506.344 95.8606 534.473 107.095C559.373 116.785 582.953 130.552 604.497 147.976C631.006 172.057 663.022 186.593 696.574 189.782C724.85 189.463 752.685 181.681 777.969 167.027C794.851 157.838 812.592 150.935 830.84 146.456C846.867 143.208 863.295 143.709 879.158 147.927C895.022 152.146 910 159.998 923.214 171.021C941.628 185.906 963.255 194.543 985.662 195.961L985.669 199.048Z" fill="url(#paint8_linear_187_157)"/>
<path d="M1013.23 198.386C989.139 197.267 965.632 189.389 944.73 175.427C914.587 154.823 879.239 146.916 844.666 153.042C825.029 157.087 805.791 163.392 787.237 171.862C759.003 185.508 728.74 192.636 698.142 192.847C662.248 190.278 627.519 177.043 597.298 154.416C573.42 138.275 547.864 125.735 521.25 117.101C490.855 106.692 458.836 104.34 427.563 110.22C396.29 116.1 366.565 130.062 340.588 151.071C299.07 182.885 250.504 200.125 200.72 200.72L200.711 197.648C250.335 197.045 298.743 179.856 340.128 148.143C366.199 127.057 396.033 113.045 427.42 107.143C458.807 101.242 490.942 103.602 521.448 114.049C548.143 122.696 573.775 135.272 597.719 151.468C627.813 173.999 662.391 187.187 698.133 189.765C728.629 189.55 758.79 182.443 786.929 168.843C805.539 160.347 824.837 154.027 844.534 149.978C879.286 143.798 914.824 151.739 945.125 172.454C965.909 186.342 989.283 194.183 1013.24 195.304L1013.23 198.386Z" fill="url(#paint9_linear_187_157)"/>
<path d="M1043.29 197.766C1017.43 196.87 992.017 189.716 968.674 176.763C934.811 157.671 896.859 150.551 859.548 156.291C838.274 159.965 817.312 165.749 796.893 173.579C765.685 186.193 732.882 192.706 699.823 192.853C661.411 190.735 623.882 178.719 589.965 157.678C563.529 142.715 535.727 131.25 507.083 123.5C440.37 104.015 369.764 115.212 310.058 154.746C263.323 184.408 210.932 200.073 157.633 200.321L157.624 197.239C210.787 196.99 263.045 181.368 309.664 151.788C369.541 112.149 440.345 100.919 507.248 120.448C535.959 128.217 563.827 139.71 590.324 154.71C624.131 175.673 661.533 187.652 699.816 189.776C732.788 189.624 765.505 183.128 796.633 170.554C817.098 162.702 838.109 156.906 859.433 153.23C896.896 147.435 935.01 154.579 969.007 173.767C992.245 186.662 1017.55 193.787 1043.29 194.687L1043.29 197.766Z" fill="url(#paint10_linear_187_157)"/>
<path d="M1076.04 197.163C1048.18 196.429 1020.66 189.927 994.77 177.964C957.062 160.341 916.164 153.91 875.786 159.254C852.699 162.603 829.856 167.909 807.441 175.128C773.086 186.763 737.485 192.725 701.686 192.837C660.393 191.069 619.767 180.15 582.003 160.67C552.835 146.839 522.571 136.357 491.643 129.373C419.225 111.447 343.754 121.543 276.8 158.115C224.65 185.653 168.009 199.921 110.686 199.958L110.677 196.866C167.887 196.831 224.416 182.594 276.463 155.111C343.56 118.445 419.2 108.327 491.775 126.309C522.762 133.302 553.084 143.803 582.305 157.664C619.968 177.088 660.484 187.979 701.666 189.747C737.394 189.636 772.925 183.688 807.212 172.08C829.665 164.847 852.547 159.535 875.674 156.187C916.18 150.784 957.218 157.23 995.041 174.937C1020.84 186.861 1048.27 193.343 1076.03 194.079L1076.04 197.163Z" fill="url(#paint11_linear_187_157)"/>
<path d="M468.259 639.518L466.421 639.268C443.402 633.048 428.376 505.993 412.457 371.488C395.048 224.338 377.044 72.1824 348.459 72.2647L348.444 67.0866C379.017 66.9985 397.261 221.183 414.903 370.289C429.912 497.175 445.434 628.382 466.741 634.14C475.622 636.509 485.631 616.572 496.545 574.798C512.003 499.053 523.437 422.276 530.782 344.899C547.868 200.568 560.359 105.956 577.594 105.906C596.55 105.851 608 168.255 620.121 234.311C625.814 273.077 634.73 311.116 646.742 347.897C650.956 358.098 654.785 362.231 658.452 360.579C671.328 354.738 681.433 277.618 690.339 209.584C700.008 135.764 709.141 66.0319 722.56 65.9932L722.575 71.1713C711.068 71.2045 701.767 142.237 692.77 210.925C682.788 287.13 673.36 359.103 658.999 365.617C654.395 367.673 649.633 362.836 644.834 351.224C632.61 313.968 623.548 275.422 617.776 236.133C606.492 174.63 594.821 111.047 577.618 111.097C561.056 111.145 546.909 230.611 533.234 346.148C525.854 423.938 514.344 501.122 498.77 577.261C487.852 619.055 477.852 639.49 468.259 639.518Z" fill="url(#paint12_linear_187_157)"/>
<path d="M458.95 595.533L456.319 595.135C431.694 587.607 415.509 472.097 398.372 349.81C379.472 214.959 359.92 75.5131 328.646 75.6033L328.632 70.443C361.824 70.3473 381.634 211.705 400.79 348.399C416.951 463.733 433.668 582.982 456.685 590.024C466.587 593.06 477.8 574.786 489.948 535.706C506.763 466.631 519.265 396.238 527.357 325.072C543.281 212.403 558.321 105.982 578.38 105.925C598.9 105.865 611.361 163.045 624.529 223.583C630.803 259.401 640.512 294.296 653.474 327.619C658.292 337.436 662.699 341.172 666.966 339.086C680.821 332.218 691.257 265.48 701.343 200.933C711.922 133.238 721.913 69.3071 736.423 69.2653L736.437 74.4256C723.763 74.4621 713.586 139.569 703.742 202.532C693.446 268.425 682.798 336.569 667.57 344.109C662.466 346.629 657.128 342.329 651.713 331.278C638.497 297.472 628.613 262.047 622.247 225.678C609.409 166.732 597.29 111.028 578.406 111.082C560.223 111.135 544.748 220.639 529.781 326.536C521.639 398.159 509.036 469 492.071 538.506C480.171 576.769 469.306 595.503 458.95 595.533Z" fill="url(#paint13_linear_187_157)"/>
<path d="M448.818 555.234L445.116 554.609C418.857 545.674 401.452 440.902 383.022 329.966C362.492 206.387 341.262 78.5823 307.028 78.681L307.013 73.5283C343.058 73.4245 364.585 203.006 385.4 328.32C403.577 437.743 420.741 541.086 445.502 549.522C456.823 553.365 468.982 537.119 482.769 499.88C501.025 436.993 514.689 372.434 523.618 306.885C541.034 203.578 557.478 106 579.2 105.937C601.444 105.873 614.975 158.262 629.301 213.738C636.246 246.924 646.824 278.948 660.779 309.028C666.325 318.554 671.429 321.925 676.39 319.288C691.241 311.429 702.46 251.21 713.313 192.98C724.88 130.916 735.798 72.308 751.47 72.2629L751.485 77.4231C737.533 77.4634 726.413 137.139 715.66 194.845C704.583 254.293 693.121 315.772 677.021 324.288C671.304 327.333 665.302 323.518 659.174 312.995C644.929 282.445 634.143 249.894 627.085 216.15C613.123 162.095 599.933 111.03 579.211 111.09C559.259 111.148 542.341 211.517 525.982 308.586C516.989 374.631 503.197 439.672 484.754 503.015C471.821 538.025 460.008 555.202 448.818 555.234Z" fill="url(#paint14_linear_187_157)"/>
<path d="M437.794 518.286C436.054 518.289 434.324 517.975 432.669 517.353C404.772 506.993 386.095 412.183 366.321 311.809C344.006 198.54 320.929 81.4059 283.477 81.5138L283.462 76.3536C322.619 76.2407 346.016 195.024 368.644 309.89C388.149 408.903 406.571 502.42 433.097 512.266C445.785 516.958 459.496 502.165 474.981 467.002C494.777 409.875 509.718 350.64 519.59 290.139C538.619 195.439 556.602 105.987 580.149 105.919C604.259 105.85 618.973 153.846 634.562 204.671C642.296 235.528 653.83 264.933 668.808 291.976C675.222 301.229 681.148 304.174 686.894 301.001C702.726 292.249 714.773 238.045 726.425 185.624C739.061 128.735 750.993 74.9935 767.936 74.9447L767.951 80.105C752.616 80.1492 740.46 134.862 728.71 187.773C716.826 241.274 704.538 296.599 687.567 305.978C681.124 309.533 674.331 306.228 667.371 296.181C652.075 268.704 640.308 238.797 632.438 207.399C617.238 157.824 602.869 111.004 580.164 111.069C558.281 111.132 540.616 199.044 521.908 292.119C511.954 353.14 496.861 412.877 476.846 470.472C462.737 502.516 449.901 518.251 437.794 518.286Z" fill="url(#paint15_linear_187_157)"/>
<path d="M425.782 484.42C423.419 484.422 421.073 483.965 418.84 483.069C389.294 471.378 369.292 385.809 348.119 295.211C323.852 191.381 298.758 84.0184 257.796 84.1364L257.781 78.9736C300.327 78.851 325.775 187.711 350.377 292.996C371.271 382.377 391.006 466.805 419.301 477.999C433.583 483.634 449.027 470.208 466.508 436.874C487.91 385.132 504.241 330.766 515.194 274.796C535.99 187.984 555.624 105.99 581.165 105.917C607.316 105.841 624.066 151.85 640.269 196.339C648.938 225.15 661.534 252.166 677.577 276.36C684.986 285.365 691.843 287.919 698.523 284.159C715.361 274.679 728.246 225.977 740.712 178.886C754.506 126.758 767.541 77.5072 785.88 77.4544L785.895 82.6146C769.038 82.6632 756.351 130.608 742.918 181.367C730.207 229.406 717.057 279.081 699.195 289.142C691.939 293.232 684.223 290.436 676.302 280.797C659.934 256.218 647.091 228.741 638.27 199.427C621.713 153.958 606.08 111.008 581.193 111.079C557.207 111.149 537.9 191.754 517.461 277.093C506.407 333.588 489.893 388.453 468.232 440.648C452.865 469.959 438.906 484.382 425.782 484.42Z" fill="url(#paint16_linear_187_157)"/>
<path d="M412.715 453.381C409.585 453.384 406.478 452.757 403.532 451.528C372.325 438.69 350.94 361.613 328.299 280.002C301.896 184.815 274.589 86.3909 229.812 86.52L229.797 81.375C276.047 81.2417 303.715 180.998 330.481 277.48C352.821 358.025 373.932 434.105 404.011 446.481C420.108 453.091 437.538 440.936 457.29 409.271C480.362 362.572 498.216 312.657 510.422 260.725C533.124 181.151 554.564 105.996 582.27 105.916C610.645 105.834 628.862 147.955 646.488 188.684C656.253 215.683 670.003 240.505 687.118 262.037C718.118 293.734 737.517 232.188 756.278 172.659C771.337 124.891 785.551 79.7735 805.414 79.7162L805.429 84.874C786.929 84.9273 773.068 128.91 758.389 175.475C739.033 236.885 719.018 300.367 686.008 266.656C668.562 244.795 654.55 219.564 644.608 192.106C626.565 150.398 609.524 110.995 582.28 111.073C556.001 111.149 534.922 185.076 512.581 263.349C500.258 315.805 482.196 366.211 458.835 413.342C442.127 440.134 426.942 453.34 412.715 453.381Z" fill="url(#paint17_linear_187_157)"/>
<path d="M398.255 425.168C359.125 425.28 333.459 347.342 306.708 266.126C277.964 178.848 248.24 88.612 199.299 88.753L199.284 83.5928C249.562 83.4479 279.668 174.85 308.785 263.245C344.832 372.7 378.886 476.063 447.243 383.971C472.05 341.999 491.576 296.143 505.234 247.782C530.006 174.877 553.406 106.002 583.473 105.915C614.291 105.826 634.107 144.391 653.27 181.679C664.336 207.065 679.351 229.866 697.558 248.936C731.533 278.146 752.759 221.602 773.263 166.934C789.681 123.182 805.188 81.8493 826.71 81.7873L826.724 86.9476C806.432 87.006 791.287 127.364 775.256 170.1C754.16 226.311 732.339 284.412 696.602 253.693C678.072 234.357 662.795 211.204 651.547 185.411C631.875 147.135 613.297 110.987 583.484 111.073C554.716 111.156 531.676 178.965 507.287 250.751C493.492 299.612 473.737 345.928 448.621 388.29C442.953 398.216 435.534 406.634 426.852 412.991C418.171 419.347 408.424 423.497 398.255 425.168Z" fill="url(#paint18_linear_187_157)"/>
<path d="M382.773 399.035C340.195 399.158 312.278 327.783 283.186 253.409C251.884 173.39 219.508 90.6405 166.041 90.7946L166.026 85.6445C220.705 85.487 253.458 169.227 285.139 250.199C324.424 350.644 361.531 445.511 436.298 360.834C462.872 323.28 484.225 281.144 499.588 235.946C526.608 169.134 552.131 106.023 584.783 105.929C618.259 105.833 638.859 139.557 660.664 175.253C673.232 199.185 689.62 220.122 708.949 236.941C746.156 263.823 769.35 211.903 791.784 161.685C809.682 121.607 826.591 83.7512 849.923 83.684L849.938 88.8442C827.694 88.9083 811.153 125.951 793.631 165.183C770.654 216.628 746.896 269.803 708.126 241.8C688.498 224.775 671.858 203.555 659.105 179.285C637.656 144.161 617.4 110.996 584.796 111.09C553.302 111.18 528.153 173.386 501.52 239.252C486.002 284.909 464.406 327.458 437.516 365.35C423.732 384.386 404.104 396.464 382.773 399.035Z" fill="url(#paint19_linear_187_157)"/>
<path d="M365.904 375.093C319.568 375.226 289.205 309.882 257.556 241.775C223.456 168.396 188.191 92.5256 129.795 92.6938L129.78 87.5361C189.257 87.3647 224.897 164.064 259.365 238.229C302.19 330.388 342.641 417.463 424.366 339.573C452.743 306.136 476.09 267.424 493.44 225.043C522.904 163.833 550.732 106.012 586.203 105.91C622.604 105.805 645.004 136.671 668.723 169.345C683.011 191.914 700.885 211.114 721.384 225.91C762.092 250.65 787.456 202.954 811.971 156.826C831.466 120.13 849.895 85.4661 875.222 85.3931L875.237 90.5457C850.881 90.6159 832.805 124.627 813.664 160.629C788.637 207.715 762.767 256.393 720.683 230.858C699.914 215.903 681.805 196.475 667.337 173.625C643.947 141.401 621.853 110.972 586.22 111.075C551.79 111.174 524.315 168.249 495.228 228.681C477.713 271.473 454.119 310.544 425.432 344.263C409.266 362.212 388.23 373.107 365.904 375.093Z" fill="url(#paint20_linear_187_157)"/>
<path d="M347.533 353.166C297.085 353.311 264.057 293.482 229.628 231.129C192.476 163.843 154.055 94.2577 90.2846 94.4414L90.2698 89.2939C154.991 89.1074 193.764 159.343 231.28 227.279C277.968 311.839 322.052 391.721 411.36 320.143C441.578 290.48 467.091 254.922 486.747 215.07C518.868 158.988 549.202 106.024 587.761 105.912C605.404 107.695 622.525 113.788 637.998 123.79C653.471 133.792 666.944 147.477 677.533 163.944C693.738 185.215 713.212 202.808 734.962 215.826C779.488 238.548 807.187 194.747 833.976 152.386C855.227 118.779 875.3 87.0394 902.793 86.9602L902.808 92.1051C876.159 92.1819 856.427 123.415 835.509 156.477C808.249 199.577 780.054 244.166 734.367 220.822C712.376 207.693 692.687 189.927 676.31 168.434C665.868 152.18 652.583 138.667 637.325 128.778C622.067 118.89 605.182 112.851 587.776 111.057C550.135 111.166 520.135 163.552 488.375 219.008C468.543 259.203 442.789 295.054 412.279 324.936C393.679 341.759 371.094 351.607 347.533 353.166Z" fill="url(#paint21_linear_187_157)"/>
<path d="M327.506 333.085C272.594 333.244 236.649 278.466 199.187 221.363C158.705 159.661 116.827 95.8485 47.2168 96.0491L47.202 90.9169C117.643 90.7139 159.852 155.041 200.673 217.251C251.575 294.81 299.654 368.065 397.176 302.336C429.304 276.096 457.162 243.456 479.455 205.933C514.466 154.553 547.534 106.023 589.454 105.903C626.698 108.312 661.704 127.335 687.143 158.986C705.452 178.981 726.653 195.082 749.775 206.553C798.44 227.445 828.697 187.206 857.965 148.28C881.114 117.502 902.982 88.4304 932.853 88.3443L932.867 93.4867C903.73 93.5706 882.165 122.246 859.332 152.607C829.645 192.075 798.938 232.9 749.279 211.587C725.947 200.032 704.554 183.798 686.081 163.631C660.928 132.302 626.309 113.452 589.465 111.025C548.342 111.143 515.59 159.215 480.91 210.103C458.445 247.917 430.359 280.796 397.961 307.203C376.867 322.901 352.556 331.832 327.506 333.085Z" fill="url(#paint22_linear_187_157)"/>
<path d="M305.688 314.698C245.894 314.87 206.775 264.72 166.004 212.456C147.525 180.179 123.046 153.106 94.3657 133.228C65.6857 113.35 33.5336 101.171 0.272402 97.586L0.257568 92.4385C33.7817 96.0141 66.1937 108.26 95.1074 128.275C124.021 148.291 148.7 175.565 167.328 208.091C222.813 279.233 275.241 346.426 381.714 286.034C415.864 262.836 446.251 232.897 471.507 197.568C509.662 150.494 545.701 106.026 591.308 105.894C630.501 107.445 668.048 124.6 697.631 154.472C718.213 173.205 741.285 187.931 765.943 198.075C819.089 217.246 852.137 180.295 884.097 144.569C904.029 114.61 933.292 94.8997 965.621 89.6566L965.636 94.8016C933.772 100.071 904.949 119.55 885.301 149.092C852.962 185.234 819.516 222.589 765.521 203.152C740.687 192.942 717.448 178.117 696.715 159.257C667.392 129.638 630.178 112.615 591.325 111.047C546.408 111.176 510.656 155.289 472.803 201.997C447.378 237.555 416.779 267.676 382.389 290.996C358.717 305.566 332.483 313.672 305.688 314.698Z" fill="url(#paint23_linear_187_157)"/>
<defs>
<linearGradient id="paint0_linear_187_157" x1="513.496" y1="114.364" x2="814.045" y2="9.80852" gradientUnits="userSpaceOnUse">
<stop stop-color="#CD2B9C"/>
<stop offset="0.28" stop-color="#7431BC"/>
<stop offset="0.555" stop-color="#3896AB" stop-opacity="0.9"/>
<stop offset="0.795" stop-color="#41D552" stop-opacity="0.7"/>
<stop offset="1" stop-color="#A9726B" stop-opacity="0.3"/>
</linearGradient>
<linearGradient id="paint1_linear_187_157" x1="498.616" y1="120.885" x2="812.477" y2="-8.64426" gradientUnits="userSpaceOnUse">
<stop stop-color="#CD2B9C"/>
<stop offset="0.28" stop-color="#7431BC"/>
<stop offset="0.555" stop-color="#3896AB" stop-opacity="0.9"/>
<stop offset="0.795" stop-color="#41D552" stop-opacity="0.7"/>
<stop offset="1" stop-color="#A9726B" stop-opacity="0.3"/>
</linearGradient>
<linearGradient id="paint2_linear_187_157" x1="482.395" y1="126.877" x2="805.423" y2="-31.2812" gradientUnits="userSpaceOnUse">
<stop stop-color="#CD2B9C"/>
<stop offset="0.28" stop-color="#7431BC"/>
<stop offset="0.555" stop-color="#3896AB" stop-opacity="0.9"/>
<stop offset="0.795" stop-color="#41D552" stop-opacity="0.7"/>
<stop offset="1" stop-color="#A9726B" stop-opacity="0.3"/>
</linearGradient>
<linearGradient id="paint3_linear_187_157" x1="464.701" y1="132.369" x2="791.126" y2="-57.2852" gradientUnits="userSpaceOnUse">
<stop stop-color="#CD2B9C"/>
<stop offset="0.28" stop-color="#7431BC"/>
<stop offset="0.555" stop-color="#3896AB" stop-opacity="0.9"/>
<stop offset="0.795" stop-color="#41D552" stop-opacity="0.7"/>
<stop offset="1" stop-color="#A9726B" stop-opacity="0.3"/>
</linearGradient>
<linearGradient id="paint4_linear_187_157" x1="445.413" y1="137.4" x2="768.117" y2="-85.0691" gradientUnits="userSpaceOnUse">
<stop stop-color="#CD2B9C"/>
<stop offset="0.28" stop-color="#7431BC"/>
<stop offset="0.555" stop-color="#3896AB" stop-opacity="0.9"/>
<stop offset="0.795" stop-color="#41D552" stop-opacity="0.7"/>
<stop offset="1" stop-color="#A9726B" stop-opacity="0.3"/>
</linearGradient>
<linearGradient id="paint5_linear_187_157" x1="424.407" y1="142.028" x2="735.427" y2="-112.373" gradientUnits="userSpaceOnUse">
<stop stop-color="#CD2B9C"/>
<stop offset="0.28" stop-color="#7431BC"/>
<stop offset="0.555" stop-color="#3896AB" stop-opacity="0.9"/>
<stop offset="0.795" stop-color="#41D552" stop-opacity="0.7"/>
<stop offset="1" stop-color="#A9726B" stop-opacity="0.3"/>
</linearGradient>
<linearGradient id="paint6_linear_187_157" x1="401.487" y1="146.671" x2="691.098" y2="-136.289" gradientUnits="userSpaceOnUse">
<stop stop-color="#CD2B9C"/>
<stop offset="0.28" stop-color="#7431BC"/>
<stop offset="0.555" stop-color="#3896AB" stop-opacity="0.9"/>
<stop offset="0.795" stop-color="#41D552" stop-opacity="0.7"/>
<stop offset="1" stop-color="#A9726B" stop-opacity="0.3"/>
</linearGradient>
<linearGradient id="paint7_linear_187_157" x1="376.531" y1="150.331" x2="641.163" y2="-155.178" gradientUnits="userSpaceOnUse">
<stop stop-color="#CD2B9C"/>
<stop offset="0.28" stop-color="#7431BC"/>
<stop offset="0.555" stop-color="#3896AB" stop-opacity="0.9"/>
<stop offset="0.795" stop-color="#41D552" stop-opacity="0.7"/>
<stop offset="1" stop-color="#A9726B" stop-opacity="0.3"/>
</linearGradient>
<linearGradient id="paint8_linear_187_157" x1="349.286" y1="153.763" x2="584.345" y2="-167.191" gradientUnits="userSpaceOnUse">
<stop stop-color="#CD2B9C"/>
<stop offset="0.28" stop-color="#7431BC"/>
<stop offset="0.555" stop-color="#3896AB" stop-opacity="0.9"/>
<stop offset="0.795" stop-color="#41D552" stop-opacity="0.7"/>
<stop offset="1" stop-color="#A9726B" stop-opacity="0.3"/>
</linearGradient>
<linearGradient id="paint9_linear_187_157" x1="319.607" y1="156.959" x2="523.06" y2="-171.718" gradientUnits="userSpaceOnUse">
<stop stop-color="#CD2B9C"/>
<stop offset="0.28" stop-color="#7431BC"/>
<stop offset="0.555" stop-color="#3896AB" stop-opacity="0.9"/>
<stop offset="0.795" stop-color="#41D552" stop-opacity="0.7"/>
<stop offset="1" stop-color="#A9726B" stop-opacity="0.3"/>
</linearGradient>
<linearGradient id="paint10_linear_187_157" x1="287.242" y1="159.947" x2="459.219" y2="-169.012" gradientUnits="userSpaceOnUse">
<stop stop-color="#CD2B9C"/>
<stop offset="0.28" stop-color="#7431BC"/>
<stop offset="0.555" stop-color="#3896AB" stop-opacity="0.9"/>
<stop offset="0.795" stop-color="#41D552" stop-opacity="0.7"/>
<stop offset="1" stop-color="#A9726B" stop-opacity="0.3"/>
</linearGradient>
<linearGradient id="paint11_linear_187_157" x1="251.976" y1="162.714" x2="394.509" y2="-160.218" gradientUnits="userSpaceOnUse">
<stop stop-color="#CD2B9C"/>
<stop offset="0.28" stop-color="#7431BC"/>
<stop offset="0.555" stop-color="#3896AB" stop-opacity="0.9"/>
<stop offset="0.795" stop-color="#41D552" stop-opacity="0.7"/>
<stop offset="1" stop-color="#A9726B" stop-opacity="0.3"/>
</linearGradient>
<linearGradient id="paint12_linear_187_157" x1="404.145" y1="380.608" x2="735.528" y2="338.589" gradientUnits="userSpaceOnUse">
<stop stop-color="#CD2B9C"/>
<stop offset="0.28" stop-color="#7431BC"/>
<stop offset="0.555" stop-color="#3896AB" stop-opacity="0.9"/>
<stop offset="0.795" stop-color="#41D552" stop-opacity="0.7"/>
<stop offset="1" stop-color="#A9726B" stop-opacity="0.3"/>
</linearGradient>
<linearGradient id="paint13_linear_187_157" x1="389.19" y1="358.045" x2="748.144" y2="304.157" gradientUnits="userSpaceOnUse">
<stop stop-color="#CD2B9C"/>
<stop offset="0.28" stop-color="#7431BC"/>
<stop offset="0.555" stop-color="#3896AB" stop-opacity="0.9"/>
<stop offset="0.795" stop-color="#41D552" stop-opacity="0.7"/>
<stop offset="1" stop-color="#A9726B" stop-opacity="0.3"/>
</linearGradient>
<linearGradient id="paint14_linear_187_157" x1="372.874" y1="337.375" x2="760.69" y2="268.417" gradientUnits="userSpaceOnUse">
<stop stop-color="#CD2B9C"/>
<stop offset="0.28" stop-color="#7431BC"/>
<stop offset="0.555" stop-color="#3896AB" stop-opacity="0.9"/>
<stop offset="0.795" stop-color="#41D552" stop-opacity="0.7"/>
<stop offset="1" stop-color="#A9726B" stop-opacity="0.3"/>
</linearGradient>
<linearGradient id="paint15_linear_187_157" x1="355.122" y1="318.415" x2="772.722" y2="230.425" gradientUnits="userSpaceOnUse">
<stop stop-color="#CD2B9C"/>
<stop offset="0.28" stop-color="#7431BC"/>
<stop offset="0.555" stop-color="#3896AB" stop-opacity="0.9"/>
<stop offset="0.795" stop-color="#41D552" stop-opacity="0.7"/>
<stop offset="1" stop-color="#A9726B" stop-opacity="0.3"/>
</linearGradient>
<linearGradient id="paint16_linear_187_157" x1="335.773" y1="301.062" x2="783.315" y2="189.271" gradientUnits="userSpaceOnUse">
<stop stop-color="#CD2B9C"/>
<stop offset="0.28" stop-color="#7431BC"/>
<stop offset="0.555" stop-color="#3896AB" stop-opacity="0.9"/>
<stop offset="0.795" stop-color="#41D552" stop-opacity="0.7"/>
<stop offset="1" stop-color="#A9726B" stop-opacity="0.3"/>
</linearGradient>
<linearGradient id="paint17_linear_187_157" x1="314.697" y1="285.153" x2="791.215" y2="144.021" gradientUnits="userSpaceOnUse">
<stop stop-color="#CD2B9C"/>
<stop offset="0.28" stop-color="#7431BC"/>
<stop offset="0.555" stop-color="#3896AB" stop-opacity="0.9"/>
<stop offset="0.795" stop-color="#41D552" stop-opacity="0.7"/>
<stop offset="1" stop-color="#A9726B" stop-opacity="0.3"/>
</linearGradient>
<linearGradient id="paint18_linear_187_157" x1="291.723" y1="270.708" x2="794.797" y2="94.1207" gradientUnits="userSpaceOnUse">
<stop stop-color="#CD2B9C"/>
<stop offset="0.28" stop-color="#7431BC"/>
<stop offset="0.555" stop-color="#3896AB" stop-opacity="0.9"/>
<stop offset="0.795" stop-color="#41D552" stop-opacity="0.7"/>
<stop offset="1" stop-color="#A9726B" stop-opacity="0.3"/>
</linearGradient>
<linearGradient id="paint19_linear_187_157" x1="266.693" y1="257.329" x2="791.686" y2="38.7082" gradientUnits="userSpaceOnUse">
<stop stop-color="#CD2B9C"/>
<stop offset="0.28" stop-color="#7431BC"/>
<stop offset="0.555" stop-color="#3896AB" stop-opacity="0.9"/>
<stop offset="0.795" stop-color="#41D552" stop-opacity="0.7"/>
<stop offset="1" stop-color="#A9726B" stop-opacity="0.3"/>
</linearGradient>
<linearGradient id="paint20_linear_187_157" x1="239.421" y1="245.077" x2="779.265" y2="-21.6417" gradientUnits="userSpaceOnUse">
<stop stop-color="#CD2B9C"/>
<stop offset="0.28" stop-color="#7431BC"/>
<stop offset="0.555" stop-color="#3896AB" stop-opacity="0.9"/>
<stop offset="0.795" stop-color="#41D552" stop-opacity="0.7"/>
<stop offset="1" stop-color="#A9726B" stop-opacity="0.3"/>
</linearGradient>
<linearGradient id="paint21_linear_187_157" x1="209.699" y1="233.869" x2="754.671" y2="-85.6035" gradientUnits="userSpaceOnUse">
<stop stop-color="#CD2B9C"/>
<stop offset="0.28" stop-color="#7431BC"/>
<stop offset="0.555" stop-color="#3896AB" stop-opacity="0.9"/>
<stop offset="0.795" stop-color="#41D552" stop-opacity="0.7"/>
<stop offset="1" stop-color="#A9726B" stop-opacity="0.3"/>
</linearGradient>
<linearGradient id="paint22_linear_187_157" x1="177.308" y1="223.602" x2="715.42" y2="-150.654" gradientUnits="userSpaceOnUse">
<stop stop-color="#CD2B9C"/>
<stop offset="0.28" stop-color="#7431BC"/>
<stop offset="0.555" stop-color="#3896AB" stop-opacity="0.9"/>
<stop offset="0.795" stop-color="#41D552" stop-opacity="0.7"/>
<stop offset="1" stop-color="#A9726B" stop-opacity="0.3"/>
</linearGradient>
<linearGradient id="paint23_linear_187_157" x1="142.008" y1="214.235" x2="659.858" y2="-213.161" gradientUnits="userSpaceOnUse">
<stop stop-color="#CD2B9C"/>
<stop offset="0.28" stop-color="#7431BC"/>
<stop offset="0.555" stop-color="#3896AB" stop-opacity="0.9"/>
<stop offset="0.795" stop-color="#41D552" stop-opacity="0.7"/>
<stop offset="1" stop-color="#A9726B" stop-opacity="0.3"/>
</linearGradient>
</defs>
</svg>
