<svg width="401" height="279" viewBox="0 0 401 279" fill="none" xmlns="http://www.w3.org/2000/svg">
<mask id="mask0_70_1471" style="mask-type:luminance" maskUnits="userSpaceOnUse" x="0" y="0" width="401" height="279">
<path d="M400.5 0H0.5V278.302H400.5V0Z" fill="white"/>
</mask>
<g mask="url(#mask0_70_1471)">
<path d="M60.5537 274.665L129.127 140.833L129.976 139.175L129.127 137.517L60.5528 3.63574H65.8216L135.245 139.174L65.8219 274.665H60.5537Z" fill="#4783B5" stroke="#4783B5" stroke-width="4"/>
<path d="M33.5186 274.665L101.904 140.829L102.75 139.175L101.905 137.521L33.5177 3.63574H38.7911L108.023 139.174L38.7915 274.665H33.5186Z" fill="#B6D191" stroke="#B6D191" stroke-width="4"/>
<path d="M6.44171 274.665L74.8274 140.829L75.6728 139.175L74.8277 137.521L6.44077 3.63574H11.7142L80.9459 139.174L11.7146 274.665H6.44171Z" fill="#FBBD99" stroke="#FBBD99" stroke-width="4"/>
<path d="M343.631 108.75V3.63574H348.469V274.665H343.631V169.206V165.569H339.994H231.096H227.46V169.206V274.665H222.622V3.63574H227.46V108.75V112.386H231.096H339.994H343.631V108.75ZM339.994 136.559H343.631V132.922V120.812V117.175H339.994H231.096H227.46V120.812V132.922V136.559H231.096H339.994ZM339.994 160.78H343.631V157.144V145.033V141.397H339.994H231.096H227.46V145.033V157.144V160.78H231.096H339.994ZM150.007 3.63574H154.845V274.665H150.007V3.63574ZM174.228 3.63574H179.066V274.665H174.228V3.63574ZM198.4 3.63574H203.238V274.665H198.4V3.63574ZM367.803 3.63574H372.642V274.665H367.803V3.63574ZM392.025 3.63574H396.863V274.665H392.025V3.63574Z" fill="white" stroke="white" stroke-width="4"/>
</g>
</svg>
