<svg width="193" height="37" viewBox="0 0 193 37" fill="none" xmlns="http://www.w3.org/2000/svg">
<g clip-path="url(#clip0_70_1263)">
<path d="M51.316 36.192C47.6945 36.192 44.6566 30.0725 41.6955 24.107C40.1915 20.6619 38.2741 17.4126 35.9853 14.4305C32.8414 11.0057 31.38 14.7278 29.8329 18.6696C28.6675 21.6385 27.4628 24.7089 25.477 25.1695C22.6713 25.8209 21.3069 20.4577 19.9854 15.2717C18.8611 10.8633 17.6986 6.30526 15.6616 5.38423C10.9194 3.2406 3.1353 12.3236 0.208346 27.2496L0 27.0379C2.43796 14.6069 9.83115 2.21837 15.7058 4.87514C17.8441 5.8416 19.0327 10.5031 20.1823 15.0113C21.5273 20.2875 22.8021 25.2621 25.4533 24.653C27.3511 24.213 28.526 21.2186 29.6621 18.3234C31.2682 14.2318 32.7854 10.3687 36.0837 13.9622C38.3948 16.9674 40.3299 20.2437 41.8462 23.7184C45.6745 31.4284 49.6326 39.4052 54.7868 33.7512L54.8858 34.2197C54.4641 34.7822 53.9279 35.2489 53.3125 35.5889C52.6971 35.9289 52.0166 36.1344 51.316 36.192Z" fill="white"/>
<path d="M50.52 34.7661C47.1565 34.7669 44.3355 28.9034 41.5852 23.1874C40.1946 19.8971 38.4147 16.7851 36.2835 13.9183C33.3663 10.6401 32.0098 14.2037 30.5743 17.9786C29.4922 20.8232 28.373 23.7642 26.5281 24.2064C23.925 24.8275 22.654 19.6921 21.4265 14.7234C20.3824 10.5007 19.3032 6.13391 17.4128 5.2526C13.0102 3.1953 5.78421 11.9011 3.0662 26.1985L2.86832 26.004C5.13218 14.0955 11.9974 2.22373 17.4554 4.77228C19.4422 5.69842 20.5458 10.1648 21.6135 14.4832C22.8622 19.536 24.0403 24.317 26.5055 23.7189C28.2655 23.2974 29.3566 20.4302 30.4113 17.6576C31.9033 13.7366 33.3129 10.0328 36.3786 13.4789C38.5309 16.3686 40.3276 19.5069 41.73 22.8259C45.2837 30.2108 48.9586 37.8488 53.7408 32.4364L53.8368 32.8755C53.4526 33.4106 52.9573 33.8566 52.3848 34.1828C51.8124 34.5091 51.1763 34.708 50.52 34.7661Z" fill="white"/>
<path d="M49.7817 33.4006C46.6575 33.4006 44.0372 27.783 41.4826 22.3074C40.1965 19.1642 38.544 16.1838 36.5594 13.428C33.8535 10.2901 32.5951 13.7027 31.2625 17.3167C30.2576 20.0418 29.2184 22.8604 27.5039 23.2843C25.0837 23.8837 23.9039 18.96 22.7635 14.1994C21.7943 10.1539 20.7921 5.97024 19.0374 5.12592C14.9486 3.16221 8.2424 11.4953 5.71858 25.1924L5.5314 25.014C7.63353 13.6045 14.0103 2.23357 19.0794 4.67391C20.9256 5.56223 21.9504 9.84082 22.9418 13.9779C24.1013 18.8179 25.1977 23.3925 27.4819 22.8245C29.1154 22.421 30.1278 19.6748 31.1071 17.0191C32.4925 13.2612 33.8018 9.71084 36.6516 13.0158C38.6561 15.7939 40.3244 18.7997 41.6215 21.9704C44.921 29.0428 48.3325 36.3571 52.7712 31.1764L52.8638 31.5872C52.514 32.0966 52.0568 32.5231 51.5243 32.8365C50.9917 33.1497 50.3968 33.3423 49.7817 33.4006Z" fill="white"/>
<path d="M49.0958 32.0923C46.1942 32.0923 43.7601 26.71 41.3879 21.4635C40.1986 18.4609 38.6647 15.6064 36.817 12.9575C34.3069 9.95289 33.1387 13.2217 31.9021 16.6826C30.9686 19.2942 30.0035 21.9943 28.41 22.4008C26.162 22.9749 25.0647 18.2576 24.0063 13.6971C23.1062 9.82113 22.1749 5.81356 20.5472 5.00539C16.7537 3.11909 10.5262 11.1093 8.18254 24.2288L8.00476 24.0642C9.95765 13.1344 15.8801 2.24028 20.588 4.57906C22.3029 5.43088 23.2549 9.52942 24.1752 13.4933C25.2518 18.1288 26.2681 22.5088 28.3888 21.9675C29.9042 21.5812 30.8443 18.9512 31.7534 16.4072C33.0407 12.804 34.257 9.40146 36.9059 12.5715C38.7722 15.2424 40.3211 18.1215 41.5213 21.1509C44.5842 27.9243 47.7504 34.9293 51.8705 29.9691L51.96 30.354C51.642 30.8386 51.2199 31.2462 50.7244 31.5469C50.2288 31.8476 49.6724 32.0339 49.0958 32.0923Z" fill="white"/>
<path d="M48.4587 30.8392C45.7627 30.8392 43.5028 25.6819 41.2998 20.6543C40.1995 17.7859 38.7756 15.0523 37.0559 12.5066C34.7264 9.63196 33.693 12.6183 32.4955 16.0741C31.6286 18.5764 30.7325 21.1638 29.2514 21.5536C27.1584 22.1125 26.1434 17.585 25.1598 13.215C24.3241 9.5021 23.4593 5.66364 21.949 4.88924C18.429 3.08559 12.6455 10.7367 10.4694 23.3051L10.3016 23.1545C12.1147 12.6825 17.6151 2.24971 21.9887 4.488C23.5822 5.30426 24.4658 9.23061 25.3205 13.0276C26.32 17.4692 27.2672 21.6631 29.2306 21.1452C30.6368 20.7756 31.5093 18.2555 32.3534 15.8201C33.5498 12.3672 34.6794 9.10551 37.1415 12.1454C38.8793 14.7122 40.3174 17.4696 41.4273 20.3639C44.2708 26.8523 47.2109 33.5598 51.0337 28.8115L51.1201 29.1724C50.8311 29.6331 50.4417 30.0224 49.9807 30.3111C49.5198 30.5999 48.9995 30.7804 48.4587 30.8392Z" fill="white"/>
<path d="M47.8675 29.64C45.3631 29.6407 43.2642 24.6985 41.2179 19.881C40.1999 17.1404 38.8783 14.5224 37.2777 12.076C35.119 9.32892 34.1583 12.1842 33.0468 15.4943C32.2416 17.8917 31.409 20.3708 30.0333 20.7444C28.0891 21.2789 27.1452 16.9424 26.2314 12.7553C25.4553 9.19835 24.6531 5.52054 23.2509 4.78004C19.9813 3.0544 14.6148 10.3836 12.5941 22.4229L12.4348 22.2844C14.1184 12.2528 19.2271 2.25848 23.2888 4.40164C24.7695 5.18377 25.5902 8.94541 26.3836 12.5825C27.3118 16.836 28.1863 20.8565 30.0126 20.359C31.317 20.005 32.1276 17.5922 32.911 15.2589C34.0224 11.9495 35.0717 8.82257 37.3606 11.7379C38.9783 14.2049 40.3134 16.8461 41.3404 19.6115C43.9804 25.8257 46.7105 32.251 50.2575 27.7043L50.3408 28.0423C50.0785 28.4802 49.7191 28.8521 49.2903 29.1292C48.8614 29.4063 48.3747 29.581 47.8675 29.64Z" fill="white"/>
<path d="M47.3183 28.4906C44.9924 28.4906 43.043 23.7557 41.1427 19.1409C40.2007 16.522 38.9736 14.0146 37.4835 11.6639C35.48 9.03079 34.5893 11.7697 33.558 14.9377C32.81 17.2346 32.037 19.6101 30.7581 19.968C28.952 20.4724 28.0745 16.3261 27.2262 12.3145C26.5055 8.90699 25.7605 5.38283 24.4589 4.67419C21.4265 3.01765 16.4417 10.0423 14.566 21.5755L14.4153 21.4479C15.9788 11.8372 20.7237 2.26347 24.4964 4.31791C25.8721 5.06817 26.6343 8.67118 27.3713 12.1561C28.2328 16.2302 29.0522 20.0741 30.7382 19.605C31.9488 19.2661 32.7012 16.9541 33.429 14.7192C34.4606 11.5475 35.4369 8.55071 37.5638 11.3461C39.0696 13.7171 40.3092 16.247 41.2598 18.8901C43.7104 24.8414 46.2425 30.9931 49.536 26.642L49.6165 26.9581C49.3791 27.3747 49.0477 27.7301 48.6487 27.9962C48.2497 28.2623 47.7943 28.4316 47.3183 28.4906Z" fill="white"/>
<path d="M46.8086 27.3895C44.6472 27.3901 42.8367 22.8527 41.0719 18.4312C40.2001 15.9285 39.0611 13.5272 37.6746 11.2688C35.8164 8.74993 34.9897 11.3705 34.0324 14.4045C33.338 16.6053 32.6201 18.8816 31.4315 19.2251C29.7569 19.7043 28.938 15.7366 28.15 11.8925C27.4808 8.62816 26.7892 5.25277 25.5814 4.57314C22.7655 2.99152 18.139 9.71769 16.3973 20.7651L16.2546 20.6488C17.7066 11.4423 22.1113 2.26647 25.618 4.23803C26.896 4.95689 27.6039 8.40864 28.2875 11.7468C29.0876 15.6498 29.8427 19.3422 31.4127 18.8827C32.5356 18.5579 33.2343 16.344 33.91 14.2033C34.8272 11.2968 35.7742 8.29091 37.7527 10.9717C39.1541 13.2497 40.3047 15.6727 41.1849 18.1982C43.4598 23.8992 45.8126 29.7915 48.8671 25.6249L48.9449 25.9205C48.1922 26.9472 47.483 27.3895 46.8086 27.3895Z" fill="white"/>
<path d="M46.335 26.3347C44.3275 26.3354 42.646 21.9882 41.0074 17.7508C40.2008 15.3588 39.1435 13.0588 37.8532 10.8892C36.1289 8.47969 35.3625 10.9883 34.4738 13.8942C33.829 16.0026 33.1625 18.1825 32.058 18.512C30.4947 18.9791 29.7404 15.1695 29.0092 11.4877C28.3876 8.36018 27.7453 5.12642 26.6246 4.47593C24.01 2.95947 19.7154 9.40464 18.0981 19.9887L17.9633 19.8817C19.3109 11.0614 23.4047 2.27093 26.6597 4.16115C27.8469 4.85029 28.5038 8.15683 29.139 11.3543C29.8816 15.0927 30.5839 18.6216 32.0394 18.1895C33.0807 17.8791 33.7293 15.7589 34.3566 13.7083C35.2085 10.9232 36.0886 8.04112 37.9278 10.6127C39.2324 12.801 40.3007 15.1216 41.1149 17.5356C43.2267 22.9947 45.411 28.6413 48.2452 24.6496L48.3206 24.9267C47.6208 25.9101 46.962 26.3347 46.335 26.3347Z" fill="white"/>
<path d="M45.8953 25.3247C44.0306 25.3253 42.4689 21.1602 40.9469 17.1009C40.2001 14.8143 39.2183 12.6113 38.0175 10.5271C36.4188 8.22103 35.7069 10.6249 34.8826 13.4059C34.284 15.4264 33.6644 17.5153 32.6382 17.8306C31.1835 18.2764 30.4844 14.6292 29.8055 11.1016C29.2285 8.10484 28.6316 5.00689 27.5916 4.3847C25.1656 2.92842 21.178 9.10709 19.6766 19.2456L19.5489 19.1472C20.7999 10.6967 24.603 2.28067 27.626 4.088C28.7292 4.748 29.3394 7.91564 29.9292 10.9784C30.6189 14.5601 31.2688 17.9425 32.6203 17.5268C33.5867 17.2295 34.1889 15.1987 34.7714 13.2338C35.5625 10.5641 36.3798 7.80172 38.0899 10.2677C39.3037 12.3701 40.2955 14.593 41.0493 16.9007C43.01 22.1298 45.0379 27.5345 47.6673 23.716L47.74 23.9744C47.0901 24.918 46.4777 25.3247 45.8953 25.3247Z" fill="white"/>
<path d="M45.4869 24.3572C43.7547 24.3572 42.3045 20.3669 40.891 16.4769C40.1997 14.2915 39.2884 12.1819 38.1712 10.1805C36.6898 7.9742 36.028 10.2742 35.2627 12.9378C34.7063 14.8738 34.1315 16.875 33.1773 17.1778C31.8263 17.6075 31.1761 14.1107 30.5457 10.7316C30.0095 7.86028 29.4553 4.89182 28.4902 4.29616C26.2368 2.90243 22.5365 8.82102 21.1422 18.5329L21.0215 18.4428C22.0461 11.3051 25.4773 2.13504 28.5236 4.01658C29.5482 4.64982 30.1147 7.6838 30.6624 10.6185C31.3027 14.0479 31.9062 17.2954 33.1597 16.8912C34.0565 16.607 34.6155 14.6612 35.156 12.7797C35.8918 10.2209 36.6525 7.5763 38.2405 9.93815C39.37 11.9575 40.2908 14.0866 40.9885 16.2927C42.808 21.3 44.6902 26.4772 47.1313 22.8214L47.2013 23.0629C46.5975 23.9672 46.0285 24.3572 45.4869 24.3572Z" fill="white"/>
<path d="M45.108 23.4308C43.4989 23.4308 42.1517 19.6075 40.8388 15.8805C40.1987 13.7911 39.3528 11.7704 38.3134 9.84825C37.8557 9.14603 37.4597 8.88691 37.1037 9.05732C36.4897 9.34962 36.065 10.8752 35.6153 12.4898C35.0986 14.3442 34.5647 16.2619 33.6783 16.5518C32.4237 16.9555 31.8184 13.6145 31.233 10.3768C30.7352 7.62636 30.2206 4.78278 29.3247 4.21208C28.1203 3.44422 26.6948 4.67789 25.3088 7.68452C23.9116 10.9285 22.9675 14.3494 22.503 17.8508L22.389 17.7689C23.3404 10.931 26.5286 2.14575 29.3568 3.94987C30.3092 4.55576 30.8352 7.46214 31.3436 10.2733C31.9382 13.5596 32.5022 16.6558 33.6612 16.2821C34.4929 16.0095 35.0124 14.1466 35.5141 12.3442C35.9779 10.6794 36.4158 9.10595 37.0798 8.79022C37.4679 8.60317 37.8947 8.87656 38.3806 9.62266C39.4314 11.5621 40.2863 13.6014 40.9326 15.7104C42.622 20.5061 44.3683 25.4656 46.6339 21.9644L46.7014 22.1903C46.1398 23.0568 45.6112 23.4308 45.108 23.4308Z" fill="white"/>
<path d="M44.7562 22.5428C43.2615 22.5436 42.0103 18.8801 40.7911 15.3084C40.1984 13.3111 39.413 11.376 38.4457 9.53064C38.0246 8.86291 37.6616 8.61425 37.3303 8.77016C36.7575 9.04213 36.3615 10.5086 35.9426 12.0612C35.4629 13.8382 34.9675 15.6751 34.1435 15.9531C32.9787 16.3513 32.4153 13.1397 31.8713 10.0372C31.4091 7.40211 30.9312 4.67756 30.0994 4.13161C28.9816 3.3955 27.6584 4.57815 26.3722 7.45694C25.0727 10.573 24.1964 13.849 23.7668 17.1977L23.6589 17.1223C24.5422 10.5706 27.5038 2.15827 30.1308 3.88414C31.0157 4.46494 31.5038 7.24954 31.9761 9.94175C32.5282 13.0898 33.0501 16.0608 34.1267 15.6986C34.8981 15.4382 35.38 13.6532 35.846 11.9265C36.2787 10.3255 36.6866 8.81332 37.3074 8.51805C37.6686 8.34752 38.0615 8.60831 38.5104 9.31909C39.4882 11.1813 40.2818 13.1346 40.88 15.151C42.4487 19.7438 44.0707 24.4919 46.1719 21.1425L46.2367 21.353C45.7151 22.1846 45.2235 22.5428 44.7562 22.5428Z" fill="white"/>
<path d="M44.4297 21.6929C43.0408 21.6929 41.8791 18.1824 40.7461 14.7608C40.197 12.8509 39.4679 10.9976 38.5685 9.22557C38.1795 8.59031 37.8439 8.35211 37.5403 8.49458C37.0061 8.74823 36.6373 10.1575 36.2469 11.6501C35.8016 13.3519 35.3408 15.1124 34.5752 15.3789C33.4937 15.7612 32.9698 12.6831 32.4638 9.71136C32.0347 7.18718 31.5911 4.57656 30.8193 4.05367C29.7827 3.35276 28.5545 4.48178 27.3603 7.23951C26.1513 10.2318 25.3381 13.369 24.9409 16.5716L24.8387 16.5026C25.2402 13.2651 26.0623 10.0938 27.284 7.06898C28.5074 4.24406 29.7739 3.09185 30.8496 3.82083C31.6717 4.37796 32.1251 7.0446 32.5633 9.62407C33.0761 12.6395 33.5656 15.484 34.5589 15.1396C35.2752 14.8899 35.7224 13.18 36.1554 11.5258C36.5581 9.98665 36.9383 8.53239 37.5185 8.2571C37.8523 8.10119 38.2162 8.3508 38.6308 9.0284C39.5407 10.8164 40.2777 12.6873 40.8317 14.6155C42.2876 19.013 43.7928 23.5629 45.7431 20.3555L45.8055 20.5518C45.3209 21.3493 44.8647 21.6924 44.4297 21.6929Z" fill="white"/>
<path d="M44.1298 20.8751C44.0409 20.8748 43.9527 20.8597 43.8689 20.8301C42.6906 20.4258 41.6808 17.2796 40.7051 14.2374C40.1968 12.4107 39.52 10.6352 38.6834 8.93363C38.3249 8.3294 38.0157 8.09941 37.7351 8.232C37.2368 8.46782 36.8931 9.82219 36.5292 11.2566C36.1157 12.8877 35.6879 14.5737 34.9764 14.8299C33.9682 15.1895 33.4836 12.2474 33.0143 9.40015C32.616 6.98181 32.2037 4.48118 31.4878 3.9803C30.9143 3.57871 30.2867 3.79086 29.6208 4.61057C27.5971 8.08523 26.3704 11.9661 26.0294 15.9727L25.9328 15.9089C26.2784 11.8531 27.5217 7.92478 29.5725 4.40852C30.2622 3.55873 30.9162 3.34158 31.5165 3.76137C32.28 4.29519 32.7006 6.84922 33.1076 9.31928C33.5833 12.2075 34.0327 14.9469 34.9595 14.6028C35.6238 14.3643 36.0393 12.7264 36.4411 11.1423C36.8164 9.66236 37.1709 8.26447 37.7135 8.00784C38.0227 7.86205 38.3588 8.10464 38.7422 8.75037C39.5883 10.467 40.2723 12.2588 40.7858 14.1026C41.7496 17.1064 42.7464 20.2135 43.8832 20.604C44.3698 20.7711 44.8475 20.4418 45.3444 19.5999L45.4038 19.7833C44.9738 20.515 44.5545 20.8751 44.1298 20.8751Z" fill="white"/>
<path d="M43.8478 20.0956C43.7678 20.0952 43.6884 20.0815 43.6131 20.0551C42.5148 19.6785 41.5755 16.6574 40.6668 13.736C40.1959 11.989 39.5673 10.2884 38.7888 8.6551C38.4585 8.08001 38.1716 7.85834 37.9148 7.98131C37.4496 8.19988 37.1299 9.50216 36.7905 10.8807C36.4069 12.4431 36.0095 14.0584 35.3483 14.3037C34.4117 14.6525 33.9612 11.8302 33.5253 9.10235C33.451 7.28652 32.9664 5.51111 32.1078 3.9094C31.588 3.53457 31.0197 3.72068 30.4174 4.46119C28.4982 7.81311 27.3454 11.5486 27.0417 15.3991L26.9504 15.341C27.2584 11.4435 28.4273 7.66286 30.3725 4.27151C30.998 3.50199 31.5914 3.30981 32.1363 3.70391C33.0369 5.33961 33.5429 7.16295 33.6144 9.02874C34.0566 11.7955 34.4786 14.4111 35.3329 14.0904C35.9492 13.8621 36.3351 12.2928 36.7077 10.7753C37.058 9.35256 37.3884 8.00854 37.8954 7.76975C38.1826 7.63442 38.4927 7.86821 38.8468 8.48326C39.6342 10.1312 40.2694 11.8475 40.7446 13.6109C41.6415 16.4958 42.5692 19.4784 43.6275 19.8413C44.0754 19.9946 44.5168 19.6796 44.9754 18.8773L45.0331 19.0484C44.6323 19.7502 44.2424 20.0952 43.8478 20.0956Z" fill="white"/>
<path d="M43.5862 19.3472L43.3748 19.3115C42.3515 18.961 41.4768 16.0597 40.6312 13.2542C40.1949 11.5835 39.6113 9.95485 38.8874 8.38723C38.5829 7.8402 38.3204 7.62817 38.0813 7.73948C37.6478 7.94307 37.3496 9.19445 37.0337 10.5194C36.677 12.016 36.3083 13.5638 35.6941 13.7988L35.5505 13.8268C34.7756 13.8268 34.3817 11.282 33.9998 8.81593C33.9325 7.08107 33.4831 5.38243 32.684 3.8412C32.2131 3.4911 31.6989 3.65212 31.1541 4.32187C29.3342 7.55426 28.2508 11.1488 27.9813 14.8485L27.895 14.7953C28.1682 11.0507 29.2667 7.41293 31.1117 4.14289C31.6791 3.44603 32.2177 3.2799 32.7116 3.6476C33.5503 5.22158 34.0197 6.96582 34.0842 8.74815C34.4948 11.3986 34.8825 13.9076 35.6789 13.598C36.2498 13.3792 36.6084 11.8758 36.9552 10.4219C37.2812 9.05437 37.5892 7.76243 38.0633 7.53981C38.3289 7.41935 38.6161 7.64066 38.9433 8.22716C39.6752 9.80868 40.2648 11.4523 40.7049 13.1385C41.5402 15.9084 42.4035 18.7722 43.3882 19.1094C43.8017 19.2509 44.2087 18.9491 44.6322 18.1846L44.6876 18.344C44.3153 19.0163 43.9527 19.3472 43.5862 19.3472Z" fill="white"/>
<path d="M43.3425 18.6314L43.1523 18.599C42.199 18.2736 41.3848 15.4878 40.5976 12.7934C40.1933 11.1958 39.6516 9.63614 38.9787 8.13181C38.6977 7.61083 38.4554 7.40641 38.2354 7.50975C37.8311 7.69824 37.5536 8.9011 37.2592 10.1744C36.9279 11.6081 36.5857 13.0907 36.0143 13.3163C35.2027 13.638 34.816 11.0472 34.4403 8.54292C34.379 6.8852 33.9624 5.25997 33.2185 3.77724C32.7917 3.44914 32.326 3.59018 31.8336 4.19429C30.1086 7.31065 29.0911 10.7685 28.853 14.3224L28.7715 14.2734C29.0132 10.6767 30.045 7.17765 31.7934 4.0253C32.3076 3.39503 32.7965 3.25233 33.2454 3.5947C34.0263 5.10919 34.4617 6.77792 34.5204 8.48084C34.9009 11.02 35.2621 13.4272 35.9996 13.1268C36.53 12.9177 36.8626 11.4776 37.1842 10.0849C37.4882 8.77041 37.7749 7.52818 38.218 7.32186C38.4625 7.20888 38.7294 7.42306 39.0317 7.98245C39.7124 9.50029 40.2596 11.0745 40.6673 12.6872C41.4444 15.3465 42.2479 18.096 43.1646 18.4089C43.5451 18.5409 43.9218 18.2486 44.3122 17.5216L44.3654 17.6702C44.0204 18.3148 43.684 18.6314 43.3425 18.6314Z" fill="white"/>
<path d="M43.1173 17.9454L42.9461 17.9163C42.0579 17.6139 41.3002 14.9395 40.5677 12.3523C40.1931 10.8237 39.6904 9.32947 39.0646 7.88538C38.8052 7.39008 38.5806 7.1966 38.3791 7.289C38.002 7.46322 37.7434 8.61947 37.4694 9.84338C37.1619 11.2168 36.8439 12.6373 36.3131 12.8535C35.557 13.1634 35.1994 10.679 34.8504 8.28055C34.7943 6.69623 34.408 5.14109 33.716 3.71477C33.3297 3.40903 32.9086 3.52973 32.4628 4.07533C30.8403 7.08388 29.8854 10.4068 29.6631 13.8178L29.5861 13.7728C29.7993 10.319 30.7683 6.95412 32.4249 3.91598C32.8909 3.34696 33.3341 3.2215 33.742 3.54389C34.4688 5.00078 34.8727 6.5974 34.9257 8.22465C35.2795 10.6562 35.6111 12.9531 36.2989 12.6754C36.791 12.4755 37.0999 11.0956 37.3985 9.76121C37.6812 8.49769 37.9486 7.30398 38.3632 7.11217C38.5901 7.00692 38.8362 7.21503 39.1157 7.74779C39.7485 9.20447 40.2566 10.7122 40.6346 12.2548C41.3575 14.8075 42.105 17.4477 42.958 17.7379C43.3104 17.8553 43.6566 17.579 44.0169 16.8861L44.0684 17.0244C43.7468 17.6417 43.4342 17.9454 43.1173 17.9454Z" fill="white"/>
<path d="M42.9077 17.2887L42.754 17.2627C41.9262 16.9822 41.2213 14.4141 40.5395 11.9304C40.1924 10.4681 39.7255 9.03682 39.1435 7.65114C38.9042 7.17963 38.6968 6.99114 38.5113 7.07843C38.1597 7.2398 37.9188 8.35086 37.6637 9.52685C37.3783 10.8425 37.0832 12.2032 36.5899 12.4106C35.8899 12.7026 35.5553 10.3282 35.2308 8.03061C35.1799 6.51597 34.8215 5.02749 34.1775 3.6557C33.828 3.3703 33.4465 3.47471 33.0431 3.96561C31.507 6.86479 30.6108 10.0598 30.415 13.3349L30.3423 13.2936C30.5409 9.97956 31.4499 6.74699 33.0074 3.81505C33.43 3.2999 33.8317 3.19156 34.2026 3.4954C34.8791 4.89601 35.2537 6.42323 35.3017 7.97793C35.6158 10.2055 35.9404 12.5102 36.5756 12.2422C37.0321 12.0508 37.3188 10.7291 37.5959 9.45146C37.8598 8.2367 38.1086 7.08889 38.4958 6.91099C38.7069 6.81324 38.9347 7.01386 39.1924 7.52164C39.7806 8.91993 40.2524 10.3644 40.6029 11.8404C41.2757 14.2909 41.9712 16.8246 42.7647 17.094C43.088 17.2035 43.4093 16.9365 43.7422 16.2765L43.7916 16.4051C43.4931 16.9972 43.2024 17.2887 42.9077 17.2887Z" fill="white"/>
<path d="M42.713 16.6595L42.5751 16.6357C41.8039 16.3759 41.1474 13.9099 40.513 11.5251C40.1913 10.1263 39.7579 8.75563 39.2168 7.4262C38.9967 6.978 38.8059 6.79736 38.6341 6.87656C38.3069 7.02604 38.0822 8.09298 37.8443 9.22283C37.5791 10.4834 37.3052 11.7866 36.8466 11.9859C36.1945 12.2677 35.8844 9.9914 35.5835 7.79021C35.5373 6.34232 35.2051 4.91788 34.606 3.59892C34.2897 3.33171 33.9444 3.42054 33.58 3.86351C32.1261 6.65628 31.2854 9.72728 31.114 12.8711L31.0453 12.8339C31.2192 9.65262 32.0722 6.5454 33.5466 3.72105C33.9298 3.25655 34.2946 3.16427 34.6307 3.44753C35.2605 4.79459 35.6079 6.25629 35.6515 7.74265C35.943 9.87712 36.2461 12.0797 36.8334 11.8274C37.2567 11.644 37.5231 10.3782 37.7804 9.15326C38.0263 7.98619 38.2583 6.8837 38.6204 6.71864C38.8156 6.63064 39.0258 6.8215 39.2641 7.30598C39.8112 8.64697 40.2492 10.0299 40.5737 11.4414C41.1998 13.7948 41.8468 16.2277 42.5856 16.4767C42.8838 16.5797 43.1802 16.321 43.4873 15.6926L43.5349 15.8127C43.2571 16.3805 42.9871 16.6595 42.713 16.6595Z" fill="white"/>
<path d="M42.5319 16.0567L42.4086 16.036C41.6895 15.7961 41.0796 13.4279 40.4885 11.1385C40.1904 9.79962 39.788 8.48619 39.2849 7.2102C39.0818 6.78436 38.9064 6.61109 38.7478 6.68351C38.4426 6.82122 38.2333 7.84654 38.0121 8.93239C37.7658 10.14 37.5112 11.389 37.0846 11.5794C36.4797 11.8446 36.1907 9.66885 35.9114 7.56066C35.8692 6.17613 35.5609 4.81266 35.0035 3.54465C34.717 3.29397 34.4043 3.36948 34.0753 3.76928C32.6996 6.45902 31.911 9.41041 31.762 12.4279L31.6969 12.3936C31.8486 9.34052 32.6484 6.35467 34.0435 3.63467C34.3906 3.21453 34.7224 3.1364 35.0273 3.4023C35.6137 4.69716 35.9359 6.09598 35.9752 7.5169C36.2462 9.5604 36.525 11.6699 37.0716 11.4304C37.4641 11.2548 37.7119 10.0418 37.9509 8.86865C38.1796 7.74689 38.3959 6.68708 38.7343 6.53415C38.9135 6.45198 39.1096 6.63702 39.3297 7.09913C39.8386 8.38593 40.2453 9.71077 40.5461 11.0614C41.1288 13.32 41.7312 15.6552 42.4179 15.8852C42.6946 15.9766 42.9669 15.7313 43.2504 15.1332L43.2957 15.2445C43.0381 15.7894 42.787 16.0567 42.5319 16.0567Z" fill="white"/>
<path d="M42.3646 15.4787L42.254 15.4607C41.5843 15.2381 41.016 12.9656 40.4666 10.7682C40.1901 9.48716 39.8163 8.22914 39.3482 7.0051C39.1609 6.59875 38.9992 6.43309 38.8529 6.49909C38.5684 6.62598 38.3737 7.6117 38.1675 8.65462C37.9393 9.81158 37.7028 11.0077 37.3068 11.1903C36.7451 11.4495 36.4877 9.45411 36.2165 7.34045C36.1778 6.01657 35.8918 4.7116 35.3733 3.49282C35.1139 3.25939 34.8306 3.32372 34.5329 3.68309C33.2322 6.27331 32.4931 9.10892 32.3636 12.0044L32.3024 11.9733C32.4505 9.04622 33.1998 6.18102 34.5037 3.55621C34.8187 3.17662 35.1191 3.11062 35.3962 3.35964C35.9421 4.60403 36.2411 5.94257 36.2768 7.30097C36.5283 9.25861 36.7843 11.2847 37.2945 11.0505C37.6587 10.8823 37.8883 9.72037 38.1102 8.59635C38.3231 7.51859 38.5244 6.5004 38.8407 6.35901C39.0081 6.28492 39.1887 6.46187 39.3917 6.90128C39.8647 8.13594 40.2425 9.40503 40.5215 10.6974C41.0635 12.8654 41.6242 15.1069 42.2629 15.3197C42.5189 15.4036 42.769 15.1682 43.0308 14.5981L43.0745 14.7012C42.8346 15.2226 42.6015 15.4787 42.3646 15.4787Z" fill="white"/>
<path d="M42.2087 14.9263L42.1095 14.9096C41.4858 14.7036 40.9572 12.5217 40.4457 10.4122C40.1893 9.18641 39.8423 7.98132 39.4077 6.80683C39.2346 6.42153 39.0875 6.26182 38.9504 6.32176C38.6858 6.43913 38.5042 7.38596 38.3121 8.38833C38.0997 9.49618 37.8804 10.642 37.5127 10.8171C36.9894 11.0647 36.751 9.15417 36.4995 7.12993C36.4643 5.86374 36.1989 4.61456 35.7163 3.44344C35.4814 3.22487 35.2254 3.2791 34.9564 3.60137C33.7266 6.09505 33.0339 8.81904 32.9229 11.5972L32.8647 11.5681C32.9941 8.76013 33.6963 6.00827 34.9281 3.48162C35.2135 3.13925 35.4863 3.08383 35.7383 3.31787C36.2464 4.51348 36.5237 5.79438 36.5558 7.09307C36.7892 8.96782 37.0285 10.9125 37.4998 10.6844C37.8376 10.5234 38.0508 9.41044 38.2571 8.33375C38.4557 7.29796 38.643 6.31962 38.9391 6.18869C39.0946 6.11793 39.2602 6.29048 39.4487 6.71039C39.8884 7.89462 40.2388 9.11008 40.4973 10.3466C41.0018 12.4269 41.5228 14.5791 42.1175 14.7753C42.3536 14.8542 42.5846 14.6261 42.8263 14.0836L42.8682 14.18C42.646 14.6807 42.4288 14.9263 42.2087 14.9263Z" fill="white"/>
<path d="M42.0642 14.3964L41.9756 14.3821C41.3941 14.1919 40.9019 12.0973 40.4262 10.0718C40.1884 8.89895 39.8662 7.74479 39.4624 6.61826C39.3024 6.25056 39.1651 6.0993 39.0408 6.15281C38.794 6.26067 38.6246 7.17064 38.4462 8.13305C38.2494 9.19464 38.0454 10.292 37.7036 10.4601C37.2194 10.7047 36.996 8.86749 36.7622 6.92816C36.7299 5.71718 36.4836 4.52147 36.0348 3.39627C35.8221 3.19268 35.5908 3.23656 35.3476 3.52708C34.1852 5.92716 33.5363 8.54334 33.4422 11.2084L33.3874 11.182C33.4677 8.48377 34.1272 5.83433 35.3215 3.4134C35.58 3.10528 35.8272 3.05961 36.0562 3.27878C36.5289 4.42706 36.7864 5.65249 36.8157 6.89392C37.0324 8.69126 37.2583 10.5447 37.6914 10.3352C38.005 10.1813 38.2027 9.11437 38.3945 8.08334C38.5794 7.08811 38.7539 6.14806 39.0301 6.02723C39.1746 5.96504 39.3283 6.12843 39.5018 6.5286C39.9104 7.66429 40.2358 8.82821 40.4754 10.0111C40.9445 12.009 41.4299 14.0746 41.9833 14.2552C42.2005 14.3293 42.4141 14.1094 42.6374 13.5919L42.6773 13.6812C42.4703 14.1616 42.2688 14.3964 42.0642 14.3964Z" fill="white"/>
<path d="M41.9298 13.8885L41.8504 13.876C41.309 13.7007 40.8509 11.6897 40.4082 9.7456C40.1881 8.62308 39.889 7.51749 39.5133 6.43703C39.3662 6.08765 39.2412 5.93912 39.1248 5.99049C38.8948 6.08991 38.7375 6.96373 38.5711 7.88891C38.3882 8.90543 38.1988 9.9568 37.8813 10.1178C37.4306 10.3445 37.2236 8.59256 37.0059 6.73397C36.9764 5.5757 36.7482 4.43111 36.3311 3.35014C36.138 3.16105 35.9288 3.19625 35.709 3.45716C34.6326 5.77439 34.0263 8.282 33.9252 10.835L33.8732 10.8112C33.9384 8.22366 34.5558 5.67991 35.6842 3.35037C35.9189 3.07198 36.1432 3.03548 36.352 3.23978C36.7911 4.34308 37.0297 5.51589 37.0568 6.70306C37.247 8.33355 37.4445 10.0165 37.807 10.0165L37.8696 10.0007C38.1603 9.85322 38.3445 8.83158 38.522 7.84349C38.6941 6.88714 38.8568 5.98431 39.115 5.87264C39.2476 5.81485 39.3912 5.97277 39.5515 6.35403C39.9312 7.44334 40.2331 8.55819 40.4553 9.69018C40.8918 11.6075 41.3434 13.5907 41.858 13.7572C42.0575 13.8198 42.2552 13.6145 42.4615 13.1209L42.4997 13.2041C42.3079 13.6628 42.1205 13.8885 41.9298 13.8885Z" fill="white"/>
<path d="M41.8046 13.4026L41.7342 13.3907C41.2294 13.2293 40.8032 11.2995 40.3914 9.43318C40.1872 8.35884 39.9095 7.29979 39.5602 6.26351C39.4245 5.93054 39.3055 5.79022 39.2019 5.83541C38.9879 5.92638 38.8416 6.76571 38.6866 7.65487C38.5165 8.62846 38.3408 9.63546 38.0452 9.79006C37.6245 10.0041 37.4336 8.32807 37.232 6.54868C37.2051 5.44076 36.9935 4.34508 36.6055 3.30695C36.4302 3.13 36.2413 3.15842 36.0426 3.39293C35.0265 5.62195 34.4587 8.02904 34.3716 10.4772L34.3227 10.4552C34.3746 7.97422 34.953 5.53261 36.0197 3.29209C36.2337 3.04081 36.4374 3.01132 36.6262 3.20385C37.0348 4.26309 37.2561 5.38531 37.2802 6.52038C37.4574 8.0825 37.6398 9.6948 37.9763 9.6948L38.034 9.67958C38.3041 9.53854 38.4749 8.55948 38.6405 7.61265C38.8004 6.6946 38.9519 5.8272 39.1929 5.72469C39.3174 5.66916 39.4487 5.82351 39.5972 6.18681C39.9502 7.23156 40.2309 8.29947 40.4369 9.38288C40.8426 11.2228 41.2628 13.126 41.7413 13.2789C41.9271 13.3411 42.1083 13.1385 42.2986 12.6686L42.335 12.746C42.1562 13.1864 41.9817 13.4026 41.8046 13.4026Z" fill="white"/>
<path d="M41.6888 12.9372L41.6258 12.9275C41.1558 12.7782 40.7592 10.9266 40.3764 9.13504C40.1867 8.10688 39.9288 7.09252 39.6042 6.09868C39.4786 5.78156 39.3684 5.6448 39.2739 5.68841C39.0742 5.77225 38.9381 6.57769 38.7936 7.43117C38.6359 8.36421 38.4725 9.32852 38.1981 9.47658C37.8069 9.68837 37.6298 8.07678 37.4425 6.37279C37.418 5.31224 37.2212 4.26274 36.8598 3.26532C36.7017 3.09883 36.5304 3.12083 36.3511 3.33192C35.3931 5.47625 34.8617 7.78663 34.7868 10.1341L34.7405 10.1141C34.8165 7.73979 35.3562 5.40331 36.3294 3.23631C36.5224 3.01036 36.7075 2.98658 36.8797 3.16757C37.2598 4.18528 37.4656 5.25986 37.4882 6.34604C37.6613 7.92516 37.8402 9.55494 38.1868 9.37157C38.4374 9.2366 38.596 8.29856 38.7494 7.39169C38.8987 6.50943 39.0396 5.67664 39.2648 5.58186C39.3821 5.53429 39.5026 5.67926 39.6388 6.02602C39.9669 7.02792 40.2275 8.05069 40.4185 9.08747C40.796 10.8529 41.1867 12.6797 41.6314 12.8203C41.8037 12.8755 41.9704 12.6824 42.1461 12.2351L42.1817 12.3065C42.0156 12.7302 41.8535 12.9372 41.6888 12.9372Z" fill="white"/>
<path d="M41.5813 12.4913L41.525 12.4821C41.0871 12.3455 40.7183 10.5676 40.362 8.84799C40.1861 7.86389 39.9468 6.89222 39.6452 5.93911C39.5294 5.6367 39.4285 5.50981 39.3403 5.54537C39.1543 5.62219 39.0217 6.43239 38.8932 7.21618C38.7469 8.10962 38.5959 9.03374 38.3403 9.17585C38.2738 9.21307 38.2103 9.19035 38.1513 9.10854C37.8401 8.16984 37.6671 7.19088 37.6377 6.2024C37.6154 5.18794 37.433 4.18339 37.0972 3.22586C36.9545 3.06995 36.799 3.08755 36.6368 3.27592C35.7335 5.3386 35.2364 7.55614 35.1728 9.80707L35.1291 9.78875C35.1939 7.5125 35.6992 5.27035 36.6168 3.18626C36.7917 2.98267 36.96 2.96566 37.1162 3.13453C37.47 4.11152 37.6607 5.13999 37.6809 6.17885C37.7148 7.14489 37.8807 8.10173 38.1745 9.02268C38.2232 9.09106 38.2739 9.10996 38.3299 9.07821C38.5621 8.94931 38.7096 8.05016 38.852 7.18074C38.9908 6.33404 39.1221 5.53395 39.3327 5.44679C39.4409 5.40659 39.5521 5.54359 39.6789 5.87335C39.9835 6.83389 40.2251 7.81323 40.4024 8.80518C40.7538 10.5002 41.1173 12.2529 41.5315 12.3829C41.6888 12.4304 41.8438 12.2486 42.0063 11.822L42.0398 11.888C41.8853 12.2927 41.7346 12.4913 41.5813 12.4913Z" fill="white"/>
<path d="M41.4813 12.0644L41.4311 12.0562C41.0232 11.9304 40.6805 10.2249 40.3489 8.57462C40.1854 7.63233 39.963 6.70124 39.6829 5.7868C39.5759 5.49925 39.4835 5.37677 39.4016 5.40995C39.2288 5.4807 39.105 6.25808 38.9853 7.01071C38.8492 7.86693 38.7087 8.75181 38.4712 8.88821C38.4108 8.92245 38.3522 8.90271 38.2986 8.82875C38.0056 7.92685 37.8439 6.98754 37.8183 6.03962C37.7976 5.06892 37.6285 4.10709 37.3166 3.18759C37.1871 3.0431 37.0465 3.05464 36.9004 3.2241C36.0491 5.20771 35.5843 7.33559 35.5307 9.4935L35.4897 9.47662C35.544 7.29444 36.0165 5.14297 36.8818 3.13895C37.0418 2.95487 37.1937 2.94416 37.3359 3.10244C37.6679 4.03926 37.8449 5.02395 37.8601 6.01774C37.8899 6.94409 38.0448 7.86214 38.3209 8.74693C38.3659 8.80889 38.4117 8.82375 38.4618 8.79628C38.6776 8.67213 38.8142 7.81151 38.9464 6.97872C39.0759 6.1652 39.1979 5.3971 39.3944 5.31648C39.4918 5.27592 39.5979 5.40947 39.7155 5.72579C39.9985 6.64699 40.2228 7.5852 40.3872 8.53478C40.7141 10.1612 41.052 11.8431 41.437 11.9623C41.5828 12.0069 41.7252 11.8303 41.8749 11.4247L41.907 11.486C41.7637 11.8739 41.624 12.0644 41.4813 12.0644Z" fill="white"/>
<path d="M41.3888 11.6551L41.3447 11.648C40.9641 11.5322 40.6456 9.89462 40.3372 8.31157C40.186 7.40972 39.9794 6.518 39.7188 5.64148C39.6219 5.37249 39.5368 5.25071 39.4594 5.27949C39.2985 5.34418 39.1835 6.091 39.0722 6.81355C38.9462 7.63409 38.8153 8.48126 38.595 8.61219C38.5391 8.6443 38.4863 8.62649 38.4368 8.5588C38.1612 7.6927 38.0102 6.79177 37.9884 5.88312C37.9693 4.95429 37.8124 4.03346 37.5223 3.15084C37.4048 3.01516 37.2778 3.02396 37.1448 3.17463C36.3427 5.08157 35.9082 7.12291 35.8642 9.19121L35.8249 9.17682C35.8695 7.08547 36.3113 5.02168 37.1268 3.09531C37.2713 2.93061 37.4104 2.92216 37.5394 3.07152C37.8486 3.97073 38.0132 4.91331 38.0269 5.8641C38.0527 6.75212 38.1975 7.63269 38.457 8.48234C38.4972 8.53846 38.5395 8.55309 38.5844 8.52526C38.7848 8.40635 38.9118 7.58176 39.0347 6.78417C39.1549 6.00311 39.2685 5.26498 39.4518 5.19161C39.5431 5.15677 39.6403 5.2833 39.7491 5.58464C40.0125 6.46789 40.2211 7.36662 40.3733 8.27565C40.6773 9.83646 40.9917 11.4501 41.35 11.5597L41.3888 11.5651C41.5089 11.5651 41.6294 11.3938 41.7545 11.0441L41.7847 11.1009C41.6514 11.4724 41.5214 11.6551 41.3888 11.6551Z" fill="white"/>
<path d="M41.3025 11.2633L41.2623 11.2573C40.909 11.1511 40.6122 9.5805 40.3254 8.06119C40.1852 7.19758 39.9935 6.34313 39.7512 5.50242C39.6612 5.24472 39.5798 5.12961 39.5116 5.15541C39.3617 5.21487 39.2547 5.93207 39.1512 6.62584C39.0341 7.4113 38.9134 8.22316 38.7084 8.34838C38.6579 8.37918 38.609 8.36289 38.5635 8.30082C38.3042 7.46904 38.163 6.60499 38.1441 5.73395C38.1265 4.84511 37.9806 3.96347 37.7111 3.11631C37.6048 2.99013 37.4899 2.99513 37.3701 3.12986C36.6147 4.96339 36.2084 6.92185 36.1719 8.90457L36.136 8.8903C36.1728 6.88583 36.5859 4.90613 37.3541 3.05435C37.4849 2.90689 37.6114 2.90142 37.729 3.04115C38.0163 3.90415 38.1688 4.80635 38.1809 5.71588C38.204 6.56728 38.3395 7.4119 38.5835 8.22792C38.62 8.27929 38.6585 8.29083 38.6993 8.26609C38.9553 7.7463 39.0976 7.17785 39.1165 6.59873C39.2284 5.84811 39.3345 5.13971 39.5059 5.07205C39.5892 5.03887 39.6804 5.16136 39.7809 5.4489C40.0251 6.29617 40.2187 7.15729 40.3602 8.02766C40.6429 9.52521 40.935 11.0732 41.2675 11.1733C41.3923 11.2072 41.5134 11.0484 41.6415 10.6798L41.6707 10.7319C41.5469 11.0888 41.4257 11.2633 41.3025 11.2633Z" fill="white"/>
<path d="M41.2223 10.8879L41.1867 10.8828C40.8571 10.785 40.5814 9.27736 40.3144 7.81965C40.1845 6.99294 40.0065 6.1745 39.7813 5.36849C39.6981 5.12293 39.6254 5.01055 39.5603 5.03552C39.421 5.08963 39.3214 5.77876 39.2251 6.44447C39.1163 7.19675 39.0035 7.97484 38.813 8.0953C38.7673 8.12408 38.7224 8.11053 38.681 8.05333C38.4374 7.2548 38.3057 6.42638 38.2894 5.5917C38.2734 4.74063 38.1382 3.89601 37.8877 3.08251C37.7912 2.96443 37.6872 2.96514 37.5785 3.08763C36.8473 4.84361 36.4669 6.7258 36.459 8.62794L36.4243 8.61474C36.4535 6.69432 36.8396 4.79608 37.5631 3.01687C37.682 2.88226 37.7969 2.88118 37.9045 3.01318C38.1713 3.84163 38.3127 4.70536 38.3238 5.57565C38.3444 6.39178 38.4706 7.20182 38.6992 7.98554L38.8041 8.01872C39.0427 7.51849 39.1749 6.97417 39.1922 6.42021C39.2961 5.70004 39.3944 5.01947 39.5548 4.95751C39.6331 4.92671 39.7165 5.04551 39.8094 5.31985C40.0366 6.13183 40.2161 6.9564 40.3472 7.78933C40.6104 9.22634 40.8824 10.7124 41.1916 10.804C41.3048 10.8352 41.4175 10.6826 41.5364 10.3307L41.5642 10.3783C41.4495 10.7204 41.3372 10.8879 41.2223 10.8879Z" fill="white"/>
<path d="M41.1482 10.5277L41.117 10.5233C40.8099 10.4334 40.5534 8.98819 40.3055 7.58982C40.1846 6.79785 40.0192 6.01335 39.8098 5.2401C39.7332 5.00702 39.6657 4.89975 39.6058 4.92175C39.4763 4.97075 39.3839 5.63217 39.2939 6.27113C39.2809 6.81933 39.1505 7.35836 38.9116 7.85191C38.8693 7.87962 38.8284 7.86714 38.7905 7.81505C38.5614 7.04822 38.4383 6.25372 38.4243 5.45356C38.4096 4.63965 38.2842 3.83152 38.0517 3.0514C37.9635 2.93973 37.8693 2.94009 37.7715 3.0483C37.1084 4.74358 36.754 6.54385 36.725 8.36398L36.6924 8.35209C36.7149 6.51146 37.0757 4.69065 37.7568 2.98052C37.8651 2.86077 37.9695 2.8616 38.0674 2.98528C38.3152 3.77972 38.4465 4.60595 38.4569 5.4381C38.4743 6.22084 38.5922 6.99809 38.8076 7.75083L38.9027 7.77997C39.1246 7.29887 39.2473 6.7779 39.263 6.24829C39.3599 5.5569 39.4511 4.90451 39.6005 4.84779L39.6222 4.84303C39.6891 4.84303 39.7591 4.95874 39.8362 5.19479C40.0476 5.97347 40.2144 6.76358 40.3357 7.56128C40.5802 8.93907 40.8329 10.3642 41.1205 10.4482L41.1474 10.4516C41.2435 10.4516 41.3389 10.3018 41.4394 9.9946L41.4658 10.0395C41.3597 10.3675 41.2552 10.5277 41.1482 10.5277Z" fill="white"/>
<path d="M40.2838 3.48622C41.0227 3.48622 41.6216 2.88725 41.6216 2.14839C41.6216 1.40952 41.0227 0.810547 40.2838 0.810547C39.5449 0.810547 38.946 1.40952 38.946 2.14839C38.946 2.88725 39.5449 3.48622 40.2838 3.48622Z" stroke="white" stroke-width="2"/>
</g>
<path d="M79.72 23.28H74.56L73.288 27H70L76.048 10.08H78.472L84.52 27H81.064L79.72 23.28ZM75.4 20.64H79L77.752 16.896L77.248 14.256H77.128L76.624 16.92L75.4 20.64ZM92.5233 17.928C92.0273 17.752 91.5793 17.664 91.1793 17.664C90.6193 17.664 90.1473 17.816 89.7633 18.12C89.3953 18.408 89.1473 18.784 89.0193 19.248V27H85.8993V15H88.3233L88.6833 16.584H88.7793C89.0513 15.992 89.4193 15.536 89.8833 15.216C90.3473 14.896 90.8913 14.736 91.5153 14.736C91.9313 14.736 92.4033 14.824 92.9313 15L92.5233 17.928ZM93.7919 15H95.4479V12.744L98.5679 11.856V15H101.496V17.64H98.5679V22.248C98.5679 23.08 98.6479 23.68 98.8079 24.048C98.9839 24.4 99.3039 24.576 99.7679 24.576C100.088 24.576 100.36 24.544 100.584 24.48C100.824 24.416 101.088 24.32 101.376 24.192L101.928 26.592C101.496 26.8 100.992 26.976 100.416 27.12C99.8399 27.264 99.2559 27.336 98.6639 27.336C97.5599 27.336 96.7439 27.056 96.2159 26.496C95.7039 25.92 95.4479 24.984 95.4479 23.688V17.64H93.7919V15ZM103.671 15H106.791V27H103.671V15ZM103.215 11.616C103.215 11.152 103.383 10.76 103.719 10.44C104.071 10.104 104.551 9.936 105.159 9.936C105.767 9.936 106.255 10.104 106.623 10.44C107.007 10.76 107.199 11.152 107.199 11.616C107.199 12.08 107.007 12.472 106.623 12.792C106.255 13.096 105.767 13.248 105.159 13.248C104.551 13.248 104.071 13.096 103.719 12.792C103.383 12.472 103.215 12.08 103.215 11.616ZM118.348 26.256C117.868 26.608 117.284 26.872 116.596 27.048C115.924 27.24 115.228 27.336 114.508 27.336C113.548 27.336 112.732 27.184 112.06 26.88C111.404 26.576 110.868 26.152 110.452 25.608C110.036 25.048 109.732 24.376 109.54 23.592C109.364 22.808 109.276 21.944 109.276 21C109.276 18.968 109.732 17.408 110.644 16.32C111.556 15.216 112.884 14.664 114.628 14.664C115.508 14.664 116.212 14.736 116.74 14.88C117.284 15.024 117.772 15.208 118.204 15.432L117.46 17.976C117.092 17.8 116.724 17.664 116.356 17.568C116.004 17.472 115.596 17.424 115.132 17.424C114.268 17.424 113.612 17.712 113.164 18.288C112.716 18.848 112.492 19.752 112.492 21C112.492 21.512 112.548 21.984 112.66 22.416C112.772 22.848 112.94 23.224 113.164 23.544C113.388 23.864 113.676 24.12 114.028 24.312C114.396 24.488 114.82 24.576 115.3 24.576C115.828 24.576 116.276 24.512 116.644 24.384C117.012 24.24 117.34 24.072 117.628 23.88L118.348 26.256ZM123.235 15V21.816C123.235 22.792 123.347 23.496 123.571 23.928C123.811 24.36 124.267 24.576 124.939 24.576C125.531 24.576 126.019 24.4 126.403 24.048C126.803 23.696 127.099 23.264 127.291 22.752V15H130.411V23.352C130.411 24.008 130.443 24.656 130.507 25.296C130.571 25.92 130.667 26.488 130.795 27H128.443L127.891 25.224H127.795C127.427 25.832 126.915 26.336 126.259 26.736C125.603 27.136 124.827 27.336 123.931 27.336C123.323 27.336 122.779 27.256 122.299 27.096C121.819 26.936 121.419 26.672 121.099 26.304C120.779 25.936 120.531 25.44 120.355 24.816C120.195 24.192 120.115 23.408 120.115 22.464V15H123.235ZM136.365 22.968C136.365 23.528 136.437 23.936 136.581 24.192C136.725 24.448 136.957 24.576 137.277 24.576C137.469 24.576 137.653 24.56 137.829 24.528C138.021 24.496 138.253 24.424 138.525 24.312L138.861 26.76C138.605 26.888 138.213 27.016 137.685 27.144C137.157 27.272 136.613 27.336 136.053 27.336C135.141 27.336 134.445 27.128 133.965 26.712C133.485 26.28 133.245 25.576 133.245 24.6V10.2H136.365V22.968ZM140.132 15.696C140.772 15.408 141.532 15.184 142.412 15.024C143.292 14.848 144.212 14.76 145.172 14.76C146.004 14.76 146.7 14.864 147.26 15.072C147.82 15.264 148.26 15.544 148.58 15.912C148.916 16.28 149.148 16.72 149.276 17.232C149.42 17.744 149.492 18.32 149.492 18.96C149.492 19.664 149.468 20.376 149.42 21.096C149.372 21.8 149.34 22.496 149.324 23.184C149.324 23.872 149.348 24.544 149.396 25.2C149.444 25.84 149.564 26.448 149.756 27.024H147.212L146.708 25.368H146.588C146.268 25.864 145.82 26.296 145.244 26.664C144.684 27.016 143.956 27.192 143.06 27.192C142.5 27.192 141.996 27.112 141.548 26.952C141.1 26.776 140.716 26.536 140.396 26.232C140.076 25.912 139.828 25.544 139.652 25.128C139.476 24.696 139.388 24.216 139.388 23.688C139.388 22.952 139.548 22.336 139.868 21.84C140.204 21.328 140.676 20.92 141.284 20.616C141.908 20.296 142.644 20.08 143.492 19.968C144.356 19.84 145.316 19.8 146.372 19.848C146.484 18.952 146.42 18.312 146.18 17.928C145.94 17.528 145.404 17.328 144.572 17.328C143.948 17.328 143.284 17.392 142.58 17.52C141.892 17.648 141.324 17.816 140.876 18.024L140.132 15.696ZM144.092 24.624C144.716 24.624 145.212 24.488 145.58 24.216C145.948 23.928 146.22 23.624 146.396 23.304V21.744C145.9 21.696 145.42 21.688 144.956 21.72C144.508 21.752 144.108 21.824 143.756 21.936C143.404 22.048 143.124 22.208 142.916 22.416C142.708 22.624 142.604 22.888 142.604 23.208C142.604 23.656 142.732 24.008 142.988 24.264C143.26 24.504 143.628 24.624 144.092 24.624ZM150.862 15H152.518V12.744L155.638 11.856V15H158.566V17.64H155.638V22.248C155.638 23.08 155.718 23.68 155.878 24.048C156.054 24.4 156.374 24.576 156.838 24.576C157.158 24.576 157.43 24.544 157.654 24.48C157.894 24.416 158.158 24.32 158.446 24.192L158.998 26.592C158.566 26.8 158.062 26.976 157.486 27.12C156.91 27.264 156.326 27.336 155.734 27.336C154.63 27.336 153.814 27.056 153.286 26.496C152.774 25.92 152.518 24.984 152.518 23.688V17.64H150.862V15ZM169.96 25.968C169.48 26.352 168.824 26.68 167.992 26.952C167.176 27.208 166.304 27.336 165.376 27.336C163.44 27.336 162.024 26.776 161.128 25.656C160.232 24.52 159.784 22.968 159.784 21C159.784 18.888 160.288 17.304 161.296 16.248C162.304 15.192 163.72 14.664 165.544 14.664C166.152 14.664 166.744 14.744 167.32 14.904C167.896 15.064 168.408 15.328 168.856 15.696C169.304 16.064 169.664 16.56 169.936 17.184C170.208 17.808 170.344 18.584 170.344 19.512C170.344 19.848 170.32 20.208 170.272 20.592C170.24 20.976 170.184 21.376 170.104 21.792H162.904C162.952 22.8 163.208 23.56 163.672 24.072C164.152 24.584 164.92 24.84 165.976 24.84C166.632 24.84 167.216 24.744 167.728 24.552C168.256 24.344 168.656 24.136 168.928 23.928L169.96 25.968ZM165.496 17.16C164.68 17.16 164.072 17.408 163.672 17.904C163.288 18.384 163.056 19.032 162.976 19.848H167.44C167.504 18.984 167.368 18.32 167.032 17.856C166.712 17.392 166.2 17.16 165.496 17.16ZM180.9 23.28H175.74L174.468 27H171.18L177.228 10.08H179.652L185.7 27H182.244L180.9 23.28ZM176.58 20.64H180.18L178.932 16.896L178.428 14.256H178.308L177.804 16.92L176.58 20.64ZM187.487 10.2H190.775V27H187.487V10.2Z" fill="white"/>
<defs>
<clipPath id="clip0_70_1263">
<rect width="55" height="35.6757" fill="white" transform="translate(0 0.662109)"/>
</clipPath>
</defs>
</svg>
