<svg width="36" height="36" viewBox="0 0 36 36" fill="none" xmlns="http://www.w3.org/2000/svg">
<path d="M29.61 6.39C29.486 6.26573 29.3387 6.16714 29.1765 6.09987C29.0144 6.0326 28.8406 5.99797 28.665 5.99797C28.4894 5.99797 28.3156 6.0326 28.1535 6.09987C27.9913 6.16714 27.844 6.26573 27.72 6.39L6.39 27.72C6.1425 27.9726 6.00268 28.3114 6 28.665C5.9996 28.9293 6.07768 29.1878 6.22434 29.4077C6.37101 29.6277 6.57965 29.7991 6.82384 29.9003C7.06803 30.0015 7.33677 30.0279 7.596 29.9763C7.85523 29.9246 8.09329 29.7971 8.28 29.61L29.61 8.28C29.7343 8.156 29.8329 8.0087 29.9001 7.84654C29.9674 7.68439 30.002 7.51056 30.002 7.335C30.002 7.15944 29.9674 6.98561 29.9001 6.82346C29.8329 6.6613 29.7343 6.514 29.61 6.39ZM10.05 21.945C7.42219 18.4793 5.9999 14.2493 6 9.9C6.00395 8.86687 6.41611 7.87719 7.14665 7.14665C7.87719 6.41611 8.86687 6.00395 9.9 6H10.395L12 12.96L11.175 13.395C9.87 14.07 8.925 14.565 9.42 15.765C9.98008 17.3724 10.7736 18.8886 11.775 20.265L13.92 18.135C13.4647 17.4576 13.0635 16.7454 12.72 16.005C14.565 15 14.58 15 14.775 14.775C14.9501 14.5958 15.0775 14.3757 15.1456 14.1346C15.2137 13.8936 15.2204 13.6393 15.165 13.395L13.11 4.5C13.0525 4.25204 12.9328 4.02281 12.7622 3.83387C12.5916 3.64493 12.3758 3.5025 12.135 3.42C11.7847 3.29488 11.423 3.20445 11.055 3.15C10.6759 3.06209 10.289 3.01185 9.9 3C8.07001 3 6.31496 3.72696 5.02096 5.02096C3.72696 6.31496 3 8.07001 3 9.9C3.00131 15.0456 4.72841 20.042 7.905 24.09L10.05 21.945ZM32.91 24.96C32.847 24.5874 32.7516 24.221 32.625 23.865C32.5425 23.6242 32.4001 23.4084 32.2111 23.2378C32.0222 23.0672 31.793 22.9475 31.545 22.89L22.545 20.835C22.3007 20.7796 22.0464 20.7863 21.8054 20.8544C21.5643 20.9225 21.3442 21.0499 21.165 21.225C20.955 21.42 20.94 21.435 19.965 23.295C19.2311 22.9482 18.5242 22.547 17.85 22.095L15.705 24.24C17.054 25.2294 18.5395 26.0176 20.115 26.58C21.375 27.09 21.87 26.145 22.545 24.84L22.98 24.015L30 25.605V26.1C29.996 27.1331 29.5839 28.1228 28.8534 28.8534C28.1228 29.5839 27.1331 29.996 26.1 30C21.7661 29.9903 17.5534 28.5685 14.1 25.95L11.91 28.095C15.958 31.2716 20.9544 32.9987 26.1 33C27.0061 33 27.9034 32.8215 28.7405 32.4748C29.5777 32.128 30.3383 31.6198 30.979 30.979C31.6198 30.3383 32.128 29.5777 32.4748 28.7405C32.8215 27.9034 33 27.0061 33 26.1C33.0005 25.7182 32.9704 25.337 32.91 24.96Z" fill="white"/>
</svg>
