<svg width="60" height="32" viewBox="0 0 60 32" fill="none" xmlns="http://www.w3.org/2000/svg">
<path d="M27.3334 2.66667V29.3333C27.3334 30.8073 28.5261 32 30.0001 32C31.474 32 32.6667 30.8073 32.6667 29.3333V2.66667C32.6667 1.19271 31.474 0 30.0001 0C28.5261 0 27.3334 1.19271 27.3334 2.66667ZM35.3334 8V24C35.3334 25.474 36.5261 26.6667 38.0001 26.6667C39.474 26.6667 40.6667 25.474 40.6667 24V8C40.6667 6.52604 39.474 5.33333 38.0001 5.33333C36.5261 5.33333 35.3334 6.52604 35.3334 8ZM43.3334 18.6667C43.3334 20.1406 44.5261 21.3333 46.0001 21.3333C47.474 21.3333 48.6667 20.1406 48.6667 18.6667V13.3333C48.6667 11.8594 47.474 10.6667 46.0001 10.6667C44.5261 10.6667 43.3334 11.8594 43.3334 13.3333V18.6667ZM14.0001 10.6667C12.5261 10.6667 11.3334 11.8594 11.3334 13.3333V18.6667C11.3334 20.1406 12.5261 21.3333 14.0001 21.3333C15.474 21.3333 16.6667 20.1406 16.6667 18.6667V13.3333C16.6667 11.8594 15.474 10.6667 14.0001 10.6667ZM22.0001 5.33333C20.5261 5.33333 19.3334 6.52604 19.3334 8V24C19.3334 25.474 20.5261 26.6667 22.0001 26.6667C23.474 26.6667 24.6667 25.474 24.6667 24V8C24.6667 6.52604 23.474 5.33333 22.0001 5.33333ZM6.00008 18.6667C7.47404 18.6667 8.66675 17.474 8.66675 16C8.66675 14.526 7.47404 13.3333 6.00008 13.3333H3.33341C1.85946 13.3333 0.666748 14.526 0.666748 16C0.666748 17.474 1.85946 18.6667 3.33341 18.6667H6.00008ZM56.6667 13.3333H54.0001C52.5261 13.3333 51.3334 14.526 51.3334 16C51.3334 17.474 52.5261 18.6667 54.0001 18.6667H56.6667C58.1407 18.6667 59.3334 17.474 59.3334 16C59.3334 14.526 58.1407 13.3333 56.6667 13.3333Z" fill="white"/>
</svg>
