<svg width="37" height="37" viewBox="0 0 37 37" fill="none" xmlns="http://www.w3.org/2000/svg">
<path d="M17.954 7.2125C18.0948 6.64226 18.9054 6.64226 19.0462 7.2125L20.1958 11.8692C20.7967 14.3033 22.6972 16.2038 25.1313 16.8047L29.7881 17.9543C30.3582 18.095 30.3582 18.9057 29.7881 19.0465L25.1313 20.196C22.6972 20.7969 20.7967 22.6974 20.1958 25.1315L19.0462 29.7883C18.9054 30.3584 18.0948 30.3584 17.954 29.7883L16.8044 25.1315C16.2035 22.6974 14.303 20.7969 11.8689 20.196L7.21225 19.0465C6.64202 18.9057 6.64202 18.095 7.21225 17.9543L11.8689 16.8047C14.303 16.2038 16.2035 14.3033 16.8044 11.8692L17.954 7.2125ZM9.22705 6.10643C9.29744 5.8213 9.70278 5.8213 9.77318 6.10643L9.86177 6.46533C10.1873 7.78377 11.2167 8.8132 12.5351 9.1387L12.894 9.22729C13.1792 9.29769 13.1792 9.70302 12.894 9.77342L12.5351 9.86201C11.2167 10.1875 10.1873 11.2169 9.86177 12.5354L9.77318 12.8943C9.70278 13.1794 9.29744 13.1794 9.22705 12.8943L9.13845 12.5354C8.81296 11.2169 7.78353 10.1875 6.46509 9.86201L6.10618 9.77342C5.82105 9.70302 5.82105 9.29769 6.10618 9.22729L6.46509 9.1387C7.78353 8.8132 8.81296 7.78377 9.13845 6.46533L9.22705 6.10643Z" stroke="white"/>
</svg>
